<svg xmlns="http://www.w3.org/2000/svg" width="230" height="230" viewBox="0 0 230 230" fill="none"><g fill="#222"><path d="M112.489 201.74c0-12.112-9.818-21.929-21.927-21.929-12.112 0-21.93 9.817-21.93 21.927 0 12.111 9.818 21.929 21.93 21.929 12.102-.013 21.914-9.822 21.927-21.927Zm-36.079 0c0-7.817 6.335-14.152 14.152-14.152 7.814 0 14.149 6.335 14.149 14.15 0 7.816-6.335 14.151-14.15 14.151-7.812-.009-14.142-6.339-14.15-14.149ZM171.759 223.667c12.112.002 21.929-9.816 21.929-21.927.003-12.112-9.815-21.929-21.927-21.929-12.111 0-21.929 9.817-21.929 21.929.015 12.103 9.822 21.912 21.927 21.927Zm0-36.079c7.815 0 14.152 6.335 14.152 14.15.002 7.814-6.335 14.151-14.15 14.151-7.814 0-14.151-6.335-14.151-14.149.008-7.811 6.339-14.141 14.149-14.152ZM3.889 13.89H27.61a15.773 15.773 0 0 1 15.651 13.37L62.04 145.875c1.773 11.502 11.694 19.976 23.333 19.931h116.071a3.89 3.89 0 0 0 0-7.778H85.373a15.775 15.775 0 0 1-15.651-13.37l-3.192-20.167h118.877a23.637 23.637 0 0 0 22.322-15.888l22.055-63.654a3.886 3.886 0 0 0-3.674-5.165H53.118l-2.174-13.743C49.17 14.54 39.249 6.066 27.61 6.112H3.89a3.89 3.89 0 0 0 0 7.777Zm216.757 33.675-20.265 58.492a15.856 15.856 0 0 1-14.974 10.657H65.297l-10.948-69.15 166.297.001Z"/></g></svg>