<svg xmlns="http://www.w3.org/2000/svg" width="538" height="338.87" viewBox="0 0 538 338.87"><g fill="#66454a"><path d="M98.332 0c.895 0 1.342.751 1.342 2.237V42.06c0 1.494-.523 2.237-1.562 2.237-1.2 0-1.873-.743-2.017-2.237a53.076 53.076 0 0 0-3.694-13.871 40.521 40.521 0 0 0-7.49-11.853 35.109 35.109 0 0 0-11.636-8.282 38.857 38.857 0 0 0-16.108-3.132A43.88 43.88 0 0 0 45.199 6.6a32.739 32.739 0 0 0-10.518 5.034 26.293 26.293 0 0 0-7.493 8.615 24.747 24.747 0 0 0-2.9 12.195 23.5 23.5 0 0 0 3.58 12.968 21.009 21.009 0 0 0 10.511 8.282q6.268 2.469 11.414 4.141t9.836 3.018c3.14.895 6.188 1.714 9.176 2.465s6.184 1.638 9.619 2.682q15.209 4.471 22.259 14.872t7.045 25.4a53.27 53.27 0 0 1-3.917 20.47 51.654 51.654 0 0 1-10.625 16.442 48.134 48.134 0 0 1-15.888 10.853 50.209 50.209 0 0 1-19.908 3.913 43.809 43.809 0 0 1-11.3-1.456 62.694 62.694 0 0 1-10.291-3.686 60.708 60.708 0 0 1-8.729-4.922 59.634 59.634 0 0 1-6.6-5.149l-8.048 11.633c-1.047 1.494-2.01 2.237-2.9 2.237q-2.014 0-2.017-2.9v-40.05q0-3.128 1.57-3.132 1.786 0 2.457 2.912a64.238 64.238 0 0 0 7.045 17 49.085 49.085 0 0 0 10.853 12.748 48.072 48.072 0 0 0 13.651 7.94 43 43 0 0 0 15.43 2.797 39.462 39.462 0 0 0 13.651-2.457 37.669 37.669 0 0 0 11.849-6.939A33.639 33.639 0 0 0 95.427 118.8a32.945 32.945 0 0 0-2.685-12.87q-2.685-6.37-10.291-9.958-6.041-2.9-10.633-4.581t-9.055-3.132q-4.482-1.456-9.624-3.018t-12.528-4.033q-15.437-5.142-22.706-14.986a35.7 35.7 0 0 1-7.273-21.7 44.2 44.2 0 0 1 3.132-16.553A40.861 40.861 0 0 1 22.941 14.1a44.752 44.752 0 0 1 14.652-9.626A50.687 50.687 0 0 1 57.167.895a71.961 71.961 0 0 1 9.51.561 50.083 50.083 0 0 1 7.827 1.676 46.2 46.2 0 0 1 7.273 2.912q3.572 1.786 7.607 4.027l6.491-8.281C96.77.6 97.581 0 98.332 0M161.45 107.676l29.744-29.547h-17.08v-3.208h37.578v3.208h-15.878L172.5 101.647l35.978 48.84h14.068v3.216h-48.632v-3.22h14.065l-27.735-39.592h-4.421v39.6h14.068v3.216h-47.429v-3.224h16.077V21.864h-16.077v-3.223h33.361v89.035ZM264.351 150.487h15.07v3.216h-47.43v-3.216h15.077v-72.35h-15.077v-3.215h32.36Zm-1.41-105.309a10.688 10.688 0 0 1-14.872 0 10.1 10.1 0 0 1-3.011-7.432 10.284 10.284 0 0 1 10.451-10.45 10.3 10.3 0 0 1 10.45 10.45 10.106 10.106 0 0 1-3.018 7.432M332.773 78.334q6.939-5.017 17.989-5.028 9.237 0 15.175 4.019t5.923 14.47v58.684h14.068v3.223h-45.419v-3.223h14.068V93.206q0-7.838-2.707-11.459c-1.813-2.4-4.656-3.618-8.547-3.618a14.963 14.963 0 0 0-7.736 2.211 26.417 26.417 0 0 0-6.628 5.627 31.8 31.8 0 0 0-4.725 7.334 17.612 17.612 0 0 0-1.813 7.339v49.839h14.075v3.223h-45.419v-3.223h14.06v-72.35h-14.06v-3.208h31.344v15.267a32.855 32.855 0 0 1 10.352-11.854"/><path d="M138.671 286.42H99.28l-12.862-19.9c-.538.4-2.207 1.782-5.021 4.118a81.519 81.519 0 0 1-11.156 7.538 94.308 94.308 0 0 1-16.078 7.235 59.854 59.854 0 0 1-20 3.216q-15.482 0-24.822-8.441T0 256.275q0-15.278 11.254-27.84 11.251-12.548 34.166-23.412l-9.45-14.262a17.6 17.6 0 0 1-2.814-6.234 29.115 29.115 0 0 1-.8-6.628 27.176 27.176 0 0 1 2.108-10.655 25.883 25.883 0 0 1 6.136-8.847 29.416 29.416 0 0 1 9.745-6.029 35.247 35.247 0 0 1 12.76-2.207q10.853 0 18.088 5.119t7.235 15.175a26.823 26.823 0 0 1-1.3 8.646 21.54 21.54 0 0 1-4.328 7.235 41.208 41.208 0 0 1-7.94 6.725 132.23 132.23 0 0 1-12.16 7.138l33.763 51.449a83.951 83.951 0 0 0 16.283-21.705 77.187 77.187 0 0 0 7.629-22.3H102.5v-3.219h39.19v3.216H124.6a89.684 89.684 0 0 1-8.236 24.921 92.757 92.757 0 0 1-17.084 23.312l18.285 27.332h21.106ZM21.3 252.452a45.835 45.835 0 0 0 6.234 12.263 38.629 38.629 0 0 0 9.541 9.442 21.235 21.235 0 0 0 12.362 3.822 30.2 30.2 0 0 0 9.146-1.509 64.709 64.709 0 0 0 9.146-3.716 66.6 66.6 0 0 0 8.441-5.028q4.016-2.81 7.432-5.225l-35.968-54.263a121.25 121.25 0 0 0-12.361 6.833 47.957 47.957 0 0 0-8.941 7.235 26.528 26.528 0 0 0-5.43 8.244 25.747 25.747 0 0 0-1.813 9.844 38.353 38.353 0 0 0 2.211 12.058m54.266-86.115a19.631 19.631 0 0 0-2.715-6.431 16.813 16.813 0 0 0-5.021-4.922 13.982 13.982 0 0 0-7.743-2.01 18.083 18.083 0 0 0-10.845 3.314q-4.63 3.31-4.626 10.147a29.148 29.148 0 0 0 .607 5.832 14.9 14.9 0 0 0 2.609 5.824l12.657 18.893a53.48 53.48 0 0 0 6.833-3.815 19.987 19.987 0 0 0 5.028-4.725 19.243 19.243 0 0 0 3.018-6.431 35.73 35.73 0 0 0 1-9.146 29.71 29.71 0 0 0-.8-6.53M188.406 212.659a21.014 21.014 0 0 1 4.224-3.716 25.64 25.64 0 0 1 6.029-2.92 26.69 26.69 0 0 1 8.54-1.205 30.913 30.913 0 0 1 12.961 3.117 42.55 42.55 0 0 1 12.263 8.646 44.827 44.827 0 0 1 9.048 13.264 40.817 40.817 0 0 1 .5 31.951 50.174 50.174 0 0 1-8.039 13.568 42.017 42.017 0 0 1-11.861 9.851 28.908 28.908 0 0 1-14.265 3.815 24.389 24.389 0 0 1-7.94-1.206 26.481 26.481 0 0 1-6.333-3.117 25 25 0 0 1-4.823-4.217 50.622 50.622 0 0 1-3.413-4.323v10.246h-32.558v-3.212h15.274V154.575h-15.274v-3.216h32.56v65.123c.933-1.213 1.972-2.48 3.109-3.822m.607 63.105a28.844 28.844 0 0 0 4.823 5.028 25.015 25.015 0 0 0 6.029 3.617 18.645 18.645 0 0 0 7.334 1.4 13.028 13.028 0 0 0 6.234-1.608 14.755 14.755 0 0 0 5.422-5.529 33.65 33.65 0 0 0 3.822-10.648 85.589 85.589 0 0 0 1.4-16.988v-9.036a96.98 96.98 0 0 0-1.3-17.784q-1.308-6.735-3.716-10.352a11.33 11.33 0 0 0-5.627-4.725 21.6 21.6 0 0 0-7.038-1.1 19.78 19.78 0 0 0-7.736 1.4 21.607 21.607 0 0 0-5.832 3.618 28.5 28.5 0 0 0-4.315 4.725 59.367 59.367 0 0 0-3.216 4.925v47.225a44.484 44.484 0 0 0 3.716 5.832M279.649 285.111a44.835 44.835 0 0 1-12.56-10.355 46.96 46.96 0 0 1-8.04-13.666 39.669 39.669 0 0 1-2.814-14.068 39.7 39.7 0 0 1 2.814-14.068 47.158 47.158 0 0 1 8.04-13.666 44.94 44.94 0 0 1 12.56-10.344 32.893 32.893 0 0 1 16.38-4.126 32.893 32.893 0 0 1 16.381 4.126 43.77 43.77 0 0 1 12.46 10.344 48.606 48.606 0 0 1 7.94 13.666 39.869 39.869 0 0 1 2.814 14.068 39.837 39.837 0 0 1-2.814 14.068 48.4 48.4 0 0 1-7.94 13.666 43.671 43.671 0 0 1-12.46 10.355 32.893 32.893 0 0 1-16.381 4.126 32.893 32.893 0 0 1-16.38-4.126m-2.51-33.862a147.73 147.73 0 0 0 .705 15.577 33.279 33.279 0 0 0 2.715 10.746 13.823 13.823 0 0 0 5.726 6.333 19.59 19.59 0 0 0 9.744 2.106 19.61 19.61 0 0 0 9.745-2.108 13.317 13.317 0 0 0 5.627-6.333 35.544 35.544 0 0 0 2.616-10.746 149.811 149.811 0 0 0 .705-15.577v-8.646a140.142 140.142 0 0 0-.705-14.872 37.837 37.837 0 0 0-2.616-10.845 13.825 13.825 0 0 0-5.627-6.636 18.939 18.939 0 0 0-9.745-2.214 18.92 18.92 0 0 0-9.745 2.214 14.336 14.336 0 0 0-5.726 6.636 35.36 35.36 0 0 0-2.715 10.845 138.149 138.149 0 0 0-.705 14.872ZM395.506 151.359h32.558v131.842h15.281v3.223h-32.557V275.97a39.718 39.718 0 0 1-9.048 9.245 22.02 22.02 0 0 1-13.469 4.019 27.706 27.706 0 0 1-12.657-3.42 43.772 43.772 0 0 1-12.058-9.245 50.064 50.064 0 0 1-8.942-13.568 38.653 38.653 0 0 1-.3-31.549 49.519 49.519 0 0 1 8.441-13.469 42.237 42.237 0 0 1 12.055-9.54 29.615 29.615 0 0 1 14.068-3.618q14.47 0 21.91 10.853v-61.1h-15.282ZM372 251.648a101.949 101.949 0 0 0 1.107 16.48 34.17 34.17 0 0 0 3.216 10.549 13.109 13.109 0 0 0 5.324 5.627 15.513 15.513 0 0 0 7.432 1.714 18.77 18.77 0 0 0 11.96-4.224 42.1 42.1 0 0 0 9.753-11.656V223.11a58.273 58.273 0 0 0-3.322-5.021 34 34 0 0 0-4.421-4.93 20.269 20.269 0 0 0-5.824-3.716 19.25 19.25 0 0 0-7.538-1.4q-9.647 0-13.666 7.531T372 241.801ZM492.375 207.639v3.216h-15.471l23.305 54.665 20.909-54.665h-14.871v-3.216h31.754v3.216h-13.265l-41.4 108.123a35.381 35.381 0 0 1-9.449 14.569 19.373 19.373 0 0 1-13.059 5.324q-5.233 0-7.743-2.305a8.609 8.609 0 0 1-.7-11.361 6.36 6.36 0 0 1 5.225-2.207 8.074 8.074 0 0 1 4.823 1.3 9.767 9.767 0 0 1 3.014 3.925c.4.8.774 1.471 1.107 2.01a2.318 2.318 0 0 0 2.108.8q2.81 0 5.931-3.216 3.106-3.219 5.726-9.851l11.656-30.745-33.56-76.366h-13.268v-3.216Z"/></g></svg>