<svg xmlns="http://www.w3.org/2000/svg" width="554.363" height="191.91" viewBox="0 0 554.363 191.91"><g fill="#968181"><path d="M1.129 191.91a1.131 1.131 0 0 1-.47-2.157c3.151-1.425 35.306-16.093 73.015-37.2-15.831-6.887-28.426-15.939-35.229-27.756-9.992-17.341-6.209-38.9 11.24-64.071C64.914 38.763 115.165 3.434 156.194.23c16.416-1.287 29.351 2.843 38.348 12.28 8.089 8.474 11.116 18.327 8.982 29.281-7.11 36.623-70.619 79.732-124.59 110.346 51.784 20.307 134.3 19.521 160.35 17.426 104.685-8.463 244.19-57.847 308.284-135.869l.239-.223c3.02-2.011 5.054-2.534 6.04-1.572 1.156 1.117.185 3.089-1.032 5.054a1.128 1.128 0 1 1-1.918-1.186 13.251 13.251 0 0 0 1.04-1.949 14.68 14.68 0 0 0-2.735 1.441C484.66 113.688 344.57 163.322 239.47 171.812c-32.247 2.6-112.758 2.619-163.208-18.165C37.79 175.3 4.788 190.362 1.591 191.81a1.112 1.112 0 0 1-.462.1M161.887 2.256q-2.681 0-5.516.223c-38.98 3.043-89.677 37.671-104.83 59.533-16.917 24.4-20.661 45.135-11.147 61.66 6.771 11.756 19.7 20.676 35.906 27.4 53.917-30.4 117.973-73.469 125.014-109.715 1.98-10.2-.847-19.375-8.4-27.294-7.488-7.85-17.911-11.81-31.03-11.81"/><path d="M78.38 72.954c-.116.185-.354.57-.724 1.156s-.84 1.263-1.4 2.041-1.233 1.6-2 2.488a24.291 24.291 0 0 1-2.427 2.45 15.576 15.576 0 0 1-2.727 1.91 6.913 6.913 0 0 1-2.858.886 7.57 7.57 0 0 1-3.829-.547 7.783 7.783 0 0 1-2.411-1.687 18.665 18.665 0 0 1-2.1 3.035 17.554 17.554 0 0 1-2.565 2.465 13.888 13.888 0 0 1-2.85 1.718 8.876 8.876 0 0 1-2.95.755 5.845 5.845 0 0 1-4.454-1.289 9.563 9.563 0 0 1-2.658-4.145 24.125 24.125 0 0 1-1.2-6.232 73.355 73.355 0 0 1-.146-7.55c.069-2.642.254-5.323.524-8.043s.57-5.308.871-7.758q.878-7.049 1.918-12.226a90.32 90.32 0 0 1 2.172-8.844 37.7 37.7 0 0 1 2.342-5.978 17.568 17.568 0 0 1 2.38-3.636 7.466 7.466 0 0 1 2.311-1.864 6.059 6.059 0 0 1 2.163-.605 3.9 3.9 0 0 1 2.8.778 5.94 5.94 0 0 1 1.8 2.635 14.477 14.477 0 0 1 .786 4.237 32.634 32.634 0 0 1-.24 5.55 55.688 55.688 0 0 1-2.272 10.11q-1.676 5.258-3.944 10.531t-4.9 10.4q-2.623 5.119-5.146 9.714a27.913 27.913 0 0 0 .277 4.183 13.945 13.945 0 0 0 .94 3.49 5.974 5.974 0 0 0 1.71 2.342 3.489 3.489 0 0 0 2.565.74 6.078 6.078 0 0 0 2.974-1.1 11.236 11.236 0 0 0 2.619-2.488 15.3 15.3 0 0 0 1.941-3.359 14.277 14.277 0 0 0 1.025-3.767 14.092 14.092 0 0 0 .069-2.55 7.551 7.551 0 0 0-.478-2.257 3.8 3.8 0 0 0-1.073-1.567 2.328 2.328 0 0 0-1.749-.5 2.489 2.489 0 0 0-1.3.431 3.2 3.2 0 0 0-.763.832 2.939 2.939 0 0 0-.377.855c-.062.277-.1.455-.108.547a3.021 3.021 0 0 0 .108 1.256 1.993 1.993 0 0 0 .894 1.055 1.4 1.4 0 0 1 .57 1.441 1.906 1.906 0 0 1-.663 1.263 2.025 2.025 0 0 1-1.2.539 2.123 2.123 0 0 1-1.518-.424 3.69 3.69 0 0 1-1.017-1.3 6.323 6.323 0 0 1-.539-1.733 6.124 6.124 0 0 1-.046-1.749 7.455 7.455 0 0 1 .747-2.465 7.379 7.379 0 0 1 3.4-3.359 6.253 6.253 0 0 1 2.18-.585 5.215 5.215 0 0 1 3.22.655 5.705 5.705 0 0 1 2.061 2.232 9.263 9.263 0 0 1 .963 3.3 16.343 16.343 0 0 1-.031 3.829 19.661 19.661 0 0 1-.408 2.234 6.327 6.327 0 0 0 .462.909 4.2 4.2 0 0 0 .932 1.055 5.318 5.318 0 0 0 1.494.832 4.905 4.905 0 0 0 2.142.247 4.54 4.54 0 0 0 2.319-1 17.734 17.734 0 0 0 2.457-2.249 34.861 34.861 0 0 0 4.075-5.593 2.4 2.4 0 0 1 .716-.755 2.04 2.04 0 0 1 .924-.316 1.283 1.283 0 0 1 1.163.455 1.527 1.527 0 0 1 .316 1.194 2.253 2.253 0 0 1-.262.74m-33.862-3.287q1.988-3.929 4.075-8.243t3.883-8.765a107.028 107.028 0 0 0 3.151-8.967 53.521 53.521 0 0 0 1.891-8.823c.139-1.094.223-2.234.27-3.413a17.512 17.512 0 0 0-.154-3.259 6.577 6.577 0 0 0-.786-2.411 1.654 1.654 0 0 0-1.641-.871 1.953 1.953 0 0 0-.978.547 7.368 7.368 0 0 0-1.394 1.772 23.535 23.535 0 0 0-1.669 3.425 49.572 49.572 0 0 0-1.818 5.508c-.608 2.223-1.225 4.892-1.83 7.992s-1.171 6.741-1.687 10.924c-.169 1.387-.331 2.8-.478 4.237s-.285 2.8-.4 4.106-.216 2.488-.285 3.574-.131 1.972-.154 2.665"/><path d="M81.6 80.223a5.155 5.155 0 0 0 2.157 1.934 6.746 6.746 0 0 0 3.521.524 8.953 8.953 0 0 0 4.114-1.356 17.886 17.886 0 0 0 3.613-3.043 30.173 30.173 0 0 0 3.12-4.052 68.467 68.467 0 0 0 2.627-4.422 2.22 2.22 0 0 1 .724-.8 1.925 1.925 0 0 1 .924-.316 1.265 1.265 0 0 1 1.163.455 1.48 1.48 0 0 1 .324 1.148 1.733 1.733 0 0 1-.092.393 2.117 2.117 0 0 1-.177.347 43.514 43.514 0 0 1-8.019 10.9 14.816 14.816 0 0 1-8.7 4.2 9.489 9.489 0 0 1-4.961-.778 8.128 8.128 0 0 1-3.165-2.738 10.237 10.237 0 0 1-1.541-4.006 15.693 15.693 0 0 1-.1-4.576 16.954 16.954 0 0 1 1.094-4.314 13.765 13.765 0 0 1 2.034-3.528 10.458 10.458 0 0 1 2.78-2.456 7.436 7.436 0 0 1 3.3-1.048 4.554 4.554 0 0 1 1.988.277 4.356 4.356 0 0 1 1.656 1.094 4.591 4.591 0 0 1 1.063 1.833 5.939 5.939 0 0 1 .169 2.55 11.2 11.2 0 0 1-1.055 3.544 15.283 15.283 0 0 1-2.1 3.166 19.846 19.846 0 0 1-2.941 2.784 23.739 23.739 0 0 1-3.521 2.288m-.978-2.85a14.559 14.559 0 0 0 2.719-1.687 14.422 14.422 0 0 0 2.188-2.142 12.212 12.212 0 0 0 1.541-2.388 8.176 8.176 0 0 0 .744-2.461 2.512 2.512 0 0 0-.416-2.018 1.705 1.705 0 0 0-1.479-.585 3.71 3.71 0 0 0-2.142.832 6.713 6.713 0 0 0-1.61 1.872 11.361 11.361 0 0 0-1.086 2.488 16.429 16.429 0 0 0-.57 2.673 10.456 10.456 0 0 0-.062 1.718 15.968 15.968 0 0 0 .169 1.695"/><path d="M137.009 68.507c-.154.254-.455.778-.932 1.579s-1.068 1.718-1.768 2.761-1.5 2.142-2.411 3.289a30.731 30.731 0 0 1-2.974 3.189 18.957 18.957 0 0 1-3.366 2.473 8.447 8.447 0 0 1-3.6 1.148 5.1 5.1 0 0 1-4.16-1.356 7.577 7.577 0 0 1-2.048-4.043 17.483 17.483 0 0 1-4.129 4.376 8.627 8.627 0 0 1-4.4 1.841 6.429 6.429 0 0 1-2.92-.393 4.962 4.962 0 0 1-2.072-1.556 6.428 6.428 0 0 1-1.125-2.5 9.286 9.286 0 0 1-.108-3.228 17.384 17.384 0 0 1 1.957-6.332 18.872 18.872 0 0 1 3.582-4.745 16.221 16.221 0 0 1 4.383-3.028 12.924 12.924 0 0 1 4.391-1.225 7.424 7.424 0 0 1 2.5.2 9.684 9.684 0 0 1 1.88.693 5.405 5.405 0 0 1 1.179.747q.393.347.439.393a1.581 1.581 0 0 1 .347 1.186 2.19 2.19 0 0 1-.647 1.24 1.887 1.887 0 0 1-1.225.609 1.36 1.36 0 0 1-1.156-.408 2.319 2.319 0 0 0-.362-.308 3.748 3.748 0 0 0-.77-.462 6 6 0 0 0-2.881-.462 9.016 9.016 0 0 0-3.028.855 10.832 10.832 0 0 0-3.1 2.188 14.748 14.748 0 0 0-2.6 3.521 13.836 13.836 0 0 0-1.456 4.853 9.315 9.315 0 0 0-.046 1.733 4.091 4.091 0 0 0 .426 1.571A2.57 2.57 0 0 0 105.88 80a3.211 3.211 0 0 0 1.818.308 4.869 4.869 0 0 0 1.926-.678 9 9 0 0 0 2.211-1.833 15.419 15.419 0 0 0 2.111-2.989 17.274 17.274 0 0 0 1.595-4.168 2.175 2.175 0 0 1 .716-1.117 2.042 2.042 0 0 1 1.209-.508 1.182 1.182 0 0 1 1.04.416 1.442 1.442 0 0 1 .37 1.094 85.01 85.01 0 0 0-.116 2.419 14.037 14.037 0 0 0 .216 3.066 6.067 6.067 0 0 0 1.079 2.573 2.616 2.616 0 0 0 2.465.94 5.045 5.045 0 0 0 2.188-.747 13.544 13.544 0 0 0 2.249-1.718 21.857 21.857 0 0 0 2.2-2.373c.724-.87 1.379-1.756 2-2.642s1.152-1.734 1.652-2.55c.478-.817.886-1.525 1.225-2.118a2.206 2.206 0 0 1 .755-.817 1.863 1.863 0 0 1 .94-.339 1.221 1.221 0 0 1 1.163.478 1.53 1.53 0 0 1 .331 1.163 2.458 2.458 0 0 1-.216.647"/><path d="M149.661 75.078a18.2 18.2 0 0 1-4.152 4.36 8.617 8.617 0 0 1-4.368 1.81 6.357 6.357 0 0 1-2.966-.416 5.164 5.164 0 0 1-2.1-1.618 6.256 6.256 0 0 1-1.156-2.681 11.621 11.621 0 0 1-.054-3.644 26.145 26.145 0 0 1 1.294-5.67 31.82 31.82 0 0 1 1.833-4.206 22.679 22.679 0 0 1 2.388-3.536 1.833 1.833 0 0 1 .609-.447 2.015 2.015 0 0 1 .709-.185 1.226 1.226 0 0 1 1.117.431 1.428 1.428 0 0 1 .324 1.171 1.564 1.564 0 0 1-.177.547c-.1.193-.2.377-.316.562-.185.285-.47.724-.871 1.3a21.7 21.7 0 0 0-1.3 2.28 26.143 26.143 0 0 0-1.333 3.274 21.078 21.078 0 0 0-.924 4.229 5.842 5.842 0 0 0 .555 3.99 2.849 2.849 0 0 0 2.8 1.156 4.987 4.987 0 0 0 1.926-.655 9.672 9.672 0 0 0 2.257-1.764 13.921 13.921 0 0 0 2.111-2.9 14.729 14.729 0 0 0 1.471-4.021l1.641-7.865a2.306 2.306 0 0 1 .716-1.171 2.063 2.063 0 0 1 1.225-.547 1.185 1.185 0 0 1 1.132.478 1.741 1.741 0 0 1 .285 1.262l-1.518 7.58a14.291 14.291 0 0 0-.247 2.5 13.4 13.4 0 0 0 .277 3 5.559 5.559 0 0 0 1.156 2.457 2.81 2.81 0 0 0 2.465.871 5.547 5.547 0 0 0 2.357-.786 13.334 13.334 0 0 0 2.35-1.772 20.33 20.33 0 0 0 2.18-2.388c.686-.87 1.325-1.756 1.926-2.642s1.117-1.726 1.572-2.519.832-1.479 1.14-2.041a2.338 2.338 0 0 1 .724-.817 1.764 1.764 0 0 1 .924-.339 1.243 1.243 0 0 1 1.186.447 1.537 1.537 0 0 1 .3 1.148 1.968 1.968 0 0 1-.216.693c-.146.254-.447.77-.878 1.572-.447.793-1 1.71-1.672 2.735s-1.461 2.101-2.378 3.251a28.568 28.568 0 0 1-2.966 3.212 18.006 18.006 0 0 1-3.39 2.5 8.735 8.735 0 0 1-3.713 1.156 5.439 5.439 0 0 1-4.2-1.194 7.065 7.065 0 0 1-2.057-4.145"/><path d="M209.957 30.604a1.779 1.779 0 0 1-.632 1.194 2.152 2.152 0 0 1-1.263.524l-22.687 1.687-.062.493a48.02 48.02 0 0 1-1.132 5.939q-.786 3.155-1.872 6.325-1.075 3.155-2.311 6.178c-.832 2.011-1.649 3.867-2.465 5.577s-1.6 3.2-2.35 4.468a20.916 20.916 0 0 1-1.949 2.873 23.771 23.771 0 0 0 .9 3.775 13.271 13.271 0 0 0 1.425 3 6.691 6.691 0 0 0 1.91 1.949 3.878 3.878 0 0 0 2.411.585 5.834 5.834 0 0 0 3.274-1.572 24.882 24.882 0 0 0 3.259-3.39 44.113 44.113 0 0 0 2.789-3.9q1.236-1.964 1.826-3.128a2.033 2.033 0 0 1 1.7-1.209 1.265 1.265 0 0 1 1.163.455 1.511 1.511 0 0 1 .324 1.148 2.064 2.064 0 0 1-.216.647q-.173.324-.832 1.5a48.01 48.01 0 0 1-1.664 2.735 61.687 61.687 0 0 1-2.311 3.289 25.211 25.211 0 0 1-2.843 3.2 18.8 18.8 0 0 1-3.2 2.488 7.6 7.6 0 0 1-3.428 1.156 7.074 7.074 0 0 1-5.292-1.633 12.243 12.243 0 0 1-3.474-5.408 30.464 30.464 0 0 1-1.541-8.528 62.623 62.623 0 0 1 .47-10.962c.123-1 .285-2.172.485-3.521s.431-2.781.7-4.283.6-3.066.978-4.661c.377-1.61.809-3.174 1.294-4.715l-16.061 1.21a1.48 1.48 0 0 1-1.156-.339 1.213 1.213 0 0 1-.347-1.125 1.813 1.813 0 0 1 .632-1.194 2.123 2.123 0 0 1 1.263-.516l16.825-1.256a24.673 24.673 0 0 1 1.425-3.074 14.285 14.285 0 0 1 1.672-2.457 8.608 8.608 0 0 1 1.941-1.7 4.848 4.848 0 0 1 2.2-.724 2.879 2.879 0 0 1 1.872.424 3.493 3.493 0 0 1 1.217 1.464 7.222 7.222 0 0 1 .624 2.3 20.758 20.758 0 0 1 .146 2.958l22.864-1.7a1.51 1.51 0 0 1 1.156.339 1.219 1.219 0 0 1 .347 1.125m-37.197 30.782A71.36 71.36 0 0 0 176 54.74q1.537-3.548 2.75-7.149c.817-2.4 1.51-4.745 2.072-7.041a55.63 55.63 0 0 0 1.2-6.294l-5.285.393a65.019 65.019 0 0 0-1.872 7.041c-.593 2.8-1.132 6.163-1.625 10.13-.277 2.211-.439 4.06-.508 5.554a32.8 32.8 0 0 0 .031 4.021m8.368-34.273q-.4.035-1.271.971a12.719 12.719 0 0 0-1.918 3.312l4.3-.316a11.429 11.429 0 0 0-.285-2.95c-.185-.7-.462-1.048-.824-1.017"/><path d="M207.877 76.423q1.768-1.71 3.582-3.482c1.209-1.186 2.4-2.427 3.559-3.705s2.273-2.627 3.313-4.006a41.185 41.185 0 0 0 2.873-4.376 2.055 2.055 0 0 1 .716-.793 1.925 1.925 0 0 1 .924-.316 1.265 1.265 0 0 1 1.163.455 1.5 1.5 0 0 1 .316 1.186 1.822 1.822 0 0 1-.216.693 42.887 42.887 0 0 1-3.84 5.644q-2.092 2.588-4.337 4.93c-1.494 1.572-3 3.089-4.507 4.568s-2.966 2.958-4.368 4.437a58.732 58.732 0 0 0-.778 6.294q-.208 3.143-.647 6.679-.358 2.912-.9 5.832a67.933 67.933 0 0 1-1.271 5.6 40.889 40.889 0 0 1-1.71 5.054 20.524 20.524 0 0 1-2.265 4.152 11.935 11.935 0 0 1-2.835 2.866 6.828 6.828 0 0 1-3.482 1.223q-3.178.243-4.6-1.864-1.421-2.092-.932-6.094a28.37 28.37 0 0 1 1.048-4.707 52.68 52.68 0 0 1 1.964-5.262 67.486 67.486 0 0 1 2.7-5.523q1.514-2.82 3.228-5.508c1.132-1.795 2.319-3.505 3.559-5.146s2.473-3.128 3.705-4.483q.358-2.184.755-4.53t.786-4.353a13.906 13.906 0 0 1-3.3 3.574 7.473 7.473 0 0 1-3.944 1.548 5.362 5.362 0 0 1-5.038-1.918c-1.086-1.448-1.471-3.521-1.132-6.217a25.8 25.8 0 0 1 1.225-5.423 40.305 40.305 0 0 1 1.726-4.268 23.066 23.066 0 0 1 1.52-2.761 8.6 8.6 0 0 1 .647-.924 1.971 1.971 0 0 1 1.483-.882 1.332 1.332 0 0 1 1.171.431 1.517 1.517 0 0 1 .312 1.175 1.965 1.965 0 0 1-.377.932c.031-.031-.139.223-.524.778a20.014 20.014 0 0 0-1.31 2.365 34.43 34.43 0 0 0-1.472 3.663 23.087 23.087 0 0 0-1.04 4.622 6.522 6.522 0 0 0 .416 3.836 2.574 2.574 0 0 0 2.735 1.194q2.542-.185 5.084-4.183a50.39 50.39 0 0 0 4.869-11.4 1.963 1.963 0 0 1 .655-1.017 1.883 1.883 0 0 1 1.125-.47 1.334 1.334 0 0 1 1.14.416 1.4 1.4 0 0 1 .347 1.186c-.015.092-.146.632-.385 1.625s-.539 2.311-.909 3.96-.77 3.559-1.217 5.731-.886 4.5-1.31 6.964m-4.769 9.891a74.337 74.337 0 0 0-4.46 6.494q-2.08 3.4-3.69 6.71a56.788 56.788 0 0 0-2.642 6.317 26.4 26.4 0 0 0-1.325 5.315 6.932 6.932 0 0 0 .3 3.644 2.056 2.056 0 0 0 2.249 1.156 4.1 4.1 0 0 0 2.8-1.664 15.645 15.645 0 0 0 2.45-4.345 43.929 43.929 0 0 0 2-6.694 87.944 87.944 0 0 0 1.477-8.726c.162-1.3.3-2.612.424-3.944s.254-2.75.416-4.26M237.829 74.3a45.33 45.33 0 0 0 6.448-3.9 50.363 50.363 0 0 0 5.339-4.468 39.609 39.609 0 0 0 4.168-4.676 35.488 35.488 0 0 0 2.927-4.468 1.912 1.912 0 0 1 1.641-1.109 1.312 1.312 0 0 1 1.171.431 1.449 1.449 0 0 1 .324 1.132 2.174 2.174 0 0 1-.216.678 45.067 45.067 0 0 1-3.081 4.8 41.755 41.755 0 0 1-4.269 4.943 48.921 48.921 0 0 1-5.631 4.807 50.676 50.676 0 0 1-7.149 4.4 22.3 22.3 0 0 1 3.505 5.339 31.306 31.306 0 0 1 2.172 6.254 38.009 38.009 0 0 1 .743 13.177 29.3 29.3 0 0 1-1.186 5.423 19.016 19.016 0 0 1-2.065 4.491 11.331 11.331 0 0 1-2.8 3.1 6.337 6.337 0 0 1-3.4 1.317 3.937 3.937 0 0 1-3.913-1.71 11.622 11.622 0 0 1-1.471-5.431 49.223 49.223 0 0 1 .231-8.335q.485-4.842 1.186-10.508.347-2.82.817-6.556c.308-2.5.647-5.177 1.017-8.043s.755-5.862 1.156-9 .817-6.271 1.233-9.429.832-6.24 1.24-9.291.809-5.932 1.2-8.659q1.109-7.823 2.265-13.982a82.742 82.742 0 0 1 2.59-10.438 22 22 0 0 1 3.236-6.6 5.816 5.816 0 0 1 4.184-2.498 4.112 4.112 0 0 1 3.051.824 5.929 5.929 0 0 1 1.749 2.712 14.061 14.061 0 0 1 .639 4.114 34.172 34.172 0 0 1-.262 5.007 65.337 65.337 0 0 1-2.273 10.793 85.1 85.1 0 0 1-3.79 10.222 106.622 106.622 0 0 1-4.953 9.768q-2.75 4.8-5.762 9.475c-.154 1.24-.324 2.581-.5 4.014l-.532 4.322q-.266 2.149-.532 4.129c-.177 1.317-.331 2.457-.447 3.428m-.693 5.585c-.239 1.91-.462 3.69-.686 5.339s-.408 3.158-.578 4.522q-.52 4.218-.994 8.351a71.842 71.842 0 0 0-.493 7.4 20.131 20.131 0 0 0 .508 5.223q.532 1.964 2.011 1.849a3.215 3.215 0 0 0 2.342-1.387 12.113 12.113 0 0 0 1.679-3 23.749 23.749 0 0 0 1.071-3.474c.262-1.179.439-2.126.532-2.85a33.928 33.928 0 0 0 .208-5.778 32.035 32.035 0 0 0-.824-5.893 31.771 31.771 0 0 0-1.857-5.554 20.064 20.064 0 0 0-2.92-4.738m3.659-28.48q2.265-3.64 4.291-7.627a90.099 90.099 0 0 0 3.652-8.212 83.878 83.878 0 0 0 2.8-8.582 64.39 64.39 0 0 0 1.695-8.713 35.04 35.04 0 0 0 .289-3.945 13.864 13.864 0 0 0-.254-2.981 4.151 4.151 0 0 0-.832-1.864 1.6 1.6 0 0 0-1.414-.594 2.412 2.412 0 0 0-1.7 1.2 14 14 0 0 0-1.525 3 41.4 41.4 0 0 0-1.348 4.237q-.624 2.38-1.163 4.969t-.993 5.161c-.3 1.71-.57 3.32-.793 4.822-.239 1.5-.431 2.827-.585 3.983l-.347 2.588c-.177 1.209-.331 2.288-.462 3.228s-.27 1.864-.408 2.773-.285 1.887-.431 2.912-.3 2.242-.47 3.636"/><path d="M278.047 64.169a9.3 9.3 0 0 1-1.941-.039 17.114 17.114 0 0 1-1.926 2.635 14.153 14.153 0 0 1-2.419 2.188 13.43 13.43 0 0 1-2.92 1.564 11.573 11.573 0 0 1-3.374.747 8.8 8.8 0 0 1-3.759-.462 7.093 7.093 0 0 1-2.781-1.864 7.22 7.22 0 0 1-1.618-3.074 10.99 10.99 0 0 1-.2-4.1 13.371 13.371 0 0 1 1.656-5.138 18.544 18.544 0 0 1 2.82-3.767 13.751 13.751 0 0 1 2.943-2.334 6.065 6.065 0 0 1 2.1-.855 1.251 1.251 0 0 1 1.094.324 1.337 1.337 0 0 1 .247 1.063 1.771 1.771 0 0 1-.616 1.194 9.447 9.447 0 0 1-1.279.84 11.354 11.354 0 0 0-1.649 1.132 10.964 10.964 0 0 0-1.7 1.764 11.392 11.392 0 0 0-1.433 2.45 11 11 0 0 0-.822 3.071 8.127 8.127 0 0 0 .1 2.758 4.886 4.886 0 0 0 1.025 2.142 4.563 4.563 0 0 0 1.833 1.3 5.637 5.637 0 0 0 2.527.331 8.267 8.267 0 0 0 4.375-1.531 10.465 10.465 0 0 0 2.958-3.251 8.722 8.722 0 0 1-3.841-3.671 9.06 9.06 0 0 1-.986-5.685 8.167 8.167 0 0 1 1.756-4.314 4.84 4.84 0 0 1 3.444-1.872 4.1 4.1 0 0 1 2.211.416 4.027 4.027 0 0 1 1.672 1.726 8.882 8.882 0 0 1 .917 3.166 19.483 19.483 0 0 1-.1 4.73 15.509 15.509 0 0 1-.732 3.074 4.04 4.04 0 0 0 .532.008l.578-.046a10.174 10.174 0 0 0 2.773-.57 8.8 8.8 0 0 0 2.326-1.248 10.436 10.436 0 0 0 2-2 24.9 24.9 0 0 0 1.826-2.742 1.732 1.732 0 0 1 .647-.57 2.17 2.17 0 0 1 .924-.316 1.291 1.291 0 0 1 1.032.4 1.337 1.337 0 0 1 .362 1.209 2.428 2.428 0 0 1-.277.8c-.154.3-.308.578-.455.824a24.949 24.949 0 0 1-2.1 2.75 14.512 14.512 0 0 1-2.635 2.35 14.973 14.973 0 0 1-3.251 1.7 12.825 12.825 0 0 1-3.867.786m-6.227-10.87a7.424 7.424 0 0 0 0 1.8 6.911 6.911 0 0 0 .462 1.826 6.987 6.987 0 0 0 .94 1.687 5.054 5.054 0 0 0 1.456 1.31 14.327 14.327 0 0 0 .37-1.872 17.717 17.717 0 0 0 .123-2.481 13.049 13.049 0 0 0-.223-2.3 4.643 4.643 0 0 0-.616-1.664 1.127 1.127 0 0 0-1.079-.57 1.627 1.627 0 0 0-.763.462 2.927 2.927 0 0 0-.67 1.8"/><path d="M294.597 49.394a24.332 24.332 0 0 1-.732 2.326c-.27.724-.516 1.356-.747 1.9s-.424.978-.585 1.325a3.392 3.392 0 0 1-.285.562 2.018 2.018 0 0 1-1.7 1.156 1.384 1.384 0 0 1-1.1-.393 1.257 1.257 0 0 1-.385-1.156.878.878 0 0 1 .139-.416c.069-.1.185-.285.339-.562s.354-.747.616-1.4.6-1.649 1.032-3c-.508.039-1.025.062-1.556.069a4.4 4.4 0 0 1-1.464-.208 1.947 1.947 0 0 1-1.032-.778 2.354 2.354 0 0 1-.246-1.6 8.236 8.236 0 0 1 .686-2.118 17.223 17.223 0 0 1 1.464-2.673 13.934 13.934 0 0 1 1.876-2.317 3.208 3.208 0 0 1 1.9-1.071 1.7 1.7 0 0 1 1.579.655 4.227 4.227 0 0 1 .778 1.81 11.49 11.49 0 0 1 .223 2.3 15.886 15.886 0 0 1-.108 2.126q.763-.058 1.5-.139c.493-.046.971-.092 1.417-.123a5.032 5.032 0 0 1 3.752.847q1.2 1.028.878 3.621a21.013 21.013 0 0 1-.4 2.188c-.185.763-.385 1.548-.609 2.365s-.416 1.61-.609 2.4a22.118 22.118 0 0 0-.416 2.326 6.526 6.526 0 0 0 .108 2.665 3.794 3.794 0 0 0 .909 1.625 2.976 2.976 0 0 0 1.325.778 4.061 4.061 0 0 0 1.356.146 7.149 7.149 0 0 0 3.782-1.541 23.415 23.415 0 0 0 3.513-3.3 37.729 37.729 0 0 0 3.035-3.983 99.72 99.72 0 0 0 2.342-3.636 2.206 2.206 0 0 1 .7-.686 2.046 2.046 0 0 1 .878-.293 1.288 1.288 0 0 1 1.186.431 1.47 1.47 0 0 1 .308 1.125 2.214 2.214 0 0 1-.277.832 379.676 379.676 0 0 1-2.92 4.383 40.273 40.273 0 0 1-3.652 4.607 24.439 24.439 0 0 1-4.337 3.744 10.154 10.154 0 0 1-4.941 1.77 7.079 7.079 0 0 1-2.966-.385 5.376 5.376 0 0 1-2.257-1.595 6.783 6.783 0 0 1-1.331-2.736 10.327 10.327 0 0 1-.146-3.79 24.687 24.687 0 0 1 1.009-4.545 24.8 24.8 0 0 0 .978-4.329 1.7 1.7 0 0 0-.223-1.271c-.216-.262-.755-.362-1.625-.3-.416.031-.87.062-1.364.1s-1.025.092-1.595.162m-2.58-3.135c.023-.208.054-.493.077-.84a9.105 9.105 0 0 0 .039-1.017 4.477 4.477 0 0 0-.069-.847c-.046-.239-.116-.354-.2-.347s-.216.131-.377.37-.339.516-.532.847a11.061 11.061 0 0 0-.524 1.048 22.81 22.81 0 0 0-.385.932ZM372.102 49.624a35.552 35.552 0 0 1-1.217 4.795 18.54 18.54 0 0 1-2.072 4.4 12.146 12.146 0 0 1-3.135 3.313 8.347 8.347 0 0 1-4.353 1.518 6.706 6.706 0 0 1-2.7-.277 5.082 5.082 0 0 1-1.9-1.117 5.468 5.468 0 0 1-1.225-1.71 10.034 10.034 0 0 1-.716-2.08 16.63 16.63 0 0 1-4.2 4.337 9.032 9.032 0 0 1-4.406 1.749 6.5 6.5 0 0 1-2.989-.408 4.986 4.986 0 0 1-2.1-1.625 6.707 6.707 0 0 1-1.145-2.68 11.066 11.066 0 0 1-.085-3.636 28.009 28.009 0 0 1 1.333-5.924 28.6 28.6 0 0 1 1.841-4.168 22.278 22.278 0 0 1 2.388-3.328 1.978 1.978 0 0 1 .616-.447 1.933 1.933 0 0 1 .709-.185 1.242 1.242 0 0 1 1.117.431 1.483 1.483 0 0 1 .324 1.171 2.7 2.7 0 0 1-.493 1.117c-.146.185-.416.555-.824 1.094a14.976 14.976 0 0 0-1.31 2.165 24.061 24.061 0 0 0-1.364 3.3 22.563 22.563 0 0 0-.978 4.53 5.766 5.766 0 0 0 .57 3.983 2.912 2.912 0 0 0 2.827 1.163 5.592 5.592 0 0 0 2.118-.678 8.64 8.64 0 0 0 2.3-1.764 12.857 12.857 0 0 0 2.041-2.9 14.694 14.694 0 0 0 1.387-4.021l1.548-7.85a1.966 1.966 0 0 1 .702-1.173 2.066 2.066 0 0 1 1.24-.539 1.185 1.185 0 0 1 1.14.47 1.775 1.775 0 0 1 .285 1.263l-1.417 7.534a18.6 18.6 0 0 0-.354 4.121 6.835 6.835 0 0 0 .609 2.766 3.226 3.226 0 0 0 1.456 1.51 4.112 4.112 0 0 0 2.126.362 4.892 4.892 0 0 0 2.843-1.163 8.585 8.585 0 0 0 2.105-2.724 18.393 18.393 0 0 0 1.441-3.86 37.347 37.347 0 0 0 .847-4.591 29.231 29.231 0 0 0 .277-4.738 21.491 21.491 0 0 1 0-2.519 2.1 2.1 0 0 1 .647-1.24 1.954 1.954 0 0 1 1.271-.616 1.315 1.315 0 0 1 1.025.308 1.416 1.416 0 0 1 .454.978l.139 1.025c.085.562.2 1.233.37 2.018a17.6 17.6 0 0 0 .74 2.465 9.609 9.609 0 0 0 1.263 2.357 6.54 6.54 0 0 0 1.864 1.733 4.444 4.444 0 0 0 2.619.547 3.37 3.37 0 0 0 1.494-.455 5.364 5.364 0 0 0 1.818-1.772c.162-.285.27-.455.308-.516a2.41 2.41 0 0 1 .747-.847 1.856 1.856 0 0 1 .948-.362 1.244 1.244 0 0 1 1.163.478 1.609 1.609 0 0 1 .324 1.171 4.37 4.37 0 0 1-.647 1.487 9.491 9.491 0 0 1-1.541 1.841 10.877 10.877 0 0 1-2.257 1.61 6.986 6.986 0 0 1-2.789.817 6.887 6.887 0 0 1-2.365-.208 7.146 7.146 0 0 1-1.957-.871 8.441 8.441 0 0 1-1.587-1.317 12.041 12.041 0 0 1-1.263-1.618"/><path d="M404.712 54.763a9.3 9.3 0 0 1-1.941-.039 17.118 17.118 0 0 1-1.926 2.635 13.873 13.873 0 0 1-2.419 2.188 13.429 13.429 0 0 1-2.92 1.564 11.573 11.573 0 0 1-3.374.747 8.76 8.76 0 0 1-3.752-.462 6.909 6.909 0 0 1-4.4-4.938 10.823 10.823 0 0 1-.208-4.1 13.5 13.5 0 0 1 1.658-5.139 18.331 18.331 0 0 1 2.819-3.767 13.593 13.593 0 0 1 2.951-2.333 5.986 5.986 0 0 1 2.1-.855 1.251 1.251 0 0 1 1.094.324 1.308 1.308 0 0 1 .247 1.063 1.74 1.74 0 0 1-.616 1.194 8.77 8.77 0 0 1-1.279.832 12.121 12.121 0 0 0-1.649 1.14 11.122 11.122 0 0 0-3.135 4.214 11 11 0 0 0-.824 3.074 8.136 8.136 0 0 0 .1 2.758 5.016 5.016 0 0 0 1.025 2.134 4.563 4.563 0 0 0 1.833 1.3 5.637 5.637 0 0 0 2.527.331 8.267 8.267 0 0 0 4.376-1.525 10.464 10.464 0 0 0 2.958-3.251 8.722 8.722 0 0 1-3.844-3.675 9.06 9.06 0 0 1-.986-5.685 8.167 8.167 0 0 1 1.751-4.311 4.849 4.849 0 0 1 3.444-1.88 4.176 4.176 0 0 1 2.211.424 4.049 4.049 0 0 1 1.672 1.718 8.977 8.977 0 0 1 .917 3.174 19.484 19.484 0 0 1-.1 4.73 14.986 14.986 0 0 1-.734 3.072 3.063 3.063 0 0 0 .532 0c.177-.008.37-.023.578-.039a10.174 10.174 0 0 0 2.773-.57 8.965 8.965 0 0 0 2.334-1.248 10.628 10.628 0 0 0 2-2 24.9 24.9 0 0 0 1.826-2.742 1.732 1.732 0 0 1 .647-.57 2.17 2.17 0 0 1 .924-.316 1.292 1.292 0 0 1 1.032.4 1.317 1.317 0 0 1 .362 1.209 2.426 2.426 0 0 1-.277.8c-.154.3-.308.578-.454.824a24.166 24.166 0 0 1-2.097 2.752 14.267 14.267 0 0 1-2.635 2.357 14.971 14.971 0 0 1-3.251 1.7 12.825 12.825 0 0 1-3.867.786m-6.235-10.876a7.83 7.83 0 0 0 0 1.8 6.912 6.912 0 0 0 .462 1.826 6.988 6.988 0 0 0 .94 1.687 5.053 5.053 0 0 0 1.456 1.31 14.332 14.332 0 0 0 .37-1.872 18.964 18.964 0 0 0 .131-2.481 13.816 13.816 0 0 0-.223-2.3 4.951 4.951 0 0 0-.616-1.664 1.145 1.145 0 0 0-1.086-.57 1.562 1.562 0 0 0-.763.462 2.928 2.928 0 0 0-.67 1.8"/><path d="M425.088 54.193c.562-.94 1.271-2.111 2.142-3.505s1.764-2.812 2.7-4.229 1.83-2.766 2.717-4.026a33.333 33.333 0 0 1 2.2-2.9 10.885 10.885 0 0 1 2.96-2.48 6.712 6.712 0 0 1 2.635-.871 3.215 3.215 0 0 1 1.925.351 3.136 3.136 0 0 1 1.2 1.233 5.312 5.312 0 0 1 .562 1.9 10.169 10.169 0 0 1-.023 2.365c-.062.485-.169 1.117-.3 1.91-.154.793-.293 1.641-.455 2.558s-.324 1.849-.478 2.82c-.169.978-.324 1.887-.455 2.735q.844-1.41 1.9-3.135c.7-1.14 1.41-2.288 2.134-3.42.709-1.132 1.4-2.188 2.057-3.189.655-.986 1.24-1.8 1.764-2.442a15.811 15.811 0 0 1 4.044-3.86 7.449 7.449 0 0 1 3.089-1.125 4.4 4.4 0 0 1 2.434.377 3.27 3.27 0 0 1 1.364 1.34 4.919 4.919 0 0 1 .539 1.918 9.753 9.753 0 0 1-.039 2.072 25.806 25.806 0 0 1-.616 3.236 32.288 32.288 0 0 0-.724 4.014 22.815 22.815 0 0 0-.146 1.9 5.623 5.623 0 0 0 .169 1.649 2.009 2.009 0 0 0 .778 1.117 2.473 2.473 0 0 0 1.641.324 5.343 5.343 0 0 0 2.357-.786 12.911 12.911 0 0 0 2.35-1.764 22.583 22.583 0 0 0 2.226-2.419c.716-.886 1.379-1.78 2-2.665s1.163-1.733 1.641-2.527.878-1.487 1.186-2.049a2.338 2.338 0 0 1 .724-.817 1.807 1.807 0 0 1 .924-.339 1.244 1.244 0 0 1 1.163.478 1.569 1.569 0 0 1 .316 1.171 1.775 1.775 0 0 1-.208.639c-.154.254-.454.778-.909 1.579s-1.032 1.71-1.756 2.742-1.546 2.111-2.473 3.26a29.571 29.571 0 0 1-2.989 3.212 18.423 18.423 0 0 1-3.366 2.5 8.553 8.553 0 0 1-3.605 1.148 5.766 5.766 0 0 1-3.112-.47 4.066 4.066 0 0 1-1.728-1.738 6.254 6.254 0 0 1-.67-2.65 18.287 18.287 0 0 1 .131-3.2 36.7 36.7 0 0 1 .732-4.121 27.571 27.571 0 0 0 .585-2.943 5.212 5.212 0 0 0 .008-1.71 1.469 1.469 0 0 0-.377-.809.814.814 0 0 0-.532-.231c-.177 0-.308 0-.4.008a4.156 4.156 0 0 0-2.4 1.371 24.414 24.414 0 0 0-2.835 3.382q-1.5 2.092-3.135 4.73t-3.3 5.377a832.488 832.488 0 0 1-1.572 2.5 11.531 11.531 0 0 1-1.171 1.572 4.411 4.411 0 0 1-1.017.84 2.471 2.471 0 0 1-1.009.3 1.685 1.685 0 0 1-1.664-.686 3.064 3.064 0 0 1-.347-2.1c.062-.447.154-1.055.277-1.818s.254-1.595.393-2.5.3-1.849.485-2.827.339-1.9.478-2.8.27-1.695.385-2.4.2-1.225.239-1.587a2.541 2.541 0 0 0-.185-1.679.939.939 0 0 0-.878-.447 2.569 2.569 0 0 0-1.14.439 7.646 7.646 0 0 0-1.587 1.518c-.485.578-1.109 1.41-1.88 2.5-.77 1.1-1.595 2.3-2.465 3.628s-1.741 2.681-2.612 4.06-1.629 2.631-2.269 3.731a9.664 9.664 0 0 1-2.2 2.75 3.755 3.755 0 0 1-1.918.84 1.894 1.894 0 0 1-1.826-.655 2.881 2.881 0 0 1-.37-2.065c.015-.092.108-.639.27-1.641.177-1 .37-2.219.616-3.667.231-1.441.493-2.981.763-4.622.285-1.641.539-3.174.778-4.6a12.12 12.12 0 0 0 .162-2.088c-.008-.624-.077-.994-.216-1.109a6.721 6.721 0 0 0-1.618 1.787 44.856 44.856 0 0 0-3.343 5.739 2.264 2.264 0 0 1-.77.824 2.075 2.075 0 0 1-.971.339 1.246 1.246 0 0 1-1.148-.431 1.5 1.5 0 0 1-.293-1.171 2.15 2.15 0 0 1 .216-.693 39.615 39.615 0 0 1 4.73-7.434q2.126-2.427 3.867-2.558a2.556 2.556 0 0 1 1.664.347 2.5 2.5 0 0 1 .94 1.148 4.891 4.891 0 0 1 .375 1.66 9.858 9.858 0 0 1-.054 1.849c-.331 2.7-.709 5.161-1.117 7.419s-.832 4.514-1.263 6.795"/><path d="M510.814 39.279c-.146.254-.462.778-.924 1.579s-1.064 1.718-1.765 2.755-1.51 2.142-2.419 3.289a29.148 29.148 0 0 1-2.974 3.189 18.635 18.635 0 0 1-3.359 2.473 8.445 8.445 0 0 1-3.604 1.149 5.085 5.085 0 0 1-4.152-1.356 7.577 7.577 0 0 1-2.049-4.037 17.37 17.37 0 0 1-4.137 4.376 8.6 8.6 0 0 1-4.391 1.841 6.429 6.429 0 0 1-2.92-.393 4.867 4.867 0 0 1-2.072-1.556 6.438 6.438 0 0 1-1.132-2.5 9.478 9.478 0 0 1-.108-3.228 17.539 17.539 0 0 1 1.964-6.332 18.849 18.849 0 0 1 3.574-4.747 16.255 16.255 0 0 1 4.391-3.028 13.064 13.064 0 0 1 4.383-1.225 7.471 7.471 0 0 1 2.5.2 9.683 9.683 0 0 1 1.88.693 5.712 5.712 0 0 1 1.179.747q.393.347.439.393a1.575 1.575 0 0 1 .339 1.186 2.132 2.132 0 0 1-.639 1.24 1.9 1.9 0 0 1-1.233.609 1.345 1.345 0 0 1-1.148-.408 3.142 3.142 0 0 0-.354-.308 3.915 3.915 0 0 0-.786-.462 5.361 5.361 0 0 0-1.225-.377 5.6 5.6 0 0 0-1.649-.085 8.968 8.968 0 0 0-3.027.857 10.97 10.97 0 0 0-3.112 2.188 14.524 14.524 0 0 0-2.588 3.519 14 14 0 0 0-1.464 4.853 8.693 8.693 0 0 0-.039 1.733 4.091 4.091 0 0 0 .431 1.572 2.6 2.6 0 0 0 1.072 1.094 3.224 3.224 0 0 0 1.818.308 4.83 4.83 0 0 0 1.926-.678 9.026 9.026 0 0 0 2.219-1.833 15.405 15.405 0 0 0 2.1-2.989 17.276 17.276 0 0 0 1.6-4.167 2.175 2.175 0 0 1 .716-1.117 2.042 2.042 0 0 1 1.209-.508 1.182 1.182 0 0 1 1.04.416 1.473 1.473 0 0 1 .37 1.094 85.01 85.01 0 0 0-.116 2.419 13.576 13.576 0 0 0 .216 3.066 6.067 6.067 0 0 0 1.079 2.573 2.6 2.6 0 0 0 2.45.94 5.07 5.07 0 0 0 2.2-.747 13.542 13.542 0 0 0 2.249-1.718 22.7 22.7 0 0 0 2.2-2.373c.716-.871 1.371-1.756 1.988-2.642s1.163-1.733 1.649-2.55.894-1.525 1.233-2.118a2.316 2.316 0 0 1 .747-.817 1.992 1.992 0 0 1 .947-.339 1.237 1.237 0 0 1 1.163.478 1.565 1.565 0 0 1 .324 1.163 2 2 0 0 1-.216.647"/><path d="M518.424 47.214q.9-1.548 2.065-3.413t2.465-3.782c.863-1.279 1.772-2.558 2.712-3.821s1.9-2.488 2.9-3.636a11.709 11.709 0 0 1 2.9-2.488 6.243 6.243 0 0 1 2.581-.898 3.087 3.087 0 0 1 3.228 1.471 6.84 6.84 0 0 1 .593 4.183c-.046.393-.131.878-.246 1.441s-.231 1.163-.354 1.8-.254 1.287-.37 1.941a23.742 23.742 0 0 0-.3 1.841 20.119 20.119 0 0 0-.146 2.08 5.733 5.733 0 0 0 .208 1.718 2.041 2.041 0 0 0 .755 1.109 2.124 2.124 0 0 0 1.464.324 6.315 6.315 0 0 0 3.474-1.587 23.819 23.819 0 0 0 3.366-3.4 38.991 38.991 0 0 0 2.843-3.921c.824-1.325 1.448-2.388 1.88-3.2a2.252 2.252 0 0 1 .747-.817 1.937 1.937 0 0 1 .948-.339 1.244 1.244 0 0 1 1.163.478 1.56 1.56 0 0 1 .316 1.163 1.764 1.764 0 0 1-.208.647q-.231.381-.9 1.548c-.454.786-1.032 1.695-1.733 2.719s-1.51 2.126-2.427 3.289a28.534 28.534 0 0 1-2.951 3.2 19.005 19.005 0 0 1-3.32 2.5 8.158 8.158 0 0 1-3.536 1.163 5.285 5.285 0 0 1-3.169-.551 4.233 4.233 0 0 1-1.71-1.941 7.438 7.438 0 0 1-.609-2.789 19.6 19.6 0 0 1 .146-3.135c.054-.455.139-.971.262-1.548.108-.578.247-1.186.4-1.833s.285-1.279.416-1.918c.116-.639.216-1.248.293-1.826a2.862 2.862 0 0 0-.208-1.941q-.381-.485-.74-.462a3.319 3.319 0 0 0-1.741.971 19.587 19.587 0 0 0-2.188 2.342c-.794.955-1.6 2.026-2.442 3.22-.839 1.18-1.639 2.36-2.386 3.522s-1.448 2.28-2.1 3.328-1.163 1.926-1.541 2.612a8.771 8.771 0 0 1-2.111 2.7 3.63 3.63 0 0 1-1.918.8 2.319 2.319 0 0 1-1.98-.639 2.611 2.611 0 0 1-.5-2.188c.023-.216.1-.632.239-1.263s.308-1.371.5-2.234.4-1.81.616-2.812.424-2.011.632-3 .4-1.91.57-2.758.277-1.564.347-2.142q.15-1.132.185-2.172c.023-.693-.039-1.1-.2-1.248a6.928 6.928 0 0 0-1.641 1.81 46.264 46.264 0 0 0-3.328 5.716 2.311 2.311 0 0 1-.763.824 2.132 2.132 0 0 1-.978.339 1.232 1.232 0 0 1-1.14-.431 1.532 1.532 0 0 1-.3-1.171 2.4 2.4 0 0 1 .223-.693 42.541 42.541 0 0 1 4.664-7.44c1.371-1.61 2.635-2.465 3.8-2.55a2.44 2.44 0 0 1 1.679.393 2.789 2.789 0 0 1 .971 1.3 6.5 6.5 0 0 1 .391 1.857 11.556 11.556 0 0 1-.062 2.118c-.069.547-.216 1.394-.431 2.558s-.47 2.4-.747 3.713c-.277 1.333-.555 2.65-.817 3.96s-.5 2.4-.7 3.289"/></g></svg>