<?xml version="1.0" standalone="no"?>
<!DOCTYPE svg PUBLIC "-//W3C//DTD SVG 1.1//EN" "http://www.w3.org/Graphics/SVG/1.1/DTD/svg11.dtd" >
<svg xmlns="http://www.w3.org/2000/svg" xmlns:xlink="http://www.w3.org/1999/xlink" version="1.1">
<metadata>
Created by FontForge 20170731 at Thu Mar 23 07:01:25 2023
 By Aleksey,,,
(c) 2005, 2007 Adobe Systems Incorporated. All rights reserved.
</metadata>
<defs>
<font id="GaramondPremrPro-Capt" horiz-adv-x="1208" >
  <font-face 
    font-family="Garamond Premr Pro Capt"
    font-weight="400"
    font-variant="small-caps"
    font-stretch="normal"
    units-per-em="2048"
    panose-1="2 2 4 2 6 5 6 2 4 3"
    ascent="1485"
    descent="-563"
    x-height="840"
    cap-height="1260"
    bbox="-335.5 -682 2726.41 1872.89"
    underline-thickness="102"
    underline-position="-307"
    unicode-range="U+0020-FB06"
  />
<missing-glyph horiz-adv-x="1024" 
d="M0 0v1434h1024v-1434h-1024zM512 809l348 522h-696zM573 717l349 -522v1044zM164 102h696l-348 523zM102 1239v-1044l349 522z" />
    <glyph glyph-name="f_f" unicode="ff" horiz-adv-x="1249" 
d="M782 723h-389q-24 0 -24 -21q0 -343 4 -505q1 -64 23.5 -86t82.5 -37q26 -6 41 -17t15 -22q0 -41 -62 -41q-7 0 -62.5 3t-123.5 3q-41 0 -101.5 -3t-70.5 -3q-21 0 -40.5 8.5t-19.5 24.5q0 13 17 25.5t41 17.5q46 15 63.5 36.5t20.5 65.5q8 132 8 514q0 12 -5.5 21.5
t-13.5 11.5l-92 8q-10 1 -17 11.5t-7 17.5q0 6 3 12t10.5 12.5t14 11.5t19.5 12t21 11t23.5 12t22.5 11q8 4 14.5 14.5t6.5 17.5q17 265 227 406q53 36 122.5 60t137.5 24q167 0 258 -94q12 -12 27 2q136 133 283 133q53 0 100 -18t70 -48q20 -27 20 -53q0 -36 -31.5 -66
t-58.5 -30q-17 0 -43 26q-28 28 -70 49t-84 21q-51 0 -91.5 -37.5t-59.5 -91.5q-37 -107 -37 -285q0 -10 4.5 -20t11.5 -10q39 0 136 3t98 3q26 0 26 -101q0 -10 -13.5 -16t-25.5 -6q-1 0 -108 1t-119 1q-7 0 -12.5 -7t-5.5 -14q0 -181 8 -505q0 -24 3 -41t13 -29.5
t17 -19.5t27.5 -14t32 -9.5t42.5 -9.5q25 -6 41 -19t16 -24q0 -37 -61 -37q-2 0 -77 3t-144 3q-41 0 -101.5 -3t-70.5 -3q-21 0 -40.5 8.5t-19.5 24.5q0 13 17.5 25.5t42.5 17.5q46 14 61.5 35.5t18.5 66.5q8 108 8 516q0 7 -4.5 21t-14.5 14zM391 834l395 -3q14 3 19 27
q6 133 55 254q7 17 -8 35q-39 49 -105 79.5t-139 30.5q-67 0 -118 -41t-74 -106q-46 -115 -43 -246q0 -12 5.5 -21t12.5 -9z" />
    <glyph glyph-name="f_f_i" unicode="ffi" horiz-adv-x="1728" 
d="M688 1360q171 0 264 -96q12 -12 27 2q139 135 317 135q143 0 209 -76q23 -26 23 -59q0 -29 -40.5 -62t-62.5 -33q-30 0 -49 19q-48 50 -91 75t-101 25q-102 0 -160 -114q-51 -102 -51 -316q0 -26 16 -26h168q159 0 234 4t96 20q22 14 37 14q26 0 26 -110q0 -430 9 -612
q1 -35 14.5 -48t66.5 -32q50 -16 50 -43q0 -13 -12.5 -23t-30.5 -10q-21 0 -92.5 3t-94.5 3q-61 0 -119 -3t-63 -3q-49 0 -49 35q0 14 14 24.5t27 12.5q63 17 82.5 39.5t25.5 80.5q8 86 8 381q0 35 -4 121q-1 26 -17.5 34.5t-64.5 8.5h-319q-14 0 -14 -24q0 -348 4 -510
q1 -67 26 -88.5t95 -34.5q25 -4 40 -16t15 -23q0 -41 -62 -41q-3 0 -75.5 3t-141.5 3q-41 0 -100.5 -3t-69.5 -3q-49 0 -49 31q0 15 12.5 28t34.5 17q56 14 74 35.5t21 66.5q10 135 10 520q0 35 -17 35h-391q-24 0 -24 -20q0 -348 4 -510q1 -64 23.5 -86t82.5 -37
q26 -6 41 -17t15 -22q0 -41 -62 -41q-9 0 -64 3t-122 3q-41 0 -101.5 -3t-70.5 -3q-20 0 -40 9.5t-20 25.5q0 13 17 24.5t41 16.5q46 15 63.5 36.5t20.5 65.5q8 132 8 516q0 11 -9.5 21t-17.5 12l-74 8q-30 3 -30 25q0 8 6 16.5t19 17t24.5 14.5t31 16.5t29.5 15.5
q19 9 21 36q24 254 221 402q48 37 120.5 62.5t141.5 25.5zM612 1257q-70 0 -121 -38t-73 -103q-45 -113 -45 -252q0 -12 5.5 -21t12.5 -9h397q12 2 17 26q6 123 57 250q6 18 -8 35q-39 49 -105.5 80.5t-136.5 31.5z" />
    <glyph glyph-name="f_f_l" unicode="ffl" horiz-adv-x="1730" 
d="M1270 1401q104 0 157 -31q6 -4 16.5 -2.5t12.5 6.5q23 30 36.5 39.5t37.5 9.5q26 0 26 -80q0 -77 -3 -320t-3 -341q0 -373 4 -494q3 -55 25.5 -78.5t77.5 -39.5q15 -5 27.5 -13.5t18 -15.5t5.5 -10q0 -37 -51 -37q-28 0 -102.5 3t-100.5 3q-45 0 -102 -3t-70 -3
q-25 0 -38 9t-13 20q0 32 53 49q55 19 73 39t21 57q0 8 4 138.5t5.5 231.5t-1.5 169q0 3 -10 13.5t-16 10.5h-371q-10 0 -17 -7.5t-7 -14.5q0 -350 4 -512q1 -67 26.5 -88.5t96.5 -34.5q25 -4 41 -17t16 -24q0 -39 -64 -39q-3 0 -77 3t-142 3q-41 0 -100.5 -3t-69.5 -3
q-19 0 -34 8.5t-15 24.5q0 14 16.5 26.5t41.5 16.5q47 15 65 37t21 65q1 16 3.5 94.5t4.5 206t2 236.5q0 8 -7.5 14t-13.5 6l-395 4q-6 0 -11 -7.5t-5 -14.5q-5 -59 -2 -213l6 -301q1 -64 23.5 -86t82.5 -37q27 -6 42.5 -17t15.5 -22q0 -17 -15.5 -29t-48.5 -12
q-7 0 -62.5 3t-123.5 3q-41 0 -101.5 -3t-70.5 -3q-21 0 -40.5 8.5t-19.5 24.5q0 14 16.5 26.5t41.5 16.5q46 15 63.5 36.5t20.5 65.5q8 132 8 514q0 11 -9.5 21t-17.5 12l-74 10q-30 3 -30 27q0 8 6 16t19 16.5t24.5 14.5t30.5 15.5t30 15.5q17 8 21 36q34 259 221 400
q49 38 121 64t141 26q154 0 260 -92q15 -10 25 0q62 60 139.5 96.5t157.5 36.5zM608 1257q-68 0 -118 -38.5t-72 -102.5q-41 -103 -41 -248q0 -12 5.5 -21t12.5 -9h391q6 0 12.5 6.5t6.5 17.5q6 129 55 248q7 21 -6 37q-39 49 -106 79.5t-140 30.5zM1184 1294
q-57 0 -100.5 -38t-69.5 -103q-18 -48 -31.5 -135t-13.5 -150q0 -30 20 -30q13 0 97.5 -1t150.5 -1.5t127 0.5q7 2 14.5 10.5t7.5 19.5q0 259 -4 295q-3 36 -20 58q-57 75 -178 75z" />
    <glyph glyph-name="longs_t" unicode="&#x17f;t" horiz-adv-x="1261" 
d="M655 1403q136 0 210.5 -78t72.5 -195q-4 -176 -4 -280q0 -2 5.5 -8t10.5 -6q8 0 122 3t140 3q8 0 12.5 -12t4.5 -23q0 -49 -2 -59q-4 -18 -12 -22.5t-27 -4.5h-240q-2 0 -5 -3t-6 -11t-3 -19v-387q0 -67 8 -99t27 -55q34 -36 88 -36q62 0 98 20q28 14 43 14q23 0 23 -30
q0 -27 -47 -68q-76 -74 -197 -74q-49 0 -98 21t-80 67q-33 52 -33 146q0 63 2 222t2 257q0 17 -10.5 23t-52.5 10q-48 3 -48 31q0 17 27 36q12 9 27 19.5t24.5 17.5t14.5 11q20 20 20 28q0 6 4 100.5t4 141.5q0 81 -32 121q-26 34 -68.5 56t-89.5 22q-99 0 -158 -107.5
t-59 -337.5q0 -339 6 -678q1 -27 8 -45.5t23 -30t29 -17t38 -13.5q34 -10 48 -19t14 -26q0 -16 -15.5 -25.5t-34.5 -9.5q-21 0 -94 3t-106 3q-57 0 -110.5 -3t-61.5 -3q-25 0 -41.5 10.5t-16.5 22.5q0 32 72 51q35 8 48.5 28.5t17.5 51.5q8 73 8 512q0 26 -17 30
q-28 14 -65 17q-45 5 -45 41q0 13 16.5 24t42.5 23t37 20q31 22 33 47q14 299 225 451q111 80 223 80z" />
    <glyph glyph-name="T_h" unicode="Th" horiz-adv-x="2232" 
d="M1460 1343q14 0 24.5 -26.5t10.5 -69.5q0 -35 -3 -221.5t-3 -234.5q0 -11 2.5 -18t5.5 -9t6 0q133 92 264 92q134 0 213 -92q36 -39 56 -110t20 -154q8 -272 8 -342q0 -33 13.5 -48t60.5 -36q49 -22 49 -47q0 -17 -18 -25t-39 -8q-27 0 -76 3t-78 3q-20 0 -70 -3t-79 -3
q-60 0 -60 31q0 25 45 41q51 17 65.5 37t14.5 75v367q-2 73 -49 133q-22 27 -64.5 46t-84.5 19q-126 0 -181 -55q-9 -9 -16.5 -24t-7.5 -23q0 -1 -1 -127.5t-1 -236t2 -130.5q1 -31 17 -47.5t57 -31.5q17 -6 28 -17t11 -20q0 -18 -14.5 -27.5t-37.5 -9.5q-15 0 -65 3t-80 3
q-29 0 -95 -3t-81 -3q-62 0 -62 31q0 16 14.5 25t43.5 18q43 14 64 34.5t24 55.5q12 117 12 497q0 351 -4 408q0 76 -70 82q-62 8 -415 8q-9 0 -17.5 -6.5t-9.5 -20.5q-8 -116 -8 -247v-613q0 -53 9 -86.5t32.5 -53t45 -28t62.5 -20.5q5 -1 8 -2q60 -15 60 -47
q0 -13 -16.5 -24t-45.5 -11q-5 0 -53 1.5t-115.5 3t-121.5 1.5q-71 0 -143 -3t-91 -3q-63 0 -63 39q0 13 15.5 24t43.5 17q109 27 143.5 61.5t34.5 122.5q0 10 1.5 86.5t3 211.5t1.5 286v262q0 28 -5.5 38.5t-24.5 10.5h-203q-115 -3 -157 -29.5t-77 -119.5q-20 -58 -47 -58
q-25 0 -33 19t-6 61q0 4 13.5 107t9.5 159q-1 11 17.5 24t27.5 13q11 0 29 -18q28 -33 49.5 -44t64.5 -12q84 -4 197 -4h772q79 0 106 9.5t56 48.5q27 34 59 34z" />
    <glyph glyph-name="f_b" unicode="fb" horiz-adv-x="1671" 
d="M590 1290q-58 0 -104.5 -38t-71.5 -103q-20 -53 -33.5 -139.5t-9.5 -149.5q0 -10 7 -19.5t15 -9.5q39 0 135 3.5t97 3.5q28 0 28 -86q0 -5 -12 -22t-20 -17q-1 0 -111.5 1t-122.5 1q-18 0 -18 -60q0 -298 4 -460q1 -61 23 -82t77 -35q24 -6 40.5 -19t16.5 -24
q0 -17 -15 -29t-48 -12q-8 0 -72.5 3t-107.5 3q-41 0 -101.5 -3t-70.5 -3q-21 0 -38.5 7.5t-17.5 23.5q0 14 15.5 27.5t38.5 17.5q47 14 63 35t19 65q10 165 10 518q0 12 -9.5 23.5t-17.5 11.5l-72 6q-17 2 -23.5 6t-6.5 17q0 6 3 12t10.5 12.5t13.5 11.5t19 12.5t19.5 11
t22 12t20.5 10.5q19 9 21 36q14 164 74 277q50 88 155 168q48 35 114.5 60.5t125.5 25.5q103 0 160 -33q13 -10 22 4q5 4 14 12.5t12 11.5t9.5 8.5t9.5 7t8 5t8.5 4t7.5 1.5t9 1q24 0 24 -88q-14 -343 -14 -534q0 -6 7.5 -12t13.5 -3q60 33 127.5 51.5t109.5 18.5
q141 0 256 -100q75 -65 105 -151.5t30 -168.5q0 -104 -51 -197.5t-137 -160.5q-131 -103 -307 -103q-53 0 -127.5 14t-114.5 31q-12 5 -55 5q-11 0 -21 9.5t-10 26.5l2 156q3 156 5.5 355t2.5 305q0 274 -2 284q-10 45 -20 58q-30 39 -69.5 55t-98.5 16zM1403 412
q0 147 -85 240t-202 93q-52 0 -81 -9t-56 -31q-5 -3 -17 -20t-12 -21q-6 -30 -6 -215q0 -193 21 -254q5 -15 16 -31.5t33 -38t62 -35.5t91 -14q40 0 82 12.5t54 24.5q12 10 23.5 25t31.5 49.5t32.5 93.5t12.5 131z" />
    <glyph glyph-name="f_f_b" unicode="ffb" horiz-adv-x="2273" 
d="M391 834l395 -3q14 3 19 27q6 133 55 254q7 17 -8 35q-39 49 -105 79.5t-139 30.5q-67 0 -118 -41t-74 -106q-46 -115 -43 -246q0 -12 5.5 -21t12.5 -9zM782 723h-389q-24 0 -24 -21q0 -343 4 -505q1 -64 23.5 -86t82.5 -37q26 -6 41 -17t15 -22q0 -41 -62 -41
q-7 0 -62.5 3t-123.5 3q-41 0 -101.5 -3t-70.5 -3q-21 0 -40.5 8.5t-19.5 24.5q0 13 17 25.5t41 17.5q46 15 63.5 36.5t20.5 65.5q8 132 8 514q0 12 -5.5 21.5t-13.5 11.5l-92 8q-10 1 -17 11.5t-7 17.5q0 6 3 12t10.5 12.5t14 11.5t19.5 12t21 11t23.5 12t22.5 11
q8 4 14.5 14.5t6.5 17.5q17 265 227 406q53 36 122.5 60t137.5 24q167 0 258 -94q12 -12 27 2q62 60 138.5 96.5t156.5 36.5q103 0 160 -33q13 -10 22 4q5 4 14 12.5t12 11.5t9.5 8.5t9.5 7t8 5t8.5 4t7.5 1.5t9 1q24 0 27 -88q-17 -312 -17 -534q0 -6 7.5 -12t13.5 -3
q60 33 127.5 51.5t109.5 18.5q141 0 256 -100q75 -65 105 -151.5t30 -168.5q0 -104 -50.5 -197.5t-135.5 -160.5q-134 -103 -309 -103q-52 0 -126 14t-114 31q-13 5 -57 5q-11 0 -21 9.5t-10 26.5l2 156q3 156 5.5 355t2.5 305q0 67 -0.5 119t-1 79.5t-1 45t-1 24.5t-0.5 8
q-6 50 -18 66q-30 39 -69.5 55t-98.5 16q-57 0 -103.5 -40t-72.5 -105q-20 -55 -33.5 -139t-7.5 -146q0 -10 7 -19.5t15 -9.5q39 0 134 3.5t96 3.5q28 0 28 -86q0 -5 -12 -22t-20 -17q-1 0 -111.5 1t-122.5 1q-18 0 -18 -70q0 -124 8 -448q0 -24 3 -41t13 -29.5t17 -19.5
t27.5 -14t32 -9.5t42.5 -9.5q25 -6 41 -19t16 -24q0 -37 -61 -37q-2 0 -77 3t-144 3q-41 0 -101.5 -3t-70.5 -3q-21 0 -40.5 8.5t-19.5 24.5q0 13 17.5 25.5t42.5 17.5q46 14 61.5 35.5t18.5 66.5q8 108 8 516q0 8 -4.5 21.5t-14.5 13.5zM2001 412q0 147 -85 240t-202 93
q-51 0 -80.5 -9t-56.5 -31q-5 -5 -17 -21t-12 -20q-6 -30 -6 -215q0 -193 21 -254q5 -15 16 -31.5t33 -38t62 -35.5t91 -14q40 0 82 12.5t54 24.5q12 10 23.5 25t31.5 49.5t32.5 93.5t12.5 131z" />
    <glyph glyph-name="f_f_h" unicode="ffh" horiz-adv-x="2291" 
d="M391 834l395 -3q14 3 19 27q6 133 55 254q7 17 -8 35q-39 49 -105 79.5t-139 30.5q-68 0 -121 -39.5t-75 -103.5q-42 -106 -39 -250q0 -12 5.5 -21t12.5 -9zM782 723h-389q-24 0 -24 -21q0 -343 4 -505q1 -64 23.5 -86t82.5 -37q26 -6 41 -17t15 -22q0 -41 -62 -41
q-7 0 -62.5 3t-123.5 3q-41 0 -101.5 -3t-70.5 -3q-21 0 -40.5 8.5t-19.5 24.5q0 13 17 25.5t41 17.5q46 15 63.5 36.5t20.5 65.5q8 132 8 514q0 12 -5.5 21.5t-13.5 11.5l-92 8q-10 1 -17 11.5t-7 17.5q0 6 3 12t10.5 12.5t14 11.5t19.5 12t21 11t23.5 12t22.5 11
q8 4 14.5 14.5t6.5 17.5q8 122 65 229.5t166 180.5q117 80 256 80q167 0 258 -94q12 -12 25 2q61 59 142 96t161 37q96 0 156 -33q9 -9 22 4q7 6 18 16t15 14t11 9.5t11 7t9.5 3t11.5 1.5q24 0 27 -86q0 -35 -3.5 -272t-3.5 -285q0 -6 3 -11t6.5 -6.5t5.5 -0.5q94 57 137 74
q54 20 131 20q130 0 209 -92q36 -39 56 -114.5t20 -160.5q8 -264 8 -329q0 -35 13.5 -52t58.5 -34q24 -7 37.5 -20t13.5 -27q0 -33 -60 -33q-27 0 -74.5 3t-76.5 3q-20 0 -70.5 -3t-79.5 -3q-26 0 -42.5 9t-16.5 24q0 23 45 39q51 17 65.5 37t14.5 75q0 9 0.5 88t0.5 154
t-1 115q-3 87 -43 139q-23 27 -68 48t-86 21q-69 0 -110.5 -14t-73.5 -45q-4 -4 -13.5 -23t-9.5 -26q0 -461 4 -508q0 -23 70 -59q41 -16 41 -31q0 -18 -15 -30.5t-38 -12.5q-16 0 -71 3t-85 3q-29 0 -88 -3t-74 -3q-59 0 -59 33q0 16 13 25.5t40 17.5q44 14 64.5 33.5
t23.5 52.5q13 127 13 563q0 339 -9 428q-5 47 -26 74q-52 71 -168 71q-58 0 -104.5 -38.5t-71.5 -104.5q-19 -50 -30.5 -132.5t-10.5 -154.5q0 -10 7 -19t15 -9q39 0 134 3t96 3q28 0 28 -86q0 -6 -12 -22.5t-20 -16.5q-1 0 -111.5 1t-122.5 1q-16 0 -16 -60q0 -217 6 -460
q0 -24 3 -41t12.5 -29.5t16.5 -19.5t27.5 -13.5t32.5 -9.5t43 -10q25 -6 40 -19t15 -24q0 -37 -61 -37q-2 0 -76 3t-143 3q-41 0 -101.5 -3t-70.5 -3q-21 0 -40.5 8.5t-19.5 24.5q0 13 17.5 25.5t42.5 17.5q46 14 61.5 35.5t18.5 66.5q8 108 8 516q0 35 -19 35z" />
    <glyph glyph-name="f_f_j" unicode="ffj" horiz-adv-x="1689" 
d="M690 1360q168 0 262 -94q12 -12 27 2q61 59 143.5 96t163.5 37q86 0 136.5 -19.5t84.5 -56.5q23 -26 23 -61q0 -28 -40.5 -60.5t-62.5 -32.5q-30 0 -49 19q-48 48 -90.5 74t-99.5 26q-54 0 -95 -32t-65 -82q-53 -106 -53 -316q0 -26 18 -26h176q156 0 222.5 4t87.5 20
q22 14 37 14q26 0 26 -110q0 -127 -2 -427t-2 -304q0 -51 -8 -121q-11 -99 -59 -187t-109 -141q-37 -35 -102 -68.5t-82 -33.5q-10 0 -16.5 6.5t-6.5 15.5q0 33 25 52q48 36 80 65q46 44 71.5 114.5t34.5 198.5q6 95 7.5 214.5t0 302t-1.5 229.5q-1 31 -18 41t-64 10h-295
q-26 0 -26 -20q0 -350 4 -512q1 -65 34.5 -89.5t98.5 -33.5q24 -4 39.5 -16t15.5 -23q0 -17 -15 -29t-48 -12q-2 0 -73 3t-140 3q-41 0 -100.5 -3t-69.5 -3q-60 0 -60 31q0 14 17.5 27.5t40.5 17.5q46 15 62.5 36.5t19.5 65.5q4 56 8 520q0 21 -3.5 28t-17.5 7h-387
q-24 0 -24 -20q0 -348 4 -510q1 -64 23.5 -86t82.5 -37q26 -6 41 -17t15 -22q0 -41 -62 -41q-9 0 -64 3t-122 3q-41 0 -101.5 -3t-70.5 -3q-49 0 -49 31q0 15 12.5 28t34.5 17q46 15 63.5 36.5t20.5 65.5q8 132 8 516q0 11 -9.5 21t-17.5 12l-74 8q-30 3 -30 25q0 8 6 16.5
t19 17t24.5 14.5t31 16.5t29.5 15.5q19 9 21 36q29 260 221 402q47 38 119 63t143 25zM393 834h391q20 2 23 26q6 121 55 252q6 16 -6 35q-41 50 -106.5 83.5t-137.5 33.5q-67 0 -118 -41.5t-74 -106.5q-45 -113 -45 -252q0 -12 5.5 -21t12.5 -9z" />
    <glyph glyph-name="f_f_k" unicode="ffk" horiz-adv-x="2217" 
d="M782 723h-389q-24 0 -24 -21q0 -343 4 -505q1 -64 23.5 -86t82.5 -37q26 -6 41 -17t15 -22q0 -41 -62 -41q-7 0 -62.5 3t-123.5 3q-41 0 -101.5 -3t-70.5 -3q-21 0 -40.5 8.5t-19.5 24.5q0 13 17 25.5t41 17.5q46 15 63.5 36.5t20.5 65.5q8 132 8 514q0 12 -5.5 21.5
t-13.5 11.5l-92 8q-10 1 -17 11.5t-7 17.5q0 6 3 12t10.5 12.5t14 11.5t19.5 12t21 11t23.5 12t22.5 11q8 4 14.5 14.5t6.5 17.5q8 122 65 229.5t166 180.5q117 80 256 80q167 0 258 -94q12 -12 25 2q61 59 142 96t161 37q96 0 156 -33q9 -9 22 4q7 6 18 16t15 14t11 9.5
t11 7t9.5 3t11.5 1.5q24 0 27 -73q0 -24 -5.5 -303t-5.5 -345v-143q0 -53 4.5 -69.5t18.5 -16.5q8 0 29.5 12.5t39.5 28.5q91 76 191 186q21 25 16 38t-35 22q-53 14 -53 33q0 15 16 28t37 13h80q46 0 127.5 5t96.5 5q28 0 45.5 -10t17.5 -23t-15 -23.5t-36 -15.5
q-68 -19 -105 -36t-90 -58q-30 -21 -91 -74t-91 -76q-9 -7 0 -26q58 -79 250 -303q91 -100 151 -121q46 -19 63 -29.5t17 -23.5q0 -31 -71 -31q-25 0 -96.5 3t-127.5 3q-16 0 -48.5 -1t-41.5 -1q-23 0 -35 10.5t-12 20.5q0 14 11 23.5t42 19.5q35 11 11 47q-10 15 -199 239
q-4 5 -10.5 12.5t-9.5 11t-8 9t-7.5 8t-6.5 6t-6 5t-5.5 3.5t-6 3t-6 1.5t-6.5 0.5q-10 0 -32 -15q-13 -7 -13 -28v-193q0 -17 2.5 -31t4.5 -24t8.5 -18.5t9.5 -12.5t12.5 -9.5t12.5 -7t15.5 -6t14.5 -5.5q3 -1 8.5 -3t8.5 -3t7 -3t6.5 -3t5.5 -2.5t4.5 -3.5t3.5 -4t2.5 -4
t0.5 -5q0 -14 -14 -28.5t-39 -14.5q-17 0 -72 3t-82 3q-28 0 -84.5 -3t-74.5 -3q-25 0 -44.5 8.5t-19.5 22.5q0 27 58 45q44 14 56 34t15 66q3 25 7.5 322t4.5 440q0 192 -6 229q-7 34 -24 60q-52 71 -168 71q-58 0 -104.5 -38.5t-71.5 -104.5q-19 -50 -30.5 -132.5
t-10.5 -154.5q0 -10 7 -19t15 -9q39 0 134 3t96 3q28 0 28 -86q0 -6 -12 -22.5t-20 -16.5q-1 0 -111.5 1t-122.5 1q-16 0 -16 -60q0 -217 6 -460q0 -24 3 -41t12.5 -29.5t16.5 -19.5t27.5 -13.5t32.5 -9.5t43 -10q25 -6 40 -19t15 -24q0 -37 -61 -37q-2 0 -76 3t-143 3
q-41 0 -101.5 -3t-70.5 -3q-21 0 -40.5 8.5t-19.5 24.5q0 13 17.5 25.5t42.5 17.5q46 14 61.5 35.5t18.5 66.5q8 108 8 516q0 5 -1 12t-6 15t-12 8zM391 834l395 -3q14 3 19 27q6 133 55 254q7 17 -8 35q-39 49 -105 79.5t-139 30.5q-68 0 -121 -39.5t-75 -103.5
q-42 -106 -39 -250q0 -12 5.5 -21t12.5 -9z" />
    <glyph glyph-name="f_f_t" unicode="fft" horiz-adv-x="1826" 
d="M782 727l-389 2q-24 0 -24 -20q0 -350 4 -512q1 -64 23.5 -86t82.5 -37q26 -6 41 -17t15 -22q0 -41 -62 -41q-7 0 -62.5 3t-123.5 3q-41 0 -101.5 -3t-70.5 -3q-21 0 -40.5 8.5t-19.5 24.5q0 13 17 25.5t41 17.5q46 15 63.5 36.5t20.5 65.5q8 132 8 518q0 12 -5.5 21.5
t-13.5 11.5l-92 8q-10 1 -17 9.5t-7 15.5q0 6 3 12t10.5 12.5t14 11.5t19.5 12t21 11t23.5 12t22.5 11q8 4 14.5 14.5t6.5 17.5q17 265 227 406q53 36 122.5 60t137.5 24q167 0 258 -94q12 -12 27 2q136 133 283 133q53 0 100 -18t70 -48q20 -27 20 -53q0 -36 -31.5 -66
t-58.5 -30q-17 0 -43 26q-28 28 -70 49t-84 21q-51 0 -91.5 -37.5t-59.5 -91.5q-37 -107 -37 -264q0 -53 16 -53q39 0 176.5 -1t139.5 -1q23 0 45 28q35 47 63 80q38 49 66 49q7 0 15.5 -13.5t8.5 -21.5q0 -13 -1 -54t-1 -46q0 -25 17 -25q8 0 114 4.5t133 4.5
q10 0 18.5 -12.5t8.5 -22.5q0 -52 -2 -62q-7 -26 -47 -26q-42 0 -128 3t-106 3q-2 0 -5 -3t-6 -11t-3 -19l-2 -383q-1 -68 5.5 -99.5t25.5 -53.5q18 -20 53 -32.5t57 -12.5q23 0 93 18q7 1 22.5 6.5t22.5 5.5q6 0 12 -9t6 -21q0 -35 -49 -72q-43 -33 -101.5 -48.5
t-107.5 -15.5q-46 0 -96 24.5t-82 70.5q-29 45 -29 145q0 65 2 217t2 256q0 41 -16 41h-330q-18 0 -18 -59q0 -147 8 -471q0 -24 3 -41t13 -29.5t17 -19.5t27.5 -14t32 -9.5t42.5 -9.5q25 -6 41 -19t16 -24q0 -37 -61 -37q-2 0 -77 3t-144 3q-41 0 -101.5 -3t-70.5 -3
q-21 0 -40.5 8.5t-19.5 24.5q0 13 17.5 25.5t42.5 17.5q46 14 61.5 35.5t18.5 66.5q8 108 8 520q0 8 -4.5 21.5t-14.5 13.5zM391 838l395 -2q14 3 19 26q6 129 55 250q7 17 -8 35q-39 49 -105 79.5t-139 30.5q-68 0 -121 -41.5t-75 -107.5q-42 -105 -39 -240q0 -12 5.5 -21
t12.5 -9z" />
    <glyph glyph-name="f_h" unicode="fh" horiz-adv-x="1697" 
d="M674 1401q102 0 162 -33q9 -9 22 4q5 4 14 12.5t12 11.5t9.5 8.5t9.5 7t8 5t8.5 4t7.5 1.5t9 1q9 0 13.5 -9.5t7.5 -37.5t4 -82q0 -35 -3.5 -250.5t-3.5 -263.5q0 -6 3 -11t6.5 -6.5t5.5 -0.5q93 57 139 74q51 20 129 20q130 0 209 -92q35 -38 55.5 -114t22.5 -161
q0 -37 3 -177.5t3 -151.5q0 -36 13.5 -52.5t60.5 -33.5q23 -7 36 -20t13 -27q0 -33 -58 -33q-27 0 -75.5 3t-77.5 3q-20 0 -70.5 -3t-79.5 -3q-26 0 -42.5 9t-16.5 24q0 23 45 39q51 17 65.5 37t14.5 75q0 9 0.5 88t0.5 154t-1 115q-3 87 -43 139q-23 27 -68 48t-86 21
q-69 0 -110.5 -14t-73.5 -45q-4 -4 -13.5 -23t-9.5 -26q0 -461 4 -508q0 -23 70 -59q41 -16 41 -31q0 -18 -15 -30.5t-38 -12.5q-16 0 -71 3t-85 3q-29 0 -88 -3t-74 -3q-59 0 -59 33q0 16 13 25.5t40 17.5q44 14 64.5 33t23.5 53q13 127 13 563q0 298 -9 426q-4 49 -22 76
q-55 75 -170 75q-57 0 -107 -41t-75 -106q-19 -51 -31 -136.5t-8 -152.5q0 -10 7 -19.5t15 -9.5q39 0 136 3.5t98 3.5q9 0 15 -10.5t8.5 -26.5t3.5 -27.5t1 -21.5q0 -4 -12.5 -21.5t-19.5 -17.5q-1 0 -112.5 1t-123.5 1q-18 0 -18 -60q0 -298 4 -460q1 -61 23 -82t77 -35
q24 -6 40.5 -19t16.5 -24q0 -17 -15 -29t-48 -12q-8 0 -72.5 3t-107.5 3q-41 0 -101.5 -3t-70.5 -3q-21 0 -38.5 7.5t-17.5 23.5q0 14 15.5 27.5t38.5 17.5q47 14 63 35t19 65q10 165 10 518q0 12 -9.5 23.5t-17.5 11.5l-72 6q-17 2 -23.5 6t-6.5 17q0 6 3 12t10.5 12.5
t13.5 11.5t19 12.5t19.5 11t22 12t20.5 10.5q19 9 21 36q14 164 74 277q56 99 147 168q47 35 117.5 60.5t130.5 25.5z" />
    <glyph glyph-name="f_i" unicode="fi" horiz-adv-x="1136" 
d="M393 831l174 3q288 0 328 30q24 15 39 15q24 0 24 -111q0 -436 9 -618q1 -34 15.5 -47.5t68.5 -32.5q49 -17 49 -43q0 -12 -13.5 -22.5t-31.5 -10.5q-21 0 -92.5 3t-94.5 3q-61 0 -114 -3t-58 -3q-26 0 -42.5 10t-16.5 25q0 13 18.5 24t32.5 13q61 16 76.5 37t21.5 83
q9 97 9 375q0 47 -4 133q0 11 -22.5 21t-57.5 10l-318 -4q-6 0 -14 -7.5t-10 -13.5q0 -272 6 -503q1 -61 24 -83t76 -36q24 -6 40.5 -19t16.5 -24q0 -17 -15 -29t-48 -12q-8 0 -73.5 3t-108.5 3q-41 0 -98.5 -3t-67.5 -3q-55 0 -55 31q0 15 12.5 28t34.5 17q47 14 64 36
t20 66q8 132 8 502q0 12 -9.5 23.5t-17.5 11.5l-65 10q-15 2 -26 12t-11 23t14 24t48.5 28t45.5 23q19 9 21 37q16 181 84 285q70 111 178 180q113 70 238 70q138 0 208 -76q21 -24 21 -70q0 -28 -37 -58t-59 -30q-10 0 -26.5 7t-25.5 16q-48 48 -90.5 73t-99.5 25
q-56 0 -98.5 -29.5t-67.5 -78.5q-53 -106 -53 -322q0 -10 4.5 -18.5t11.5 -8.5z" />
    <glyph glyph-name="f_j" unicode="fj" horiz-adv-x="1087" 
d="M686 719h-299q-7 0 -12.5 -7t-5.5 -14q0 -339 4 -501q1 -60 24.5 -82.5t77.5 -36.5q24 -6 39.5 -19t15.5 -24q0 -41 -61 -41q-8 0 -73.5 3t-108.5 3q-41 0 -99.5 -3t-68.5 -3q-21 0 -38.5 7.5t-17.5 23.5q0 14 14 27.5t36 17.5q47 14 64 36t20 66q8 132 8 506
q0 12 -9.5 23.5t-17.5 11.5l-67 4q-18 1 -26.5 12.5t-8.5 22.5q0 8 6 16t19 16t24.5 14t30 15t28.5 14q21 11 21 37q2 75 24 154.5t60 138.5q61 97 182 174q115 70 234 70q135 0 208 -76q21 -24 21 -61q0 -28 -39 -59t-61 -31q-30 0 -48 18q-47 47 -89.5 71.5t-102.5 24.5
q-54 0 -96 -31.5t-68 -80.5q-53 -109 -53 -318q0 -10 5.5 -18.5t12.5 -8.5h174q264 0 308 33q24 15 36 15q27 0 27 -111q0 -127 -2 -430t-2 -307q0 -51 -8 -121q-11 -99 -59 -187t-109 -141q-37 -34 -102.5 -68t-82.5 -34q-22 0 -22 22q0 33 25 52q43 32 79 65
q47 45 74 114.5t35 196.5q6 144 5 237t-5 260.5t-4 248.5q-2 16 -23.5 29.5t-52.5 13.5z" />
    <glyph glyph-name="f_k" unicode="fk" horiz-adv-x="1642" 
d="M674 1401q102 0 162 -33q9 -9 22 4q5 4 14 12.5t12 11.5t9.5 8.5t9.5 7t8 5t8.5 4t7.5 1.5t9 1q22 0 25 -73q0 -24 -5.5 -303t-5.5 -345v-143q0 -53 4.5 -69.5t18.5 -16.5q8 0 29.5 12.5t39.5 28.5q91 76 191 186q21 25 16 38t-35 22q-53 14 -53 33q0 15 16 28t37 13h80
q46 0 127.5 5t96.5 5q28 0 45.5 -10t17.5 -23t-15 -23.5t-36 -15.5q-69 -19 -105 -35.5t-90 -58.5q-28 -20 -89.5 -72.5t-94.5 -77.5q-9 -9 0 -26q55 -72 252 -303q90 -99 149 -121q47 -19 64.5 -29.5t17.5 -23.5q0 -31 -71 -31q-25 0 -96.5 3t-127.5 3q-16 0 -48.5 -1
t-41.5 -1q-23 0 -35 10.5t-12 20.5q0 14 11 23.5t42 19.5q32 10 11 47q-10 15 -199 239q-4 5 -10.5 12.5t-9.5 11t-8 9t-7.5 8t-6.5 6t-6 5t-5.5 3.5t-6 3t-6 1.5t-6.5 0.5q-9 0 -32 -15q-13 -7 -13 -28q0 -26 -0.5 -67.5t-0.5 -71.5t1 -54q0 -17 2.5 -31t4.5 -24t8.5 -18.5
t9.5 -12.5t12.5 -9.5t12.5 -7t15.5 -6t14.5 -5.5q3 -1 8.5 -3t8.5 -3t7 -3t6.5 -3t5.5 -2.5t4.5 -3.5t3.5 -4t2.5 -4t0.5 -5q0 -14 -14 -28.5t-39 -14.5q-17 0 -72 3t-82 3q-28 0 -84.5 -3t-74.5 -3q-25 0 -44.5 8.5t-19.5 22.5q0 27 58 45q44 14 56 34t15 66q3 25 7.5 322
t4.5 440q0 194 -2 213q-4 46 -24 76q-55 75 -170 75q-57 0 -107 -41t-75 -106q-19 -51 -31 -136.5t-8 -152.5q0 -10 7 -19.5t15 -9.5q39 0 136 3.5t98 3.5q9 0 15 -10.5t8.5 -26.5t3.5 -27.5t1 -21.5q0 -4 -12.5 -21.5t-19.5 -17.5q-1 0 -112.5 1t-123.5 1q-18 0 -18 -60
q0 -298 4 -460q1 -60 24 -81.5t78 -35.5q24 -6 39.5 -19t15.5 -24q0 -17 -15 -29t-48 -12q-8 0 -72.5 3t-107.5 3q-41 0 -101.5 -3t-70.5 -3q-21 0 -38.5 7.5t-17.5 23.5q0 14 15.5 27.5t38.5 17.5q47 14 63 35t19 65q10 165 10 518q0 12 -9.5 23.5t-17.5 11.5l-72 6
q-17 2 -23.5 6t-6.5 17q0 6 3 12t10.5 12.5t13.5 11.5t19 12.5t19.5 11t22 12t20.5 10.5q19 9 21 36q13 163 74 277q56 99 147 168q47 35 117.5 60.5t130.5 25.5z" />
    <glyph glyph-name="f_l" unicode="fl" horiz-adv-x="1140" 
d="M676 1401q102 0 166 -33q5 -4 12 -2.5t10 6.5q45 51 76 51q25 0 25 -80q0 -77 -3.5 -320t-3.5 -341q0 -343 5 -494q3 -55 25 -78.5t77 -39.5q15 -5 27.5 -13.5t18 -15.5t5.5 -10q0 -37 -51 -37q-28 0 -102.5 3t-100.5 3q-45 0 -105 -3t-73 -3q-24 0 -37.5 9t-13.5 20
q0 32 53 49q56 19 74.5 39.5t21.5 56.5q15 247 15 528q0 7 -6 18t-13 11q-43 0 -136 0.5t-169 1t-80 0.5q-9 0 -16.5 -7t-7.5 -13q0 -350 4 -512q1 -61 23 -82t77 -35q24 -6 43 -19t19 -24q0 -17 -17.5 -29t-50.5 -12q-8 0 -72.5 3t-107.5 3q-41 0 -101.5 -3t-70.5 -3
q-21 0 -38.5 7.5t-17.5 23.5q0 14 15.5 27.5t38.5 17.5q47 14 63 35t19 65q10 165 10 512q0 11 -9.5 23t-17.5 14l-72 10q-30 3 -30 25q0 8 5.5 16.5t20 18t23 14.5t31.5 16.5t28 14.5q19 9 21 36q14 164 74 277q54 94 151 166q51 37 119 62.5t127 25.5zM590 1292
q-58 0 -104 -41.5t-72 -107.5q-44 -126 -39 -281q0 -8 5.5 -19.5t14.5 -11.5q244 0 379 3q7 0 15 4t8 12v52q0 143 -1.5 192.5t-7.5 70.5q-9 42 -20 56q-52 71 -178 71z" />
    <glyph glyph-name="f_t" unicode="ft" horiz-adv-x="1228" 
d="M719 723h-332q-18 0 -18 -61q0 -54 10 -459q1 -70 25 -92.5t106 -34.5q25 -4 43 -17t18 -24q0 -19 -18 -30t-49 -11q-2 0 -75 3t-142 3q-7 0 -63 -3t-89 -3q-65 0 -65 37q0 21 51 41q40 17 58.5 36.5t19.5 47.5q6 99 6 532q0 7 -7 17t-10 10l-79 14q-35 8 -35 27
q0 18 14.5 27.5t66.5 32.5q18 8 29 13q5 1 12 12t7 15q0 62 18 141t53 144q57 101 158 176q50 36 114 60t113 24q61 0 111 -16.5t72 -47.5q14 -17 14 -55q0 -16 -10 -33q-11 -23 -38 -40t-44 -17q-26 0 -53 20q-96 76 -148 76q-55 0 -92.5 -33.5t-56.5 -87.5
q-37 -107 -37 -282q0 -54 16 -54q39 0 176.5 1.5t139.5 1.5q25 0 47 28q12 18 34 45.5t27 34.5q40 49 68 49q6 0 14 -13.5t8 -21.5v-100q0 -25 17 -25q8 0 114 4.5t133 4.5q10 0 17.5 -12.5t7.5 -22.5q4 -43 0 -62q-7 -26 -47 -26q-42 0 -128 1t-106 1q-2 0 -5 -3t-6 -11
t-3 -19l-2 -379q-1 -68 5.5 -99.5t25.5 -53.5q18 -20 53 -32.5t57 -12.5q23 0 93 18q7 1 22.5 6.5t22.5 5.5q6 0 12 -9t6 -21q0 -35 -49 -72q-45 -33 -103.5 -48.5t-107.5 -15.5q-46 0 -96 24.5t-80 70.5q-29 45 -29 145q0 65 2 215t2 254q0 41 -16 41z" />
    <glyph glyph-name="longs_b" unicode="&#x17f;b" horiz-adv-x="1667" 
d="M600 1288q-73 0 -118 -32t-70 -115q-18 -64 -28.5 -184t-10.5 -242q0 -395 4 -518q1 -34 9.5 -56.5t28.5 -35.5t32 -17t42 -12q68 -16 68 -43q0 -39 -74 -39q-8 0 -80.5 3t-115.5 3q-41 0 -102.5 -3t-71.5 -3q-18 0 -35 8.5t-17 24.5q0 14 14.5 26.5t37.5 16.5
q47 14 64 36t20 66q8 132 8 502q0 11 -9.5 23t-17.5 14l-74 14q-30 3 -30 31q0 8 6.5 16.5t19.5 17t24.5 14.5t31 15.5t28.5 14.5q21 10 21 36q1 109 47.5 216t124.5 184q53 53 134.5 92t152.5 39q85 0 149 -33q2 -3 13.5 -3.5t17.5 3.5q38 49 78 49q22 0 22 -59
q0 -64 -3 -240t-3 -299q0 -14 5 -23t11 -9.5t11 1.5q59 35 127 51.5t106 16.5q143 0 258 -100q75 -65 105 -151.5t30 -168.5q0 -100 -53 -199t-139 -157q-81 -56 -150.5 -80.5t-154.5 -24.5q-51 0 -127 14t-115 31q-21 8 -41 5q-26 -7 -34.5 -1.5t-8.5 37.5l2 158
q1 158 2.5 359t1.5 307q0 171 -5 239t-19 90q-51 74 -150 74zM1397 412q0 148 -82.5 240.5t-196.5 92.5q-83 0 -131 -24q-41 -23 -43 -51q-6 -30 -6 -213q0 -202 20 -260q15 -43 74.5 -81t128.5 -38q94 0 135 37q21 18 34 34t31 49t27 87.5t9 126.5z" />
    <glyph glyph-name="longs_h" unicode="&#x17f;h" horiz-adv-x="1681" 
d="M670 1401q56 0 85 -6t58 -25q7 -4 15 -3t12 5q12 15 37 30t45 15t20 -59q0 -35 -2 -277t-2 -290q0 -9 3 -16t6.5 -9t6.5 0q136 90 263 90q79 0 125.5 -23t80.5 -63q37 -40 59.5 -114t22.5 -156q0 -40 3 -185.5t3 -154.5q0 -34 14 -50.5t60 -35.5q49 -22 49 -47
q0 -33 -57 -33q-27 0 -75 3t-77 3q-20 0 -71 -3t-80 -3q-25 0 -42.5 9t-17.5 24q0 22 46 39q52 17 65.5 36.5t13.5 75.5v367q-2 70 -51 133q-21 26 -64.5 45.5t-86.5 19.5q-48 0 -91.5 -14.5t-63.5 -27.5t-32 -25q-12 -14 -12 -35q0 -471 2 -494q2 -33 14 -48.5t50 -30.5
q17 -6 28.5 -17t11.5 -20q0 -17 -14.5 -27t-38.5 -10q-16 0 -66.5 3t-80.5 3q-29 0 -87 -3t-73 -3q-59 0 -59 31q0 30 55 47q44 13 63.5 33.5t22.5 54.5q8 78 8 559q0 398 -4 457q-3 45 -51 77q-53 37 -115 37q-76 0 -124.5 -35.5t-73.5 -119.5q-35 -123 -35 -420
q0 -83 -1 -199.5t-1 -190t2 -128.5q1 -35 8 -57t24 -34.5t30 -17.5t40 -12q27 -6 44.5 -18t17.5 -27q0 -37 -80 -37q-8 0 -67.5 3t-102.5 3q-41 0 -102.5 -3t-71.5 -3q-18 0 -36 8.5t-18 24.5q0 13 15.5 24.5t38.5 16.5q47 14 64 37t20 67q8 132 8 518q0 11 -9 18t-18 9
l-74 8q-30 3 -30 31q0 8 6.5 16.5t19.5 17t24.5 14.5t31 15.5t28.5 14.5q21 10 21 36q0 108 45.5 213t122.5 181q55 53 141.5 95t157.5 42z" />
    <glyph glyph-name="longs_i" unicode="&#x17f;i" horiz-adv-x="1114" 
d="M178 713l-74 6q-30 3 -30 31q0 9 6 17.5t19 17t24.5 15t31 16t29.5 15.5q21 11 21 35q0 70 24 151.5t62 141.5q63 104 186 176q107 66 234 66q59 0 112 -23.5t84 -58.5q19 -24 19 -59q0 -29 -33.5 -57.5t-54.5 -28.5q-30 0 -50 20q-92 92 -196 92q-139 0 -189 -188
q-32 -125 -32 -383q0 -457 2 -518q1 -46 14.5 -71.5t29.5 -33t50 -16.5q63 -14 63 -45q0 -37 -73 -37q-7 0 -66 3t-104 3q-41 0 -101.5 -3t-70.5 -3q-49 0 -49 31q0 15 12.5 28t34.5 17q46 15 63.5 36.5t20.5 65.5q8 132 8 506q0 12 -9.5 23.5t-17.5 11.5zM664 762
q0 10 8.5 17.5t19.5 11.5q189 65 221 65q21 0 21 -90v-315q2 -266 8 -320q3 -22 21 -37t63 -26q49 -14 49 -41q0 -33 -59 -33q-21 0 -86 3t-88 3q-61 0 -112 -3t-56 -3q-62 0 -62 33q0 26 52 39q62 15 77 34.5t21 85.5q8 86 8 381q0 58 -4 82q-4 29 -80 74q-22 13 -22 39z
" />
    <glyph glyph-name="longs_k" unicode="&#x17f;k" horiz-adv-x="1634" 
d="M672 1393q104 0 145 -31q14 -11 29 0q64 49 84 49t20 -61q0 -76 -4 -251t-4 -302v-281q0 -14 4 -30.5t12 -16.5q13 0 62 35q66 51 205 196q13 14 12.5 26.5t-8 19.5t-19.5 12q-59 18 -59 35q0 15 17 26.5t28 11.5h90q46 0 127 6.5t96 6.5q28 0 45 -11t17 -24t-14 -23.5
t-33 -13.5q-95 -14 -201 -96q-20 -15 -45.5 -36t-64.5 -55t-62 -53q-18 -14 -12 -26q31 -43 74 -95.5t73.5 -88.5t67 -78t41.5 -47q91 -100 147 -119q82 -29 82 -51q0 -18 -20 -25.5t-39 -7.5q-25 0 -102.5 3t-133.5 3h-96q-19 0 -29 13t-10 24q0 21 55 37q32 10 6 45
q-18 27 -89.5 113t-110.5 130q-46 56 -66 56q-8 0 -27.5 -10.5t-19.5 -16.5v-207q1 -33 8 -55.5t20.5 -34t23 -16t26.5 -8.5q49 -15 49 -37q0 -13 -18.5 -26t-44.5 -13q-17 0 -68 3t-78 3q-28 0 -91 -3t-81 -3q-24 0 -39.5 9t-15.5 24q0 14 11 24t46 23q38 14 57.5 36
t22.5 60q8 70 8 711v134q1 126 -1 152.5t-13 42.5q-22 31 -62.5 51.5t-91.5 20.5q-156 0 -204 -162q-25 -85 -33 -405q-6 -334 0 -520q1 -64 22 -86.5t70 -34.5q65 -16 65 -43q0 -37 -73 -37q-8 0 -67.5 3t-102.5 3q-41 0 -103.5 -2t-72.5 -2q-50 0 -50 31q0 14 14.5 26.5
t37.5 16.5q48 14 64.5 35.5t19.5 64.5q8 132 8 518q0 11 -9 19t-18 8l-74 8q-30 3 -30 35q0 8 6.5 16t19.5 16t24.5 14.5t30.5 15.5t29 14q21 10 21 36q3 221 168 383q56 54 142 97t157 43z" />
    <glyph glyph-name="longs_l" unicode="&#x17f;l" horiz-adv-x="1118" 
d="M602 1290q-76 0 -121.5 -33.5t-70.5 -117.5q-35 -123 -35 -424q0 -457 2 -520q1 -34 8 -56t23.5 -34t29 -17t39.5 -12q28 -6 47 -18.5t19 -26.5q0 -37 -72 -37q-8 0 -74.5 3t-109.5 3q-41 0 -101.5 -3t-70.5 -3q-20 0 -37 8.5t-17 24.5q0 14 14.5 26.5t37.5 16.5
q48 15 65.5 36t20.5 64q8 132 8 516q0 11 -9 18t-18 9l-74 12q-30 3 -30 29q0 8 6 16.5t20 17.5t24 15t31.5 16.5t28.5 14.5q19 9 21 36q0 110 45 215.5t123 180.5q55 54 137.5 94.5t153.5 40.5q100 0 151 -33q19 -12 31 0q38 49 76 49q22 0 22 -59q0 -78 -3 -328t-3 -348
q0 -248 6 -492q2 -58 20 -78t89 -42q16 -5 27 -13t14.5 -14t3.5 -10q0 -39 -60 -39q-29 0 -99.5 3t-96.5 3q-44 0 -93.5 -3t-68.5 -3q-61 0 -61 33q0 28 53 45q30 11 49 21t28 24t11.5 23.5t5.5 29.5q8 66 8 565q0 395 -10 447q-6 45 -56.5 76.5t-107.5 31.5z" />
    <glyph glyph-name="longs_longs" unicode="&#x17f;&#x17f;" horiz-adv-x="1165" 
d="M1290 1401q64 0 119.5 -23t85.5 -59q21 -26 21 -59q0 -29 -38 -57.5t-59 -28.5q-29 0 -49 20q-47 47 -91 72.5t-101 25.5q-123 0 -174 -166q-37 -123 -37 -411q0 -395 2 -518q1 -66 21 -89.5t67 -35.5q59 -13 59 -41q0 -37 -69 -37q-7 0 -64 3t-102 3q-41 0 -101.5 -3
t-70.5 -3q-50 0 -50 31q0 14 13 26.5t37 16.5q46 14 62.5 36.5t19.5 67.5q8 132 8 510q0 12 -9.5 23.5t-17.5 11.5l-70 6q-34 3 -34 29q0 9 6 17.5t19.5 17.5t24 15t31 16.5t29.5 15.5q3 2 8.5 4.5t8.5 4t5.5 6t2.5 11.5q8 159 61 254q8 16 -2 29q-37 48 -106 81t-133 33
q-164 0 -213 -167q-39 -121 -39 -363q0 -284 8 -530q1 -46 14 -71.5t28 -33t48 -16.5q68 -16 68 -43q0 -18 -19.5 -28.5t-54.5 -10.5q-7 0 -69 3t-107 3q-41 0 -101.5 -3t-70.5 -3q-20 0 -38 8.5t-18 24.5q0 14 15.5 26.5t38.5 16.5q46 15 63.5 36.5t20.5 65.5q8 132 8 510
q0 12 -9.5 23.5t-17.5 11.5l-69 6q-35 3 -35 29q0 9 6 17.5t19.5 17.5t24 15t31 16.5t29.5 15.5q19 9 21 32q12 134 76 244.5t163 169.5q130 80 250 80q51 0 93.5 -8t75.5 -24.5t50 -27.5t41 -30q15 -12 31 4q142 127 305 127z" />
    <glyph glyph-name="longs_longs_i" unicode="&#x17f;&#x17f;i" horiz-adv-x="1728" 
d="M1296 1401q67 0 124 -21.5t87 -56.5q23 -29 23 -61q0 -29 -41 -61t-64 -32q-28 0 -47 19q-36 34 -56.5 51.5t-58.5 35t-77 17.5q-133 0 -185 -172q-34 -113 -34 -415q0 -262 4 -508q1 -66 21 -89.5t67 -35.5q65 -15 65 -41q0 -37 -75 -37q-7 0 -64.5 3t-101.5 3
q-41 0 -101.5 -3t-70.5 -3q-21 0 -42.5 8.5t-21.5 24.5q0 13 19 24.5t45 16.5q45 15 62 37.5t20 66.5q8 132 8 510q0 12 -9.5 23.5t-17.5 11.5l-69 6q-35 3 -35 29q0 9 6 17.5t19.5 17.5t24 15t31 16.5t29.5 15.5q3 2 8.5 4.5t8.5 4t5.5 6t2.5 11.5q10 147 53 244
q12 29 2 39q-35 44 -103 79t-143 35q-156 0 -206 -167q-37 -115 -37 -363q0 -284 8 -530q1 -46 14 -71.5t28 -33t48 -16.5q68 -16 68 -43q0 -18 -19.5 -28.5t-54.5 -10.5q-7 0 -69 3t-107 3q-41 0 -101.5 -3t-70.5 -3q-20 0 -38 8.5t-18 24.5q0 14 15.5 26.5t38.5 16.5
q46 15 63.5 36.5t20.5 65.5q8 132 8 510q0 12 -9.5 23.5t-17.5 11.5l-69 6q-35 3 -35 29q0 9 6 17.5t19.5 17.5t24 15t31 16.5t29.5 15.5q19 9 21 32q29 269 223 404q134 90 264 90q88 0 155.5 -27.5t106.5 -64.5q14 -11 25 0q76 66 150.5 99.5t166.5 33.5zM1280 766
q0 15 29 25q185 67 221 67q5 0 12.5 -13.5t7.5 -19.5v-374q2 -263 9 -326q1 -11 5 -18t23 -18.5t53 -20.5q22 -6 37 -19.5t15 -28.5q0 -12 -19.5 -19t-42.5 -7q-21 0 -85 3t-87 3q-61 0 -113 -3t-57 -3q-61 0 -61 31q0 27 49 41q64 17 80 37t22 85q8 86 8 299q0 148 -2 160
q-3 26 -79 78q-10 5 -17.5 19.5t-7.5 21.5z" />
    <glyph glyph-name="longs_longs_l" unicode="&#x17f;&#x17f;l" horiz-adv-x="1697" 
d="M1257 1401q104 0 154 -33q19 -12 31 0q38 49 76 49q22 0 22 -59q0 -78 -3 -328t-3 -348q0 -248 6 -492q2 -58 20 -78t89 -42q16 -5 27 -13t14.5 -14t3.5 -10q0 -39 -60 -39q-30 0 -100 3t-96 3q-44 0 -93.5 -3t-68.5 -3q-62 0 -62 33q0 28 54 45q30 11 49 21t28 24
t11.5 23.5t5.5 29.5q8 66 8 565q0 395 -10 447q-6 46 -57 79t-107 33q-75 0 -121 -35t-71 -120q-37 -130 -37 -434q0 -262 4 -508q1 -66 21 -89.5t67 -35.5q65 -15 65 -41q0 -37 -75 -37q-7 0 -64.5 3t-101.5 3q-41 0 -101.5 -3t-70.5 -3q-21 0 -42.5 8.5t-21.5 24.5
q0 13 19 24.5t45 16.5q45 15 62 37.5t20 66.5q8 132 8 510q0 12 -9.5 23.5t-17.5 11.5l-69 6q-35 3 -35 29q0 9 6 17.5t19.5 17.5t24 15t31 16.5t29.5 15.5q3 2 8.5 4.5t8.5 4t5.5 6t2.5 11.5q10 147 53 244q12 29 2 39q-35 44 -103 79t-143 35q-156 0 -206 -167
q-37 -115 -37 -363q0 -284 8 -530q1 -46 14 -71.5t28 -33t48 -16.5q68 -16 68 -43q0 -18 -19.5 -28.5t-54.5 -10.5q-7 0 -69 3t-107 3q-41 0 -101.5 -3t-70.5 -3q-20 0 -38 8.5t-18 24.5q0 14 15.5 26.5t38.5 16.5q46 15 63.5 36.5t20.5 65.5q8 132 8 510q0 12 -9.5 23.5
t-17.5 11.5l-69 6q-35 3 -35 29q0 9 6 17.5t19.5 17.5t24 15t31 16.5t29.5 15.5q19 9 21 32q29 269 223 404q134 90 264 90q88 0 155.5 -27.5t106.5 -64.5q9 -5 11.5 -4t11.5 10q62 60 138.5 93.5t141.5 33.5z" />
    <glyph glyph-name="Tcommaaccent_h" unicode="&#x162;h" horiz-adv-x="2232" 
d="M1460 1343q14 0 24.5 -26.5t10.5 -69.5q0 -35 -3 -221.5t-3 -234.5q0 -11 2.5 -18t5.5 -9t6 0q133 92 264 92q134 0 213 -92q36 -39 56 -110t20 -154q8 -272 8 -342q0 -33 13.5 -48t60.5 -36q49 -22 49 -47q0 -17 -18 -25t-39 -8q-27 0 -76 3t-78 3q-20 0 -70 -3t-79 -3
q-60 0 -60 31q0 25 45 41q51 17 65.5 37t14.5 75v367q-2 73 -49 133q-22 27 -64.5 46t-84.5 19q-126 0 -181 -55q-9 -9 -16.5 -24t-7.5 -23q0 -1 -1 -127.5t-1 -236t2 -130.5q1 -31 17 -47.5t57 -31.5q17 -6 28 -17t11 -20q0 -18 -14.5 -27.5t-37.5 -9.5q-15 0 -65 3t-80 3
q-29 0 -95 -3t-81 -3q-62 0 -62 31q0 16 14.5 25t43.5 18q43 14 64 34.5t24 55.5q12 117 12 497q0 351 -4 408q0 76 -70 82q-62 8 -415 8q-9 0 -17.5 -6.5t-9.5 -20.5q-8 -116 -8 -247v-613q0 -53 9 -86.5t32.5 -53t45 -28t62.5 -20.5q5 -1 8 -2q60 -15 60 -47
q0 -13 -16.5 -24t-45.5 -11q-5 0 -53 1.5t-115.5 3t-121.5 1.5q-71 0 -143 -3t-91 -3q-63 0 -63 39q0 13 15.5 24t43.5 17q109 27 143.5 61.5t34.5 122.5q0 10 1.5 86.5t3 211.5t1.5 286v262q0 28 -5.5 38.5t-24.5 10.5h-203q-115 -3 -157 -29.5t-77 -119.5q-20 -58 -47 -58
q-25 0 -33 19t-6 61q0 4 13.5 107t9.5 159q-1 11 17.5 24t27.5 13q11 0 29 -18q28 -33 49.5 -44t64.5 -12q84 -4 197 -4h772q79 0 106 9.5t56 48.5q27 34 59 34zM618 -500q-15 0 -29 6t-14 17q0 16 10 30t23 21q41 14 74 42t33 60q0 42 -70 66q-26 8 -44.5 27t-18.5 45
q0 34 28 63t68 29q64 0 110 -49t46 -131q0 -47 -18.5 -87t-45 -64.5t-58 -42.5t-55.5 -25t-39 -7z" />
    <glyph glyph-name="Tcaron_h" unicode="&#x164;h" horiz-adv-x="2232" 
d="M1460 1343q14 0 24.5 -26.5t10.5 -69.5q0 -35 -3 -221.5t-3 -234.5q0 -11 2.5 -18t5.5 -9t6 0q133 92 264 92q134 0 213 -92q36 -39 56 -110t20 -154q8 -272 8 -342q0 -33 13.5 -48t60.5 -36q49 -22 49 -47q0 -17 -18 -25t-39 -8q-27 0 -76 3t-78 3q-20 0 -70 -3t-79 -3
q-60 0 -60 31q0 25 45 41q51 17 65.5 37t14.5 75v367q-2 73 -49 133q-22 27 -64.5 46t-84.5 19q-126 0 -181 -55q-9 -9 -16.5 -24t-7.5 -23q0 -1 -1 -127.5t-1 -236t2 -130.5q1 -31 17 -47.5t57 -31.5q17 -6 28 -17t11 -20q0 -18 -14.5 -27.5t-37.5 -9.5q-15 0 -65 3t-80 3
q-29 0 -95 -3t-81 -3q-62 0 -62 31q0 16 14.5 25t43.5 18q43 14 64 34.5t24 55.5q12 117 12 497q0 351 -4 408q0 76 -70 82q-62 8 -415 8q-9 0 -17.5 -6.5t-9.5 -20.5q-8 -116 -8 -247v-613q0 -53 9 -86.5t32.5 -53t45 -28t62.5 -20.5q5 -1 8 -2q60 -15 60 -47
q0 -13 -16.5 -24t-45.5 -11q-5 0 -53 1.5t-115.5 3t-121.5 1.5q-71 0 -143 -3t-91 -3q-63 0 -63 39q0 13 15.5 24t43.5 17q109 27 143.5 61.5t34.5 122.5q0 10 1.5 86.5t3 211.5t1.5 286v262q0 28 -5.5 38.5t-24.5 10.5h-203q-115 -3 -157 -29.5t-77 -119.5q-20 -58 -47 -58
q-25 0 -33 19t-6 61q0 4 13.5 107t9.5 159q-1 11 17.5 24t27.5 13q11 0 29 -18q28 -33 49.5 -44t64.5 -12q84 -4 197 -4h772q79 0 106 9.5t56 48.5q27 34 59 34zM705 1339q-29 0 -97 58q-83 64 -198 166q-23 20 -29 40t4 32t31 12q18 0 76 -23q170 -90 202 -111q23 -9 41 0
q102 66 193 109q32 20 73 20q40 0 31 -32q-8 -26 -43 -58q-9 -7 -46.5 -39.5t-78 -66.5t-69.5 -55q-22 -18 -33 -26.5t-27.5 -17t-29.5 -8.5z" />
    <glyph glyph-name="gamma_gamma" unicode="&#x3b3;&#x3b3;" horiz-adv-x="1685" 
d="M1018 868q42 0 74.5 -9.5t68.5 -36.5t64.5 -85t48.5 -145q10 -50 18 -166t8 -190q0 -9 7 -9t12 9q30 62 97 213t71 161q59 131 84 267q0 5 15 6.5t24 -2.5q71 -49 80 -88q5 -21 0 -50t-13 -47q-26 -58 -109.5 -198t-155.5 -275.5t-93 -220.5q-10 -39 -10 -96
q0 -294 -13 -340q-3 -10 -20 -23t-27 -12q-108 35 -143 102q-7 13 -11 36t-1 34q7 32 22 76t27.5 74.5t36 87.5t32.5 79q24 53 11 209q-4 46 -9.5 87.5t-17 98.5t-30 102t-44.5 86t-65.5 64t-87.5 23q-56 0 -113 -53t-101.5 -130.5t-85 -176t-66 -179t-42.5 -149.5
q-10 -39 -10 -96q0 -72 -9 -214t-16 -167q-3 -10 -20.5 -23t-28.5 -12q-107 36 -141 102q-8 14 -12.5 37t-1.5 33q7 32 25 84.5t30.5 84t43.5 106.5t34 83q23 51 10 209q-6 66 -22 136t-45 146t-79.5 124.5t-113.5 48.5q-36 0 -76 -18.5t-59 -34t-33 -29.5q-8 -6 -21 1.5
t-16 19.5q-4 33 12 72t25 48q93 125 223 125q42 0 74 -9t68 -35.5t65 -84t49 -145.5q10 -50 18.5 -167.5t8.5 -190.5q0 -9 7.5 -9t10.5 9q14 44 25 78.5t30 86.5t37 93.5t43 91.5t49.5 88t56.5 76t64.5 62.5t71.5 40t80 15.5z" />
    <glyph glyph-name="lambda_lambda" unicode="&#x3bb;&#x3bb;" horiz-adv-x="1746" 
d="M254 1358q86 0 150.5 -72.5t107.5 -234.5q9 -33 49.5 -208.5t83 -342t68.5 -234.5q6 -21 16 -43.5t32.5 -47.5t47.5 -25q31 0 65 67q40 75 101.5 184.5t107.5 189.5t52 93q51 92 67 111q12 24 13.5 36.5t-5.5 42.5q-6 20 -15.5 60.5t-17 67.5t-21.5 64.5t-33 62t-46 48
t-67 35t-90 11.5q-87 0 -170 -37q-5 -2 -18 5t-13 11q0 35 29 74q36 55 95.5 89t121.5 34q94 0 160.5 -62.5t121.5 -230.5q10 -30 107.5 -385t130.5 -442q12 -29 53 -73t80 -44q44 0 90 10q5 1 12 -9t9 -18q0 -28 -13 -59q-25 -63 -62 -93t-93 -30q-54 0 -92 44t-58 116
q-9 34 -45 159t-65.5 231t-30.5 116q-3 13 -14 9.5t-13 -11.5q-6 -15 -119.5 -255.5t-122.5 -258.5q-24 -40 -36 -57t-33.5 -40t-45.5 -32.5t-57 -10.5q-84 0 -130.5 50t-77.5 167q-17 61 -61.5 240t-47.5 199q-2 13 -12.5 9.5t-12.5 -11.5l-223 -553q-1 -2 -12 -24.5
t-20 -39.5t-22.5 -33t-23.5 -16q-15 0 -54.5 10t-59.5 25q-10 7 -15 20t-2 19q6 13 159 310.5t165 322.5q41 95 67 127q13 24 14.5 36.5t-5.5 42.5q-11 36 -14 46.5t-14.5 45t-18 47.5t-21 42.5t-26.5 42t-31.5 32t-39.5 28t-46 15.5t-56 7q-86 0 -137 -23q-4 -1 -12 6.5
t-8 12.5q3 43 30 79q28 40 79 71.5t114 31.5z" />
    <glyph glyph-name=".notdef" horiz-adv-x="1024" 
d="M0 0v1434h1024v-1434h-1024zM512 809l348 522h-696zM573 717l349 -522v1044zM164 102h696l-348 523zM102 1239v-1044l349 522z" />
    <glyph glyph-name=".null" horiz-adv-x="0" 
 />
    <glyph glyph-name="nonmarkingreturn" horiz-adv-x="682" 
 />
    <glyph glyph-name="space" unicode=" " horiz-adv-x="430" 
 />
    <glyph glyph-name="exclam" unicode="!" horiz-adv-x="681" 
d="M383 1190q35 0 58.5 -17t34 -44.5t14.5 -52t4 -50.5q0 -61 -30 -257.5t-50 -309.5q-6 -28 -19 -45t-26 -17q-14 0 -26 14t-13 33q-17 95 -42.5 297t-25.5 277q0 66 30 119t91 53zM371 233q59 0 90 -40t31 -91q0 -56 -36 -91.5t-91 -35.5q-50 0 -84.5 34.5t-34.5 94.5
q0 62 39.5 95.5t85.5 33.5z" />
    <glyph glyph-name="quotedbl" unicode="&#x22;" horiz-adv-x="606" 
d="M205 1391q39 0 39 -86q0 -63 -21.5 -181.5t-38.5 -150.5q-29 -53 -51 -53q-19 0 -29 15.5t-10 37.5q-3 121 -24 325q-2 26 20 48q20 19 55.5 32t59.5 13zM502 1401q45 0 45 -88q0 -61 -23 -182.5t-39 -157.5q-32 -51 -51 -53q-14 -2 -26 14t-11 37q-2 34 -6.5 115.5
t-8.5 133.5t-9 93q-1 7 6.5 24t15.5 25q20 17 52 28t55 11z" />
    <glyph glyph-name="numbersign" unicode="#" horiz-adv-x="1036" 
d="M963 856q-4 -21 -19 -47q-15 -27 -22 -27l-154 -4q-10 -6 -12 -14l-56 -221q-2 -5 2 -10t11 -5l164 4q7 0 11.5 -14t2.5 -24q-2 -12 -11 -40.5t-16 -41.5q-2 -4 -24 -17l-162 -4q-3 0 -7.5 -4.5t-6.5 -9.5l-82 -357q-9 -12 -15 -14q-20 -10 -59 -10q-8 0 -17 6t-8 12
l82 361q3 16 -10 16l-209 -4q-3 0 -8.5 -4t-5.5 -6l-80 -354q-3 -12 -21 -21q-15 -6 -49 -6q-10 0 -20.5 7t-9.5 17l88 353q1 4 -3 7t-8 3l-153 -4q-1 0 -4 3.5t-6 9.5t-3 11q0 20 9.5 54t17.5 43q16 16 27 16l145 4q14 0 17 12l53 224q1 5 -2.5 9.5t-7.5 4.5l-152 -4
q-7 0 -15.5 6t-9.5 16q-3 18 0 52q5 16 17 40.5t20 24.5l168 4q5 0 13.5 6.5t9.5 12.5l78 311q0 14 16 25q12 6 63 6q8 0 16 -7t5 -14l-84 -323q-1 -6 2.5 -10.5t9.5 -4.5l195 7q17 0 20 10l80 317q2 5 10 12.5t15 8.5q20 4 47 4q6 0 14 -7t8 -14l-84 -317q-2 -3 1 -8.5
t6 -5.5l153 2q6 0 11.5 -5.5t9 -20t-1.5 -38.5zM662 766q1 4 -1.5 8t-7.5 4l-209 -6q-6 0 -12.5 -5.5t-7.5 -14.5l-53 -213q0 -3 3.5 -9t6.5 -6l213 4q12 7 14 13z" />
    <glyph glyph-name="dollar" unicode="$" horiz-adv-x="997" 
d="M133 893q0 75 35 137t91.5 101t123.5 61t137 25q3 0 8.5 5.5t6.5 12.5l14 151q0 3 6 8t10 5q23 0 51 -8q5 -1 9 -6t4 -7l-15 -147q0 -5 4 -11t9 -6q34 -4 72.5 -11.5t76 -17t47.5 -11.5q20 -3 39 -46q4 -17 10.5 -79.5t6.5 -85.5q2 -30 -8.5 -49t-28.5 -19q-28 0 -43 39
q-50 150 -176 196q-15 0 -15 -8l-41 -413q0 -14 13 -19q59 -25 97.5 -43.5t87.5 -51.5t77.5 -66.5t49 -83t19.5 -107.5q0 -78 -35 -140.5t-93.5 -101t-125 -61.5t-139.5 -31q-10 -3 -14 -10l-19 -189q-4 -9 -14 -12q-16 -8 -39 -8q-8 0 -18.5 4.5t-12.5 7.5l17 195q0 4 -3 7
t-5 3q-80 6 -154 25l-113 28q-8 2 -13 4.5t-10 10t-9 20.5q-10 30 -21 106.5t-10 110.5q0 11 15 22t24 11q16 0 47 -43q36 -53 67 -102q60 -85 181 -111q3 -2 8 1t6 7l39 426q3 17 -12 27q-51 25 -73 36t-64.5 35.5t-62.5 40.5t-48.5 44t-41 54t-22.5 62t-10 76zM295 942
q0 -120 182 -211q3 0 7.5 4.5t4.5 9.5l33 377q2 6 -1 12.5t-9 6.5q-103 -4 -160 -60t-57 -139zM735 287q0 71 -37.5 114t-138.5 93q-5 3 -8.5 -2t-3.5 -9l-35 -387q0 -16 10 -16q35 6 69.5 20t68 38t54 63t21.5 86z" />
    <glyph glyph-name="percent" unicode="%" horiz-adv-x="1542" 
d="M393 1237q71 0 128.5 -32.5t91.5 -84t51.5 -110t17.5 -117.5q0 -70 -20 -137t-57 -122.5t-97.5 -89.5t-134.5 -34q-72 0 -130 30.5t-92.5 81.5t-52.5 111.5t-18 124.5q0 160 84 269.5t229 109.5zM365 1153q-39 0 -67 -26.5t-41 -70t-18.5 -84t-5.5 -83.5q0 -46 9 -95
t26.5 -97t51 -78t77.5 -29q129 2 129 266q0 32 -4 67.5t-15 77.5t-28.5 75t-47 55t-66.5 22zM1235 1198q-513 -730 -860 -1257q-16 -16 -29 -9q-27 11 -47 31q-13 11 -4 37q46 67 842 1223q21 30 43 30q7 0 27 -14.5t24 -24.5q7 -13 4 -16zM1171 700q73 0 131.5 -33
t92.5 -85.5t51.5 -112t17.5 -119.5q0 -76 -19 -142.5t-55.5 -119t-97.5 -83t-139 -30.5q-74 0 -132.5 31t-92.5 81.5t-51 109.5t-17 122q0 71 19.5 137.5t56.5 121.5t98 88.5t137 33.5zM1147 618q-41 0 -69 -27t-41 -71.5t-18 -85t-5 -84.5q0 -39 9 -87t27.5 -97t52.5 -80.5
t77 -30.5q127 0 127 264q0 31 -4 66t-15.5 77.5t-28.5 76.5t-46 56.5t-66 22.5z" />
    <glyph glyph-name="ampersand" unicode="&#x26;" horiz-adv-x="1701" 
d="M596 1255q129 0 210 -79.5t81 -171.5q0 -36 -10.5 -66.5t-23 -50.5t-42 -44t-46.5 -35t-58 -36q-9 -5 -13 -8q-2 -1 -1.5 -11t5.5 -14q61 -38 160 -120t160 -158q3 -3 12.5 -2.5t11.5 2.5q20 21 48.5 59.5t48 68t47.5 72.5t31 48q28 38 28 61q0 17 -71 37
q-13 3 -28.5 17.5t-15.5 27.5q0 16 19 27.5t39 11.5q98 0 180 8q53 4 115.5 12.5t83.5 8.5q55 0 55 -35q2 -16 -15 -29t-53 -22q-69 -19 -106.5 -46t-110.5 -102q-32 -32 -126.5 -145.5t-123.5 -145.5q-4 -6 -5.5 -16t1.5 -14q17 -24 109 -146q94 -102 211 -102q90 0 160 51
q10 6 23 -4.5t13 -22.5q0 -36 -34 -73q-97 -107 -267 -107q-84 0 -157 27q-6 1 -19.5 10t-35.5 30.5t-39 49.5q-63 107 -89 137q-13 7 -16 2q-48 -57 -113.5 -113.5t-117.5 -85.5q-96 -55 -205 -55q-164 0 -284 105t-120 264q0 66 20 119.5t63 100t93.5 83t129.5 82.5
q4 3 0 11t-7 11q-47 33 -88 100t-41 130q0 71 35.5 127.5t81.5 91.5q86 67 207 67zM561 1178q-43 0 -88 -40t-45 -118q0 -64 54.5 -125t121.5 -88q14 -3 37 6q34 15 63 60t29 114q0 40 -16.5 81.5t-57.5 75t-98 34.5zM600 121q79 -1 157.5 45t129.5 119q3 6 1 19t-5 18
q-72 106 -196.5 215.5t-182.5 136.5q-26 10 -39 2q-176 -137 -176 -279q0 -53 24 -108.5t64 -89.5q88 -78 223 -78z" />
    <glyph glyph-name="quotesingle" unicode="'" horiz-adv-x="307" 
d="M205 1391q39 0 39 -86q0 -66 -21.5 -190.5t-38.5 -156.5q-31 -55 -51 -55q-14 0 -26.5 13t-12.5 22q0 93 -28 350q-1 9 3.5 24t8.5 19q24 21 64.5 40.5t62.5 19.5z" />
    <glyph glyph-name="parenleft" unicode="(" horiz-adv-x="706" 
d="M274 492q0 -377 191 -691q82 -130 82 -145q0 -28 -23.5 -46t-50.5 -18q-38 0 -108.5 98t-116.5 208q-115 272 -115 579q0 148 27 286.5t72.5 244.5t93 184t98.5 135q89 103 135 103q10 0 24.5 -11t14.5 -26q0 -20 -31 -54q-47 -57 -83 -108t-77.5 -130.5t-68.5 -163.5
t-45.5 -200t-18.5 -245z" />
    <glyph glyph-name="parenright" unicode=")" horiz-adv-x="706" 
d="M432 532q0 375 -190 691q-82 130 -82 151q0 22 23.5 39t49.5 17q37 0 107.5 -97.5t118.5 -206.5q114 -269 114 -579q0 -149 -27 -287.5t-72 -244.5t-92 -183.5t-99 -134.5q-94 -105 -138 -105q-11 0 -25 14t-14 25q0 13 31 52q47 57 83 108t78.5 131t69.5 164t45.5 200.5
t18.5 245.5z" />
    <glyph glyph-name="asterisk" unicode="*" horiz-adv-x="763" 
d="M342 1350q13 0 23.5 -15t15.5 -37q11 -47 41 -200q0 -4 8 -6t14 2q43 31 95 62.5t73 39.5q32 10 44 5t12 -19q0 -5 -0.5 -8.5t-0.5 -6.5t-1.5 -6l-2 -4t-3.5 -4.5t-4 -4.5l-5 -5l-6 -6q-44 -46 -156 -123q-3 -3 -2 -10.5t5 -10.5q132 -71 184 -116q31 -23 31 -41
q0 -19 -22.5 -22.5t-35.5 3.5q-75 18 -194 82q-5 2 -11.5 -3t-5.5 -9q2 -40 2.5 -96.5t1.5 -73.5q1 -34 -8.5 -58t-21.5 -26q-29 0 -45 47q-25 101 -37 201q-4 15 -15 8q-131 -78 -178 -92q-67 -21 -67 10q0 23 24 43q122 90 164 119q4 4 2 11t-4 9q-106 50 -170 98
q-27 21 -27 39t17.5 23t36.5 -2q12 -3 192 -76q1 -1 4.5 1t6 5.5t1.5 7.5q-10 153 -10 203q0 27 10 44.5t25 17.5z" />
    <glyph glyph-name="plus" unicode="+" horiz-adv-x="1323" 
d="M1178 463l-430 -6q-6 0 -9.5 -5t-3.5 -10l-4 -460q0 -22 -34 -30.5t-72 -8.5q-11 0 -22 8t-11 24v467q0 6 -7 12.5t-12 6.5l-413 2q-18 0 -25.5 0.5t-15.5 3.5t-10.5 10t-2.5 19q0 25 13.5 56.5t27.5 31.5l431 6q3 0 8.5 6.5t5.5 9.5v443q0 16 37.5 27t66.5 11
q13 0 28 -10.5t15 -23.5l-6 -453q0 -6 6.5 -11t14.5 -5l422 4q23 0 32 -7t9 -24q0 -38 -12 -66t-27 -28z" />
    <glyph glyph-name="comma" unicode="," horiz-adv-x="456" 
d="M205 270q71 0 119.5 -64.5t48.5 -152.5q0 -68 -29 -127t-71 -94.5t-83 -55.5t-69 -20q-19 0 -34 10t-15 21q0 27 41 49q114 70 114 160q0 56 -73 76q-24 3 -49 28t-25 56q0 52 39 83t86 31z" />
    <glyph glyph-name="hyphen" unicode="-" horiz-adv-x="659" 
d="M133 498q32 6 202 20t210 14q8 0 17 -16t9 -24q0 -57 -16 -89q-3 -4 -16 -15t-15 -11q-46 -2 -137 -7t-160 -8.5t-110 -3.5q-14 -1 -22 8t-9.5 16t-1.5 13q0 21 6.5 47t11.5 33q14 17 31 23z" />
    <glyph glyph-name="period" unicode="." horiz-adv-x="456" 
d="M231 244q60 0 93.5 -44t33.5 -94q0 -58 -40 -94.5t-97 -36.5q-47 0 -85 36t-38 93q0 62 43 101t90 39z" />
    <glyph glyph-name="slash" unicode="/" horiz-adv-x="878" 
d="M82 -115q45 115 252 639.5t317 812.5q21 45 47 45q37 0 72 -14q10 -2 14.5 -13.5t-0.5 -25.5q-113 -294 -569 -1429q-6 -16 -10.5 -24.5t-14.5 -17t-24 -10.5q-16 -4 -53 -4q-14 0 -24.5 13t-6.5 28z" />
    <glyph glyph-name="zero" unicode="0" horiz-adv-x="997" 
d="M518 1237q78 0 142 -27.5t108 -76.5t76.5 -109t50.5 -131t26.5 -137.5t8.5 -132.5q0 -90 -13 -177t-45.5 -174t-81.5 -151.5t-126.5 -105t-174.5 -40.5q-92 0 -165.5 40.5t-119.5 104t-76.5 147.5t-43 165t-12.5 162q0 121 26.5 232.5t78.5 205t140 149.5t201 56z
M487 1157q-75 0 -131 -92q-88 -158 -88 -479q0 -59 7.5 -125t26.5 -138.5t46 -130.5t70 -95.5t96 -37.5q41 0 81.5 25t68.5 80q31 63 50 186.5t19 265.5q0 94 -13 184t-40.5 173t-77 133.5t-115.5 50.5z" />
    <glyph glyph-name="one" unicode="1" horiz-adv-x="997" 
d="M225 20q0 33 70 50q86 24 105 46.5t22 94.5q12 266 12 590q0 189 -2 213q-7 35 -24 37q-15 2 -58.5 5t-56.5 5q-45 8 -45 22q0 11 10 26.5t29 20.5q10 3 60 16t68.5 18.5t52 17t56.5 22.5q16 7 33 14.5t24.5 11t10.5 5.5q10 1 17 -5t7 -13q0 -10 -1 -58t-2 -124.5
t-1 -157.5v-623q1 -40 2 -62.5t7.5 -43t11.5 -29.5t23 -19.5t32.5 -15t48.5 -14.5q51 -15 51 -41q0 -31 -57 -31q-47 0 -98.5 1t-79.5 1q-73 0 -154 -5t-108 -5q-66 0 -66 30z" />
    <glyph glyph-name="two" unicode="2" horiz-adv-x="997" 
d="M123 0q-22 0 -40 10.5t-20 20.5q-2 9 4.5 26t20.5 29q70 63 170 164t182 192q197 229 197 412q0 105 -63 167t-150 62q-68 0 -134 -37t-114 -85q-14 -16 -29 -26.5t-22 -10.5q-8 0 -19.5 9.5t-11.5 22.5q0 22 27 66q55 86 154.5 150.5t207.5 64.5q153 0 252 -97.5
t99 -250.5q0 -78 -35.5 -157t-120.5 -175q-94 -102 -350 -358q-3 -3 0 -12.5t8 -12.5q43 -20 321 -20q72 0 99 8q60 26 114 88q37 41 43 41q17 0 27.5 -23.5t1.5 -38.5q-27 -59 -53 -126t-31 -89q-2 -6 -11.5 -13t-19.5 -7q-162 0 -366 3t-230 3h-108z" />
    <glyph glyph-name="three" unicode="3" horiz-adv-x="997" 
d="M481 1237q139 0 225.5 -79.5t86.5 -182.5q0 -45 -19 -84.5t-58.5 -73.5t-63 -50t-70.5 -44q-4 -3 -2 -7.5t6 -6.5q319 -42 319 -318q0 -122 -89 -246t-247 -194q-136 -62 -239 -62q-104 0 -177 35.5t-73 79.5q0 14 32.5 53.5t51.5 48.5q6 3 22 -1t19 -7q49 -44 118 -69
t121 -25q119 0 190 83.5t71 225.5q0 119 -77.5 192t-199.5 73q-22 0 -76.5 -12t-60.5 -13q-6 0 -14.5 10.5t-8.5 20.5q0 42 80 78q78 34 131 70.5t78 72t34 64.5t9 61q0 69 -49 122.5t-125 53.5q-107 0 -209 -107q-38 -38 -55 -38q-14 0 -26 19t-1 40q56 98 150.5 157.5
t195.5 59.5z" />
    <glyph glyph-name="four" unicode="4" horiz-adv-x="997" 
d="M782 866l-2 -383q0 -6 9 -15t12 -9l170 4q7 0 13.5 -8.5t6.5 -16.5q0 -19 -12.5 -49.5t-30.5 -30.5h-149q-7 0 -13 -5t-6 -11v-156q2 -60 21 -85t82 -38q51 -11 51 -38q0 -33 -57 -33q-24 -1 -95 3.5t-100 4.5q-49 0 -112 -2t-99 -2q-61 0 -61 31q0 16 18 27t41 14
q79 12 99 34t24 109q8 101 4 127q0 20 -16 20q-298 0 -519 -6q-12 0 -21 9t-9 18q0 38 32 80l633 841q8 11 21 19t18 8q66 0 74 -2q11 -3 11.5 -19.5t-9.5 -27.5l-621 -793q-3 -6 3.5 -14t11.5 -8q157 0 375 -4q16 0 16 18l4 344q0 11 7 23.5t14 15.5q18 11 63.5 25t67.5 14
q9 0 19.5 -12.5t10.5 -20.5z" />
    <glyph glyph-name="five" unicode="5" horiz-adv-x="997" 
d="M877 377q0 -181 -185 -330q-92 -72 -232.5 -115t-238.5 -43q-20 0 -44.5 12.5t-24.5 35.5q0 6 11 17t17 13q59 8 116.5 21.5t130.5 42.5t127 67t91 99.5t37 136.5q0 155 -156 225q-132 63 -358 105q-17 1 -30 26t-13 41q0 51 38 174.5t70 198.5q6 14 29.5 37t36.5 28
q50 16 218.5 43t258.5 27q8 0 17.5 -9.5t9.5 -15.5q0 -45 -40 -101t-77 -64q-63 -6 -191 -12.5t-159 -10.5q-24 -5 -39 -19t-23 -46q-3 -9 -10.5 -29.5t-12.5 -35.5t-5 -19q-4 -14 4.5 -31t28.5 -21q245 -54 380 -123q108 -56 163 -142t55 -183z" />
    <glyph glyph-name="six" unicode="6" horiz-adv-x="997" 
d="M647 748q94 0 162.5 -49.5t99.5 -125t31 -165.5q0 -198 -197 -347q-121 -86 -249 -86q-192 0 -304 127.5t-112 333.5q0 138 72 287t185.5 271t248.5 208q94 58 186 98.5t133 40.5q8 0 23.5 -17t15.5 -26q0 -6 -8 -14.5t-23 -15.5q-89 -39 -179 -101t-172.5 -144.5
t-146.5 -174.5t-102.5 -198t-38.5 -208q0 -155 74.5 -256.5t214.5 -101.5q38 0 72 13.5t65 42t49.5 81.5t18.5 123q0 109 -58 185.5t-163 76.5q-16 0 -34 -4.5t-35 -12.5t-29 -14t-25.5 -14.5t-15.5 -9.5q-10 -4 -20.5 2.5t-10.5 13.5q0 51 18 72q7 7 28.5 20t56 32t46.5 26
q67 31 123 31z" />
    <glyph glyph-name="seven" unicode="7" horiz-adv-x="997" 
d="M483 1210q220 0 265 2q127 5 170 5q20 0 34 -25q7 -14 0 -23q-47 -65 -424 -813q-216 -437 -219 -446q-6 -8 -17 -15.5t-16 -7.5q-18 0 -44.5 15t-26.5 32q0 25 41 95q20 38 128.5 242t150.5 283.5t114 220.5t121 243q3 5 -1.5 14.5t-10.5 9.5q-92 9 -271 9
q-88 0 -221 -9q-20 -2 -36 -9t-29.5 -20.5t-21.5 -23.5t-21.5 -31t-20.5 -30q-1 -1 -7.5 -10.5t-9.5 -12.5t-10.5 -8.5t-17 -7.5t-21.5 -2q-18 0 -18 20q0 17 31 94q39 91 53 177q5 24 18 39.5t27 9.5q44 -17 311 -17z" />
    <glyph glyph-name="eight" unicode="8" horiz-adv-x="997" 
d="M483 -25q-95 0 -171.5 30t-120.5 77t-66.5 99t-22.5 102q0 43 10.5 78t27 60.5t47 52t59.5 46.5t75 50q13 8 19 12q8 7 8.5 10.5t-10.5 13.5q-35 28 -54.5 44.5t-49 48t-45 59t-27.5 67.5t-12 84q0 140 106 234t262 94q149 0 244.5 -87.5t95.5 -217.5q0 -81 -50.5 -143.5
t-143.5 -129.5q-8 -8 -7.5 -15t5.5 -9q44 -30 67 -46.5t61 -50.5t57.5 -63t35.5 -71.5t16 -88.5q0 -155 -156 -266q-129 -74 -260 -74zM496 1157q-78 0 -130.5 -56.5t-52.5 -139.5q0 -44 22 -86t57.5 -74t72.5 -56t74 -40q9 -5 28 -6t21 1q40 16 77 83t37 141q0 28 -13 65.5
t-36.5 76t-65 65t-91.5 26.5zM518 57q92 0 144.5 58.5t52.5 152.5q0 83 -75.5 156.5t-180.5 118.5q-22 7 -43 -2q-59 -30 -98 -92.5t-39 -124.5q0 -110 73.5 -188.5t165.5 -78.5z" />
    <glyph glyph-name="nine" unicode="9" horiz-adv-x="997" 
d="M526 1237q92 0 168 -42.5t123 -113t72.5 -156.5t25.5 -177q0 -212 -132.5 -426t-344.5 -338q-81 -48 -152.5 -75.5t-111.5 -27.5q-23 0 -37 11t-14 24q0 18 45 39q264 125 407.5 334.5t143.5 453.5q0 68 -14 134.5t-42 128.5t-80.5 100.5t-121.5 38.5q-94 1 -147.5 -76.5
t-53.5 -175.5q0 -137 70.5 -212t179.5 -75q49 0 102 33q4 3 13.5 -3t9.5 -11q0 -24 -6 -39q0 -4 -12.5 -18.5t-20.5 -18.5q-46 -32 -105.5 -55t-101.5 -23q-128 0 -214.5 97t-86.5 235q0 106 55.5 211.5t165.5 167.5q102 55 217 55z" />
    <glyph glyph-name="colon" unicode=":" horiz-adv-x="542" 
d="M268 229q60 0 90.5 -39t30.5 -90q0 -52 -37.5 -87.5t-93.5 -35.5q-48 0 -80.5 32.5t-32.5 88.5q0 63 40.5 97t82.5 34zM272 817q59 0 93 -42t34 -91t-40.5 -90t-94.5 -41q-45 0 -82 39.5t-37 87.5q0 65 40.5 101t86.5 36z" />
    <glyph glyph-name="semicolon" unicode=";" horiz-adv-x="542" 
d="M270 819q61 0 95 -42.5t34 -94.5q0 -58 -40 -94.5t-99 -36.5q-50 0 -85.5 36t-35.5 95q0 66 41.5 101.5t89.5 35.5zM248 268q68 0 116 -65t48 -152q0 -66 -28.5 -124.5t-69.5 -94t-82 -56t-70 -20.5q-19 0 -33 11t-14 22q0 28 39 49q48 28 75 59.5t33 52t6 46.5
q0 36 -20.5 53.5t-59.5 28.5q-25 4 -45 24t-20 56q0 52 38 81t87 29z" />
    <glyph glyph-name="less" unicode="&#x3c;" horiz-adv-x="1323" 
d="M1061 -12q-3 -5 -15 -7.5t-18 1.5q-144 73 -412 225t-309 174q-92 51 -92 74q0 26 27.5 53t56.5 43l707 393q30 13 49 0q31 -31 39 -63q3 -9 0.5 -23.5t-9.5 -17.5l-667 -359q-12 -7 -2 -12l682 -369q12 -8 8 -30q-13 -52 -45 -82z" />
    <glyph glyph-name="equal" unicode="=" horiz-adv-x="1323" 
d="M1178 625l-1026 -2q-26 0 -36 12.5t-10 26.5q0 25 12.5 55.5t26.5 30.5l1049 6q10 0 15 -10t5 -21q0 -37 -12 -67.5t-24 -30.5zM1184 190l-1041 -6q-18 0 -27.5 13t-9.5 28q0 25 10.5 57.5t22.5 32.5h1049q11 0 20 -10.5t9 -23.5q0 -35 -11 -63t-22 -28z" />
    <glyph glyph-name="greater" unicode="&#x3e;" horiz-adv-x="1323" 
d="M1108 471q0 -43 -84 -92l-713 -395q-4 -3 -19.5 -2.5t-21.5 4.5q-31 28 -39 69q-1 13 1.5 24t5.5 13l667 359q12 6 4 14l-684 366q-14 7 -4 39q9 42 41 74q4 4 17.5 6t15.5 0q108 -56 257.5 -138.5t289 -160.5t180.5 -100q51 -29 68.5 -46.5t17.5 -33.5z" />
    <glyph glyph-name="question" unicode="?" horiz-adv-x="765" 
d="M315 1208q72 0 146.5 -53t116.5 -127q69 -118 69 -250q0 -65 -27.5 -110t-60.5 -64q-25 -16 -73 -41.5t-70 -34.5q-12 -5 -19 -13.5t-10 -26t-4 -28.5t-2 -42q0 -10 -11 -19.5t-20 -9.5q-17 0 -27 10t-24 41q-37 76 -37 144q0 26 10 46t41 44t58 40.5t91 52.5l7.5 4.5
t7 4t8.5 4.5q29 17 43.5 47t14.5 54q0 74 -57.5 110.5t-135.5 36.5q-12 0 -31.5 -2t-29.5 -2q-30 0 -56 19t-26 40q0 45 28 85t80 40zM379 233q54 0 88.5 -41.5t34.5 -89.5q0 -53 -36 -90t-91 -37q-44 0 -81.5 34.5t-37.5 90.5q0 64 39 98.5t84 34.5z" />
    <glyph glyph-name="at" unicode="@" horiz-adv-x="1826" 
d="M1186 766l20 53q19 19 37 19q15 0 40 -10t34 -19q13 -13 10 -25q-9 -35 -92.5 -290.5t-97.5 -303.5q-10 -33 11 -56t50 -23q69 0 139.5 34.5t128.5 94.5t94.5 151.5t36.5 194.5q0 162 -79 288t-210.5 192.5t-291.5 66.5q-133 0 -250 -42.5t-204 -118t-150 -177t-95 -222
t-32 -249.5q0 -76 17.5 -153t51.5 -151.5t89.5 -139t125.5 -113.5t165 -77t204 -28q185 0 397 117q7 4 18.5 7t23.5 -2t12 -22q0 -22 -13.5 -43t-32.5 -32q-93 -69 -222 -104.5t-249 -35.5q-110 0 -216.5 29.5t-203.5 92t-170 150.5t-116 214.5t-43 275.5q0 162 49.5 308.5
t136 256.5t199.5 191.5t245 123.5t267 42q131 0 244 -34t194.5 -94t140 -140.5t87 -175t28.5 -197.5q0 -106 -43 -209.5t-117 -185.5t-183.5 -132.5t-233.5 -50.5q-24 0 -44.5 1.5t-35 5t-25.5 6.5t-19 9.5t-13 10t-8.5 11.5t-5 10.5t-3.5 11.5t-2 10q0 33 8 62l49 161
l-14 8q-100 -119 -228 -213t-198 -94q-43 0 -71.5 34.5t-26.5 84.5q2 49 42 149.5t124 211.5q85 113 202 202.5t195 89.5q20 0 53 -7t49 -17q5 -3 12 -0.5t9 6.5zM1001 672q-78 0 -139 -74q-80 -82 -129 -191.5t-51 -189.5q0 -17 11 -34t22 -17q58 0 166 104
q68 66 142.5 172t96.5 166q7 18 -2 31q-20 13 -54.5 23t-62.5 10z" />
    <glyph glyph-name="A" unicode="A" horiz-adv-x="1374" 
d="M739 1288q4 0 8 -3.5t8 -11.5t8 -18t10 -27.5t11.5 -34.5t14.5 -45t18 -54q46 -132 114 -313t135.5 -356t76.5 -198q32 -78 58 -101.5t112 -53.5q61 -19 61 -60q0 -9 -14 -15.5t-35 -6.5q-56 0 -147 5t-140 5t-88 -2t-69 -2q-28 0 -43 8t-15 19q0 36 47 49
q72 22 85.5 41.5t-1.5 74.5q-19 79 -92 256q-3 10 -19 19.5t-34 9.5q-26 2 -166.5 1t-183.5 -5q-7 0 -18.5 -10.5t-14.5 -18.5q-84 -243 -84 -282q0 -13 2.5 -21t11.5 -20t31 -23t57 -22q45 -13 45 -33q2 -17 -17 -31t-52 -14q-7 0 -71.5 3t-98.5 3t-89 -5t-95 -5
q-67 0 -70 30q0 16 15.5 30.5t45.5 21.5q122 32 158 114q45 97 172.5 414.5t206.5 527.5q10 27 14 58q0 4 6 12t9 10q38 26 73 58q8 8 22 15t21 7zM805 580q5 0 8 7t0 13q-16 65 -70 206.5t-79 201.5q-5 10 -14.5 9t-12.5 -9q-79 -194 -150 -408q-4 -17 15 -20
q30 -3 151.5 -3.5t151.5 3.5z" />
    <glyph glyph-name="B" unicode="B" horiz-adv-x="1202" 
d="M1012 961q0 -103 -64 -170q-12 -15 -49 -38.5t-68 -35.5q-1 -2 -0.5 -7t4.5 -11.5t9 -8.5q115 -36 190.5 -118.5t75.5 -192.5q0 -72 -22 -131.5t-60 -100t-79.5 -67t-90.5 -45.5q-120 -47 -278 -47q-76 0 -191.5 5t-128.5 5q-41 1 -87.5 -1.5t-57.5 -2.5q-25 0 -46.5 9.5
t-21.5 25.5q0 22 17.5 32.5t60.5 20.5q70 15 89 28q39 25 46 105q8 74 8 496q0 321 -4 362q-5 54 -29.5 73.5t-107.5 29.5q-19 2 -35 13.5t-16 29.5q0 32 80 32h104q29 0 145.5 7.5t192.5 7.5q202 0 303 -82q53 -41 82 -100t29 -123zM823 944q0 102 -71 171t-217 69
q-46 0 -66 -10q-15 -8 -18 -33q-5 -111 -5.5 -241t5.5 -169q1 -9 17.5 -14.5t37.5 -5.5q74 0 137 10t88 22q10 6 23 19t30 36.5t28 62t11 83.5zM899 358q0 93 -46.5 156.5t-118.5 91t-163 27.5q-71 0 -96 -10q-5 -2 -13.5 -16.5t-12.5 -33.5q-5 -27 -3.5 -182.5t11.5 -200.5
q11 -49 72 -85.5t98 -36.5q70 0 140.5 42t88.5 78q43 92 43 170z" />
    <glyph glyph-name="C" unicode="C" horiz-adv-x="1396" 
d="M854 1288q105 0 252 -39q18 -5 51 -15t54 -16t28 -6q8 0 19.5 -11.5t11.5 -20.5q0 -17 5 -100.5t5 -110.5q0 -40 -13.5 -60t-33.5 -20q-25 0 -41 59q-28 135 -141 197q-94 55 -242 55q-76 0 -163 -33.5t-144 -87.5q-80 -74 -126 -192t-46 -232q0 -98 36.5 -215t84.5 -176
q76 -96 187 -150.5t216 -54.5q43 0 107.5 17t111.5 39q18 10 53 48t60 83q26 53 40.5 72.5t28.5 19.5q17 0 27 -20t10 -50q0 -24 -47 -192q-3 -8 -17 -23.5t-20 -19.5q-49 -24 -169.5 -47t-211.5 -23q-170 0 -316.5 54t-240.5 159q-73 79 -118.5 193t-45.5 243
q0 173 73 311.5t210 233.5q191 131 465 131z" />
    <glyph glyph-name="D" unicode="D" horiz-adv-x="1509" 
d="M672 1268q338 0 538 -170q116 -97 163.5 -220t47.5 -241q0 -89 -21.5 -170.5t-53.5 -139t-75 -107t-80.5 -78.5t-74.5 -50q-201 -108 -473 -108q-44 0 -174.5 8t-161.5 8q-36 0 -122.5 -5t-106.5 -5q-11 0 -22 8t-11 18q0 18 19.5 35t56.5 27q30 8 46.5 14t40 20t36 37
t16.5 56q14 165 14 469q0 364 -12 420q-2 11 -6.5 19.5t-16.5 20t-38.5 20t-65.5 13.5q-35 4 -54.5 17t-19.5 28q0 18 22.5 28.5t61.5 10.5h168q27 0 153 8.5t206 8.5zM647 1182q-18 0 -71.5 -7t-73.5 -14q-7 -1 -20 -16.5t-15 -24.5q-6 -159 -6 -366v-138q0 -268 12 -362
q9 -59 29.5 -91.5t40.5 -43.5q24 -13 84 -30t104 -17q49 0 156 42t168 103q151 151 151 414q0 251 -153 401q-71 70 -181.5 110t-224.5 40z" />
    <glyph glyph-name="E" unicode="E" horiz-adv-x="1153" 
d="M410 1251h211q108 0 196 4.5t96 4.5q36 0 48 -19q9 -14 20.5 -94.5t11.5 -116.5q0 -15 -11.5 -32t-23.5 -17q-18 0 -35.5 23.5t-52.5 91.5q-13 26 -29.5 42.5t-26.5 20.5t-17 4q-69 0 -185.5 -2t-119.5 -2q-4 0 -12.5 -14.5t-10.5 -22.5q-8 -76 -8 -385q0 -16 7 -36.5
t19 -20.5h134q96 4 130 22.5t52 65.5q12 32 23 45.5t26 13.5q39 0 33 -82q-6 -69 -6 -98q0 -104 4 -137q2 -24 -4 -40.5t-14 -22t-15 -5.5q-31 0 -49 52q-15 45 -31.5 63t-48.5 21q-84 6 -234 6q-8 0 -17 -19.5t-9 -32.5q0 -168 6 -303q3 -41 10.5 -71t14.5 -35
q46 -41 235 -41q102 0 156 16q39 11 67.5 38.5t65.5 82.5q38 63 50 73q10 7 21 7q21 0 26 -31.5t-3 -60.5q-13 -63 -63 -176q-8 -19 -32.5 -30t-35.5 -11q-6 0 -148.5 5t-365.5 5q-70 0 -190.5 -5t-159.5 -5q-76 0 -76 24q0 40 67 56q98 23 127 46t33 81q8 73 8 209
q0 617 -10 679q-4 44 -33 64.5t-96 36.5q-25 6 -40 19t-15 24q0 33 55 33q5 0 100 -5.5t175 -5.5z" />
    <glyph glyph-name="F" unicode="F" horiz-adv-x="1130" 
d="M461 1251h217q74 0 134 1.5t94 3.5t56.5 3.5t32.5 3t11 1.5q13 0 22.5 -13.5t9.5 -27.5v-189q0 -26 -8 -42.5t-16.5 -21.5t-16.5 -5q-30 0 -43 55q-21 76 -47 106t-76 33q-25 2 -63.5 2t-118.5 -1t-151 -1q-11 0 -20 -12.5t-11 -24.5q-6 -53 -6 -436q0 -18 20 -18
q120 0 246 8q24 1 40 7.5t25.5 19t14 23.5t10.5 30q9 29 23 46t28 17q33 0 33 -59q0 -21 -3 -70.5t-3 -66.5q0 -22 4 -77.5t4 -60.5q0 -30 -10 -47.5t-27 -17.5q-24 0 -45 49q-2 4 -9 20t-9.5 20.5t-9 16.5t-11 16t-12 11t-15.5 10t-18 4q-23 4 -258 4q-7 0 -12.5 -11.5
t-5.5 -29.5v-325q1 -62 29 -87.5t96 -41.5q69 -18 69 -51q0 -15 -14.5 -25t-42.5 -10q-27 0 -135 5t-152 5q-19 0 -82 -4t-96 -4q-57 0 -57 31t69 51q62 19 88 43.5t29 66.5q10 102 10 426q0 88 0.5 185.5t0.5 134t-1 76.5t-4 73q-3 46 -28 65t-90 36q-24 6 -41 19t-17 26
q0 15 17.5 25t46.5 10q19 0 119 -4.5t186 -4.5z" />
    <glyph glyph-name="G" unicode="G" horiz-adv-x="1531" 
d="M854 1288q21 0 40 -0.5t39 -3t33 -3.5t34 -5t29.5 -5.5t31 -7t27 -7t29.5 -8t28 -7.5q24 -7 48.5 -9t39.5 -5q24 -5 32 -11.5t15 -29.5q55 -150 55 -240q0 -17 -8.5 -34t-26.5 -17q-31 0 -55 47q-36 76 -104 141q-58 55 -139.5 87t-165.5 32q-116 0 -212 -46t-158.5 -124
t-97 -180t-34.5 -215q0 -158 67.5 -290.5t194.5 -213t287 -80.5q125 0 178 41q15 11 35 54.5t20 93.5q0 161 -4 215q-3 24 -22 35.5t-74 21.5q-54 8 -70 21t-16 32q0 11 19.5 22t49.5 11q27 0 85.5 -3t93.5 -3q33 0 113 5t98 5q53 0 53 -39q0 -10 -16 -22t-44 -21
q-45 -16 -59 -33.5t-16 -42.5q-4 -47 -4 -159q0 -77 12 -158q4 -28 4 -37q0 -8 -10 -20t-19 -15q-18 -5 -67 -26t-101 -31q-169 -37 -266 -37q-212 0 -372.5 73.5t-250.5 194.5q-127 167 -127 404q0 152 66.5 278.5t189.5 219.5q92 70 224.5 112.5t267.5 42.5z" />
    <glyph glyph-name="H" unicode="H" horiz-adv-x="1646" 
d="M459 735q0 -8 11 -17t22 -9q49 0 215.5 1t274.5 0.5t163 -3.5q5 0 15.5 10.5t10.5 17.5q0 324 -8 367q0 42 -112 72q-82 22 -82 47q0 36 61 36q43 0 125.5 -3t120.5 -3q45 0 118 4.5t89 4.5q29 0 43 -10t14 -25q0 -27 -70 -43q-60 -13 -81 -35t-23 -62q-8 -152 -8 -448
q0 -350 8 -430q7 -69 29.5 -90t97.5 -41q32 -7 49 -20.5t17 -28.5q0 -33 -60 -33q-15 0 -92.5 3t-120.5 3q-59 0 -140 -3t-106 -3q-35 0 -53 9t-18 22q0 34 65 51q78 18 100.5 42.5t28.5 92.5q6 50 9 150t-1 161q-2 32 -7.5 51t-8.5 22t-6 3q-627 0 -666 -6
q-9 0 -16.5 -10.5t-7.5 -16.5q0 -331 6 -377q8 -50 36 -72t117 -48q19 -4 33.5 -17.5t14.5 -25.5q0 -17 -16 -24t-54 -7q-26 0 -91.5 3t-113.5 3q-34 0 -125 -5t-121 -5q-35 0 -50 6.5t-15 23.5q0 34 61 50q76 20 99 47.5t26 95.5q6 90 6 637q0 212 -12 256q-6 28 -31 44
t-106 38q-45 12 -45 41q0 14 18 22.5t47 8.5q67 0 148 -4.5t100 -4.5q30 0 78.5 3t85.5 3q55 0 55 -34q0 -12 -15.5 -23t-35.5 -16q-55 -16 -77.5 -40.5t-22.5 -78.5v-330z" />
    <glyph glyph-name="I" unicode="I" horiz-adv-x="729" 
d="M274 674v280q0 58 -2.5 88.5t-9 56.5t-24 39t-40 22.5t-65.5 19.5q-25 6 -38 19t-13 28q0 9 21.5 19.5t43.5 10.5q13 0 83.5 -3t121.5 -3q70 0 143 4.5t95 4.5q19 0 34 -11t15 -26q0 -12 -14 -22.5t-29 -14.5q-86 -22 -107 -49.5t-24 -108.5q-4 -84 -4 -446
q0 -98 0.5 -182.5t1 -130.5t0.5 -52q3 -71 31 -96t122 -49q54 -14 54 -41q0 -18 -22.5 -28.5t-45.5 -10.5q-4 0 -100 4t-137 4q-40 0 -128 -6t-102 -6q-21 0 -38 9t-17 21q0 13 15 26.5t36 21.5q77 27 100.5 45.5t28.5 50.5q4 32 9 208.5t5 303.5z" />
    <glyph glyph-name="J" unicode="J" horiz-adv-x="702" 
d="M-145 -313q0 36 63 94q29 26 53 26q8 0 54 -24q82 -45 125 -45q33 0 57 25t35 65q32 107 32 356q0 679 -2 869q0 56 -29 80t-116 45q-28 7 -43.5 20t-15.5 25q0 16 23 27.5t48 11.5q28 0 116 -5.5t132 -5.5q53 0 127.5 5.5t83.5 5.5q29 0 41 -12.5t12 -26.5
q0 -13 -15.5 -26t-41.5 -19q-74 -18 -100.5 -45t-26.5 -95q0 -163 -2 -366t-4 -344.5t-2 -153.5q0 -152 -65.5 -284t-155.5 -197q-133 -94 -230 -94q-61 0 -107 27t-46 61z" />
    <glyph glyph-name="K" unicode="K" horiz-adv-x="1445" 
d="M82 1225q0 13 16.5 25t38.5 12q12 0 94.5 -5.5t110.5 -5.5q58 0 138.5 2t82.5 2q17 0 36 -8.5t19 -23.5q0 -17 -17.5 -30t-33.5 -17q-64 -16 -86 -35t-22 -47q0 -4 -2.5 -104.5t-3.5 -174t2 -117.5q3 -16 22 -16q20 0 49 27q100 85 241 218.5t183 184.5q7 11 7 21
t-17.5 19.5t-50.5 16.5q-60 12 -60 48q0 10 13.5 22t38.5 12h110q61 1 158.5 8t136.5 7q76 0 76 -39q0 -12 -17.5 -24.5t-48.5 -18.5q-130 -23 -252 -121q-132 -104 -372 -330q-4 -3 -4 -12.5t4 -15.5q115 -130 259 -278t228 -228q57 -54 103 -80t118 -49q34 -11 47 -21.5
t13 -28.5q0 -9 -17.5 -21.5t-42.5 -12.5q-50 0 -185.5 7t-172.5 7h-104q-21 0 -35.5 11.5t-14.5 25.5q0 28 54 43q72 20 28 70q-54 61 -198 211.5t-224 230.5q-33 29 -51 29q-22 0 -22 -39q0 -314 6 -392q3 -33 10.5 -53t26.5 -32t34.5 -16.5t51.5 -12.5q69 -15 69 -47
q0 -14 -17.5 -25.5t-37.5 -11.5q-8 0 -89.5 4t-117.5 4q-55 0 -155 -6t-111 -6q-21 0 -40 9.5t-19 25.5q0 32 55 45q83 21 111 46t32 89q8 140 8 495q0 344 -4 385q-2 19 -4.5 27.5t-13 22.5t-35 24.5t-65.5 20.5q-33 7 -50.5 20t-17.5 27z" />
    <glyph glyph-name="L" unicode="L" horiz-adv-x="1134" 
d="M96 1227q0 13 16.5 23t41.5 10q2 0 41 -2t91.5 -4.5t88.5 -2.5q46 0 124 4.5t93 4.5q59 0 59 -37q0 -13 -15 -25t-40 -18q-69 -14 -96 -36t-33 -71q-8 -63 -8 -391q0 -431 12 -520q0 -16 24.5 -40.5t57.5 -31.5q73 -13 164 -10t114 10q65 22 108 64t87 129q25 51 47 51
q13 0 25 -21.5t10 -42.5q0 -40 -66 -233q-9 -23 -33.5 -35t-56.5 -12q-13 0 -220 5t-357 5q-81 0 -164 -6t-94 -6q-32 0 -49 11t-17 26q0 14 16 27.5t42 19.5q49 12 79.5 25t45.5 29.5t20 29t10 34.5q8 50 8 414q0 355 -8 465q-4 48 -28.5 70.5t-79.5 38.5q-34 11 -47 21.5
t-13 27.5z" />
    <glyph glyph-name="M" unicode="M" horiz-adv-x="1826" 
d="M141 1217q0 16 20 29.5t40 13.5q30 0 156.5 -4.5t127.5 -4.5q8 0 20 -10t15 -18q6 -22 74 -181q34 -79 167 -355.5t177 -358.5q2 -4 6.5 -4.5t10.5 5t12 17.5l354 707q65 135 74 168q1 9 14.5 19.5t22.5 10.5q14 0 120.5 5.5t143.5 5.5q22 0 43.5 -9.5t21.5 -29.5
q0 -14 -13 -23t-50 -18q-152 -33 -152 -99q0 -425 23 -819q2 -45 8.5 -75.5t14.5 -49t26.5 -32t33.5 -20t46 -17.5q63 -20 63 -45q0 -16 -15.5 -26.5t-43.5 -10.5q-9 0 -126.5 6t-148.5 6q-32 0 -79 -3t-70 -3q-25 0 -44.5 10t-19.5 25q0 31 70 47q55 15 70.5 42.5
t17.5 112.5q2 53 2 699q-1 9 -11.5 6.5t-12.5 -6.5q-26 -47 -160 -331.5t-135 -287.5q-74 -151 -109 -254q-11 -35 -31.5 -53t-40.5 -18q-23 0 -51 69q-11 24 -31.5 78t-44 119t-28.5 78q-40 98 -138 312t-126 282q-19 19 -21 2q-13 -126 -25 -364.5t-12 -325.5
q0 -47 5 -73.5t21.5 -43.5t35.5 -24.5t61 -18.5q55 -12 55 -47q0 -16 -20 -25.5t-45 -9.5q-11 0 -69 3t-91 3q-38 0 -126 -5t-97 -5q-66 0 -66 37q0 29 64 45q70 17 105 54.5t46 102.5q17 95 46.5 419.5t29.5 371.5q0 88 -27 116.5t-128 47.5q-23 3 -39.5 12.5t-16.5 20.5z
" />
    <glyph glyph-name="N" unicode="N" horiz-adv-x="1554" 
d="M33 1239q0 11 11.5 18t31.5 7q44 0 158.5 -6.5t142.5 -6.5q7 0 23 -13t18 -17q39 -68 196 -238q39 -42 171.5 -190.5t249.5 -277.5t151 -161q4 -4 11 1.5t9 13.5q4 44 7 241.5t-3 335.5q-2 33 -3 48t-3.5 38.5t-4.5 33.5t-6.5 26t-9.5 22t-13.5 16.5t-18.5 15t-24 11
t-30 10.5t-38 9q-58 12 -58 45q0 12 16 22t46 10q45 0 82.5 -1t60.5 -1q47 0 132 6.5t100 6.5q30 0 46.5 -11.5t16.5 -25.5q0 -7 -4 -13t-21.5 -15.5t-50.5 -18.5q-96 -31 -102 -103q-5 -52 -11.5 -302t-6.5 -394q0 -45 2 -160t2 -162q0 -60 -11 -80t-32 -20q-10 0 -35.5 17
t-42.5 42q-38 56 -105 141t-110 132q-461 532 -563 643q-9 7 -15 1t-8 -22q-8 -180 -8 -221q0 -153 8 -373q2 -60 5.5 -91.5t10 -58.5t22 -40.5t35.5 -24t58 -22.5q36 -11 52 -23t16 -32q0 -17 -21 -26t-45 -9q-30 0 -77 4t-70 4q-57 0 -150 -6t-98 -6q-66 0 -66 35
q0 30 56 45q92 24 119 60.5t32 107.5q7 92 17 408.5t10 379.5q0 44 -70 109q-36 39 -129 53q-25 3 -43 18.5t-18 34.5z" />
    <glyph glyph-name="O" unicode="O" horiz-adv-x="1574" 
d="M786 1288q141 0 266.5 -49.5t217 -135t145 -208.5t53.5 -264q0 -170 -88.5 -330t-251.5 -252q-154 -86 -342 -86t-344.5 89t-246 240t-89.5 329q0 123 48 243.5t137 210.5q96 96 228.5 154.5t266.5 58.5zM750 1202q-69 0 -144 -35.5t-125 -83.5q-151 -158 -151 -438
q0 -109 35.5 -214.5t98.5 -190t160 -137t210 -52.5q150 0 251 94q69 66 113.5 185t44.5 293q0 110 -35 213.5t-97 185t-156.5 131t-204.5 49.5z" />
    <glyph glyph-name="P" unicode="P" horiz-adv-x="1150" 
d="M866 850q0 68 -19 129t-50 98q-42 51 -112.5 78t-154.5 27q-38 0 -53 -15q-14 -14 -14 -28q-8 -164 -8 -459v-422q0 -47 3 -72t10 -46.5t26 -33t43.5 -20.5t70.5 -20q45 -9 45 -41q0 -14 -17.5 -23.5t-37.5 -9.5q-28 0 -85.5 4t-102.5 4q-38 0 -143 -6t-138 -6
q-24 0 -43.5 9t-19.5 23q0 17 12.5 27t46.5 19q29 8 47 14t32 17t20 17t12.5 27.5t8.5 33.5t7 48q18 141 18 594q0 234 -6 281q-1 17 -9.5 29t-27.5 21.5t-36 15t-52 14.5q-24 6 -39.5 20t-15.5 29q0 18 11.5 24t39.5 6q26 0 108 -3t93 -3q31 0 116.5 6.5t139.5 6.5
q248 0 371 -127q45 -50 72.5 -124t27.5 -147q0 -165 -117 -278q-57 -56 -139 -84.5t-145 -28.5q-52 0 -72 14q-9 5 -21 17.5t-12 19.5q0 21 23 27q15 0 45 6q41 1 82 19t77.5 51.5t59 91t22.5 129.5z" />
    <glyph glyph-name="Q" unicode="Q" horiz-adv-x="1576" 
d="M782 1288q193 0 349.5 -82.5t246.5 -234.5t90 -346q0 -124 -45 -238.5t-125 -202.5q-46 -50 -129.5 -101t-142.5 -77q-8 -3 -10 -11.5t4 -14.5q167 -171 340 -273q176 -100 305 -100q78 0 164 24q9 5 27 1t18 -17q0 -12 -6.5 -23t-12.5 -16t-18 -12.5t-14 -9.5
q-91 -66 -248 -66q-220 0 -465 166q-71 48 -199 142t-172 126q-45 33 -108 53q-114 35 -207 91.5t-165.5 134.5t-112.5 183t-40 228q0 166 71 304t196 231q81 61 198 101t211 40zM737 1204q-48 0 -124 -31.5t-138 -103.5q-69 -83 -107 -181.5t-38 -242.5q0 -87 21.5 -172
t64.5 -160.5t102.5 -133.5t141 -92t174.5 -34q70 0 145 29t125 86q141 166 141 440q0 165 -60 299.5t-177 215.5t-271 81z" />
    <glyph glyph-name="R" unicode="R" horiz-adv-x="1302" 
d="M1049 936q0 -57 -26.5 -117.5t-70.5 -101.5q-12 -11 -61.5 -44.5t-63.5 -39.5q-6 -1 -7.5 -12.5t1.5 -18.5q26 -51 118 -186t157 -209q71 -80 122 -113t119 -49q29 -6 29 -31t-43 -37t-76 -12q-42 0 -75 5.5t-81 24.5t-100 64t-106 115q-33 43 -80.5 110t-95 136
t-56.5 82q-32 45 -68 56t-100 11q-11 0 -19.5 -10t-8.5 -20q0 -244 8 -340q4 -55 30 -80.5t97 -44.5q30 -8 42.5 -18t12.5 -27q0 -18 -19.5 -27.5t-45.5 -9.5q-23 0 -107 4t-123 4q-30 0 -82 -4t-92 -4q-36 0 -55 9.5t-19 25.5q0 24 58 43q66 22 86.5 44.5t23.5 94.5
q2 74 2 510q0 293 -8 379q-3 31 -28.5 49.5t-83.5 28.5q-26 5 -43 16.5t-17 24.5q0 38 82 38h180q36 0 122.5 5.5t137.5 5.5q203 0 306 -78q127 -98 127 -252zM854 909q0 121 -70 198t-217 77q-49 0 -92 -17q-9 -3 -15.5 -15t-6.5 -26q-6 -176 4 -436q0 -18 16 -24
q71 -19 123 -19q27 0 93 25t97 53q28 28 48 77.5t20 106.5z" />
    <glyph glyph-name="S" unicode="S" horiz-adv-x="966" 
d="M557 1288q33 0 71 -5.5t62.5 -11.5t65.5 -17.5t55 -14.5q9 -1 18 -20.5t9 -36.5q0 -12 4 -72t4 -76q0 -32 -11.5 -50.5t-31.5 -18.5q-17 0 -35 47q-57 194 -250 194q-88 0 -145.5 -60t-57.5 -140q0 -90 48 -149.5t184 -137.5q86 -50 139.5 -87t102 -86t70.5 -106t22 -127
q0 -90 -48.5 -162t-109.5 -110q-53 -34 -133.5 -56t-147.5 -22q-73 0 -169 22.5t-130 49.5q-16 12 -28 41q-33 67 -33 182q0 31 11 48.5t24 17.5q14 0 23.5 -8.5t13.5 -16t12 -27.5q28 -62 67 -108t82.5 -70.5t84.5 -35.5t83 -11q46 0 92 21.5t80.5 71.5t34.5 118
q0 75 -56.5 137t-219.5 164q-42 26 -75.5 50t-72.5 61t-64.5 75t-43 90t-17.5 109q0 94 47 164.5t117 114.5q105 65 252 65z" />
    <glyph glyph-name="T" unicode="T" horiz-adv-x="1409" 
d="M391 1251h696q84 0 120 5.5t50 19.5l12.5 10t11.5 9.5t9.5 7t9.5 5t7 1.5q6 0 22.5 -15t16.5 -24q0 -2 -6 -42.5t-12.5 -104.5t-6.5 -124q0 -22 -13 -39.5t-30 -17.5q-29 0 -39 47q-20 89 -49 120t-76 36q-62 8 -299 8q-6 0 -16 -9t-11 -18q-10 -92 -10 -432
q0 -313 8 -430q2 -34 6 -58.5t13 -43t15.5 -29t24.5 -21.5t29.5 -16t39.5 -16q13 -5 20 -8q23 -9 32.5 -13.5t18 -13t8.5 -20.5q0 -13 -16 -24t-45 -11q-5 0 -53.5 2.5t-117 5t-122.5 2.5q-69 0 -138.5 -3t-88.5 -3q-64 0 -64 39q0 25 58 41q105 28 131 44q40 25 47 88
q2 21 2 52q0 10 1.5 89.5t3 213.5t1.5 277v268q0 17 -8 32t-13 15q-29 0 -155 1t-137 1q-31 0 -67 -33t-67 -118q-9 -26 -22 -42t-25 -16q-24 0 -32.5 19.5t-6.5 58.5q1 18 6.5 66.5t8.5 94.5t0 89q-1 12 17 24.5t26 12.5q11 0 30 -19q23 -20 46 -28t67 -9q84 -4 131 -4z
" />
    <glyph glyph-name="U" unicode="U" horiz-adv-x="1505" 
d="M66 1227q0 21 20.5 28t65.5 7q31 0 112.5 -5.5t116.5 -5.5q53 0 115 3t69 3q64 0 64 -36q0 -13 -19 -25.5t-43 -17.5q-78 -15 -99.5 -41.5t-27.5 -112.5q-12 -165 2 -504q5 -136 31 -202t74 -119q41 -44 119 -75.5t151 -31.5q141 0 233.5 86t116.5 273q17 125 17 438
q0 76 -3.5 119t-10.5 76t-26 49.5t-42 26t-66 18.5q-28 6 -42.5 18.5t-14.5 24.5q0 14 16.5 25t46.5 11q16 0 63 -3t91 -3q41 0 130 5.5t108 5.5q55 0 55 -35q0 -11 -15.5 -25.5t-43.5 -21.5q-77 -20 -97.5 -43t-29.5 -99q-2 -12 -23 -428q-12 -218 -52.5 -336t-119.5 -194
q-60 -58 -152.5 -87.5t-189.5 -29.5q-118 0 -229.5 46t-171.5 124q-40 54 -65 118t-34 142t-10.5 116.5t-1.5 115.5q0 182 -12 440q-3 59 -27.5 79.5t-91.5 37.5q-57 14 -57 45z" />
    <glyph glyph-name="V" unicode="V" horiz-adv-x="1388" 
d="M10 1227q0 15 20 25t46 10q33 0 109.5 -5.5t115.5 -5.5t104.5 2t90.5 2q28 0 44.5 -11t16.5 -27q0 -12 -16.5 -25.5t-42.5 -20.5q-43 -11 -59 -30t-9 -62q9 -57 137 -387t158 -368q16 -20 27 0q217 510 282 702q27 75 14 99.5t-94 50.5q-25 8 -39 21.5t-14 23.5
q0 34 70 34q19 0 72 -2t92 -2q40 0 94.5 4.5t87.5 4.5q32 0 49.5 -10t17.5 -25q0 -30 -71 -47q-58 -14 -90.5 -47.5t-69.5 -104.5q-103 -201 -330 -754q-26 -64 -58 -158t-36 -102q-8 -20 -25.5 -36.5t-35.5 -16.5q-11 0 -23 12.5t-18 30.5q-68 212 -86 258
q-39 103 -171 433.5t-157 381.5q-22 43 -46 61.5t-101 43.5q-56 18 -56 47z" />
    <glyph glyph-name="W" unicode="W" horiz-adv-x="1984" 
d="M-10 1231q0 13 17.5 22t41.5 9q39 0 119.5 -5.5t97.5 -5.5q42 0 105 3t86 3q25 0 41 -7t20 -14t4 -15q0 -15 -15.5 -27t-41.5 -16q-39 -8 -57.5 -26t-18.5 -41.5t6 -51.5q12 -48 114.5 -326.5t154.5 -402.5q17 -30 24 -17l2 4l234 619q22 57 18 86q0 36 -27 92
q-12 23 -29.5 37t-31.5 18t-43 11q-15 5 -20 7t-16 7.5t-15 13t-4 17.5q0 13 16 22.5t43 9.5q26 0 117 -3t119 -3q29 0 76.5 3t68.5 3q26 0 40.5 -10t14.5 -22q0 -11 -13.5 -23.5t-37.5 -17.5q-43 -11 -66.5 -24.5t-23.5 -37.5q0 -33 25 -106q36 -113 131 -361.5t135 -337.5
q5 -9 13 -7.5t11 9.5q48 112 217 617q41 121 41 178q0 25 -27.5 39.5t-72.5 26.5q-26 7 -38.5 20.5t-12.5 22.5q0 11 14 22.5t39 11.5q4 0 81 -3t118 -3q40 0 97.5 5.5t72.5 5.5q27 0 41 -10t14 -25q0 -14 -14 -26t-31 -17q-82 -26 -113.5 -55.5t-64.5 -100.5
q-20 -42 -66.5 -168.5t-107 -295t-92.5 -251.5q-88 -249 -95 -274q-9 -27 -22.5 -45.5t-23 -24.5t-15.5 -6q-47 0 -72 86q-32 101 -87 252t-117 314t-80 212q0 4 -12 10.5t-17 -3.5q-243 -651 -258 -697q-34 -90 -55 -131q-7 -11 -24 -27t-24 -16q-13 0 -28 14t-21 31
q-8 33 -96 291l-213 569q-67 178 -104.5 238t-98.5 74q-67 16 -67 51z" />
    <glyph glyph-name="X" unicode="X" horiz-adv-x="1421" 
d="M41 1235q0 10 16.5 19.5t44.5 9.5q16 0 100.5 -6.5t129.5 -6.5q48 0 122.5 2t94.5 2q23 0 41 -10.5t18 -27.5q0 -11 -8 -19t-16.5 -11.5t-24.5 -8.5q-73 -21 -29 -80q5 -7 52.5 -82.5t95.5 -146.5t63 -83l3 -3q15 -16 26 -5q128 171 209 293q31 50 21.5 70t-70.5 41
q-53 14 -53 32q0 10 17 25.5t28 15.5q20 0 71.5 -2t87.5 -2q34 0 135 5.5t121 5.5q49 0 49 -23q0 -19 -17 -35t-48 -22q-82 -17 -144 -56t-120 -110q-60 -73 -236 -307q-11 -15 0 -41q18 -35 143.5 -217t165.5 -230q50 -61 100 -93.5t138 -51.5q66 -14 66 -47q0 -39 -64 -39
q-43 0 -147 5t-148 5q-40 0 -99 -3t-65 -3q-22 0 -40.5 10t-18.5 29q0 13 10 23.5t37 25.5q1 1 9.5 5.5t10.5 5.5t9 5.5t8.5 6.5t6 6.5t5 8.5t2 9t-0.5 11t-5 12q-203 311 -246 360q-24 20 -36 6q-144 -180 -244 -346q-9 -16 -10.5 -26.5t6.5 -21.5t16.5 -17t30.5 -21
q29 -20 39 -31.5t10 -25.5q0 -35 -57 -35q-17 0 -83.5 3t-97.5 3q-24 0 -108.5 -6t-104.5 -6t-41.5 10.5t-21.5 28.5q0 12 15.5 24.5t35.5 18.5q46 13 73 22t65.5 25.5t68 37.5t51.5 48q183 216 311 397q11 14 -4 47q-15 32 -106.5 166.5t-157.5 226.5q-35 47 -75.5 76
t-65.5 38.5t-81 24.5q-11 3 -17 5q-68 17 -68 51z" />
    <glyph glyph-name="Y" unicode="Y" horiz-adv-x="1290" 
d="M-4 1227q0 17 17 26t40 9q18 0 95 -5.5t110 -5.5q49 0 123.5 4.5t85.5 4.5q22 0 38.5 -9.5t16.5 -25.5t-13.5 -26t-49.5 -19q-38 -10 -41.5 -28.5t16.5 -51.5q48 -97 136 -253.5t104 -176.5q11 -13 24 -2q13 8 111.5 174t124.5 219q31 59 25 81.5t-64 39.5q-49 15 -49 41
q0 34 67 34q36 0 91 -3t63 -3q29 0 90.5 5.5t87.5 5.5q27 0 42.5 -10.5t15.5 -24.5q0 -13 -14 -26.5t-42 -20.5q-64 -16 -108.5 -44t-91.5 -89q-64 -85 -168 -249.5t-125 -211.5q-16 -39 -23 -113q-3 -33 -3.5 -91t0.5 -132.5t1 -83.5q3 -30 32 -50.5t122 -41.5
q21 -4 33 -17.5t12 -25.5q0 -16 -18.5 -26.5t-49.5 -10.5q-11 0 -87 3t-122 3q-48 0 -142 -4t-108 -4q-57 0 -57 37q0 18 18 27.5t54 19.5q35 11 53.5 20t35 28.5t24 51t10.5 84.5q2 34 2 227q0 42 -39 121q-40 84 -135.5 245t-137.5 218q-51 69 -178 113q-55 16 -55 43z
" />
    <glyph glyph-name="Z" unicode="Z" horiz-adv-x="1251" 
d="M803 1251q24 0 258 13q11 0 21 -14.5t10 -26.5q-6 -27 -121 -181q-114 -157 -308.5 -461t-279.5 -442q-5 -9 -1 -23.5t11 -15.5q263 -17 479 -6q63 3 118 39t108 119q35 57 55.5 77.5t38.5 20.5q35 0 20 -74q-14 -58 -47.5 -131.5t-58.5 -111.5q-29 -45 -88 -45
q-134 0 -295.5 3t-271 6t-119.5 3q-32 0 -79 -2t-81.5 -4t-36.5 -2q-14 0 -32.5 10t-18.5 21q2 23 31 59q160 221 414.5 615.5t267.5 435.5q4 7 1.5 16.5t-12.5 9.5q-30 0 -203.5 2t-250.5 2q-35 0 -74 -36t-100 -130q-18 -28 -34.5 -37.5t-41.5 -9.5q-11 0 -13 20.5t5 45.5
q1 3 15 43t29.5 92t22.5 90q2 9 17.5 25.5t23.5 15.5q45 -9 183 -22q120 -9 438 -9z" />
    <glyph glyph-name="bracketleft" unicode="[" horiz-adv-x="706" 
d="M219 1376q34 0 135.5 1t173.5 1q28 0 49 -14.5t21 -32.5t-22 -32t-56 -17q-6 -1 -91 -5.5t-101 -6.5q-25 -3 -33 -37q-12 -58 -12 -748q0 -459 4 -684q1 -24 13.5 -35t37.5 -16q96 -12 149 -12q33 0 52.5 -13.5t19.5 -37.5q0 -17 -24 -29t-48 -14q-51 -6 -172 -6
q-98 0 -141 4q-5 0 -17 15.5t-12 25.5l13 989q1 83 5.5 303.5t4.5 343.5q0 20 15 38.5t36 18.5z" />
    <glyph glyph-name="backslash" unicode="\" horiz-adv-x="866" 
d="M182 1384q35 -4 41 -22q192 -519 555 -1468q1 -9 -5.5 -21t-12.5 -14q-43 -13 -62 -13q-34 0 -55 52q-420 1079 -551 1431q-3 10 7.5 24t21.5 19q30 12 61 12z" />
    <glyph glyph-name="bracketright" unicode="]" horiz-adv-x="706" 
d="M506 -360h-318q-28 0 -47.5 13.5t-19.5 31.5t19 33t53 18q6 1 89 4.5t99 5.5q10 1 22.5 14.5t14.5 22.5q12 58 12 747q0 449 -4 674q-1 22 -12.5 39.5t-24.5 20.5q-96 12 -164 12q-32 0 -52.5 14t-20.5 37q0 17 24.5 30t48.5 15q51 6 172 6q99 0 144 -4q5 0 15.5 -16.5
t10.5 -26.5l-12 -987q-1 -83 -5.5 -303.5t-4.5 -343.5q0 -14 -12 -35.5t-27 -21.5z" />
    <glyph glyph-name="asciicircum" unicode="^" horiz-adv-x="995" 
d="M494 1245q5 0 10.5 -1.5t10 -4t9.5 -7t8.5 -8t8 -10t7 -10t7 -11.5t6 -11t5.5 -11.5t5 -9.5l330 -616q7 -11 8 -25.5t-6 -21.5q-33 -33 -69 -39q-30 -7 -39 6l-299 571q-9 15 -13 4l-286 -585q-8 -11 -35 -4q-25 8 -68 41q-12 17 -4 34q143 266 328 629q29 56 43.5 73
t32.5 17z" />
    <glyph glyph-name="underscore" unicode="_" horiz-adv-x="1024" 
d="M0 -256h1024v-102h-1024v102z" />
    <glyph glyph-name="grave" unicode="`" horiz-adv-x="819" 
d="M324 1362q8 0 23.5 -9.5t21.5 -25.5q25 -41 69 -143.5t64 -157.5q5 -22 -2.5 -45t-26.5 -23q-30 0 -61 35q-114 137 -170 215q-27 44 -27 66q0 30 38.5 59t70.5 29z" />
    <glyph glyph-name="a" unicode="a" horiz-adv-x="915" 
d="M477 856q56 0 99 -18t88 -60q28 -26 48.5 -82.5t20.5 -93.5q0 -20 -4 -140t-4 -253q0 -48 21.5 -74t52.5 -26q33 0 69 18q6 3 12.5 -9t6.5 -24q0 -6 -8 -27t-11 -26q-56 -74 -149 -74q-114 0 -146 127q0 2 -8.5 6.5t-11.5 3.5q-37 -29 -158 -98q-57 -31 -108 -31
q-25 0 -56.5 15t-63.5 43t-53.5 77t-21.5 107t31 98q20 25 45.5 41t36.5 19q171 40 243.5 60t104.5 38q8 3 15 12.5t7 18.5v78q0 35 -6 53q-20 56 -73 85.5t-107 29.5q-29 0 -56.5 -9.5t-35.5 -17.5q-16 -20 -21 -100q-3 -34 -18 -45q-7 -6 -28 -11.5t-31 -5.5q-63 0 -86 10
q-7 3 -16 15t-9 18q0 26 41 70t107 90q141 92 241 92zM395 113q35 0 79 19t77 50q14 32 16 62l2 131q0 12 -16 12q-44 -7 -116 -24.5t-103 -28.5q-43 -15 -59.5 -35.5t-16.5 -58.5q0 -50 40.5 -88.5t96.5 -38.5z" />
    <glyph glyph-name="b" unicode="b" horiz-adv-x="1044" 
d="M963 436q0 -104 -51 -197.5t-136 -160.5q-134 -103 -307 -103q-54 0 -128 14t-114 31q-12 5 -57 5q-10 0 -20.5 9.5t-10.5 26.5l3 156q2 156 5 355t3 305q0 262 -11 299q-3 14 -15.5 26t-47.5 33q-31 18 -31 33q0 5 11 21.5t18 17.5q6 2 81.5 27.5t108.5 41.5
q22 13 45 13q8 0 15 -16t6 -34q-17 -312 -17 -538q0 -6 7.5 -12t13.5 -3q60 33 127.5 51.5t109.5 18.5q141 0 256 -100q75 -65 105.5 -152t30.5 -168zM772 412q0 147 -85 240t-202 93q-51 0 -80.5 -9t-56.5 -31q-5 -5 -17 -21t-12 -20q-6 -30 -6 -215q0 -193 21 -254
q5 -15 16 -31.5t33 -38t62.5 -35.5t91.5 -14q39 0 81 12.5t56 24.5q11 10 23 25t31.5 49.5t31.5 93.5t12 131z" />
    <glyph glyph-name="c" unicode="c" horiz-adv-x="858" 
d="M549 856q89 0 140.5 -20t70.5 -41q5 -3 11.5 -21t6.5 -29q0 -41 -21 -73.5t-44 -32.5q-9 0 -29.5 13t-40.5 34q-73 76 -194 76q-76 0 -138 -68q-69 -78 -69 -241q0 -79 27.5 -143.5t71.5 -104t97 -61t107 -21.5q59 0 106 19.5t99 66.5q9 7 22.5 0t13.5 -19q0 -42 -26 -77
q-48 -67 -129.5 -102.5t-171.5 -35.5q-159 0 -275 107q-46 41 -81 124.5t-35 178.5q0 132 57.5 231.5t150.5 157.5q130 82 273 82z" />
    <glyph glyph-name="d" unicode="d" horiz-adv-x="1071" 
d="M590 856q83 0 125 -10q6 -1 11 6t5 16q0 2 -2 141.5t-2 164.5q-4 50 -20 64.5t-84 31.5q-15 5 -27 17.5t-12 25.5q0 14 43 26q34 10 136 30t116 20q15 0 20.5 -27t5.5 -98q0 -60 -4 -274t-4 -302q0 -270 8 -506q2 -82 37 -82q50 0 113 13q10 2 19 -8.5t9 -26.5
q0 -13 -14.5 -32t-30.5 -23q-56 -12 -119 -28t-95.5 -24t-45.5 -8q-9 0 -22.5 8.5t-14.5 18.5q-2 13 -3.5 45.5t-2.5 38.5q0 3 -5.5 5t-10.5 -1q-61 -34 -95 -52t-79.5 -34.5t-77.5 -16.5q-172 0 -280.5 113.5t-108.5 288.5q0 79 20 144.5t57 113.5t71.5 79t78.5 60
q60 38 142.5 60t142.5 22zM504 768q-76 0 -139 -57q-44 -39 -70.5 -107.5t-26.5 -159.5q0 -82 31.5 -159.5t98.5 -132t153 -54.5q42 0 93.5 18.5t66.5 33.5q5 3 12.5 22t7.5 29v385q0 14 -5.5 43.5t-10.5 36.5q-23 36 -76 69t-135 33z" />
    <glyph glyph-name="e" unicode="e" horiz-adv-x="878" 
d="M520 856q75 0 140.5 -32t101.5 -91q35 -51 35 -143q0 -17 -20.5 -39.5t-35.5 -22.5q-4 0 -211.5 -3t-228.5 -3q-5 0 -17.5 -7.5t-15.5 -14.5q-10 -17 -10 -64q0 -136 90.5 -228.5t222.5 -92.5q94 0 207 78q4 2 10 0.5t10.5 -9t4.5 -18.5q0 -34 -27 -64
q-57 -60 -134 -93.5t-159 -33.5q-189 0 -295 116.5t-106 307.5q0 123 53 224.5t146 162.5q106 70 239 70zM459 782q-44 0 -100.5 -47.5t-75.5 -118.5q-1 -6 4 -13t8 -7q46 -4 149 -4q37 0 61 2t53 8.5t43.5 22.5t14.5 41q0 49 -40 82.5t-117 33.5z" />
    <glyph glyph-name="f" unicode="f" horiz-adv-x="655" 
d="M188 707l-79 14q-35 8 -35 29t21 35t89 44q5 1 12 12t7 15q0 62 18 141t53 144q53 97 158 176q50 36 114 60t113 24q61 0 111 -16.5t72 -47.5q14 -17 14 -55q0 -16 -10 -33q-11 -23 -38 -40t-44 -17q-26 0 -53 20q-96 76 -148 76q-55 0 -92.5 -33t-56.5 -88
q-37 -104 -37 -282q0 -54 16 -54q39 0 137 3.5t99 3.5q9 0 15 -10.5t8.5 -26.5t3.5 -27.5t1 -21.5q0 -4 -13 -21.5t-21 -17.5q-1 0 -112.5 1t-123.5 1q-18 0 -18 -62q0 -45 10 -450q1 -70 25 -92.5t106 -34.5q25 -4 43 -17t18 -24q0 -19 -18 -30t-49 -11q-2 0 -75 3t-142 3
q-7 0 -63 -3t-89 -3q-65 0 -65 37q0 21 51 41q40 17 58.5 36.5t19.5 47.5q6 99 6 524q0 7 -7 17t-10 10z" />
    <glyph glyph-name="g" unicode="g" horiz-adv-x="946" 
d="M424 856q68 0 170 -31q47 -14 76 -14q14 0 116.5 1t106.5 1q11 0 21 -30t10 -54q0 -9 -6 -17.5t-11.5 -13t-7.5 -4.5q-25 0 -93 6t-85 7q39 -66 39 -144q0 -139 -111 -233q-46 -38 -117.5 -60t-140.5 -22q-6 0 -27.5 1t-27.5 1q-14 0 -31 -10q-15 -8 -31 -29.5t-16 -34.5
q0 -26 18.5 -43.5t34.5 -22t25 -4.5q69 0 189.5 -4t144.5 -4q86 0 157 -59q33 -27 56.5 -75.5t23.5 -96.5q0 -90 -52.5 -168.5t-125.5 -124.5q-74 -44 -154 -69t-192 -25q-54 0 -113.5 14t-119 42.5t-98 82t-38.5 123.5q0 25 14 60.5t29 45.5q90 68 127 101q6 3 7.5 11
t-3.5 9q-33 8 -59 29q-59 51 -59 139q0 18 10 21q33 15 81.5 50t63.5 54q11 15 0 19q-153 97 -153 254q0 79 27.5 134t86.5 107q35 28 107.5 54t130.5 26zM395 776q-71 0 -110 -61.5t-39 -139.5q0 -123 60 -183t136 -60q32 0 64 14.5t43 28.5q16 22 31.5 70.5t15.5 107.5
q0 40 -11 77.5t-34 71t-63 54t-93 20.5zM477 -416q38 0 90 11t84 32q106 63 103 170q-1 64 -43.5 99t-104.5 45q-74 12 -176 12t-164 -31q-86 -52 -86 -135q0 -67 45.5 -114.5t110.5 -68t141 -20.5z" />
    <glyph glyph-name="h" unicode="h" horiz-adv-x="1073" 
d="M612 856q130 0 209 -92q36 -39 56 -114.5t20 -160.5q0 -37 3 -177.5t3 -151.5q0 -36 13.5 -52.5t60.5 -33.5q24 -7 37.5 -20t13.5 -27q0 -33 -59 -33q-27 0 -75 3t-77 3q-20 0 -70 -3t-79 -3q-27 0 -44.5 9t-17.5 24q0 22 47 39q51 17 65.5 37t14.5 75q0 9 0.5 88
t0.5 154t-1 115q-3 87 -43 139q-23 27 -67.5 48t-87.5 21q-68 0 -109.5 -14t-73.5 -45q-5 -3 -13.5 -22.5t-8.5 -26.5q0 -461 4 -508q0 -24 69 -59q41 -16 41 -31q0 -18 -15 -30.5t-38 -12.5q-16 0 -70.5 3t-84.5 3q-29 0 -89 -3t-75 -3q-29 0 -44.5 9.5t-15.5 23.5
q0 16 13 25.5t41 17.5q45 14 66 33.5t24 52.5q12 117 12 563q0 310 -8 424q-3 36 -12.5 52t-36.5 30q-45 27 -45 51q0 14 12.5 25t30.5 16q39 11 143 55q49 17 61 17q23 0 23 -95q0 -35 -3 -250.5t-3 -263.5q0 -6 2.5 -11t6 -6.5t5.5 -0.5q94 57 137 74q54 20 131 20z" />
    <glyph glyph-name="i" unicode="i" horiz-adv-x="540" 
d="M92 766q0 7 8.5 14.5t18.5 10.5q185 67 221 67q5 0 12.5 -13.5t7.5 -19.5v-374q2 -263 9 -326q1 -10 6 -17.5t24.5 -19t53.5 -20.5q22 -6 35.5 -19.5t13.5 -28.5q0 -12 -18.5 -19t-41.5 -7q-21 0 -85 3t-87 3q-61 0 -114 -3t-58 -3q-61 0 -61 31q0 27 49 41
q65 17 80.5 36.5t21.5 85.5q9 97 9 299q0 148 -2 160q-3 27 -80 78q-9 5 -16 19t-7 22zM270 1280q35 0 64 -25q35 -41 35 -84q0 -55 -37 -85.5t-72 -30.5q-48 0 -88 47q-20 33 -20 61q0 52 32.5 84.5t85.5 32.5z" />
    <glyph glyph-name="j" unicode="j" horiz-adv-x="491" 
d="M55 745q0 6 4.5 12t8.5 9t12.5 7t9.5 5l139 49q7 3 23.5 10t26.5 10.5t22.5 7t20.5 3.5t12.5 -5.5t7 -26.5t3.5 -56t1 -100q0 -127 -3 -381t-3 -258q0 -51 -8 -121q-11 -99 -60 -189t-110 -143q-38 -35 -99 -66.5t-79 -31.5q-12 0 -23.5 6t-11.5 16q0 28 33 54
q54 40 79 63q52 50 81.5 127t29.5 219q0 462 -6 631q-1 35 -3.5 47.5t-18 27.5t-50.5 31q-39 16 -39 43zM248 1278q40 0 80 -27q12 -11 20 -37.5t8 -42.5q0 -62 -41 -88q-27 -24 -67 -24q-42 0 -73.5 30.5t-31.5 75.5q0 53 37 83t68 30z" />
    <glyph glyph-name="k" unicode="k" horiz-adv-x="1054" 
d="M625 834h82q46 0 127 5t96 5q27 0 44 -10t17 -23t-14.5 -23.5t-34.5 -15.5q-72 -20 -107.5 -36t-86.5 -58q-25 -20 -54 -44t-66 -56t-61 -52q-9 -7 0 -26q70 -92 248 -301q91 -100 150 -121q45 -18 62 -29t17 -24q0 -31 -69 -31q-25 0 -97 3t-128 3q-15 0 -47.5 -1
t-43.5 -1q-22 0 -33.5 10.5t-11.5 20.5q0 14 11 23.5t41 19.5q34 11 10 47q-11 16 -50.5 63.5t-85.5 102.5t-61 73q-33 39 -45 49.5t-26 10.5q-13 0 -35 -15q-11 -7 -11 -28v-193q0 -17 2.5 -31t4.5 -24t8.5 -18.5t9.5 -12.5t12.5 -9.5t12.5 -7t15.5 -6t14.5 -5.5
q3 -1 8.5 -3t8.5 -3t7 -3t6.5 -3t5.5 -2.5t4.5 -3.5t3.5 -4t2.5 -4t0.5 -5q0 -13 -15 -28t-40 -15q-17 0 -71.5 3t-81.5 3q-28 0 -84 -3t-74 -3q-25 0 -45.5 8.5t-20.5 22.5q0 27 58 45q45 14 57.5 34t15.5 66q3 26 8 324t5 438q0 209 -2 229q0 34 -12 53.5t-50 40.5
q-39 22 -39 33q0 12 13.5 26t27.5 19l68 17t84 22q13 3 33 10t26 7q8 0 15.5 -13.5t7.5 -23.5q-13 -397 -13 -650q0 -47 1 -81.5t1 -61.5q-1 -52 4 -69t19 -17q8 0 29.5 12t40.5 29q114 95 190 186q20 25 16 38t-34 22q-54 14 -54 33q0 15 16 28t36 13z" />
    <glyph glyph-name="l" unicode="l" horiz-adv-x="493" 
d="M47 1278q0 20 39 37q105 43 184 65q30 9 43 9q25 0 25 -89q0 -78 -3 -296t-3 -316q0 -451 4 -500q4 -62 19.5 -78t90.5 -44q43 -16 43 -43q0 -29 -59 -29q-29 0 -98.5 3t-95.5 3q-44 0 -97.5 -4t-72.5 -4q-60 0 -60 24q0 33 51 50q34 13 54.5 24.5t30.5 25.5t12.5 23
t5.5 29q8 66 8 512q0 465 -6 498q-5 31 -66 55q-29 11 -39 21.5t-10 23.5z" />
    <glyph glyph-name="m" unicode="m" horiz-adv-x="1622" 
d="M109 729q0 12 11 27.5t23 21.5q86 34 158 80q17 12 23 12q9 0 20.5 -9t11.5 -13v-86q0 -7 7 -11t14 1q152 104 282 104q142 0 215 -111q2 -3 11.5 -6t15.5 0q72 53 152 88q73 29 141 29q64 0 114 -28t79 -74.5t44 -98.5t17 -108q14 -301 14 -406q0 -44 78 -71
q47 -17 47 -41q0 -17 -14 -25t-31 -8q-24 0 -79 2t-79 2t-76 -2t-75 -2q-24 0 -40.5 11t-16.5 24q0 9 11.5 21.5t37.5 19.5q36 10 50.5 32t14.5 58q0 50 -1 176.5t-1 169.5q-2 61 -8.5 91.5t-24.5 59.5q-46 68 -149 68q-58 0 -111 -18.5t-69 -32.5q-7 -7 -14 -27t-7 -37
q0 -374 6 -444q3 -66 72 -88q30 -10 41.5 -21t11.5 -28q0 -16 -14.5 -25.5t-34.5 -9.5q-27 0 -86 2t-86 2q-23 0 -73 -2t-72 -2q-24 0 -43 12t-19 25q0 22 51 41q47 17 64 36.5t18 75.5l7 394q0 10 -2 21t-5.5 20t-7.5 18t-7 15t-6 11l-3 5q-49 63 -158 63q-98 0 -176 -55
q-3 -3 -13 -26t-10 -27q0 -395 5 -461q3 -39 18.5 -56.5t48.5 -33.5q45 -23 45 -45q0 -15 -14 -25t-37 -10t-84.5 3t-93.5 3q-24 0 -70 -5t-69 -5q-25 0 -41.5 10.5t-16.5 24.5q0 24 49 43q59 24 73.5 43.5t16.5 70.5q9 171 9 430q0 39 -45 74t-45 43z" />
    <glyph glyph-name="n" unicode="n" horiz-adv-x="1077" 
d="M92 743q0 11 12 28.5t25 23.5q17 8 64 27t69 30q42 20 53 20q8 0 21.5 -7t13.5 -17q0 -50 -4 -90q-1 -7 4 -8.5t10 2.5q152 104 291 104q123 0 189 -96q58 -83 61 -273q1 -34 1.5 -98t1.5 -116t3 -93q1 -43 13 -62.5t41 -33.5q61 -23 61 -57q0 -14 -18.5 -23.5
t-40.5 -9.5q-9 0 -64 3t-90 3q-34 0 -77.5 -3t-51.5 -3q-55 0 -55 33q0 25 45 43q38 13 51.5 31.5t15.5 56.5q2 100 2 278q0 189 -39 242q-41 55 -145 55q-111 0 -176 -45q-25 -25 -25 -51v-475q0 -16 1 -23t8 -19t24.5 -22.5t46.5 -21.5q53 -20 53 -49q0 -13 -15.5 -23
t-41.5 -10q-36 0 -96 3t-82 3q-35 0 -92 -3t-70 -3q-59 0 -59 31q0 14 14 26t31 17q64 20 83 40.5t21 57.5q13 212 13 461q0 24 -16.5 43t-55.5 43q-29 21 -29 30z" />
    <glyph glyph-name="o" unicode="o" horiz-adv-x="1034" 
d="M524 856q82 0 153.5 -26.5t122.5 -70t87.5 -99.5t54.5 -115.5t19 -116.5q0 -109 -38 -193t-96 -137q-134 -123 -309 -123q-90 0 -174 35t-149 99q-61 60 -91 143t-30 160q0 102 46 192.5t118 147.5q53 45 131 74.5t155 29.5zM494 770q-34 0 -76 -17t-64 -40
q-15 -18 -31.5 -45.5t-34.5 -91t-18 -134.5q0 -93 31.5 -184.5t91.5 -142.5q70 -56 156 -56q38 0 82 21.5t74 58.5q55 70 55 275q0 90 -29.5 169.5t-91.5 133t-145 53.5z" />
    <glyph glyph-name="p" unicode="p" horiz-adv-x="1060" 
d="M627 854q129 0 221 -86q62 -55 96.5 -141t34.5 -162q0 -151 -78.5 -265.5t-230.5 -179.5q-39 -18 -112.5 -30.5t-113.5 -12.5q-58 0 -75 5q-3 1 -8 -6t-9 -17t-4 -18v-256q0 -16 5.5 -26.5t31 -24.5t74.5 -29q61 -18 61 -41q0 -17 -15.5 -28t-41.5 -11q-5 0 -33 -1
t-71.5 -2t-84.5 -1q-49 0 -128 -9.5t-85 -9.5q-59 0 -59 37q0 10 14 22t41 19q67 19 88.5 48t24.5 87q12 242 12 357q3 325 -2 549q0 9 -3 16t-19 23t-47 38q-37 23 -37 35q0 13 14.5 29.5t32.5 25.5q106 48 131 64q52 31 70 31q6 0 17 -11.5t11 -17.5q0 -7 -3 -37.5
t-3 -44.5q0 -6 7.5 -9.5t13.5 -0.5q74 45 137 67q68 25 125 25zM537 735q-92 0 -156 -43q-5 -3 -15.5 -15t-11.5 -24q-6 -102 -6 -305q0 -136 19 -164q40 -57 93.5 -83.5t82.5 -26.5q94 0 159 65q39 41 68 108t29 146q0 60 -16 119t-47 109.5t-82.5 82t-116.5 31.5z" />
    <glyph glyph-name="q" unicode="q" horiz-adv-x="1050" 
d="M590 854q85 0 145 -20q7 -2 16.5 -6t16.5 -5.5t14 -1.5q26 0 49 25q32 37 60 37q18 0 18 -54q0 -19 -2.5 -88t-5 -221.5t-2.5 -374.5q0 -277 4 -409q2 -71 19.5 -96t76.5 -37q19 -5 32 -16t13 -23q0 -16 -19.5 -27.5t-53.5 -11.5q-120 0 -232.5 -10.5t-120.5 -10.5
q-22 0 -36.5 5t-19.5 10t-5 10q0 35 49 53q67 24 88 45t27 64q16 152 16 342q0 7 -6 11t-12 1q-115 -70 -234 -70q-86 0 -165.5 34t-131.5 89t-83 133.5t-31 159.5q0 74 23 142.5t81.5 137.5t147.5 117q125 66 264 66zM465 758q-20 0 -52.5 -13.5t-52.5 -33.5
q-38 -41 -67 -114t-29 -157q0 -75 26 -144.5t70 -115.5q47 -48 103.5 -70t107.5 -22q20 0 36.5 1t29.5 3.5t21 4t17 6.5t11.5 6t11 7t9.5 7q11 9 20.5 32.5t9.5 39.5q0 292 -8 362q-4 49 -11 67.5t-30 47.5q-66 86 -223 86z" />
    <glyph glyph-name="r" unicode="r" horiz-adv-x="735" 
d="M88 737q0 29 29 43q16 9 66.5 33.5t72.5 36.5q45 20 59 20q6 0 15.5 -11.5t9.5 -16.5l4 -101q0 -5 8 -8t13 2q48 53 106 87t115 34q41 0 76.5 -22t35.5 -41q0 -30 -27 -66.5t-55 -58.5q-17 -17 -32 -17q-17 0 -47 21q-32 24 -74 24q-58 0 -94 -47q-19 -24 -19 -47
q0 -339 4 -387q4 -72 25 -97t90 -44q74 -19 74 -47q0 -12 -16.5 -23.5t-34.5 -11.5q-32 0 -115.5 4t-112.5 4q-38 0 -88.5 -3t-77.5 -3q-25 0 -40 11.5t-15 21.5q0 28 47 43q55 20 70.5 42.5t17.5 63.5q6 138 6 453q0 25 -51 61q-45 31 -45 47z" />
    <glyph glyph-name="s" unicode="s" horiz-adv-x="735" 
d="M395 856q83 0 129 -16l66 -19q7 -3 20 -19t15 -22q4 -12 4 -112q0 -15 -13 -37.5t-32 -22.5q-7 0 -19.5 15t-25.5 41q-31 58 -75 88t-81 30q-40 0 -79.5 -33.5t-39.5 -86.5q0 -21 4.5 -38.5t16 -32.5t22 -25.5t32 -23.5t35 -20t42 -21t43.5 -22q94 -49 145 -102.5
t51 -136.5q0 -82 -43.5 -139.5t-109.5 -86.5q-79 -39 -176 -39q-157 0 -209 52q-14 14 -27.5 65.5t-13.5 81.5q0 68 37 68q16 0 53 -56q42 -65 92 -98t94 -33q66 0 105 37.5t39 89.5q0 67 -74 115q-30 18 -83 46.5t-79 43.5q-147 84 -147 223q0 114 104 193q34 22 88 37.5
t90 15.5z" />
    <glyph glyph-name="t" unicode="t" horiz-adv-x="663" 
d="M352 831q8 0 117 4.5t135 4.5q9 0 17 -12t10 -23q0 -56 -2 -66q-7 -26 -47 -26q-42 0 -127 -1t-105 -1q-2 0 -5 -2.5t-6 -10t-3 -18.5l-6 -373q-1 -68 5 -99.5t25 -53.5q18 -20 53.5 -32.5t57.5 -12.5q24 0 94 18q7 1 22.5 6.5t22.5 5.5q6 0 12.5 -9.5t6.5 -20.5
q0 -35 -49 -72q-45 -33 -103.5 -48.5t-105.5 -15.5q-46 0 -98 24.5t-83 70.5q-28 44 -28 145q0 65 5 212t5 251q0 17 -10 22t-53 11q-22 3 -42 26t-20 33q0 2 2.5 5.5t7.5 8.5t10 9t12 10t11 10q10 8 43 32t61 47t44 44q22 27 45.5 40t35.5 13q6 0 12.5 -11.5t6.5 -19.5
q0 -13 -1 -54t-1 -46q0 -25 16 -25z" />
    <glyph glyph-name="u" unicode="u" horiz-adv-x="1050" 
d="M496 106q40 0 84 16t65 30q49 37 55 96q9 76 9 416q0 17 -10.5 38.5t-20.5 24.5q-65 26 -68 27q-49 17 -49 45q0 10 16 21t35 11h99q19 0 79.5 3.5t65.5 3.5q6 0 14.5 -17t8.5 -33q0 -573 2 -618q1 -32 8.5 -51.5t13.5 -23t10 -3.5q6 0 27.5 2.5t46 5.5t31.5 4
q3 0 9.5 -14t6.5 -20q0 -24 -12 -39t-23 -17q-114 -13 -168 -28q-62 -15 -88 -15q-6 0 -13 12t-9 23q-1 6 -2 23t-2 39t-2 32q0 3 -7 8t-12 1q-90 -66 -161.5 -100t-157.5 -34q-46 0 -92 21.5t-70 48.5q-17 17 -32 51t-15 68v495q0 17 -19 43.5t-59 47.5q-43 22 -43 47
q0 18 24 26t40 8q26 0 112.5 5.5t89.5 5.5q21 0 21 -66q0 -342 2 -485q1 -52 9 -85t16.5 -45t25.5 -28q45 -27 109 -27z" />
    <glyph glyph-name="v" unicode="v" horiz-adv-x="970" 
d="M31 807q0 12 18 23.5t45 11.5q7 0 68 -5.5t88 -5.5h160q19 0 32 -9.5t13 -20.5q0 -19 -14.5 -28t-53.5 -21q-22 -5 -28.5 -18.5t1.5 -47.5q10 -33 170 -422q3 -6 9.5 -6t7.5 6q158 383 164 400q15 38 5 60.5t-52 31.5q-58 12 -58 43q0 35 60 35q17 0 55 -1.5t57 -1.5
q17 0 67 5.5t77 5.5q22 0 36.5 -10.5t14.5 -20.5q0 -35 -53 -45q-72 -16 -105 -92q-7 -15 -39 -81.5t-63 -135.5t-66 -152q-65 -159 -108 -295q-6 -20 -24 -30.5t-28 -10.5q-11 0 -26.5 12.5t-20.5 22.5q-2 5 -15.5 50t-34 110.5t-38.5 114.5q-27 73 -95.5 232.5
t-80.5 180.5q-10 18 -16 26.5t-26 22.5t-52 25q-51 18 -51 41z" />
    <glyph glyph-name="w" unicode="w" horiz-adv-x="1388" 
d="M266 831q14 0 49.5 2.5t51.5 2.5q19 0 33 -9.5t14 -21.5q0 -29 -49 -43q-30 -8 -39 -22t2 -50q102 -272 172 -438q5 -11 10.5 -10.5t9.5 6.5q106 232 135 307q15 41 15 57q0 21 -25 93q-3 11 -9 19.5t-10 13.5t-14 10t-13.5 6.5t-16.5 5t-15 4.5q-53 20 -53 45
q0 12 16.5 21.5t40.5 9.5q27 0 83.5 -4.5t80.5 -4.5q19 0 63 3.5t64 3.5q23 0 34 -9.5t11 -21.5q0 -15 -11.5 -25t-43.5 -20q-41 -12 -41 -41q0 -16 16 -68q4 -15 32 -89t65 -171.5t51 -136.5q2 -6 10.5 -7.5t11.5 5.5q3 6 26 65t41.5 107t40.5 109t35 104t13 59
q0 39 -70 64q-47 16 -47 41q0 13 15 22t34 9q16 0 50.5 -1.5t54.5 -1.5q24 0 80.5 5.5t77.5 5.5q63 0 63 -35q0 -26 -51 -39q-65 -17 -96 -74q-64 -113 -205 -481q-15 -39 -32 -90.5t-28.5 -86t-15.5 -42.5q-4 -7 -14 -15t-21 -8q-12 0 -29 11t-24 24q-11 14 -51 146
q-12 43 -55.5 154.5t-65.5 162.5q-3 9 -11.5 9t-11.5 -7q-11 -24 -50.5 -106.5t-70 -153t-51.5 -131.5q-20 -57 -41 -83t-36 -26q-8 0 -24 13t-19 24l-43 139q-80 223 -201 515q-21 44 -41 64.5t-62 37.5q-30 11 -43.5 21t-13.5 24q0 35 59 35q24 0 102.5 -6.5t100.5 -6.5z
" />
    <glyph glyph-name="x" unicode="x" horiz-adv-x="933" 
d="M23 809q0 10 17.5 20.5t43.5 10.5q12 0 75 -2.5t103 -3.5q32 0 77 -1.5t62 -1.5q13 0 26 -8.5t13 -21.5q1 -11 -11.5 -22.5t-27.5 -16.5q-19 -5 -22.5 -14t6.5 -37q27 -58 100 -174q2 -5 9 -5.5t10 3.5q97 155 102 165q17 26 8 39t-51 25q-30 10 -33 39q0 13 14.5 20.5
t37.5 7.5h71q27 0 92 4.5t105 4.5q20 0 35.5 -8.5t15.5 -24.5q1 -14 -11.5 -22.5t-43.5 -18.5q-37 -11 -52.5 -17t-44.5 -26t-55 -51q-15 -17 -33.5 -41t-33 -44.5t-41 -58t-45.5 -63.5q-5 -8 2 -27q12 -18 84.5 -138.5t83.5 -137.5q16 -23 29 -38t41.5 -31t64.5 -23
q25 -4 40 -17t15 -26q0 -16 -18 -24.5t-41 -8.5q-7 0 -76.5 3t-116.5 3q-29 0 -83 -2t-60 -2q-49 0 -49 31q0 30 67 47q16 8 23 22.5t0 26.5q-72 130 -113 196q-2 1 -4 2.5t-8.5 3.5t-9.5 -3q-102 -153 -113 -189q-7 -21 2.5 -35.5t50.5 -31.5q8 -3 18.5 -13t10.5 -16
q0 -18 -15.5 -28.5t-29.5 -10.5q-16 0 -59 1t-74 1q-18 0 -78 -5t-68 -5q-25 0 -40 9.5t-15 20.5q0 17 14 28t47 22q44 15 68.5 31t73.5 63q15 14 34 38t34 44.5t45.5 64t48.5 68.5q13 20 4 37q-13 27 -77 136.5t-81 133.5q-26 35 -52.5 50t-80.5 30q-29 6 -42.5 15.5
t-14.5 27.5z" />
    <glyph glyph-name="y" unicode="y" horiz-adv-x="925" 
d="M-14 809q0 11 13.5 21t33.5 10q7 0 103 -4.5t116 -4.5q28 0 58.5 1.5t35.5 1.5q51 0 51 -33q0 -24 -47 -37q-31 -10 -34.5 -24.5t8.5 -41.5q16 -52 77.5 -211.5t98.5 -234.5q5 -7 12.5 -6t9.5 6q127 320 166 432q9 30 -2.5 46.5t-52.5 29.5q-23 8 -38 19.5t-15 23.5
q0 14 15.5 23.5t37.5 9.5q23 0 56 -2.5t48 -2.5q19 0 79 4.5t79 4.5q17 0 32 -8.5t15 -24.5q0 -26 -51 -43q-43 -15 -69 -42.5t-52 -84.5q-40 -89 -115 -270t-110 -273q-22 -56 -74.5 -183.5t-90.5 -222t-46 -120.5q-2 -11 -34 -33t-62 -22q-49 0 -82 31t-33 85
q0 40 33 74.5t80 34.5h53q10 0 21 14t18 31q71 179 80 203q2 8 0 29t-5 28l-51 131q-40 114 -104 272t-98 226q-34 64 -111 92q-53 21 -53 45z" />
    <glyph glyph-name="z" unicode="z" horiz-adv-x="854" 
d="M502 831q52 1 130.5 5t88.5 4q11 0 20 -9q6 -7 9.5 -15.5t4 -12.5t-0.5 -6l-111 -162q-55 -82 -162 -259.5t-145 -248.5q-4 -19 2 -23q25 -20 72.5 -25t136.5 -5q68 0 180 119q50 53 76 53q8 0 15 -18t3 -31q-5 -13 -24.5 -75t-30.5 -91q-4 -9 -12 -18t-15 -14t-8 -5
q-79 0 -179 3t-179 3q-56 0 -153 -5t-101 -5q-12 0 -23.5 15t-11.5 26q0 17 74 121q34 48 160.5 254.5t189.5 318.5q4 6 2.5 12t-6.5 8q-45 13 -225 11q-36 0 -66 -23t-78 -82q-10 -13 -24.5 -24t-20.5 -11q-11 0 -19 11.5t-8 23.5q0 14 5 31.5t14 40.5t12 33q22 60 25 84
q3 12 12.5 23t18.5 14q7 3 20 -3q20 -17 39 -24.5t28 -9t35 -2.5q105 -9 230 -7z" />
    <glyph glyph-name="braceleft" unicode="{" horiz-adv-x="706" 
d="M53 571q111 28 150 75t39 112q0 37 -28 178.5t-28 161.5q0 56 33.5 120t99.5 115q116 88 226 88q19 0 34 -12t15 -20q0 -20 -17.5 -30.5t-75.5 -30.5q-3 -1 -5 -1.5t-4.5 -1.5t-4.5 -2q-78 -27 -105.5 -82.5t-27.5 -142.5q0 -34 26 -143t26 -162q0 -67 -56 -129
t-143 -103q-9 -4 -9.5 -11.5t5.5 -10.5q104 -57 152 -121.5t48 -149.5q0 -68 -53 -264q-18 -89 -18 -104q0 -78 52 -123t155 -84q1 -1 5 -2.5t5.5 -2.5t5 -3t5 -3.5t4.5 -3.5t4 -4.5t2.5 -5.5t2 -6.5t0.5 -7.5q0 -16 -19 -25.5t-34 -9.5q-161 1 -250.5 92t-89.5 236
q0 21 26.5 157.5t26.5 180.5q0 60 -21 101t-55 63.5t-94 46.5q-14 6 -25 22t-11 27q0 14 26 26z" />
    <glyph glyph-name="bar" unicode="|" horiz-adv-x="561" 
d="M207 1536h147v-2048h-147v2048z" />
    <glyph glyph-name="braceright" unicode="}" horiz-adv-x="706" 
d="M651 496q-112 -27 -151 -73t-39 -112q0 -37 27.5 -191.5t27.5 -174.5q0 -56 -33.5 -122t-99.5 -116q-116 -88 -225 -88q-20 0 -33.5 11t-13.5 22q0 16 21 30t83 35q79 27 107 83t28 143q0 34 -25.5 157t-25.5 176q0 67 56 129t141 103q9 4 10.5 11.5t-4.5 10.5
q-104 55 -152.5 120.5t-48.5 150.5q0 27 7 65.5t14.5 66t18 63.5t11.5 40q21 88 21 105q0 78 -51.5 123t-155.5 86q-27 10 -32 22q-3 6 -3 14q0 17 18 26t35 9q160 0 249 -91t89 -236q0 -21 -26.5 -143.5t-26.5 -166.5q0 -88 39.5 -132t130.5 -81q14 -6 25.5 -21t11.5 -26
q0 -17 -25 -28z" />
    <glyph glyph-name="asciitilde" unicode="~" horiz-adv-x="1323" 
d="M877 279q-115 0 -259 127q-138 112 -190 112q-59 0 -107 -49t-94 -156l-3.5 -7l-3.5 -7t-3.5 -6t-4.5 -6t-5 -4t-6.5 -3t-7.5 -1q-12 0 -33.5 9.5t-34.5 22.5q-15 15 -12 31q19 59 50 112.5t73 99t98 72.5t117 27q38 0 85 -20.5t79 -42.5t83 -60q48 -37 75.5 -57
t63 -37.5t60.5 -17.5q117 0 205 209q9 22 28 22q36 0 68 -28q17 -22 10 -39q-50 -137 -135.5 -220t-195.5 -83z" />
    <glyph glyph-name="uni00A0" unicode="&#xa0;" horiz-adv-x="430" 
 />
    <glyph glyph-name="exclamdown" unicode="&#xa1;" horiz-adv-x="585" 
d="M260 -258q-34 0 -58 17t-34 45.5t-14 52.5t-4 51q0 62 32 272t49 293q4 27 17.5 44.5t25.5 17.5q13 0 25.5 -14.5t15.5 -33.5q18 -110 42 -305t24 -268q0 -41 -10.5 -78t-39 -65.5t-71.5 -28.5zM272 698q-59 0 -88.5 39.5t-29.5 89.5q0 58 35 93.5t90 35.5q50 0 85 -34.5
t35 -94.5q0 -62 -40 -95.5t-87 -33.5z" />
    <glyph glyph-name="cent" unicode="&#xa2;" horiz-adv-x="997" 
d="M745 1200l-14 -135q0 -14 19 -18q139 -7 188 -62q23 -23 23 -47q0 -34 -23.5 -61t-48.5 -27q-10 0 -22 6.5t-30 19t-30 19.5q-44 29 -72 39q-4 1 -11 -2t-9 -6l-62 -615q0 -4 4 -10t11 -6q40 1 75.5 8t65.5 20t47 21.5t43 25.5t29 19q9 4 18.5 -2t9.5 -14q0 -39 -26 -70
q-94 -117 -277 -139q-4 0 -9 -3.5t-5 -10.5l-18 -179q0 -22 -46 -22q-15 0 -25 5t-9 17l14 170q1 6 -1 11.5t-5 7.5t-4 2q-154 20 -254.5 140.5t-100.5 279.5q0 184 123 306.5t312 151.5q5 0 10.5 7.5t5.5 13.5l14 131q1 16 11 23.5t18 7.5q29 0 51 -11q10 -5 10 -12z
M571 322l60 620q1 6 -3 10t-10 4q-66 0 -117 -31.5t-79.5 -82t-43 -105t-13.5 -108.5q3 -128 57.5 -208.5t134.5 -111.5q4 -1 9 3.5t5 9.5z" />
    <glyph glyph-name="sterling" unicode="&#xa3;" horiz-adv-x="997" 
d="M696 1264q83 0 142 -42.5t61 -97.5q2 -52 -24 -89.5t-74 -47.5q-11 -1 -23 6t-12 13q6 38 4 69q-2 38 -32 75.5t-70 37.5q-90 0 -150 -122.5t-74 -365.5q0 -4 4.5 -11.5t8.5 -6.5l235 10q3 0 9 -8t6 -12q-1 -24 -11 -43t-18 -21l-225 -18q-6 0 -13.5 -7.5t-9.5 -13.5
q-24 -132 -45 -193.5t-72 -125.5q-5 -8 -0.5 -14.5t11.5 -8.5q79 -10 180 -63q140 -72 209 -72q60 0 92.5 30.5t32.5 100.5q0 16 -3 40.5t-8 53t-6 35.5q-2 6 9 15.5t20 9.5q35 0 65 -33.5t31 -89.5q3 -73 -54 -146.5t-145.5 -120t-173.5 -46.5q-57 0 -115 33.5t-136 103.5
q-55 48 -89 53q-22 3 -34 -14l-26 -29q-26 -28 -39.5 -41t-38 -34.5t-44.5 -31.5t-37 -10q-20 0 -33.5 16.5t-13.5 39.5q-1 45 56.5 103.5t115.5 78.5q28 12 37 24q38 64 55 330q0 6 -7.5 12.5t-10.5 4.5l-141 -11q-7 0 -13 10.5t-6 20.5q0 13 9.5 35t15.5 24l151 9
q11 3 11 22q44 363 225 496q105 78 231 78z" />
    <glyph glyph-name="currency" unicode="&#xa4;" horiz-adv-x="997" 
d="M903 954l-102 -112q-6 -9 -2 -21q61 -88 61 -203q0 -108 -63 -192q-2 -2 -3.5 -5.5t-1.5 -6t1 -2.5l110 -119q9 -9 2.5 -32t-28.5 -42q-12 -14 -31 -19.5t-27 1.5l-125 114q-5 5 -20 -2q-93 -59 -172 -59q-98 0 -178 51q-9 5 -25 -2l-113 -108q-15 -19 -61 18
q-15 15 -21 32.5t-5.5 27.5t3.5 14l99 104q6 13 0 21q-60 94 -60 204q0 91 60 189q2 2 3 11t-3 13l-105 121q-8 9 4.5 33t24.5 39q16 15 36 21.5t32 -1.5l104 -108q3 -3 14.5 -5t14.5 1q81 47 176 47q98 0 186 -51q13 -7 19 2l102 108q26 21 70 -20q19 -16 25 -36t-1 -26z
M502 862q-103 0 -170.5 -70t-67.5 -176q0 -107 69 -174t169 -67q98 0 167.5 67.5t69.5 173.5q0 100 -73.5 173t-163.5 73z" />
    <glyph glyph-name="yen" unicode="&#xa5;" horiz-adv-x="997" 
d="M-16 1184q0 13 17.5 23t35.5 10q9 0 62 -3.5t96 -3.5q53 0 106.5 1t60.5 1q52 0 52 -30q0 -25 -41 -37q-43 -12 -27 -62q17 -33 42.5 -85t41.5 -83.5t34.5 -67.5t31.5 -60t22 -37q18 -23 27 -7q46 78 139 248q45 85 45 111q0 11 -14.5 23.5t-42.5 19.5q-47 11 -47 41
q0 11 13 19.5t38 8.5q10 0 59 -2t66 -2q23 0 76 3.5t75 3.5q16 0 31.5 -7.5t15.5 -19.5q0 -29 -49 -41q-50 -22 -84 -53t-69 -88q-91 -141 -211 -342q0 -17 10 -17l211 2q9 0 10.5 -19.5t-4 -39t-14.5 -19.5l-219 -2q-6 0 -11 -16v-123q0 -6 4 -13t11 -7l211 -2
q8 0 8.5 -18.5t-4.5 -37t-13 -18.5h-206q-2 0 -6.5 -6.5t-4.5 -10.5v-96q0 -33 0.5 -49.5t4.5 -35t10.5 -26.5t21 -18t32.5 -15.5t48 -12.5q21 -4 38.5 -14t16.5 -27q0 -16 -18.5 -23.5t-42.5 -7.5q-21 0 -85.5 3t-113.5 3q-32 0 -91.5 -3t-88.5 -3q-63 0 -63 33
q0 15 18.5 26t34.5 13q59 21 76 41.5t26 87.5q4 41 4 122q0 5 -4 12t-8 7l-217 2q-8 0 -9 19t5 38t14 19h211q3 0 6.5 6.5t3.5 9.5l2 121q0 18 -12 18h-207q-8 0 -9.5 18.5t4 37t13.5 18.5l185 4q7 0 7.5 8t-1.5 11q-44 83 -118.5 211t-100.5 176q-16 29 -48 55.5t-67 34.5
q-27 6 -45 17.5t-18 23.5z" />
    <glyph glyph-name="brokenbar" unicode="&#xa6;" horiz-adv-x="561" 
d="M207 -358v716h147v-716h-147zM207 1382h147v-716h-147v716z" />
    <glyph glyph-name="section" unicode="&#xa7;" horiz-adv-x="876" 
d="M580 1290q29 0 63 -10.5t47 -24.5q15 -19 15 -43q0 -10 -19.5 -49t-28.5 -47q-13 -12 -24 -10t-45 18q-32 16 -78 26.5t-68 10.5q-37 -1 -62.5 -34.5t-25.5 -63.5q1 -36 14.5 -71.5t40 -70.5t47.5 -58.5t58 -60.5t51 -52q236 -257 236 -459q0 -135 -46 -260.5
t-130 -223.5q-71 -83 -125.5 -121t-137.5 -63q-50 -18 -106 -18q-29 -2 -69.5 22.5t-41.5 46.5q0 11 15 41.5t33 51.5q13 19 29 26.5t26 5.5q88 -57 145 -57q124 0 121 100q0 12 -2.5 24.5t-5 23t-9.5 25t-12 24t-16.5 26.5t-18 26.5t-23 30.5t-25 32t-29 37t-31.5 40
q-126 150 -147 180q-127 176 -127 340q0 128 54.5 241t123.5 185q55 69 63 78q57 57 134 95t137 40zM682 176q0 94 -57 203t-142 211q-9 10 -45.5 53t-46 55t-37.5 46.5t-38.5 51t-27.5 44t-25.5 49.5t-14.5 45q-2 5 -7 7t-10 -3q-43 -74 -43 -195q0 -91 40 -178.5
t134 -199.5q114 -137 180.5 -236.5t75.5 -177.5q0 -2 2 -5.5t6 -4.5t9 8q47 89 47 227z" />
    <glyph glyph-name="dieresis" unicode="&#xa8;" horiz-adv-x="819" 
d="M246 1260q45 0 69.5 -36t24.5 -61q0 -51 -32.5 -78.5t-63.5 -27.5q-37 0 -69 26.5t-32 73.5q0 44 30.5 73.5t72.5 29.5zM588 1260q45 0 66.5 -35t21.5 -62q0 -51 -32.5 -78.5t-63.5 -27.5q-37 0 -69 26.5t-32 73.5q0 45 30 74t79 29z" />
    <glyph glyph-name="copyright" unicode="&#xa9;" horiz-adv-x="1538" 
d="M770 1296q143 0 268.5 -53t212 -143.5t136 -213.5t49.5 -259q0 -135 -50.5 -258t-137.5 -213t-212 -143.5t-266 -53.5q-196 0 -349.5 90t-236 242t-82.5 336q0 183 86 336t239.5 243t342.5 90zM770 1219q-159 0 -290.5 -78t-206 -213t-74.5 -299q0 -162 74.5 -298.5
t206 -216t290.5 -79.5t289.5 78t205 214t74.5 302q0 164 -74.5 299t-205.5 213t-289 78zM811 1004q71 0 129 -13q6 -1 46.5 -11.5t57.5 -14.5q20 -8 23 -52q2 -31 2 -96q0 -43 -29 -43q-8 0 -19.5 13t-19.5 26q-20 57 -67.5 91t-110.5 34q-113 0 -182.5 -78t-69.5 -203
q0 -86 24 -151t63 -100t80.5 -51.5t84.5 -16.5q114 0 185 106q2 2 12.5 20t20 27t20.5 9t17.5 -13.5t4.5 -25.5q-3 -40 -32 -113q-4 -12 -23 -28.5t-29 -20.5q-90 -37 -192 -37q-106 0 -190.5 39t-129.5 88q-90 103 -90 244q0 163 133 274q114 97 281 97z" />
    <glyph glyph-name="ordfeminine" unicode="&#xaa;" horiz-adv-x="708" 
d="M379 1122q79 0 131.5 -54.5t52.5 -131.5q0 -16 -2 -91.5t-2 -154.5q0 -35 14.5 -55.5t38.5 -20.5q14 0 47 11q12 4 17.5 -3t5.5 -18q0 -25 -8 -37q-16 -25 -50 -43t-73 -18q-29 0 -49.5 4.5t-41.5 22.5t-32 51q-9 5 -16 0q-3 -2 -15.5 -10t-17 -11t-16.5 -10.5
t-17.5 -10.5t-17 -9t-18.5 -9t-17.5 -7t-19 -6t-17.5 -3.5t-18 -1.5q-22 0 -48 9t-52.5 27.5t-44 53.5t-17.5 80q0 34 11.5 58.5t35.5 40t41.5 22.5t48.5 16q26 9 71.5 21.5t78.5 23.5t57 23q10 5 10 20v45q0 43 -35.5 69.5t-77.5 26.5q-43 0 -67 -20q-5 -5 -21 -70
q-3 -13 -13.5 -24.5t-20.5 -14.5q-32 -8 -58 -8q-61 0 -61 25q0 50 117 129q89 63 186 63zM211 700q0 -38 26.5 -62t65.5 -24q61 0 100 39q5 5 12 22.5t7 24.5q0 8 2 46.5t2 46.5t-5 11t-9 3q-112 -29 -156.5 -49.5t-44.5 -57.5z" />
    <glyph glyph-name="guillemotleft" unicode="&#xab;" horiz-adv-x="1409" 
d="M156 393q-13 10 -11.5 31t9.5 27q106 62 272 170.5t242 164.5q42 29 63 29q7 0 13.5 -7.5t5 -25.5t-16.5 -41q-13 -20 -43 -48.5t-75 -65t-79 -62.5t-88 -66.5t-69 -52.5q-17 -11 -2 -26q286 -230 350 -311q16 -20 17.5 -37.5t-6 -26t-15.5 -8.5l-3 -1h-7.5t-9.5 0.5
t-12 2.5t-14 6t-15 10q-94 69 -245.5 172t-260.5 166zM670 393q-12 8 -11.5 30.5t9.5 27.5q111 68 277.5 179t236.5 167q39 32 69 32q7 0 11.5 -8t2 -25.5t-15.5 -39.5q-51 -82 -356 -305q-17 -12 -2 -27q107 -82 216 -179.5t146 -150.5q13 -19 13 -36t-7.5 -26t-15.5 -9
q-28 0 -55 20q-96 75 -250.5 181.5t-267.5 168.5z" />
    <glyph glyph-name="logicalnot" unicode="&#xac;" horiz-adv-x="1323" 
d="M1087 -4q-32 0 -32 37l-11 469q0 17 -12.5 32t-23.5 15l-856 8q-27 0 -27 39q0 20 12 53t19 33l1005 2q10 0 22.5 -23.5t12.5 -31.5l-2 -582q0 -26 -35.5 -38.5t-71.5 -12.5z" />
    <glyph glyph-name="uni00AD" unicode="&#xad;" horiz-adv-x="659" 
d="M133 498q32 6 202 20t210 14q8 0 17 -16t9 -24q0 -57 -16 -89q-3 -4 -16 -15t-15 -11q-46 -2 -137 -7t-160 -8.5t-110 -3.5q-14 -1 -22 8t-9.5 16t-1.5 13q0 21 6.5 47t11.5 33q14 17 31 23z" />
    <glyph glyph-name="registered" unicode="&#xae;" horiz-adv-x="602" 
d="M215 981v117q0 18 -4 26t-7 9t-16 4q-16 3 -16 12q0 15 18 18q82 7 115 7q49 0 77 -19t28 -51q0 -39 -41 -53q-4 -2 -4 -11q29 -53 44 -71.5t31 -26.5q15 -6 15 -14q0 -17 -33 -17q-46 0 -72 43q-6 9 -16.5 25.5t-16.5 24.5q-1 1 -3.5 5.5t-4.5 6t-5.5 4.5t-8 4.5
t-10.5 1.5q-9 0 -9 -8v-29q0 -11 0.5 -17.5t4 -10.5t5.5 -5t10 -3.5t13 -4.5q2 -1 6.5 -3t6.5 -4t2 -5q0 -5 -6.5 -10.5t-14.5 -5.5q-10 0 -25.5 1t-25.5 1q-11 0 -28.5 -1t-30.5 -1q-17 0 -17 12q0 8 8 12q20 8 25.5 14t5.5 23zM276 1135v-64q0 -12 4 -15t17 -3q47 0 47 45
q0 19 -14.5 32t-34.5 13q-19 0 -19 -8zM301 1303q114 0 190 -76t76 -189q0 -63 -30.5 -123t-94 -102.5t-145.5 -42.5q-110 0 -186 77.5t-76 190.5q0 106 77 185.5t189 79.5zM301 1260q-91 0 -151 -63t-60 -159q0 -93 60.5 -157t150.5 -64q92 0 151.5 63.5t59.5 157.5
q0 95 -61.5 157.5t-149.5 64.5z" />
    <glyph glyph-name="macron" unicode="&#xaf;" horiz-adv-x="819" 
d="M203 1219l448 10q3 0 10 -15t7 -22q0 -42 -21 -82q-6 -10 -14.5 -17.5t-11.5 -7.5h-447q-6 0 -13 8.5t-7 20.5q0 62 22 90q3 5 12 10t15 5z" />
    <glyph glyph-name="degree" unicode="&#xb0;" horiz-adv-x="675" 
d="M336 748q-108 0 -182 67t-74 182q0 105 80 177.5t184 72.5q102 0 176 -70t74 -180q0 -111 -77.5 -180t-180.5 -69zM330 1157q-60 0 -96.5 -44.5t-36.5 -115.5q0 -67 43 -112t108 -45q53 0 91 44.5t38 112.5q0 72 -40.5 116t-106.5 44z" />
    <glyph glyph-name="plusminus" unicode="&#xb1;" horiz-adv-x="1323" 
d="M1178 553l-424 -2q-7 0 -13 -9.5t-6 -17.5v-444q0 -12 -39.5 -21.5t-66.5 -9.5q-11 0 -22 6t-11 13l-4 452q0 20 -5 24.5t-24 4.5l-430 -2q-11 0 -19 12.5t-8 26.5q0 23 11 57.5t18 34.5h436q8 0 14.5 6.5t6.5 15.5l-2 445q0 4 17 11t42.5 12.5t44.5 5.5q8 0 23.5 -8.5
t15.5 -20.5v-445q0 -14 4 -18t17 -4h422q23 0 32 -7.5t9 -25.5q0 -38 -12 -65t-27 -27zM1178 -190h-1041q-13 0 -22 14.5t-9 23.5q0 18 4 39.5t9 35.5t8 14l1067 4q7 0 15 -11t8 -22q0 -39 -12 -68.5t-27 -29.5z" />
    <glyph glyph-name="twosuperior" unicode="&#xb2;" horiz-adv-x="677" 
d="M328 1542q95 0 156 -63.5t61 -149.5q0 -59 -23 -103t-84 -102q-81 -75 -180 -153q-1 -1 -0.5 -4.5t3 -7t7.5 -3.5q220 8 234 9q25 0 73 53q31 31 46 31q14 0 17.5 -24.5t-3.5 -39.5q-44 -85 -55 -141q-3 -7 -13 -14t-16 -7q-126 8 -332 8h-127q-22 0 -33.5 10t-11.5 19
q0 5 1.5 10t6.5 11t8 9l11 11l10 10q10 9 85 73t110 99q114 114 114 207q0 58 -37.5 95.5t-85.5 37.5q-66 0 -147 -77q-13 -10 -25 -15t-22 0.5t-10 24.5q-2 24 28 63q99 123 234 123z" />
    <glyph glyph-name="threesuperior" unicode="&#xb3;" horiz-adv-x="677" 
d="M352 1542q88 0 140.5 -45t52.5 -100q0 -28 -13.5 -50.5t-27.5 -33t-41.5 -26t-36.5 -21.5q-6 -3 -4.5 -9t6.5 -8q85 -12 132.5 -56.5t47.5 -113.5q0 -74 -58 -137t-157 -106q-88 -39 -164 -39q-49 0 -96 22t-47 53q0 19 19 41.5t32 28.5q15 9 37 2q2 -1 24.5 -16t35 -22
t34 -15t39.5 -8q59 0 105.5 39.5t46.5 105.5q0 64 -43.5 97.5t-106.5 33.5q-7 0 -76 -12q-19 -3 -24 4q-7 7 6 33q9 18 19.5 27t33.5 18q127 59 127 127q0 36 -24.5 61t-71.5 25q-58 0 -109 -51q-48 -41 -61 -41q-11 0 -16.5 18.5t4.5 38.5q30 50 92 92.5t143 42.5z" />
    <glyph glyph-name="acute" unicode="&#xb4;" horiz-adv-x="819" 
d="M557 1360q32 0 68 -29t37 -57q1 -29 -78 -126.5t-140 -158.5q-37 -33 -59 -33q-11 0 -18 10t-7 27t7 39q23 64 131 262q32 66 59 66z" />
    <glyph glyph-name="mu" unicode="&#xb5;" horiz-adv-x="1044" 
d="M233 868q43 0 99 -37q2 -2 12 -22t10 -27q0 -26 -14 -108t-33 -148q-9 -28 -18 -73t-17 -88t-10 -54q-11 -44 6 -84q10 -29 46.5 -54.5t62.5 -25.5q68 0 148.5 74t117.5 170q12 39 16 80q11 195 29 342q3 20 14.5 38.5t20.5 18.5q41 0 87.5 -18.5t61.5 -30.5
q13 -13 7 -73q-7 -65 -54 -202t-82 -206q-5 -11 -7 -35.5t1 -36.5q22 -129 113 -129q30 0 58 12.5t41 23.5t34 32q8 6 17.5 2t11.5 -12q4 -7 0.5 -46.5t-11.5 -56.5q-32 -63 -72 -92t-106 -29q-62 0 -104 51.5t-43 153.5q0 7 -6.5 13.5t-12.5 -1.5q-71 -114 -129.5 -160
t-115.5 -46q-83 0 -149 113q-2 4 -3 5q-2 4 -5.5 6.5t-7 -0.5t-5.5 -12q-4 -36 -6 -138t6 -159q8 -63 35 -92.5t98 -66.5q19 -10 4 -50q-8 -18 -74 -55q-29 -18 -74 -18q-14 0 -35 13t-38 42q-23 38 -23 195q0 65 4 154.5t9.5 168.5t5.5 92q1 20 -4 109q-4 71 -4.5 162.5
t0.5 217t1 156.5q0 24 21 33q16 8 65 8z" />
    <glyph glyph-name="paragraph" unicode="&#xb6;" horiz-adv-x="1247" 
d="M958 1198h107q27 0 45 -18.5t18 -42.5q0 -10 -10.5 -24.5t-19.5 -14.5q-2 0 -91 -3t-108 -3q-11 0 -22 -21t-11 -49q0 -256 -0.5 -504.5t-1 -403t-0.5 -182.5q0 -59 -2 -104t-9 -102.5t-19 -99.5t-34.5 -85.5t-53 -70.5t-77 -44.5t-104.5 -17.5q-91 0 -159 59.5
t-68 151.5q0 91 50.5 150t135.5 59q48 0 83.5 -32t35.5 -89q0 -46 -27 -71t-49 -25q-41 0 -59 12q-32 23 -45 23q-8 0 -14.5 -8.5t-6.5 -22.5q0 -56 40 -85.5t96 -29.5q96 0 134 89t40 261q2 197 2 275q0 13 -7 22t-18 9q-94 0 -181.5 17t-169.5 56t-142.5 96t-97 144
t-36.5 193q0 115 38 201.5t110 160.5q70 74 178.5 113t196.5 45q138 16 333 16z" />
    <glyph glyph-name="periodcentered" unicode="&#xb7;" horiz-adv-x="550" 
d="M279 535q45 0 75 -24.5t41 -53.5t11 -58q0 -55 -37 -93t-93 -38q-48 0 -89.5 36t-41.5 97q0 59 46.5 96.5t87.5 37.5z" />
    <glyph glyph-name="cedilla" unicode="&#xb8;" horiz-adv-x="819" 
d="M424 10h78l-96 -116q-2 -3 1.5 -11t6.5 -8q121 -52 121 -149q0 -93 -111 -172q-89 -60 -156 -60q-12 0 -30.5 9.5t-26.5 23.5q-9 16 -9 37t11 35q20 25 39 20q5 -2 21.5 -9.5t32 -12.5t28.5 -5q40 0 58 20.5t18 51.5q0 38 -33 62t-76 24h-33q-7 0 -19.5 14.5t-12.5 22.5
q0 13 18 33z" />
    <glyph glyph-name="onesuperior" unicode="&#xb9;" horiz-adv-x="677" 
d="M432 1522q0 -8 -4 -160q0 -273 4 -377q3 -47 15 -61t67 -31q47 -12 47 -39q0 -29 -55 -29q-19 0 -77.5 3t-86.5 3q-56 0 -104 -3t-58 -3q-20 0 -33.5 9.5t-13.5 19.5q0 29 60 43q43 10 60.5 27.5t22.5 46.5q11 67 11 260q0 123 -4 143q-3 17 -20 26t-70 13q-18 2 -34 11
t-16 26q0 10 14.5 20t30.5 13q149 32 215 59q9 3 19 -4t10 -16z" />
    <glyph glyph-name="ordmasculine" unicode="&#xba;" horiz-adv-x="792" 
d="M399 1122q145 0 234.5 -90.5t89.5 -210.5q0 -136 -93.5 -225.5t-232.5 -89.5q-136 0 -231.5 86t-95.5 213q0 137 98.5 227t230.5 90zM381 1049q-39 0 -68.5 -20t-46 -53.5t-24.5 -72t-9 -82.5q-1 -60 17.5 -114.5t62 -93t103.5 -38.5q48 0 82 39.5t47.5 91t13.5 105.5
q0 60 -18 112t-60 89t-100 37z" />
    <glyph glyph-name="guillemotright" unicode="&#xbb;" horiz-adv-x="1409" 
d="M1253 455q13 -10 11.5 -31t-9.5 -27q-105 -62 -271 -170.5t-243 -165.5q-44 -28 -63 -28q-7 0 -13.5 7t-5.5 25t15 41q14 20 44 48.5t75 64.5t79.5 63t88 66.5t69.5 52.5q17 12 2 27q-283 224 -352 311q-16 20 -17.5 37.5t6 26t15.5 8.5l4 1h7t10 -0.5t12.5 -2.5t14.5 -6
t16 -10q282 -208 505 -338zM737 455q13 -8 12.5 -30.5t-10.5 -27.5q-116 -72 -280.5 -181.5t-233.5 -164.5q-40 -33 -67 -33q-7 0 -11.5 8t-2 26t15.5 40q51 82 356 305q15 12 0 27q-107 84 -215.5 181t-144.5 149q-14 19 -14 36t8 26t16 9q26 0 55 -20q95 -74 249.5 -181
t266.5 -169z" />
    <glyph glyph-name="onequarter" unicode="&#xbc;" horiz-adv-x="1466" 
d="M1278 711q9 0 17 -11t8 -22v-379q0 -14 10 -14h110q4 0 7.5 -7t3.5 -12q0 -15 -4 -51q-1 -7 -8 -12.5t-11 -5.5h-98q-8 0 -8 -15q0 -27 -1 -94.5t-1 -79.5q0 -27 -19 -33q-78 -10 -104 -10q-23 0 -23 33q0 114 4 180q0 5 -3 12t-7 7q-7 0 -141 1t-154 1q-9 0 -18 10.5
t-9 21.5q0 17 23 43q187 219 309 349q79 88 117 88zM1165 1274q23 0 52 -25q11 -11 4 -24l-785 -1262q-20 -26 -37 -26q-7 0 -25.5 11.5t-23.5 24.5q-7 9 0 23l780 1249q17 29 35 29zM432 1212q0 -7 -4 -159q0 -273 4 -377q3 -47 15 -61t67 -31q47 -12 47 -39q0 -29 -55 -29
q-19 0 -77.5 3t-86.5 3q-56 0 -104 -3t-58 -3q-20 0 -33.5 9.5t-13.5 19.5q0 29 60 43q43 10 60.5 27.5t22.5 46.5q11 67 11 260q0 123 -4 143q-3 17 -20 26t-70 13q-18 2 -34 11t-16 26q0 10 14.5 20t30.5 13q149 32 215 59q9 3 19 -4.5t10 -16.5zM1161 297l10 221
q0 4 -6 6t-8 0q-47 -42 -192 -221q-4 -6 -2.5 -10t6.5 -4q3 0 85 -3t99 -3q8 0 8 14z" />
    <glyph glyph-name="onehalf" unicode="&#xbd;" horiz-adv-x="1531" 
d="M1182 711q95 0 156 -63.5t61 -149.5q0 -59 -23 -103t-84 -102q-88 -81 -180 -154q-1 -1 -0.5 -4.5t3 -6.5t7.5 -3q17 1 72 2t99 2.5t63 3.5q26 0 74 53q31 31 45 31t17.5 -24t-3.5 -39q-44 -85 -55 -142q-3 -7 -13 -13.5t-16 -6.5q-126 8 -332 8h-127q-22 0 -33.5 10
t-11.5 19q0 5 1.5 10t6.5 11t8 9l11 11l10 10q10 9 85 73t110 99q114 114 114 207q0 58 -37.5 95.5t-85.5 37.5q-65 0 -147 -78q-13 -10 -25 -15t-22 0.5t-10 24.5q-3 25 28 64q99 123 234 123zM1143 1274q22 0 51 -25q11 -11 4 -24l-784 -1262q-20 -26 -37 -26
q-7 0 -25.5 11.5t-23.5 24.5q-7 9 0 23l780 1249q17 29 35 29zM432 1212q0 -7 -4 -159q0 -273 4 -377q3 -47 15 -61t67 -31q47 -12 47 -39q0 -29 -55 -29q-19 0 -77.5 3t-86.5 3q-56 0 -104 -3t-58 -3q-20 0 -33.5 9.5t-13.5 19.5q0 29 60 43q43 10 60.5 27.5t22.5 46.5
q11 67 11 260q0 123 -4 143q-3 17 -20 26t-70 13q-18 2 -34 11t-16 26q0 10 14.5 20t30.5 13q149 32 215 59q9 3 19 -4.5t10 -16.5z" />
    <glyph glyph-name="threequarters" unicode="&#xbe;" horiz-adv-x="1413" 
d="M1225 711q9 0 16.5 -11t7.5 -22v-379q0 -14 11 -14h110q4 0 7 -7t3 -12q0 -15 -4 -51q-1 -7 -7.5 -12.5t-10.5 -5.5h-98q-9 0 -9 -15q0 -27 -1 -94.5t-1 -79.5q0 -27 -18 -33q-77 -10 -105 -10q-12 0 -17 7t-5 26q0 114 4 180q0 5 -3 12t-7 7q-7 0 -141 1t-154 1
q-9 0 -18 10.5t-9 21.5q0 17 23 43q187 219 309 349q79 88 117 88zM352 1233q88 0 140.5 -45.5t52.5 -100.5q0 -28 -13.5 -50.5t-27.5 -33t-41.5 -26t-36.5 -21.5q-6 -3 -4.5 -8.5t6.5 -7.5q85 -12 132.5 -56.5t47.5 -113.5q0 -74 -58 -137.5t-157 -106.5q-88 -39 -164 -39
q-49 0 -96 22.5t-47 53.5q0 19 19 41.5t32 28.5q15 9 37 2q3 -2 24.5 -16.5t34.5 -22t34.5 -15.5t39.5 -8q59 0 105.5 40t46.5 106q0 64 -43.5 97.5t-106.5 33.5q-7 0 -76 -12q-19 -3 -24 4q-7 7 6 32q9 18 20 27.5t33 18.5q127 59 127 127q0 36 -24.5 61t-71.5 25
q-57 0 -109 -52q-48 -41 -61 -41q-11 0 -16.5 19t4.5 39q30 50 92 92.5t143 42.5zM1135 1274q22 0 51 -25q11 -11 4 -24l-784 -1262q-20 -26 -37 -26q-7 0 -26 11.5t-24 24.5q-7 9 0 23l781 1249q17 29 35 29zM1108 297l10 221q0 4 -6 6t-8 0q-51 -45 -193 -221
q-4 -6 -2.5 -10t6.5 -4q3 0 85.5 -3t99.5 -3q8 0 8 14z" />
    <glyph glyph-name="questiondown" unicode="&#xbf;" horiz-adv-x="675" 
d="M424 -276q-72 0 -139.5 52t-110.5 128q-70 120 -70 250q0 64 27.5 108t61.5 68q99 58 139 73q23 10 29 34.5t6 76.5q0 10 9.5 19.5t18.5 9.5q34 0 56 -51q34 -70 34 -144q0 -50 -42.5 -85t-165.5 -105q-7 -4 -11 -6q-29 -17 -43 -47t-14 -54q0 -74 52 -110.5t128 -36.5
q10 0 31 2t31 2q31 0 54 -21t23 -47q0 -45 -26 -80.5t-78 -35.5zM362 698q-59 0 -89.5 40t-30.5 91q0 58 36.5 92.5t94.5 34.5q48 0 81 -33.5t33 -91.5q0 -65 -39 -99t-86 -34z" />
    <glyph glyph-name="Agrave" unicode="&#xc0;" horiz-adv-x="1374" 
d="M739 1288q4 0 8 -3.5t8 -11.5t8 -18t10 -27.5t11.5 -34.5t14.5 -45t18 -54q46 -132 114 -313t135.5 -356t76.5 -198q32 -78 58 -101.5t112 -53.5q61 -19 61 -60q0 -9 -14 -15.5t-35 -6.5q-56 0 -147 5t-140 5t-88 -2t-69 -2q-28 0 -43 8t-15 19q0 36 47 49
q72 22 85.5 41.5t-1.5 74.5q-19 79 -92 256q-3 10 -19 19.5t-34 9.5q-26 2 -166.5 1t-183.5 -5q-7 0 -18.5 -10.5t-14.5 -18.5q-84 -243 -84 -282q0 -13 2.5 -21t11.5 -20t31 -23t57 -22q45 -13 45 -33q2 -17 -17 -31t-52 -14q-7 0 -71.5 3t-98.5 3t-89 -5t-95 -5
q-67 0 -70 30q0 16 15.5 30.5t45.5 21.5q122 32 158 114q45 97 172.5 414.5t206.5 527.5q10 27 14 58q0 4 6 12t9 10q38 26 73 58q8 8 22 15t21 7zM805 580q5 0 8 7t0 13q-16 65 -70 206.5t-79 201.5q-5 10 -14.5 9t-12.5 -9q-79 -194 -150 -408q-4 -17 15 -20
q30 -3 151.5 -3.5t151.5 3.5zM483 1694q31 0 74 -41q124 -110 207 -207q15 -17 27 -41.5t8 -36.5q-5 -19 -34 -24t-63 10q-37 18 -100 54.5t-119.5 70.5t-66.5 39q-35 23 -35 61q0 29 38 72t64 43z" />
    <glyph glyph-name="Aacute" unicode="&#xc1;" horiz-adv-x="1374" 
d="M739 1288q4 0 8 -3.5t8 -11.5t8 -18t10 -27.5t11.5 -34.5t14.5 -45t18 -54q46 -132 114 -313t135.5 -356t76.5 -198q32 -78 58 -101.5t112 -53.5q61 -19 61 -60q0 -9 -14 -15.5t-35 -6.5q-56 0 -147 5t-140 5t-88 -2t-69 -2q-28 0 -43 8t-15 19q0 36 47 49
q72 22 85.5 41.5t-1.5 74.5q-19 79 -92 256q-3 10 -19 19.5t-34 9.5q-26 2 -166.5 1t-183.5 -5q-7 0 -18.5 -10.5t-14.5 -18.5q-84 -243 -84 -282q0 -13 2.5 -21t11.5 -20t31 -23t57 -22q45 -13 45 -33q2 -17 -17 -31t-52 -14q-7 0 -71.5 3t-98.5 3t-89 -5t-95 -5
q-67 0 -70 30q0 16 15.5 30.5t45.5 21.5q122 32 158 114q45 97 172.5 414.5t206.5 527.5q10 27 14 58q0 4 6 12t9 10q38 26 73 58q8 8 22 15t21 7zM805 580q5 0 8 7t0 13q-16 65 -70 206.5t-79 201.5q-5 10 -14.5 9t-12.5 -9q-79 -194 -150 -408q-4 -17 15 -20
q30 -3 151.5 -3.5t151.5 3.5zM881 1651q25 20 59 20q27 -1 56.5 -40.5t29.5 -61.5q0 -16 -15.5 -35t-33.5 -29q-121 -66 -318 -153q-29 -11 -57.5 -8.5t-34.5 20.5q-4 7 7 25t24 30q6 5 77 66.5t118.5 100t87.5 65.5z" />
    <glyph glyph-name="Acircumflex" unicode="&#xc2;" horiz-adv-x="1374" 
d="M739 1288q4 0 8 -3.5t8 -11.5t8 -18t10 -27.5t11.5 -34.5t14.5 -45t18 -54q46 -132 114 -313t135.5 -356t76.5 -198q32 -78 58 -101.5t112 -53.5q61 -19 61 -60q0 -9 -14 -15.5t-35 -6.5q-56 0 -147 5t-140 5t-88 -2t-69 -2q-28 0 -43 8t-15 19q0 36 47 49
q72 22 85.5 41.5t-1.5 74.5q-19 79 -92 256q-3 10 -19 19.5t-34 9.5q-26 2 -166.5 1t-183.5 -5q-7 0 -18.5 -10.5t-14.5 -18.5q-84 -243 -84 -282q0 -13 2.5 -21t11.5 -20t31 -23t57 -22q45 -13 45 -33q2 -17 -17 -31t-52 -14q-7 0 -71.5 3t-98.5 3t-89 -5t-95 -5
q-67 0 -70 30q0 16 15.5 30.5t45.5 21.5q122 32 158 114q45 97 172.5 414.5t206.5 527.5q10 27 14 58q0 4 6 12t9 10q38 26 73 58q8 8 22 15t21 7zM805 580q5 0 8 7t0 13q-16 65 -70 206.5t-79 201.5q-5 10 -14.5 9t-12.5 -9q-79 -194 -150 -408q-4 -17 15 -20
q30 -3 151.5 -3.5t151.5 3.5zM713 1602q34 0 96 -56q64 -49 199 -166q34 -32 30.5 -56t-37.5 -24q-26 0 -73 21q-162 74 -205 100q-22 11 -41 0q-49 -19 -197 -94q-44 -22 -67 -22q-36 0 -34 27q2 31 46 67q104 89 193 153q61 50 90 50z" />
    <glyph glyph-name="Atilde" unicode="&#xc3;" horiz-adv-x="1374" 
d="M739 1288q4 0 8 -3.5t8 -11.5t8 -18t10 -27.5t11.5 -34.5t14.5 -45t18 -54q46 -132 114 -313t135.5 -356t76.5 -198q32 -78 58 -101.5t112 -53.5q61 -19 61 -60q0 -9 -14 -15.5t-35 -6.5q-56 0 -147 5t-140 5t-88 -2t-69 -2q-28 0 -43 8t-15 19q0 36 47 49
q72 22 85.5 41.5t-1.5 74.5q-19 79 -92 256q-3 10 -19 19.5t-34 9.5q-26 2 -166.5 1t-183.5 -5q-7 0 -18.5 -10.5t-14.5 -18.5q-84 -243 -84 -282q0 -13 2.5 -21t11.5 -20t31 -23t57 -22q45 -13 45 -33q2 -17 -17 -31t-52 -14q-7 0 -71.5 3t-98.5 3t-89 -5t-95 -5
q-67 0 -70 30q0 16 15.5 30.5t45.5 21.5q122 32 158 114q45 97 172.5 414.5t206.5 527.5q10 27 14 58q0 4 6 12t9 10q38 26 73 58q8 8 22 15t21 7zM805 580q5 0 8 7t0 13q-16 65 -70 206.5t-79 201.5q-5 10 -14.5 9t-12.5 -9q-79 -194 -150 -408q-4 -17 15 -20
q30 -3 151.5 -3.5t151.5 3.5zM1032 1536q-17 -17 -61.5 -67.5t-57.5 -63.5q-42 -33 -77 -33q-26 0 -104 4.5t-124 6.5t-82 -3q-13 -3 -27 -17.5t-37 -42.5q-3 -5 -5 -7q-13 -25 -27 -25q-19 0 -35 15.5t-16 25.5q0 17 29 60q54 82 94 116q38 23 76 23q58 0 130 -4.5t99 -6
t74 4.5q21 5 40.5 18.5t34.5 28.5t17 16q21 21 26 21q15 0 31 -27t2 -43z" />
    <glyph glyph-name="Adieresis" unicode="&#xc4;" horiz-adv-x="1374" 
d="M739 1288q4 0 8 -3.5t8 -11.5t8 -18t10 -27.5t11.5 -34.5t14.5 -45t18 -54q46 -132 114 -313t135.5 -356t76.5 -198q32 -78 58 -101.5t112 -53.5q61 -19 61 -60q0 -9 -14 -15.5t-35 -6.5q-56 0 -147 5t-140 5t-88 -2t-69 -2q-28 0 -43 8t-15 19q0 36 47 49
q72 22 85.5 41.5t-1.5 74.5q-19 79 -92 256q-3 10 -19 19.5t-34 9.5q-26 2 -166.5 1t-183.5 -5q-7 0 -18.5 -10.5t-14.5 -18.5q-84 -243 -84 -282q0 -13 2.5 -21t11.5 -20t31 -23t57 -22q45 -13 45 -33q2 -17 -17 -31t-52 -14q-7 0 -71.5 3t-98.5 3t-89 -5t-95 -5
q-67 0 -70 30q0 16 15.5 30.5t45.5 21.5q122 32 158 114q45 97 172.5 414.5t206.5 527.5q10 27 14 58q0 4 6 12t9 10q38 26 73 58q8 8 22 15t21 7zM805 580q5 0 8 7t0 13q-16 65 -70 206.5t-79 201.5q-5 10 -14.5 9t-12.5 -9q-79 -194 -150 -408q-4 -17 15 -20
q30 -3 151.5 -3.5t151.5 3.5zM506 1565q53 0 79.5 -41t26.5 -72q0 -59 -36.5 -89t-73.5 -30q-41 0 -77 30.5t-36 82.5q0 53 32.5 86t84.5 33zM924 1565q28 0 49 -13.5t31.5 -34t15 -37t4.5 -28.5q0 -59 -38 -89t-75 -30q-41 0 -76.5 30.5t-35.5 82.5q0 53 33.5 86t91.5 33z
" />
    <glyph glyph-name="Aring" unicode="&#xc5;" horiz-adv-x="1374" 
d="M739 1288q4 0 8 -3.5t8 -11.5t8 -18t10 -27.5t11.5 -34.5t14.5 -45t18 -54q46 -132 114 -313t135.5 -356t76.5 -198q32 -78 58 -101.5t112 -53.5q61 -19 61 -60q0 -9 -14 -15.5t-35 -6.5q-56 0 -147 5t-140 5t-88 -2t-69 -2q-28 0 -43 8t-15 19q0 36 47 49
q72 22 85.5 41.5t-1.5 74.5q-19 79 -92 256q-3 10 -19 19.5t-34 9.5q-26 2 -166.5 1t-183.5 -5q-7 0 -18.5 -10.5t-14.5 -18.5q-84 -243 -84 -282q0 -13 2.5 -21t11.5 -20t31 -23t57 -22q45 -13 45 -33q2 -17 -17 -31t-52 -14q-7 0 -71.5 3t-98.5 3t-89 -5t-95 -5
q-67 0 -70 30q0 16 15.5 30.5t45.5 21.5q122 32 158 114q45 97 172.5 414.5t206.5 527.5q10 27 14 58q0 4 6 12t9 10q38 26 73 58q8 8 22 15t21 7zM805 580q5 0 8 7t0 13q-16 65 -70 206.5t-79 201.5q-5 10 -14.5 9t-12.5 -9q-79 -194 -150 -408q-4 -17 15 -20
q30 -3 151.5 -3.5t151.5 3.5zM690 1698q91 0 147 -57.5t56 -137.5t-56.5 -138t-146.5 -58q-89 0 -146 58t-57 138q0 79 57 137t146 58zM690 1616q-41 0 -69.5 -33t-28.5 -80q0 -52 28 -82t70 -30q44 0 71 30.5t27 85.5q0 44 -28 76.5t-70 32.5z" />
    <glyph glyph-name="AE" unicode="&#xc6;" horiz-adv-x="1841" 
d="M1075 1251h213q110 0 206 4.5t99 4.5q35 0 49 -19q8 -13 19.5 -96.5t11.5 -100.5q0 -15 -12 -35t-25 -20q-9 0 -17 5.5t-17.5 19.5t-15 23t-17.5 32q-45 90 -146 90q-71 0 -158 -1t-96 -1q-6 0 -14 -14.5t-8 -26.5q-6 -117 -6 -424q0 -8 7 -17t15 -9h164q23 0 40 0.5
t31 3t23 3.5t18 7t12.5 8.5t10 13t8.5 15t9 20.5t10 23q22 49 55 49q39 0 33 -82q-2 -25 -2 -111q0 -62 4 -124q3 -34 -10.5 -50t-28.5 -16q-12 0 -26.5 13.5t-24.5 41.5q-16 47 -30.5 64t-45.5 20q-28 3 -69 3.5t-100 -0.5t-79 -1q-9 0 -16.5 -11t-7.5 -19q0 -226 4 -316
q5 -71 22 -88q58 -47 189 -47q122 0 194 14q14 2 55 32t72 65q16 18 34.5 44t28.5 37t19 11q20 0 30.5 -26.5t4.5 -55.5q-10 -47 -65 -172q-8 -20 -30 -30.5t-40 -10.5q-2 0 -56 1.5t-173 3t-277 1.5q-73 0 -192 -4t-154 -4q-80 0 -80 37q0 35 72 49q84 17 113.5 45t35.5 90
q8 98 8 311q0 7 -2.5 14t-5.5 10t-4 3l-342 -6q-24 0 -45 -31q-178 -300 -178 -371q0 -35 94 -69q45 -15 45 -45q0 -14 -16 -24.5t-43 -10.5q-2 0 -39 1.5t-88.5 3t-89.5 1.5q-45 0 -97.5 -3t-62.5 -3q-32 0 -47 12t-15 25q0 31 72 53q75 26 109 54t82 108q7 11 92.5 155.5
t155 261.5t148.5 252.5t109 192.5q20 40 -14 45q-45 6 -121 25q-20 4 -34.5 16.5t-14.5 24.5q0 36 74 36q64 0 199 -2t198 -2zM958 1145q0 14 -19 7q-12 -5 -21 -17q-184 -296 -269 -461q-2 -5 1 -15t12 -10h274q8 0 14 8.5t6 14.5t1 229.5t1 243.5z" />
    <glyph glyph-name="Ccedilla" unicode="&#xc7;" horiz-adv-x="1396" 
d="M854 1288q105 0 252 -39q18 -5 51 -15t54 -16t28 -6q8 0 19.5 -11.5t11.5 -20.5q0 -17 5 -100.5t5 -110.5q0 -40 -13.5 -60t-33.5 -20q-25 0 -41 59q-28 135 -141 197q-94 55 -242 55q-76 0 -163 -33.5t-144 -87.5q-80 -74 -126 -192t-46 -232q0 -98 36.5 -215t84.5 -176
q76 -96 187 -150.5t216 -54.5q43 0 107.5 17t111.5 39q18 10 53 48t60 83q26 53 40.5 72.5t28.5 19.5q17 0 27 -20t10 -50q0 -24 -47 -192q-3 -8 -17 -23.5t-20 -19.5q-41 -20 -132 -39t-179 -27q-26 -36 -63 -78q-3 -6 0 -13.5t10 -10.5q125 -53 125 -152q0 -95 -117 -180
q-89 -61 -162 -61q-15 0 -33 9t-28 23q-9 18 -9 40t11 36q25 26 45 19q6 -2 23 -9.5t31 -11.5t26 -4q82 0 82 76q0 41 -35 70.5t-80 29.5h-33q-9 0 -22 11t-13 18q0 11 19 35l135 149q-167 3 -307.5 56.5t-231.5 156.5q-73 79 -118.5 193t-45.5 243q0 173 73 311.5
t210 233.5q191 131 465 131z" />
    <glyph glyph-name="Egrave" unicode="&#xc8;" horiz-adv-x="1153" 
d="M410 1251h211q108 0 196 4.5t96 4.5q36 0 48 -19q9 -14 20.5 -94.5t11.5 -116.5q0 -15 -11.5 -32t-23.5 -17q-18 0 -35.5 23.5t-52.5 91.5q-13 26 -29.5 42.5t-26.5 20.5t-17 4q-69 0 -185.5 -2t-119.5 -2q-4 0 -12.5 -14.5t-10.5 -22.5q-8 -76 -8 -385q0 -16 7 -36.5
t19 -20.5h134q96 4 130 22.5t52 65.5q12 32 23 45.5t26 13.5q39 0 33 -82q-6 -69 -6 -98q0 -104 4 -137q2 -24 -4 -40.5t-14 -22t-15 -5.5q-31 0 -49 52q-15 45 -31.5 63t-48.5 21q-84 6 -234 6q-8 0 -17 -19.5t-9 -32.5q0 -168 6 -303q3 -41 10.5 -71t14.5 -35
q46 -41 235 -41q102 0 156 16q39 11 67.5 38.5t65.5 82.5q38 63 50 73q10 7 21 7q21 0 26 -31.5t-3 -60.5q-13 -63 -63 -176q-8 -19 -32.5 -30t-35.5 -11q-6 0 -148.5 5t-365.5 5q-70 0 -190.5 -5t-159.5 -5q-76 0 -76 24q0 40 67 56q98 23 127 46t33 81q8 73 8 209
q0 617 -10 679q-4 44 -33 64.5t-96 36.5q-25 6 -40 19t-15 24q0 33 55 33q5 0 100 -5.5t175 -5.5zM391 1692q31 0 74 -41q124 -110 207 -207q15 -17 27 -41.5t8 -36.5q-5 -19 -34 -24t-63 10q-37 18 -100 54.5t-119.5 70.5t-66.5 39q-35 23 -35 61q0 29 38 72t64 43z" />
    <glyph glyph-name="Eacute" unicode="&#xc9;" horiz-adv-x="1153" 
d="M410 1251h211q108 0 196 4.5t96 4.5q36 0 48 -19q9 -14 20.5 -94.5t11.5 -116.5q0 -15 -11.5 -32t-23.5 -17q-18 0 -35.5 23.5t-52.5 91.5q-13 26 -29.5 42.5t-26.5 20.5t-17 4q-69 0 -185.5 -2t-119.5 -2q-4 0 -12.5 -14.5t-10.5 -22.5q-8 -76 -8 -385q0 -16 7 -36.5
t19 -20.5h134q96 4 130 22.5t52 65.5q12 32 23 45.5t26 13.5q39 0 33 -82q-6 -69 -6 -98q0 -104 4 -137q2 -24 -4 -40.5t-14 -22t-15 -5.5q-31 0 -49 52q-15 45 -31.5 63t-48.5 21q-84 6 -234 6q-8 0 -17 -19.5t-9 -32.5q0 -168 6 -303q3 -41 10.5 -71t14.5 -35
q46 -41 235 -41q102 0 156 16q39 11 67.5 38.5t65.5 82.5q38 63 50 73q10 7 21 7q21 0 26 -31.5t-3 -60.5q-13 -63 -63 -176q-8 -19 -32.5 -30t-35.5 -11q-6 0 -148.5 5t-365.5 5q-70 0 -190.5 -5t-159.5 -5q-76 0 -76 24q0 40 67 56q98 23 127 46t33 81q8 73 8 209
q0 617 -10 679q-4 44 -33 64.5t-96 36.5q-25 6 -40 19t-15 24q0 33 55 33q5 0 100 -5.5t175 -5.5zM772 1653q25 20 59 20q27 -1 57 -40.5t30 -61.5q0 -16 -15.5 -35t-34.5 -29q-126 -68 -317 -153q-29 -11 -57.5 -8.5t-34.5 20.5q-4 7 6.5 25.5t23.5 29.5q6 5 77 66.5
t118.5 100t87.5 65.5z" />
    <glyph glyph-name="Ecircumflex" unicode="&#xca;" horiz-adv-x="1153" 
d="M410 1251h211q108 0 196 4.5t96 4.5q36 0 48 -19q9 -14 20.5 -94.5t11.5 -116.5q0 -15 -11.5 -32t-23.5 -17q-18 0 -35.5 23.5t-52.5 91.5q-13 26 -29.5 42.5t-26.5 20.5t-17 4q-69 0 -185.5 -2t-119.5 -2q-4 0 -12.5 -14.5t-10.5 -22.5q-8 -76 -8 -385q0 -16 7 -36.5
t19 -20.5h134q96 4 130 22.5t52 65.5q12 32 23 45.5t26 13.5q39 0 33 -82q-6 -69 -6 -98q0 -104 4 -137q2 -24 -4 -40.5t-14 -22t-15 -5.5q-31 0 -49 52q-15 45 -31.5 63t-48.5 21q-84 6 -234 6q-8 0 -17 -19.5t-9 -32.5q0 -168 6 -303q3 -41 10.5 -71t14.5 -35
q46 -41 235 -41q102 0 156 16q39 11 67.5 38.5t65.5 82.5q38 63 50 73q10 7 21 7q21 0 26 -31.5t-3 -60.5q-13 -63 -63 -176q-8 -19 -32.5 -30t-35.5 -11q-6 0 -148.5 5t-365.5 5q-70 0 -190.5 -5t-159.5 -5q-76 0 -76 24q0 40 67 56q98 23 127 46t33 81q8 73 8 209
q0 617 -10 679q-4 44 -33 64.5t-96 36.5q-25 6 -40 19t-15 24q0 33 55 33q5 0 100 -5.5t175 -5.5zM594 1638q35 0 96 -55q64 -49 199 -166q23 -21 29 -39.5t-4 -29.5t-31 -11q-27 0 -74 21q-162 74 -205 100q-22 11 -41 0q-45 -17 -196 -94q-46 -23 -68 -23q-36 0 -34 27
q3 32 46 68q104 89 193 153q60 49 90 49z" />
    <glyph glyph-name="Edieresis" unicode="&#xcb;" horiz-adv-x="1153" 
d="M410 1251h211q108 0 196 4.5t96 4.5q36 0 48 -19q9 -14 20.5 -94.5t11.5 -116.5q0 -15 -11.5 -32t-23.5 -17q-18 0 -35.5 23.5t-52.5 91.5q-13 26 -29.5 42.5t-26.5 20.5t-17 4q-69 0 -185.5 -2t-119.5 -2q-4 0 -12.5 -14.5t-10.5 -22.5q-8 -76 -8 -385q0 -16 7 -36.5
t19 -20.5h134q96 4 130 22.5t52 65.5q12 32 23 45.5t26 13.5q39 0 33 -82q-6 -69 -6 -98q0 -104 4 -137q2 -24 -4 -40.5t-14 -22t-15 -5.5q-31 0 -49 52q-15 45 -31.5 63t-48.5 21q-84 6 -234 6q-8 0 -17 -19.5t-9 -32.5q0 -168 6 -303q3 -41 10.5 -71t14.5 -35
q46 -41 235 -41q102 0 156 16q39 11 67.5 38.5t65.5 82.5q38 63 50 73q10 7 21 7q21 0 26 -31.5t-3 -60.5q-13 -63 -63 -176q-8 -19 -32.5 -30t-35.5 -11q-6 0 -148.5 5t-365.5 5q-70 0 -190.5 -5t-159.5 -5q-76 0 -76 24q0 40 67 56q98 23 127 46t33 81q8 73 8 209
q0 617 -10 679q-4 44 -33 64.5t-96 36.5q-25 6 -40 19t-15 24q0 33 55 33q5 0 100 -5.5t175 -5.5zM383 1597q53 0 79.5 -40.5t26.5 -71.5q0 -59 -36.5 -89t-73.5 -30q-41 0 -77 30.5t-36 82.5q0 53 32.5 85.5t84.5 32.5zM801 1597q28 0 49 -13.5t31.5 -33.5t15 -36.5
t4.5 -28.5q0 -59 -38 -89t-75 -30q-41 0 -76.5 30.5t-35.5 82.5q0 53 33.5 85.5t91.5 32.5z" />
    <glyph glyph-name="Igrave" unicode="&#xcc;" horiz-adv-x="729" 
d="M274 674v280q0 58 -2.5 88.5t-9 56.5t-24 39t-40 22.5t-65.5 19.5q-25 6 -38 19t-13 28q0 9 21.5 19.5t43.5 10.5q13 0 83.5 -3t121.5 -3q70 0 143 4.5t95 4.5q19 0 34 -11t15 -26q0 -12 -14 -22.5t-29 -14.5q-86 -22 -107 -49.5t-24 -108.5q-4 -84 -4 -446
q0 -98 0.5 -182.5t1 -130.5t0.5 -52q3 -71 31 -96t122 -49q54 -14 54 -41q0 -18 -22.5 -28.5t-45.5 -10.5q-4 0 -100 4t-137 4q-40 0 -128 -6t-102 -6q-21 0 -38 9t-17 21q0 13 15 26.5t36 21.5q77 27 100.5 45.5t28.5 50.5q4 32 9 208.5t5 303.5zM162 1696q31 0 74 -41
q119 -106 206 -207q15 -17 27 -41.5t8 -36.5q-5 -19 -33.5 -24t-62.5 10q-37 18 -100.5 54.5t-120 70.5t-66.5 39q-35 23 -35 61q0 29 38.5 72t64.5 43z" />
    <glyph glyph-name="Iacute" unicode="&#xcd;" horiz-adv-x="729" 
d="M274 674v280q0 58 -2.5 88.5t-9 56.5t-24 39t-40 22.5t-65.5 19.5q-25 6 -38 19t-13 28q0 9 21.5 19.5t43.5 10.5q13 0 83.5 -3t121.5 -3q70 0 143 4.5t95 4.5q19 0 34 -11t15 -26q0 -12 -14 -22.5t-29 -14.5q-86 -22 -107 -49.5t-24 -108.5q-4 -84 -4 -446
q0 -98 0.5 -182.5t1 -130.5t0.5 -52q3 -71 31 -96t122 -49q54 -14 54 -41q0 -18 -22.5 -28.5t-45.5 -10.5q-4 0 -100 4t-137 4q-40 0 -128 -6t-102 -6q-21 0 -38 9t-17 21q0 13 15 26.5t36 21.5q77 27 100.5 45.5t28.5 50.5q4 32 9 208.5t5 303.5zM563 1642q26 21 60 21
q27 -1 56.5 -40.5t29.5 -61.5q0 -16 -15.5 -35t-34.5 -29q-136 -74 -317 -154q-29 -11 -57.5 -8t-34.5 21q-4 7 7 25t24 30q5 4 76.5 66t118.5 100t87 65z" />
    <glyph glyph-name="Icircumflex" unicode="&#xce;" horiz-adv-x="729" 
d="M274 674v280q0 58 -2.5 88.5t-9 56.5t-24 39t-40 22.5t-65.5 19.5q-25 6 -38 19t-13 28q0 9 21.5 19.5t43.5 10.5q13 0 83.5 -3t121.5 -3q70 0 143 4.5t95 4.5q19 0 34 -11t15 -26q0 -12 -14 -22.5t-29 -14.5q-86 -22 -107 -49.5t-24 -108.5q-4 -84 -4 -446
q0 -98 0.5 -182.5t1 -130.5t0.5 -52q3 -71 31 -96t122 -49q54 -14 54 -41q0 -18 -22.5 -28.5t-45.5 -10.5q-4 0 -100 4t-137 4q-40 0 -128 -6t-102 -6q-21 0 -38 9t-17 21q0 13 15 26.5t36 21.5q77 27 100.5 45.5t28.5 50.5q4 32 9 208.5t5 303.5zM373 1642q35 0 96 -55
q64 -49 199 -166q23 -21 29 -39.5t-4 -29.5t-31 -11q-27 0 -74 21q-162 74 -205 100q-22 11 -41 0q-49 -19 -197 -94q-44 -22 -67 -22q-36 0 -34 27q2 31 46 67q104 89 193 153q60 49 90 49z" />
    <glyph glyph-name="Idieresis" unicode="&#xcf;" horiz-adv-x="729" 
d="M274 674v280q0 58 -2.5 88.5t-9 56.5t-24 39t-40 22.5t-65.5 19.5q-25 6 -38 19t-13 28q0 9 21.5 19.5t43.5 10.5q13 0 83.5 -3t121.5 -3q70 0 143 4.5t95 4.5q19 0 34 -11t15 -26q0 -12 -14 -22.5t-29 -14.5q-86 -22 -107 -49.5t-24 -108.5q-4 -84 -4 -446
q0 -98 0.5 -182.5t1 -130.5t0.5 -52q3 -71 31 -96t122 -49q54 -14 54 -41q0 -18 -22.5 -28.5t-45.5 -10.5q-4 0 -100 4t-137 4q-40 0 -128 -6t-102 -6q-21 0 -38 9t-17 21q0 13 15 26.5t36 21.5q77 27 100.5 45.5t28.5 50.5q4 32 9 208.5t5 303.5zM172 1599q53 0 80 -40.5
t27 -71.5q0 -59 -37 -89t-74 -30q-41 0 -77 30.5t-36 82.5q0 53 32.5 85.5t84.5 32.5zM590 1599q28 0 49 -13.5t31.5 -33.5t15 -36.5t4.5 -28.5q0 -59 -37.5 -89t-74.5 -30q-41 0 -77 30.5t-36 82.5q0 53 33.5 85.5t91.5 32.5z" />
    <glyph glyph-name="Eth" unicode="&#xd0;" horiz-adv-x="1509" 
d="M53 1212q0 17 25.5 28t66.5 11h166q27 0 155 8.5t208 8.5q331 0 530 -166q117 -99 167 -222.5t50 -238.5q0 -89 -21.5 -171t-53.5 -141t-75 -109t-80.5 -80t-74.5 -50q-197 -106 -473 -106q-44 0 -173.5 8t-160.5 8q-36 0 -104 -3t-88 -3q-72 0 -72 33q0 32 76 53
q32 9 46 14t39 19t37.5 36.5t16.5 55.5q9 94 12 375q0 7 -7 11.5t-13 4.5l-172 2q-13 0 -20 9t-7 22q0 14 9 40.5t20 26.5l178 -2q12 0 12 13q0 355 -10 399q-3 20 -33 34t-110 27q-66 11 -66 45zM461 578q0 -238 12 -326q14 -101 70 -133q35 -20 87.5 -32.5t90.5 -12.5
q70 0 169 39.5t165 103.5q72 72 111.5 179.5t39.5 238.5q0 247 -153 397q-72 71 -179.5 110.5t-228.5 39.5q-22 0 -72.5 -7t-70.5 -14q-33 -9 -35 -41q-6 -147 -6 -409q0 -3 4 -10t8 -7h342q11 0 20 -9t9 -19q0 -22 -13 -45t-26 -23l-330 -2q-5 0 -9.5 -5.5t-4.5 -12.5z" />
    <glyph glyph-name="Ntilde" unicode="&#xd1;" horiz-adv-x="1554" 
d="M33 1239q0 11 11.5 18t31.5 7q44 0 158.5 -6.5t142.5 -6.5q7 0 23 -13t18 -17q39 -68 196 -238q39 -42 171.5 -190.5t249.5 -277.5t151 -161q4 -4 11 1.5t9 13.5q4 44 7 241.5t-3 335.5q-2 33 -3 48t-3.5 38.5t-4.5 33.5t-6.5 26t-9.5 22t-13.5 16.5t-18.5 15t-24 11
t-30 10.5t-38 9q-58 12 -58 45q0 12 16 22t46 10q45 0 82.5 -1t60.5 -1q47 0 132 6.5t100 6.5q30 0 46.5 -11.5t16.5 -25.5q0 -7 -4 -13t-21.5 -15.5t-50.5 -18.5q-96 -31 -102 -103q-5 -52 -11.5 -302t-6.5 -394q0 -45 2 -160t2 -162q0 -60 -11 -80t-32 -20q-10 0 -35.5 17
t-42.5 42q-38 56 -105 141t-110 132q-461 532 -563 643q-9 7 -15 1t-8 -22q-8 -180 -8 -221q0 -153 8 -373q2 -60 5.5 -91.5t10 -58.5t22 -40.5t35.5 -24t58 -22.5q36 -11 52 -23t16 -32q0 -17 -21 -26t-45 -9q-30 0 -77 4t-70 4q-57 0 -150 -6t-98 -6q-66 0 -66 35
q0 30 56 45q92 24 119 60.5t32 107.5q7 92 17 408.5t10 379.5q0 44 -70 109q-36 39 -129 53q-25 3 -43 18.5t-18 34.5zM1114 1567q-17 -17 -61.5 -67.5t-57.5 -63.5q-42 -33 -77 -33q-26 0 -104 4.5t-124 6.5t-82 -3q-12 -2 -26.5 -16.5t-34.5 -40.5l-1.5 -3t-2 -2.5
t-2.5 -3t-2 -2.5q-5 -9 -13 -16.5t-14 -7.5q-19 0 -35 15.5t-16 25.5q0 18 28 59q54 82 95 117q38 23 75 23q58 0 130 -5t99.5 -6.5t74.5 4.5q21 5 40.5 19t34.5 28.5t17 16.5q20 20 26 20q15 0 31 -26.5t2 -42.5z" />
    <glyph glyph-name="Ograve" unicode="&#xd2;" horiz-adv-x="1574" 
d="M786 1288q141 0 266.5 -49.5t217 -135t145 -208.5t53.5 -264q0 -170 -88.5 -330t-251.5 -252q-154 -86 -342 -86t-344.5 89t-246 240t-89.5 329q0 123 48 243.5t137 210.5q96 96 228.5 154.5t266.5 58.5zM750 1202q-69 0 -144 -35.5t-125 -83.5q-151 -158 -151 -438
q0 -109 35.5 -214.5t98.5 -190t160 -137t210 -52.5q150 0 251 94q69 66 113.5 185t44.5 293q0 110 -35 213.5t-97 185t-156.5 131t-204.5 49.5zM598 1739q31 0 74 -41q124 -110 207 -207q15 -17 26.5 -41t7.5 -37q-5 -19 -33.5 -24t-62.5 10q-37 18 -100.5 54.5t-120 70.5
t-66.5 39q-34 23 -34 61q0 29 38 72t64 43z" />
    <glyph glyph-name="Oacute" unicode="&#xd3;" horiz-adv-x="1574" 
d="M786 1288q141 0 266.5 -49.5t217 -135t145 -208.5t53.5 -264q0 -170 -88.5 -330t-251.5 -252q-154 -86 -342 -86t-344.5 89t-246 240t-89.5 329q0 123 48 243.5t137 210.5q96 96 228.5 154.5t266.5 58.5zM750 1202q-69 0 -144 -35.5t-125 -83.5q-151 -158 -151 -438
q0 -109 35.5 -214.5t98.5 -190t160 -137t210 -52.5q150 0 251 94q69 66 113.5 185t44.5 293q0 110 -35 213.5t-97 185t-156.5 131t-204.5 49.5zM954 1686q25 20 60 20q27 -1 56.5 -40.5t29.5 -61.5q0 -16 -15.5 -35t-33.5 -29q-132 -71 -318 -154q-29 -11 -57.5 -8t-34.5 21
q-4 7 7 25t24 30q10 8 77.5 67t116 98.5t88.5 66.5z" />
    <glyph glyph-name="Ocircumflex" unicode="&#xd4;" horiz-adv-x="1574" 
d="M786 1288q141 0 266.5 -49.5t217 -135t145 -208.5t53.5 -264q0 -170 -88.5 -330t-251.5 -252q-154 -86 -342 -86t-344.5 89t-246 240t-89.5 329q0 123 48 243.5t137 210.5q96 96 228.5 154.5t266.5 58.5zM750 1202q-69 0 -144 -35.5t-125 -83.5q-151 -158 -151 -438
q0 -109 35.5 -214.5t98.5 -190t160 -137t210 -52.5q150 0 251 94q69 66 113.5 185t44.5 293q0 110 -35 213.5t-97 185t-156.5 131t-204.5 49.5zM803 1675q35 0 96 -55q64 -49 199 -166q23 -21 29 -39.5t-4 -29.5t-31 -11q-27 0 -74 21q-162 74 -205 100q-22 11 -41 0
q-49 -19 -197 -94q-46 -23 -67 -23q-36 0 -34 27q1 32 46 68q104 89 193 153q60 49 90 49z" />
    <glyph glyph-name="Otilde" unicode="&#xd5;" horiz-adv-x="1574" 
d="M786 1288q141 0 266.5 -49.5t217 -135t145 -208.5t53.5 -264q0 -170 -88.5 -330t-251.5 -252q-154 -86 -342 -86t-344.5 89t-246 240t-89.5 329q0 123 48 243.5t137 210.5q96 96 228.5 154.5t266.5 58.5zM750 1202q-69 0 -144 -35.5t-125 -83.5q-151 -158 -151 -438
q0 -109 35.5 -214.5t98.5 -190t160 -137t210 -52.5q150 0 251 94q69 66 113.5 185t44.5 293q0 110 -35 213.5t-97 185t-156.5 131t-204.5 49.5zM1118 1618q-17 -17 -61.5 -67.5t-57.5 -63.5q-42 -33 -77 -33q-26 0 -104 4.5t-124 6.5t-82 -3q-13 -3 -27 -17.5t-37 -42.5
q-3 -5 -5 -7q-13 -25 -27 -25q-19 0 -35 15.5t-16 25.5q0 16 29 59q55 84 94 117q38 23 76 23q58 0 130 -4.5t99 -6t74 4.5q21 5 40.5 18.5t34.5 28.5t17 16q21 21 26 21q15 0 31 -27t2 -43z" />
    <glyph glyph-name="Odieresis" unicode="&#xd6;" horiz-adv-x="1574" 
d="M786 1288q141 0 266.5 -49.5t217 -135t145 -208.5t53.5 -264q0 -170 -88.5 -330t-251.5 -252q-154 -86 -342 -86t-344.5 89t-246 240t-89.5 329q0 123 48 243.5t137 210.5q96 96 228.5 154.5t266.5 58.5zM750 1202q-69 0 -144 -35.5t-125 -83.5q-151 -158 -151 -438
q0 -109 35.5 -214.5t98.5 -190t160 -137t210 -52.5q150 0 251 94q69 66 113.5 185t44.5 293q0 110 -35 213.5t-97 185t-156.5 131t-204.5 49.5zM598 1642q53 0 80 -40.5t27 -71.5q0 -59 -37 -89t-74 -30q-41 0 -77 30.5t-36 82.5q0 53 32.5 85.5t84.5 32.5zM1016 1642
q28 0 49 -13.5t31.5 -33.5t15 -36.5t4.5 -28.5q0 -59 -37.5 -89t-74.5 -30q-41 0 -77 30.5t-36 82.5q0 53 33.5 85.5t91.5 32.5z" />
    <glyph glyph-name="multiply" unicode="&#xd7;" horiz-adv-x="1323" 
d="M1098 -4q-6 -8 -27 -10.5t-29 4.5l-372 366q-22 17 -33 6l-356 -350q-9 -9 -26 -9.5t-24 5.5q-21 18 -36 44t-5 38l363 363q3 3 0.5 10.5t-8.5 11.5l-355 354q-11 10 9.5 44.5t40.5 52.5q9 10 27.5 11.5t27.5 -7.5l354 -359q15 -15 25 -6l360 363q9 9 24 12t21 -4
q27 -26 39.5 -54.5t1.5 -37.5l-360 -367q-8 -8 6 -28l369 -361q9 -9 -5 -43t-32 -49z" />
    <glyph glyph-name="Oslash" unicode="&#xd8;" horiz-adv-x="1579" 
d="M788 -37q-195 0 -362 98q-14 4 -27 -12l-82 -104q-2 -3 -9 -5t-13 -1q-11 0 -25.5 13t-21.5 25q-7 15 2 27l84 109q3 3 2 8.5t-4 7.5q-103 92 -164.5 218t-61.5 274q0 123 48.5 243.5t138.5 210.5q95 97 228 155t267 58q204 0 377 -104q10 -5 21 6l63 76q26 22 39 22
q7 0 21 -10.5t22 -20.5q1 -2 2 -5t2 -10t-2 -9l-78 -103q-1 -1 1 -7.5t4 -8.5q96 -83 154.5 -207.5t58.5 -275.5q0 -169 -90 -328.5t-253 -253.5q-154 -86 -342 -86zM463 270l604 766q12 15 11.5 20.5t-13.5 18.5q-137 127 -313 127q-71 0 -146.5 -35t-124.5 -86
q-151 -158 -151 -434q0 -208 110 -375q4 -4 10.5 -5.5t12.5 3.5zM1120 971l-604 -770q-3 -3 -1.5 -11t5.5 -12q133 -127 314 -127q159 0 256 94q70 67 114.5 186t44.5 292q0 184 -98 346q-14 21 -31 2z" />
    <glyph glyph-name="Ugrave" unicode="&#xd9;" horiz-adv-x="1505" 
d="M66 1227q0 21 20.5 28t65.5 7q31 0 112.5 -5.5t116.5 -5.5q53 0 115 3t69 3q64 0 64 -36q0 -13 -19 -25.5t-43 -17.5q-78 -15 -99.5 -41.5t-27.5 -112.5q-12 -165 2 -504q5 -136 31 -202t74 -119q41 -44 119 -75.5t151 -31.5q141 0 233.5 86t116.5 273q17 125 17 438
q0 76 -3.5 119t-10.5 76t-26 49.5t-42 26t-66 18.5q-28 6 -42.5 18.5t-14.5 24.5q0 14 16.5 25t46.5 11q16 0 63 -3t91 -3q41 0 130 5.5t108 5.5q55 0 55 -35q0 -11 -15.5 -25.5t-43.5 -21.5q-77 -20 -97.5 -43t-29.5 -99q-2 -12 -23 -428q-12 -218 -52.5 -336t-119.5 -194
q-60 -58 -152.5 -87.5t-189.5 -29.5q-118 0 -229.5 46t-171.5 124q-40 54 -65 118t-34 142t-10.5 116.5t-1.5 115.5q0 182 -12 440q-3 59 -27.5 79.5t-91.5 37.5q-57 14 -57 45zM627 1686q30 0 73 -41q124 -110 207 -207q15 -17 27 -41.5t8 -36.5q-5 -19 -33.5 -24t-62.5 10
q-37 18 -100.5 54t-120.5 70t-66 39q-35 23 -35 62q0 29 38.5 72t64.5 43z" />
    <glyph glyph-name="Uacute" unicode="&#xda;" horiz-adv-x="1505" 
d="M66 1227q0 21 20.5 28t65.5 7q31 0 112.5 -5.5t116.5 -5.5q53 0 115 3t69 3q64 0 64 -36q0 -13 -19 -25.5t-43 -17.5q-78 -15 -99.5 -41.5t-27.5 -112.5q-12 -165 2 -504q5 -136 31 -202t74 -119q41 -44 119 -75.5t151 -31.5q141 0 233.5 86t116.5 273q17 125 17 438
q0 76 -3.5 119t-10.5 76t-26 49.5t-42 26t-66 18.5q-28 6 -42.5 18.5t-14.5 24.5q0 14 16.5 25t46.5 11q16 0 63 -3t91 -3q41 0 130 5.5t108 5.5q55 0 55 -35q0 -11 -15.5 -25.5t-43.5 -21.5q-77 -20 -97.5 -43t-29.5 -99q-2 -12 -23 -428q-12 -218 -52.5 -336t-119.5 -194
q-60 -58 -152.5 -87.5t-189.5 -29.5q-118 0 -229.5 46t-171.5 124q-40 54 -65 118t-34 142t-10.5 116.5t-1.5 115.5q0 182 -12 440q-3 59 -27.5 79.5t-91.5 37.5q-57 14 -57 45zM979 1657q25 20 59 20q27 -1 56.5 -40.5t29.5 -61.5q0 -16 -15.5 -35t-33.5 -29
q-126 -68 -317 -153q-29 -11 -57.5 -8.5t-34.5 20.5q-4 7 6.5 25.5t23.5 29.5q6 5 77 66.5t118.5 100t87.5 65.5z" />
    <glyph glyph-name="Ucircumflex" unicode="&#xdb;" horiz-adv-x="1505" 
d="M66 1227q0 21 20.5 28t65.5 7q31 0 112.5 -5.5t116.5 -5.5q53 0 115 3t69 3q64 0 64 -36q0 -13 -19 -25.5t-43 -17.5q-78 -15 -99.5 -41.5t-27.5 -112.5q-12 -165 2 -504q5 -136 31 -202t74 -119q41 -44 119 -75.5t151 -31.5q141 0 233.5 86t116.5 273q17 125 17 438
q0 76 -3.5 119t-10.5 76t-26 49.5t-42 26t-66 18.5q-28 6 -42.5 18.5t-14.5 24.5q0 14 16.5 25t46.5 11q16 0 63 -3t91 -3q41 0 130 5.5t108 5.5q55 0 55 -35q0 -11 -15.5 -25.5t-43.5 -21.5q-77 -20 -97.5 -43t-29.5 -99q-2 -12 -23 -428q-12 -218 -52.5 -336t-119.5 -194
q-60 -58 -152.5 -87.5t-189.5 -29.5q-118 0 -229.5 46t-171.5 124q-40 54 -65 118t-34 142t-10.5 116.5t-1.5 115.5q0 182 -12 440q-3 59 -27.5 79.5t-91.5 37.5q-57 14 -57 45zM836 1655q34 0 96 -56q65 -50 198 -165q23 -21 29 -39.5t-4 -29.5t-31 -11q-28 0 -73 20
q-155 71 -205 101q-22 11 -41 0q-41 -16 -197 -95q-44 -22 -67 -22q-36 0 -34 27q2 31 46 67q115 99 192 154q60 49 91 49z" />
    <glyph glyph-name="Udieresis" unicode="&#xdc;" horiz-adv-x="1505" 
d="M66 1227q0 21 20.5 28t65.5 7q31 0 112.5 -5.5t116.5 -5.5q53 0 115 3t69 3q64 0 64 -36q0 -13 -19 -25.5t-43 -17.5q-78 -15 -99.5 -41.5t-27.5 -112.5q-12 -165 2 -504q5 -136 31 -202t74 -119q41 -44 119 -75.5t151 -31.5q141 0 233.5 86t116.5 273q17 125 17 438
q0 76 -3.5 119t-10.5 76t-26 49.5t-42 26t-66 18.5q-28 6 -42.5 18.5t-14.5 24.5q0 14 16.5 25t46.5 11q16 0 63 -3t91 -3q41 0 130 5.5t108 5.5q55 0 55 -35q0 -11 -15.5 -25.5t-43.5 -21.5q-77 -20 -97.5 -43t-29.5 -99q-2 -12 -23 -428q-12 -218 -52.5 -336t-119.5 -194
q-60 -58 -152.5 -87.5t-189.5 -29.5q-118 0 -229.5 46t-171.5 124q-40 54 -65 118t-34 142t-10.5 116.5t-1.5 115.5q0 182 -12 440q-3 59 -27.5 79.5t-91.5 37.5q-57 14 -57 45zM614 1597q53 0 80 -40.5t27 -71.5q0 -59 -37 -89t-74 -30q-41 0 -76.5 30.5t-35.5 82.5
q0 53 32 85.5t84 32.5zM1032 1597q36 0 61 -24t32.5 -47.5t7.5 -40.5q0 -59 -38 -89t-75 -30q-41 0 -77 30.5t-36 82.5q0 53 33.5 85.5t91.5 32.5z" />
    <glyph glyph-name="Yacute" unicode="&#xdd;" horiz-adv-x="1290" 
d="M-4 1227q0 17 17 26t40 9q18 0 95 -5.5t110 -5.5q49 0 123.5 4.5t85.5 4.5q22 0 38.5 -9.5t16.5 -25.5t-13.5 -26t-49.5 -19q-38 -10 -41.5 -28.5t16.5 -51.5q48 -97 136 -253.5t104 -176.5q11 -13 24 -2q13 8 111.5 174t124.5 219q31 59 25 81.5t-64 39.5q-49 15 -49 41
q0 34 67 34q36 0 91 -3t63 -3q29 0 90.5 5.5t87.5 5.5q27 0 42.5 -10.5t15.5 -24.5q0 -13 -14 -26.5t-42 -20.5q-64 -16 -108.5 -44t-91.5 -89q-64 -85 -168 -249.5t-125 -211.5q-16 -39 -23 -113q-3 -33 -3.5 -91t0.5 -132.5t1 -83.5q3 -30 32 -50.5t122 -41.5
q21 -4 33 -17.5t12 -25.5q0 -16 -18.5 -26.5t-49.5 -10.5q-11 0 -87 3t-122 3q-48 0 -142 -4t-108 -4q-57 0 -57 37q0 18 18 27.5t54 19.5q35 11 53.5 20t35 28.5t24 51t10.5 84.5q2 34 2 227q0 42 -39 121q-40 84 -135.5 245t-137.5 218q-51 69 -178 113q-55 16 -55 43z
M883 1657q25 20 59 20q27 -1 56.5 -40.5t29.5 -61.5q0 -16 -15.5 -35t-33.5 -29q-126 -68 -317 -153q-29 -11 -58 -8.5t-35 20.5q-4 7 7 25t24 30q6 5 77 66.5t118.5 100t87.5 65.5z" />
    <glyph glyph-name="Thorn" unicode="&#xde;" horiz-adv-x="1169" 
d="M84 1227q0 13 18.5 21.5t47.5 8.5q20 0 100.5 -3t109.5 -3q17 0 89.5 3t115.5 3q53 0 53 -34q0 -25 -59 -39q-70 -18 -88 -52t-18 -124q0 -27 18 -27q4 0 60 2t92 2q74 0 138 -10t125 -35.5t104 -65t69 -101.5t26 -142q0 -115 -66 -203t-167 -131t-217 -43q-60 0 -172 29
q-3 1 -8.5 -3.5t-5.5 -7.5q0 -121 16.5 -147.5t100.5 -48.5q9 -3 14 -4q56 -15 66 -26q7 -7 7 -17q0 -14 -16 -24.5t-37 -10.5q-22 0 -97 3t-138 3q-37 0 -119.5 -5t-112.5 -5q-78 0 -78 30q0 31 64 43q35 7 56 12.5t37.5 18.5t24 24.5t12.5 40t6.5 53.5t2.5 77
q3 84 4.5 357.5t5.5 377.5q0 86 -24 114.5t-113 47.5q-47 11 -47 41zM885 618q0 139 -82.5 209t-231.5 70q-80 0 -100 -12q-4 -1 -10 -10t-11.5 -25.5t-5.5 -34.5v-412q0 -9 7.5 -19.5t21.5 -14.5q61 -21 150 -21q43 0 88 17t84.5 49t64.5 85.5t25 118.5z" />
    <glyph glyph-name="germandbls" unicode="&#xdf;" horiz-adv-x="1099" 
d="M682 1401q61 0 113.5 -19t86.5 -49t58 -67t34.5 -71.5t10.5 -64.5q0 -58 -14.5 -101t-31.5 -64.5t-46 -46.5q-18 -17 -70.5 -58t-74.5 -59q-24 -20 -35 -37t-12 -24.5t-1 -26.5q0 -15 15 -41t33 -37l170 -127q35 -33 52.5 -53.5t33.5 -64t16 -101.5q0 -82 -63 -154.5
t-160 -122.5q-70 -37 -138 -37q-44 0 -84 17.5t-40 54.5q0 9 17.5 39.5t27.5 40.5q9 6 23 9.5t20 0.5q27 -18 71 -30.5t76 -12.5q49 0 76.5 37t27.5 86q0 60 -34 105.5t-115 101.5q-5 3 -32.5 21.5t-34.5 23t-29.5 22t-29.5 26t-22 26.5t-20.5 33t-10.5 35t-5 42
q0 64 39 103q22 22 127 108q76 63 107.5 118.5t31.5 127.5q0 73 -61 136t-160 63q-91 0 -146 -52.5t-82 -156.5q-5 -21 -9.5 -42t-7.5 -47t-5.5 -43.5t-3.5 -48.5t-2 -43.5t-1.5 -48t-0.5 -42.5v-46v-41q0 -410 16 -546q3 -50 72 -76q20 -8 34.5 -21.5t14.5 -25.5
q0 -16 -15.5 -25.5t-35.5 -9.5q-12 0 -83.5 3t-99.5 3q-37 0 -89 -3t-64 -3q-24 0 -41 7.5t-17 21.5q0 30 58 49q41 13 58.5 30t23.5 48q4 22 4 311q0 184 -2 221q0 29 -23 35q-26 0 -76 8q-24 5 -24 29q0 9 5.5 17.5t19.5 18.5t21.5 14.5t28 15t21.5 11.5q27 15 27 33
q2 83 36.5 188.5t114.5 192.5q143 156 330 156z" />
    <glyph glyph-name="agrave" unicode="&#xe0;" horiz-adv-x="915" 
d="M477 856q56 0 99 -18t88 -60q28 -26 48.5 -82.5t20.5 -93.5q0 -20 -4 -140t-4 -253q0 -48 21.5 -74t52.5 -26q33 0 69 18q6 3 12.5 -9t6.5 -24q0 -6 -8 -27t-11 -26q-56 -74 -149 -74q-114 0 -146 127q0 2 -8.5 6.5t-11.5 3.5q-37 -29 -158 -98q-57 -31 -108 -31
q-25 0 -56.5 15t-63.5 43t-53.5 77t-21.5 107t31 98q20 25 45.5 41t36.5 19q171 40 243.5 60t104.5 38q8 3 15 12.5t7 18.5v78q0 35 -6 53q-20 56 -73 85.5t-107 29.5q-29 0 -56.5 -9.5t-35.5 -17.5q-16 -20 -21 -100q-3 -34 -18 -45q-7 -6 -28 -11.5t-31 -5.5q-63 0 -86 10
q-7 3 -16 15t-9 18q0 26 41 70t107 90q141 92 241 92zM395 113q35 0 79 19t77 50q14 32 16 62l2 131q0 12 -16 12q-44 -7 -116 -24.5t-103 -28.5q-43 -15 -59.5 -35.5t-16.5 -58.5q0 -50 40.5 -88.5t96.5 -38.5zM365 1360q8 0 23.5 -9.5t21.5 -25.5q25 -41 69 -143.5
t64 -157.5q5 -22 -2.5 -45t-26.5 -23q-30 0 -61 35q-114 137 -170 215q-27 44 -27 66q0 30 38.5 59t70.5 29z" />
    <glyph glyph-name="aacute" unicode="&#xe1;" horiz-adv-x="915" 
d="M477 856q56 0 99 -18t88 -60q28 -26 48.5 -82.5t20.5 -93.5q0 -20 -4 -140t-4 -253q0 -48 21.5 -74t52.5 -26q33 0 69 18q6 3 12.5 -9t6.5 -24q0 -6 -8 -27t-11 -26q-56 -74 -149 -74q-114 0 -146 127q0 2 -8.5 6.5t-11.5 3.5q-37 -29 -158 -98q-57 -31 -108 -31
q-25 0 -56.5 15t-63.5 43t-53.5 77t-21.5 107t31 98q20 25 45.5 41t36.5 19q171 40 243.5 60t104.5 38q8 3 15 12.5t7 18.5v78q0 35 -6 53q-20 56 -73 85.5t-107 29.5q-29 0 -56.5 -9.5t-35.5 -17.5q-16 -20 -21 -100q-3 -34 -18 -45q-7 -6 -28 -11.5t-31 -5.5q-63 0 -86 10
q-7 3 -16 15t-9 18q0 26 41 70t107 90q141 92 241 92zM395 113q35 0 79 19t77 50q14 32 16 62l2 131q0 12 -16 12q-44 -7 -116 -24.5t-103 -28.5q-43 -15 -59.5 -35.5t-16.5 -58.5q0 -50 40.5 -88.5t96.5 -38.5zM567 1360q32 0 68 -29t37 -57q1 -29 -78 -127t-139 -158
q-37 -33 -60 -33q-11 0 -18 10t-7 27t7 39q23 64 131 262q32 66 59 66z" />
    <glyph glyph-name="acircumflex" unicode="&#xe2;" horiz-adv-x="915" 
d="M477 856q56 0 99 -18t88 -60q28 -26 48.5 -82.5t20.5 -93.5q0 -20 -4 -140t-4 -253q0 -48 21.5 -74t52.5 -26q33 0 69 18q6 3 12.5 -9t6.5 -24q0 -6 -8 -27t-11 -26q-56 -74 -149 -74q-114 0 -146 127q0 2 -8.5 6.5t-11.5 3.5q-37 -29 -158 -98q-57 -31 -108 -31
q-25 0 -56.5 15t-63.5 43t-53.5 77t-21.5 107t31 98q20 25 45.5 41t36.5 19q171 40 243.5 60t104.5 38q8 3 15 12.5t7 18.5v78q0 35 -6 53q-20 56 -73 85.5t-107 29.5q-29 0 -56.5 -9.5t-35.5 -17.5q-16 -20 -21 -100q-3 -34 -18 -45q-7 -6 -28 -11.5t-31 -5.5q-63 0 -86 10
q-7 3 -16 15t-9 18q0 26 41 70t107 90q141 92 241 92zM395 113q35 0 79 19t77 50q14 32 16 62l2 131q0 12 -16 12q-44 -7 -116 -24.5t-103 -28.5q-43 -15 -59.5 -35.5t-16.5 -58.5q0 -50 40.5 -88.5t96.5 -38.5zM451 1362q26 0 77 -88q16 -31 42.5 -79t47.5 -88t41 -83
q6 -13 7.5 -28.5t-5 -28.5t-22.5 -13q-25 0 -61 43q-24 34 -66.5 89t-58.5 77q-7 10 -17 0q-25 -35 -66 -91.5t-57 -78.5q-29 -35 -57 -35q-15 0 -21 22t3 44q57 128 137 264q48 74 76 74z" />
    <glyph glyph-name="atilde" unicode="&#xe3;" horiz-adv-x="915" 
d="M477 856q56 0 99 -18t88 -60q28 -26 48.5 -82.5t20.5 -93.5q0 -20 -4 -140t-4 -253q0 -48 21.5 -74t52.5 -26q33 0 69 18q6 3 12.5 -9t6.5 -24q0 -6 -8 -27t-11 -26q-56 -74 -149 -74q-114 0 -146 127q0 2 -8.5 6.5t-11.5 3.5q-37 -29 -158 -98q-57 -31 -108 -31
q-25 0 -56.5 15t-63.5 43t-53.5 77t-21.5 107t31 98q20 25 45.5 41t36.5 19q171 40 243.5 60t104.5 38q8 3 15 12.5t7 18.5v78q0 35 -6 53q-20 56 -73 85.5t-107 29.5q-29 0 -56.5 -9.5t-35.5 -17.5q-16 -20 -21 -100q-3 -34 -18 -45q-7 -6 -28 -11.5t-31 -5.5q-63 0 -86 10
q-7 3 -16 15t-9 18q0 26 41 70t107 90q141 92 241 92zM395 113q35 0 79 19t77 50q14 32 16 62l2 131q0 12 -16 12q-44 -7 -116 -24.5t-103 -28.5q-43 -15 -59.5 -35.5t-16.5 -58.5q0 -50 40.5 -88.5t96.5 -38.5zM317 1081q-36 0 -81 -49q-28 -24 -35 -24q-15 0 -27 13.5
t-12 27.5q0 3 21.5 31.5t64 70.5t84.5 68q3 4 15.5 8t17.5 2q105 -27 178 -27q40 0 75 21q33 22 80 69q3 4 16 -0.5t25.5 -16t12.5 -24.5q0 -10 -29 -39q-1 -1 -71 -65t-77 -72q-5 -7 -19 -12.5t-19 -5.5q-14 0 -93 12t-127 12z" />
    <glyph glyph-name="adieresis" unicode="&#xe4;" horiz-adv-x="915" 
d="M477 856q56 0 99 -18t88 -60q28 -26 48.5 -82.5t20.5 -93.5q0 -20 -4 -140t-4 -253q0 -48 21.5 -74t52.5 -26q33 0 69 18q6 3 12.5 -9t6.5 -24q0 -6 -8 -27t-11 -26q-56 -74 -149 -74q-114 0 -146 127q0 2 -8.5 6.5t-11.5 3.5q-37 -29 -158 -98q-57 -31 -108 -31
q-25 0 -56.5 15t-63.5 43t-53.5 77t-21.5 107t31 98q20 25 45.5 41t36.5 19q171 40 243.5 60t104.5 38q8 3 15 12.5t7 18.5v78q0 35 -6 53q-20 56 -73 85.5t-107 29.5q-29 0 -56.5 -9.5t-35.5 -17.5q-16 -20 -21 -100q-3 -34 -18 -45q-7 -6 -28 -11.5t-31 -5.5q-63 0 -86 10
q-7 3 -16 15t-9 18q0 26 41 70t107 90q141 92 241 92zM395 113q35 0 79 19t77 50q14 32 16 62l2 131q0 12 -16 12q-44 -7 -116 -24.5t-103 -28.5q-43 -15 -59.5 -35.5t-16.5 -58.5q0 -50 40.5 -88.5t96.5 -38.5zM264 1249q45 0 69.5 -35.5t24.5 -60.5q0 -51 -32.5 -78.5
t-63.5 -27.5q-37 0 -68.5 26.5t-31.5 73.5q0 44 30 73t72 29zM606 1249q45 0 66.5 -34.5t21.5 -61.5q0 -51 -32.5 -78.5t-63.5 -27.5q-37 0 -68.5 26.5t-31.5 73.5q0 45 29.5 73.5t78.5 28.5z" />
    <glyph glyph-name="aring" unicode="&#xe5;" horiz-adv-x="915" 
d="M477 856q56 0 99 -18t88 -60q28 -26 48.5 -82.5t20.5 -93.5q0 -20 -4 -140t-4 -253q0 -48 21.5 -74t52.5 -26q33 0 69 18q6 3 12.5 -9t6.5 -24q0 -6 -8 -27t-11 -26q-56 -74 -149 -74q-114 0 -146 127q0 2 -8.5 6.5t-11.5 3.5q-37 -29 -158 -98q-57 -31 -108 -31
q-25 0 -56.5 15t-63.5 43t-53.5 77t-21.5 107t31 98q20 25 45.5 41t36.5 19q171 40 243.5 60t104.5 38q8 3 15 12.5t7 18.5v78q0 35 -6 53q-20 56 -73 85.5t-107 29.5q-29 0 -56.5 -9.5t-35.5 -17.5q-16 -20 -21 -100q-3 -34 -18 -45q-7 -6 -28 -11.5t-31 -5.5q-63 0 -86 10
q-7 3 -16 15t-9 18q0 26 41 70t107 90q141 92 241 92zM395 113q35 0 79 19t77 50q14 32 16 62l2 131q0 12 -16 12q-44 -7 -116 -24.5t-103 -28.5q-43 -15 -59.5 -35.5t-16.5 -58.5q0 -50 40.5 -88.5t96.5 -38.5zM434 1309q81 0 134 -56t53 -129q0 -76 -53 -131t-134 -55
t-133.5 55t-52.5 131q0 73 53 129t133 56zM434 1225q-42 0 -69 -29t-27 -74q0 -48 27.5 -76t68.5 -28q43 0 69.5 28t26.5 80q0 37 -28 68t-68 31z" />
    <glyph glyph-name="ae" unicode="&#xe6;" horiz-adv-x="1298" 
d="M961 856q64 0 115.5 -22.5t82.5 -59.5t47.5 -80t16.5 -88q0 -13 -12 -31.5t-29 -23.5q-18 -1 -179.5 -43.5t-265.5 -71.5q-14 -4 -14 -26q0 -101 8 -142.5t29 -70.5q57 -78 190 -78q41 0 82 12.5t65 25.5t54 32t35 22q10 7 22.5 0t12.5 -23q0 -27 -17 -51
q-48 -69 -144.5 -115.5t-201.5 -46.5q-84 0 -144 29.5t-110 99.5q-3 3 -14.5 1.5t-18.5 -5.5q-13 -8 -57 -37t-58.5 -37t-45.5 -24.5t-52.5 -21.5t-44.5 -5q-80 0 -150.5 65.5t-70.5 172.5q0 121 107 158q44 16 102.5 33.5t122 35.5t86.5 25q19 5 33.5 15.5t20 18t5.5 11.5
q0 78 -6 119q-5 50 -28 73q-19 22 -53.5 38t-67.5 16q-40 0 -70.5 -13.5t-42.5 -27t-12 -21.5l-4 -78q-3 -24 -11 -32q-6 -4 -22.5 -11.5t-46.5 -16.5t-55 -9q-27 0 -44 10q-12 9 -12 25q0 50 58 108q99 94 231 146q59 20 111 20q61 0 113 -31.5t79 -62.5q3 -3 11.5 -5
t11.5 1q54 43 123 70.5t129 27.5zM393 113q44 0 89.5 20t68.5 49q9 11 14 66q1 21 0.5 46.5t-1.5 55.5t-1 31q0 7 -9 12.5t-15 3.5q-45 -8 -201 -59q-80 -28 -80 -96q0 -58 42 -93.5t93 -35.5zM895 758q-95 0 -150 -70q-14 -19 -14 -55v-113q0 -3 3 -9t7 -5q150 42 250 78
q63 25 60 53q-4 49 -40.5 85t-115.5 36z" />
    <glyph glyph-name="ccedilla" unicode="&#xe7;" horiz-adv-x="858" 
d="M547 856q90 0 142 -20t71 -41q5 -3 11.5 -21t6.5 -29q0 -42 -21 -74t-44 -32q-9 0 -29.5 13t-40.5 34q-73 76 -194 76q-76 0 -138 -68q-69 -78 -69 -243q0 -79 27.5 -143t71.5 -103.5t97 -60.5t107 -21q59 0 106 19.5t99 66.5q9 7 22.5 0t13.5 -19q0 -42 -26 -77
q-65 -92 -187 -121l-79 -98q-4 -6 -1 -14t9 -11q119 -49 119 -143q0 -93 -111 -172q-86 -60 -156 -60q-12 0 -30.5 9.5t-26.5 23.5q-9 16 -9 37t11 35q22 22 45 16q4 -1 19.5 -8t29.5 -11t27 -4q40 0 58 20.5t18 51.5q0 39 -33.5 67.5t-75.5 28.5h-33q-8 0 -20 10t-12 17
q0 13 18 33l141 155h-22q-159 0 -275 107q-46 41 -81 124.5t-35 178.5q0 132 57.5 231.5t150.5 157.5q130 82 271 82z" />
    <glyph glyph-name="egrave" unicode="&#xe8;" horiz-adv-x="878" 
d="M520 856q75 0 140.5 -32t101.5 -91q35 -51 35 -143q0 -17 -20.5 -39.5t-35.5 -22.5q-4 0 -211.5 -3t-228.5 -3q-5 0 -17.5 -7.5t-15.5 -14.5q-10 -17 -10 -64q0 -136 90.5 -228.5t222.5 -92.5q94 0 207 78q4 2 10 0.5t10.5 -9t4.5 -18.5q0 -34 -27 -64
q-57 -60 -134 -93.5t-159 -33.5q-189 0 -295 116.5t-106 307.5q0 123 53 224.5t146 162.5q106 70 239 70zM459 782q-44 0 -100.5 -47.5t-75.5 -118.5q-1 -6 4 -13t8 -7q46 -4 149 -4q37 0 61 2t53 8.5t43.5 22.5t14.5 41q0 49 -40 82.5t-117 33.5zM387 1341q8 0 23.5 -9
t21.5 -25q25 -41 69 -143.5t64 -157.5q5 -22 -2 -45t-26 -23q-31 0 -62 35q-114 137 -170 215q-26 42 -26 65q0 31 38 59.5t70 28.5z" />
    <glyph glyph-name="eacute" unicode="&#xe9;" horiz-adv-x="878" 
d="M520 856q75 0 140.5 -32t101.5 -91q35 -51 35 -143q0 -17 -20.5 -39.5t-35.5 -22.5q-4 0 -211.5 -3t-228.5 -3q-5 0 -17.5 -7.5t-15.5 -14.5q-10 -17 -10 -64q0 -136 90.5 -228.5t222.5 -92.5q94 0 207 78q4 2 10 0.5t10.5 -9t4.5 -18.5q0 -34 -27 -64
q-57 -60 -134 -93.5t-159 -33.5q-189 0 -295 116.5t-106 307.5q0 123 53 224.5t146 162.5q106 70 239 70zM459 782q-44 0 -100.5 -47.5t-75.5 -118.5q-1 -6 4 -13t8 -7q46 -4 149 -4q37 0 61 2t53 8.5t43.5 22.5t14.5 41q0 49 -40 82.5t-117 33.5zM602 1331q32 0 68 -29
t37 -57t-77.5 -125t-140.5 -159q-37 -33 -59 -33q-11 0 -18 10t-7 27t7 39q23 64 131 262q32 65 59 65z" />
    <glyph glyph-name="ecircumflex" unicode="&#xea;" horiz-adv-x="878" 
d="M520 856q75 0 140.5 -32t101.5 -91q35 -51 35 -143q0 -17 -20.5 -39.5t-35.5 -22.5q-4 0 -211.5 -3t-228.5 -3q-5 0 -17.5 -7.5t-15.5 -14.5q-10 -17 -10 -64q0 -136 90.5 -228.5t222.5 -92.5q94 0 207 78q4 2 10 0.5t10.5 -9t4.5 -18.5q0 -34 -27 -64
q-57 -60 -134 -93.5t-159 -33.5q-189 0 -295 116.5t-106 307.5q0 123 53 224.5t146 162.5q106 70 239 70zM459 782q-44 0 -100.5 -47.5t-75.5 -118.5q-1 -6 4 -13t8 -7q46 -4 149 -4q37 0 61 2t53 8.5t43.5 22.5t14.5 41q0 49 -40 82.5t-117 33.5zM475 1335q12 0 33.5 -24
t44.5 -64q16 -31 42.5 -79t47.5 -88t41 -83q10 -17 7 -43t-27 -26q-13 0 -32 15t-30 28q-24 34 -66.5 89t-58.5 77q-6 10 -16 0q-25 -35 -66 -91.5t-57 -78.5q-29 -35 -57 -35q-15 0 -21.5 21.5t2.5 43.5q58 132 137 265q47 73 76 73z" />
    <glyph glyph-name="edieresis" unicode="&#xeb;" horiz-adv-x="878" 
d="M520 856q75 0 140.5 -32t101.5 -91q35 -51 35 -143q0 -17 -20.5 -39.5t-35.5 -22.5q-4 0 -211.5 -3t-228.5 -3q-5 0 -17.5 -7.5t-15.5 -14.5q-10 -17 -10 -64q0 -136 90.5 -228.5t222.5 -92.5q94 0 207 78q4 2 10 0.5t10.5 -9t4.5 -18.5q0 -34 -27 -64
q-57 -60 -134 -93.5t-159 -33.5q-189 0 -295 116.5t-106 307.5q0 123 53 224.5t146 162.5q106 70 239 70zM459 782q-44 0 -100.5 -47.5t-75.5 -118.5q-1 -6 4 -13t8 -7q46 -4 149 -4q37 0 61 2t53 8.5t43.5 22.5t14.5 41q0 49 -40 82.5t-117 33.5zM317 1247q45 0 70 -35.5
t25 -60.5q0 -51 -33 -79t-64 -28q-37 0 -68.5 27t-31.5 74q0 44 30 73t72 29zM659 1247q45 0 67 -35t22 -61q0 -51 -33 -79t-64 -28q-37 0 -68.5 27t-31.5 74q0 45 29.5 73.5t78.5 28.5z" />
    <glyph glyph-name="igrave" unicode="&#xec;" horiz-adv-x="540" 
d="M92 766q0 7 8.5 14.5t18.5 10.5q185 67 221 67q5 0 12.5 -13.5t7.5 -19.5v-374q2 -263 9 -326q1 -10 6 -17.5t24.5 -19t53.5 -20.5q22 -6 35.5 -19.5t13.5 -28.5q0 -12 -18.5 -19t-41.5 -7q-21 0 -85 3t-87 3q-61 0 -114 -3t-58 -3q-61 0 -61 31q0 27 49 41
q65 17 80.5 36.5t21.5 85.5q9 97 9 299q0 148 -2 160q-3 27 -80 78q-9 5 -16 19t-7 22zM174 1362q8 0 23.5 -9.5t21.5 -25.5q25 -41 69 -143.5t64 -157.5q5 -22 -2 -45t-26 -23q-31 0 -62 35q-114 137 -170 215q-26 42 -26 66q0 31 38 59.5t70 28.5z" />
    <glyph glyph-name="iacute" unicode="&#xed;" horiz-adv-x="540" 
d="M92 766q0 7 8.5 14.5t18.5 10.5q185 67 221 67q5 0 12.5 -13.5t7.5 -19.5v-374q2 -263 9 -326q1 -10 6 -17.5t24.5 -19t53.5 -20.5q22 -6 35.5 -19.5t13.5 -28.5q0 -12 -18.5 -19t-41.5 -7q-21 0 -85 3t-87 3q-61 0 -114 -3t-58 -3q-61 0 -61 31q0 27 49 41
q65 17 80.5 36.5t21.5 85.5q9 97 9 299q0 148 -2 160q-3 27 -80 78q-9 5 -16 19t-7 22zM393 1339q32 0 68 -29t37 -57q1 -29 -77.5 -126t-139.5 -158q-37 -33 -60 -33q-11 0 -18 10t-7 27t7 39q23 64 131 262q32 65 59 65z" />
    <glyph glyph-name="icircumflex" unicode="&#xee;" horiz-adv-x="540" 
d="M92 766q0 7 8.5 14.5t18.5 10.5q185 67 221 67q5 0 12.5 -13.5t7.5 -19.5v-374q2 -263 9 -326q1 -10 6 -17.5t24.5 -19t53.5 -20.5q22 -6 35.5 -19.5t13.5 -28.5q0 -12 -18.5 -19t-41.5 -7q-21 0 -85 3t-87 3q-61 0 -114 -3t-58 -3q-61 0 -61 31q0 27 49 41
q65 17 80.5 36.5t21.5 85.5q9 97 9 299q0 148 -2 160q-3 27 -80 78q-9 5 -16 19t-7 22zM266 1354q12 0 33.5 -24t44.5 -64q16 -31 42.5 -79t47.5 -88t41 -83q6 -13 7.5 -28.5t-5 -28.5t-22.5 -13q-13 0 -32 15t-30 28q-24 34 -66.5 89t-58.5 77q-6 10 -16 0
q-25 -35 -66 -91.5t-57 -78.5q-29 -35 -57 -35q-15 0 -21.5 22t2.5 44q57 128 137 264q48 74 76 74z" />
    <glyph glyph-name="idieresis" unicode="&#xef;" horiz-adv-x="540" 
d="M92 766q0 7 8.5 14.5t18.5 10.5q185 67 221 67q5 0 12.5 -13.5t7.5 -19.5v-374q2 -263 9 -326q1 -10 6 -17.5t24.5 -19t53.5 -20.5q22 -6 35.5 -19.5t13.5 -28.5q0 -12 -18.5 -19t-41.5 -7q-21 0 -85 3t-87 3q-61 0 -114 -3t-58 -3q-61 0 -61 31q0 27 49 41
q65 17 80.5 36.5t21.5 85.5q9 97 9 299q0 148 -2 160q-3 27 -80 78q-9 5 -16 19t-7 22zM106 1260q45 0 70 -36t25 -61q0 -51 -33 -78.5t-64 -27.5q-37 0 -68.5 26.5t-31.5 73.5q0 44 30 73.5t72 29.5zM449 1260q45 0 66.5 -35t21.5 -62q0 -51 -33 -78.5t-64 -27.5
q-37 0 -68.5 26.5t-31.5 73.5q0 45 30 74t79 29z" />
    <glyph glyph-name="eth" unicode="&#xf0;" horiz-adv-x="1032" 
d="M516 776q-107 0 -174 -98q-63 -82 -63 -272q0 -59 16 -119.5t45.5 -113.5t80 -86.5t111.5 -33.5q107 0 173 123q59 110 59 260q0 186 -47 246q-39 44 -93.5 69t-107.5 25zM559 856q30 0 77.5 -8.5t78.5 -22.5q7 -3 10.5 4t1.5 15q-24 109 -121 235q-11 15 -24 8
l-230 -104q-9 -4 -22 0q-10 6 -17.5 18.5t-7.5 22.5q0 18 14 27l209 98q12 6 0 16q-104 93 -303 144q-22 6 -35.5 17.5t-13.5 21.5q0 43 62 43q104 -3 213 -44.5t202 -119.5q4 -3 11 -3.5t10 1.5l188 94q10 7 29 -6q6 -8 12 -19.5t9 -19t3 -8.5q0 -19 -26 -31l-146 -76
q-13 -7 -4 -16q105 -123 158 -281t53 -330q0 -189 -58.5 -305t-143.5 -170q-124 -82 -252 -82q-177 0 -299.5 122.5t-122.5 297.5q0 148 71 252q63 95 173 152t241 57z" />
    <glyph glyph-name="ntilde" unicode="&#xf1;" horiz-adv-x="1077" 
d="M92 743q0 11 12 28.5t25 23.5q17 8 64 27t69 30q42 20 53 20q8 0 21.5 -7t13.5 -17q0 -50 -4 -90q-1 -7 4 -8.5t10 2.5q152 104 291 104q123 0 189 -96q58 -83 61 -273q1 -34 1.5 -98t1.5 -116t3 -93q1 -43 13 -62.5t41 -33.5q61 -23 61 -57q0 -14 -18.5 -23.5
t-40.5 -9.5q-9 0 -64 3t-90 3q-34 0 -77.5 -3t-51.5 -3q-55 0 -55 33q0 25 45 43q38 13 51.5 31.5t15.5 56.5q2 100 2 278q0 189 -39 242q-41 55 -145 55q-111 0 -176 -45q-25 -25 -25 -51v-475q0 -16 1 -23t8 -19t24.5 -22.5t46.5 -21.5q53 -20 53 -49q0 -13 -15.5 -23
t-41.5 -10q-36 0 -96 3t-82 3q-35 0 -92 -3t-70 -3q-59 0 -59 31q0 14 14 26t31 17q64 20 83 40.5t21 57.5q13 212 13 461q0 24 -16.5 43t-55.5 43q-29 21 -29 30zM406 1081q-37 0 -82 -49q-28 -24 -35 -24q-15 0 -27 13.5t-12 27.5q0 3 21.5 31.5t64 70.5t84.5 68
q3 4 15.5 8t17.5 2q105 -27 178 -27q41 0 76 21q30 20 79 69q3 4 16 -0.5t25.5 -16t12.5 -24.5q0 -10 -29 -39l-70 -64q-70 -65 -77 -73q-5 -7 -19.5 -12.5t-19.5 -5.5q-14 0 -92.5 12t-126.5 12z" />
    <glyph glyph-name="ograve" unicode="&#xf2;" horiz-adv-x="1034" 
d="M524 856q82 0 153.5 -26.5t122.5 -70t87.5 -99.5t54.5 -115.5t19 -116.5q0 -109 -38 -193t-96 -137q-134 -123 -309 -123q-90 0 -174 35t-149 99q-61 60 -91 143t-30 160q0 102 46 192.5t118 147.5q53 45 131 74.5t155 29.5zM494 770q-34 0 -76 -17t-64 -40
q-15 -18 -31.5 -45.5t-34.5 -91t-18 -134.5q0 -93 31.5 -184.5t91.5 -142.5q70 -56 156 -56q38 0 82 21.5t74 58.5q55 70 55 275q0 90 -29.5 169.5t-91.5 133t-145 53.5zM420 1341q8 0 23.5 -9t21.5 -25q25 -41 69 -143.5t64 -157.5q5 -22 -2.5 -45t-26.5 -23q-30 0 -61 35
q-114 137 -170 215q-27 43 -27 65q0 30 38.5 59t70.5 29z" />
    <glyph glyph-name="oacute" unicode="&#xf3;" horiz-adv-x="1034" 
d="M524 856q82 0 153.5 -26.5t122.5 -70t87.5 -99.5t54.5 -115.5t19 -116.5q0 -109 -38 -193t-96 -137q-134 -123 -309 -123q-90 0 -174 35t-149 99q-61 60 -91 143t-30 160q0 102 46 192.5t118 147.5q53 45 131 74.5t155 29.5zM494 770q-34 0 -76 -17t-64 -40
q-15 -18 -31.5 -45.5t-34.5 -91t-18 -134.5q0 -93 31.5 -184.5t91.5 -142.5q70 -56 156 -56q38 0 82 21.5t74 58.5q55 70 55 275q0 90 -29.5 169.5t-91.5 133t-145 53.5zM610 1335q32 0 68 -29t37 -57q1 -29 -77.5 -126t-139.5 -158q-37 -33 -60 -33q-11 0 -18 10t-7 27
t7 39q23 64 131 262q32 65 59 65z" />
    <glyph glyph-name="ocircumflex" unicode="&#xf4;" horiz-adv-x="1034" 
d="M524 856q82 0 153.5 -26.5t122.5 -70t87.5 -99.5t54.5 -115.5t19 -116.5q0 -109 -38 -193t-96 -137q-134 -123 -309 -123q-90 0 -174 35t-149 99q-61 60 -91 143t-30 160q0 102 46 192.5t118 147.5q53 45 131 74.5t155 29.5zM494 770q-34 0 -76 -17t-64 -40
q-15 -18 -31.5 -45.5t-34.5 -91t-18 -134.5q0 -93 31.5 -184.5t91.5 -142.5q70 -56 156 -56q38 0 82 21.5t74 58.5q55 70 55 275q0 90 -29.5 169.5t-91.5 133t-145 53.5zM520 1331q12 0 33.5 -24t44.5 -64q16 -31 42.5 -79t47.5 -88t41 -83q6 -13 7.5 -28t-5 -28t-22.5 -13
q-13 0 -32 15t-30 28q-24 34 -66.5 89t-58.5 77q-6 10 -16 0q-25 -35 -66 -91.5t-57 -78.5q-29 -35 -57 -35q-15 0 -21.5 21.5t2.5 43.5q57 128 137 264q48 74 76 74z" />
    <glyph glyph-name="otilde" unicode="&#xf5;" horiz-adv-x="1034" 
d="M524 856q82 0 153.5 -26.5t122.5 -70t87.5 -99.5t54.5 -115.5t19 -116.5q0 -109 -38 -193t-96 -137q-134 -123 -309 -123q-90 0 -174 35t-149 99q-61 60 -91 143t-30 160q0 102 46 192.5t118 147.5q53 45 131 74.5t155 29.5zM494 770q-34 0 -76 -17t-64 -40
q-15 -18 -31.5 -45.5t-34.5 -91t-18 -134.5q0 -93 31.5 -184.5t91.5 -142.5q70 -56 156 -56q38 0 82 21.5t74 58.5q55 70 55 275q0 90 -29.5 169.5t-91.5 133t-145 53.5zM389 1071q-37 0 -82 -49q-29 -25 -35 -25q-15 0 -27 13.5t-12 27.5q0 3 21.5 31.5t64 70.5t84.5 68
q3 4 15.5 8.5t17.5 2.5q105 -27 178 -27q43 0 76 20q30 20 80 70q3 4 16 -0.5t25 -16t12 -24.5q0 -11 -28 -39q-1 -1 -71 -65t-77 -72q-5 -7 -19.5 -12.5t-19.5 -5.5q-14 0 -92.5 12t-126.5 12z" />
    <glyph glyph-name="odieresis" unicode="&#xf6;" horiz-adv-x="1034" 
d="M524 856q82 0 153.5 -26.5t122.5 -70t87.5 -99.5t54.5 -115.5t19 -116.5q0 -109 -38 -193t-96 -137q-134 -123 -309 -123q-90 0 -174 35t-149 99q-61 60 -91 143t-30 160q0 102 46 192.5t118 147.5q53 45 131 74.5t155 29.5zM494 770q-34 0 -76 -17t-64 -40
q-15 -18 -31.5 -45.5t-34.5 -91t-18 -134.5q0 -93 31.5 -184.5t91.5 -142.5q70 -56 156 -56q38 0 82 21.5t74 58.5q55 70 55 275q0 90 -29.5 169.5t-91.5 133t-145 53.5zM362 1260q45 0 70 -36t25 -61q0 -51 -33 -78.5t-64 -27.5q-37 0 -68.5 26.5t-31.5 73.5q0 44 30 73.5
t72 29.5zM705 1260q45 0 66.5 -35t21.5 -62q0 -51 -33 -78.5t-64 -27.5q-37 0 -68.5 26.5t-31.5 73.5q0 45 30 74t79 29z" />
    <glyph glyph-name="divide" unicode="&#xf7;" horiz-adv-x="1323" 
d="M659 700q-45 0 -80.5 34.5t-35.5 82.5q0 49 35.5 85t80.5 36q52 0 87.5 -35.5t35.5 -85.5t-35.5 -83.5t-87.5 -33.5zM1188 408l-1061 -9q-6 0 -13.5 13.5t-7.5 25.5q0 28 11 61t20 33h1057q7 0 15 -9t8 -21q0 -25 -5 -47.5t-12 -34.5t-12 -12zM659 -12q-51 0 -85.5 36
t-34.5 89q0 44 35 79t85 35q48 0 83.5 -35.5t35.5 -78.5q0 -51 -35 -88t-84 -37z" />
    <glyph glyph-name="oslash" unicode="&#xf8;" horiz-adv-x="1046" 
d="M543 856q105 0 200 -53q19 -4 21 0l45 57q13 19 29 19q9 0 24 -10t21 -19q7 -14 -2 -23l-54 -69q-2 -3 -1.5 -9.5t3.5 -9.5q142 -135 142 -329q0 -114 -51 -202t-119 -138q-134 -95 -281 -95q-110 0 -235 64q-8 3 -15 -4l-61 -72q-14 -14 -25 -14t-25.5 11.5t-17.5 23.5
q-1 4 0.5 12t3.5 10l62 78q7 7 -4 18q-61 58 -95 140t-34 166q0 196 153 333q137 115 316 115zM369 137q77 -80 178 -80q92 0 158 66q83 90 83 274q0 115 -55 217q0 1 -2.5 2.5t-6 1.5t-5.5 -4l-354 -458q-2 -1 -0.5 -8.5t4.5 -10.5zM494 774q-74 0 -142 -59
q-42 -39 -67 -110t-25 -152q0 -56 14 -121.5t35 -102.5q7 -7 15 0l352 451q4 6 -4 22q-75 72 -178 72z" />
    <glyph glyph-name="ugrave" unicode="&#xf9;" horiz-adv-x="1050" 
d="M496 106q40 0 84 16t65 30q49 37 55 96q9 76 9 416q0 17 -10.5 38.5t-20.5 24.5q-65 26 -68 27q-49 17 -49 45q0 10 16 21t35 11h99q19 0 79.5 3.5t65.5 3.5q6 0 14.5 -17t8.5 -33q0 -573 2 -618q1 -32 8.5 -51.5t13.5 -23t10 -3.5q6 0 27.5 2.5t46 5.5t31.5 4
q3 0 9.5 -14t6.5 -20q0 -24 -12 -39t-23 -17q-114 -13 -168 -28q-62 -15 -88 -15q-6 0 -13 12t-9 23q-1 6 -2 23t-2 39t-2 32q0 3 -7 8t-12 1q-90 -66 -161.5 -100t-157.5 -34q-46 0 -92 21.5t-70 48.5q-17 17 -32 51t-15 68v495q0 17 -19 43.5t-59 47.5q-43 22 -43 47
q0 18 24 26t40 8q26 0 112.5 5.5t89.5 5.5q21 0 21 -66q0 -342 2 -485q1 -52 9 -85t16.5 -45t25.5 -28q45 -27 109 -27zM391 1341q8 0 23.5 -9t21.5 -25q25 -41 69 -143.5t64 -157.5q5 -22 -2 -45t-26 -23q-31 0 -62 35q-114 137 -170 215q-26 42 -26 65q0 31 38 59.5
t70 28.5z" />
    <glyph glyph-name="uacute" unicode="&#xfa;" horiz-adv-x="1050" 
d="M496 106q40 0 84 16t65 30q49 37 55 96q9 76 9 416q0 17 -10.5 38.5t-20.5 24.5q-65 26 -68 27q-49 17 -49 45q0 10 16 21t35 11h99q19 0 79.5 3.5t65.5 3.5q6 0 14.5 -17t8.5 -33q0 -573 2 -618q1 -32 8.5 -51.5t13.5 -23t10 -3.5q6 0 27.5 2.5t46 5.5t31.5 4
q3 0 9.5 -14t6.5 -20q0 -24 -12 -39t-23 -17q-114 -13 -168 -28q-62 -15 -88 -15q-6 0 -13 12t-9 23q-1 6 -2 23t-2 39t-2 32q0 3 -7 8t-12 1q-90 -66 -161.5 -100t-157.5 -34q-46 0 -92 21.5t-70 48.5q-17 17 -32 51t-15 68v495q0 17 -19 43.5t-59 47.5q-43 22 -43 47
q0 18 24 26t40 8q26 0 112.5 5.5t89.5 5.5q21 0 21 -66q0 -342 2 -485q1 -52 9 -85t16.5 -45t25.5 -28q45 -27 109 -27zM618 1352q32 0 68 -29t37 -57q1 -29 -78 -127t-139 -158q-37 -33 -60 -33q-11 0 -18 10t-7 27t7 39q23 64 131 262q32 66 59 66z" />
    <glyph glyph-name="ucircumflex" unicode="&#xfb;" horiz-adv-x="1050" 
d="M496 106q40 0 84 16t65 30q49 37 55 96q9 76 9 416q0 17 -10.5 38.5t-20.5 24.5q-65 26 -68 27q-49 17 -49 45q0 10 16 21t35 11h99q19 0 79.5 3.5t65.5 3.5q6 0 14.5 -17t8.5 -33q0 -573 2 -618q1 -32 8.5 -51.5t13.5 -23t10 -3.5q6 0 27.5 2.5t46 5.5t31.5 4
q3 0 9.5 -14t6.5 -20q0 -24 -12 -39t-23 -17q-114 -13 -168 -28q-62 -15 -88 -15q-6 0 -13 12t-9 23q-1 6 -2 23t-2 39t-2 32q0 3 -7 8t-12 1q-90 -66 -161.5 -100t-157.5 -34q-46 0 -92 21.5t-70 48.5q-17 17 -32 51t-15 68v495q0 17 -19 43.5t-59 47.5q-43 22 -43 47
q0 18 24 26t40 8q26 0 112.5 5.5t89.5 5.5q21 0 21 -66q0 -342 2 -485q1 -52 9 -85t16.5 -45t25.5 -28q45 -27 109 -27zM514 1362q12 0 33.5 -24t44.5 -64q16 -31 42.5 -79t47.5 -88t41 -83q10 -17 6.5 -43.5t-27.5 -26.5q-25 0 -61 43q-24 34 -66.5 89t-58.5 77
q-6 10 -16 0q-25 -35 -66 -91.5t-57 -78.5q-29 -35 -58 -35q-15 0 -21 22t3 44q57 128 137 264q48 74 76 74z" />
    <glyph glyph-name="udieresis" unicode="&#xfc;" horiz-adv-x="1050" 
d="M496 106q40 0 84 16t65 30q49 37 55 96q9 76 9 416q0 17 -10.5 38.5t-20.5 24.5q-65 26 -68 27q-49 17 -49 45q0 10 16 21t35 11h99q19 0 79.5 3.5t65.5 3.5q6 0 14.5 -17t8.5 -33q0 -573 2 -618q1 -32 8.5 -51.5t13.5 -23t10 -3.5q6 0 27.5 2.5t46 5.5t31.5 4
q3 0 9.5 -14t6.5 -20q0 -24 -12 -39t-23 -17q-114 -13 -168 -28q-62 -15 -88 -15q-6 0 -13 12t-9 23q-1 6 -2 23t-2 39t-2 32q0 3 -7 8t-12 1q-90 -66 -161.5 -100t-157.5 -34q-46 0 -92 21.5t-70 48.5q-17 17 -32 51t-15 68v495q0 17 -19 43.5t-59 47.5q-43 22 -43 47
q0 18 24 26t40 8q26 0 112.5 5.5t89.5 5.5q21 0 21 -66q0 -342 2 -485q1 -52 9 -85t16.5 -45t25.5 -28q45 -27 109 -27zM346 1260q45 0 69.5 -36t24.5 -61q0 -51 -32.5 -78.5t-63.5 -27.5q-37 0 -68.5 26.5t-31.5 73.5q0 44 30 73.5t72 29.5zM688 1260q45 0 66.5 -35
t21.5 -62q0 -51 -32.5 -78.5t-63.5 -27.5q-37 0 -68.5 26.5t-31.5 73.5q0 45 29.5 74t78.5 29z" />
    <glyph glyph-name="yacute" unicode="&#xfd;" horiz-adv-x="925" 
d="M-14 809q0 11 13.5 21t33.5 10q7 0 103 -4.5t116 -4.5q28 0 58.5 1.5t35.5 1.5q51 0 51 -33q0 -24 -47 -37q-31 -10 -34.5 -24.5t8.5 -41.5q16 -52 77.5 -211.5t98.5 -234.5q5 -7 12.5 -6t9.5 6q127 320 166 432q9 30 -2.5 46.5t-52.5 29.5q-23 8 -38 19.5t-15 23.5
q0 14 15.5 23.5t37.5 9.5q23 0 56 -2.5t48 -2.5q19 0 79 4.5t79 4.5q17 0 32 -8.5t15 -24.5q0 -26 -51 -43q-43 -15 -69 -42.5t-52 -84.5q-40 -89 -115 -270t-110 -273q-22 -56 -74.5 -183.5t-90.5 -222t-46 -120.5q-2 -11 -34 -33t-62 -22q-49 0 -82 31t-33 85
q0 40 33 74.5t80 34.5h53q10 0 21 14t18 31q71 179 80 203q2 8 0 29t-5 28l-51 131q-40 114 -104 272t-98 226q-34 64 -111 92q-53 21 -53 45zM623 1333q32 0 67 -29t37 -57q1 -29 -77.5 -126t-139.5 -158q-37 -33 -59 -33q-18 0 -23.5 22t4.5 54q23 64 131 262
q15 30 31.5 47.5t28.5 17.5z" />
    <glyph glyph-name="thorn" unicode="&#xfe;" horiz-adv-x="1024" 
d="M584 854q101 0 186 -56t131.5 -145.5t46.5 -189.5q0 -152 -80 -265t-231 -180q-36 -16 -102 -28.5t-86 -12.5q-89 0 -113 7q-7 1 -14 -9t-7 -20q0 -180 2 -252q1 -23 8.5 -39t15.5 -25.5t26 -16t29.5 -9t35.5 -6.5q33 -5 46.5 -18t13.5 -25q0 -17 -16 -28t-42 -11
q-4 0 -34.5 -2t-76 -4t-87.5 -2q-47 0 -120.5 -7.5t-80.5 -7.5q-62 0 -62 39q0 27 58 43q66 17 83.5 43.5t20.5 87.5q15 303 15 582v870q-3 28 -52 58q-45 29 -45 51q0 10 15 21.5t38 19.5q12 5 69 25t81 30l43 17q7 0 18 -11.5t11 -23.5q-13 -266 -13 -570q0 -6 5.5 -8.5
t11.5 0.5q53 25 83 38t79 26.5t90 13.5zM504 735q-34 0 -50.5 -0.5t-51 -9.5t-62.5 -27q-21 -14 -23 -41q-2 -34 -2 -305q0 -149 19 -176q33 -43 83 -71.5t95 -28.5q97 0 160 63q90 94 90 264q0 62 -15 119t-45 105.5t-81.5 78t-116.5 29.5z" />
    <glyph glyph-name="ydieresis" unicode="&#xff;" horiz-adv-x="925" 
d="M-14 809q0 11 13.5 21t33.5 10q7 0 103 -4.5t116 -4.5q28 0 58.5 1.5t35.5 1.5q51 0 51 -33q0 -24 -47 -37q-31 -10 -34.5 -24.5t8.5 -41.5q16 -52 77.5 -211.5t98.5 -234.5q5 -7 12.5 -6t9.5 6q127 320 166 432q9 30 -2.5 46.5t-52.5 29.5q-23 8 -38 19.5t-15 23.5
q0 14 15.5 23.5t37.5 9.5q23 0 56 -2.5t48 -2.5q19 0 79 4.5t79 4.5q17 0 32 -8.5t15 -24.5q0 -26 -51 -43q-43 -15 -69 -42.5t-52 -84.5q-40 -89 -115 -270t-110 -273q-22 -56 -74.5 -183.5t-90.5 -222t-46 -120.5q-2 -11 -34 -33t-62 -22q-49 0 -82 31t-33 85
q0 40 33 74.5t80 34.5h53q10 0 21 14t18 31q71 179 80 203q2 8 0 29t-5 28l-51 131q-40 114 -104 272t-98 226q-34 64 -111 92q-53 21 -53 45zM324 1260q45 0 69.5 -36t24.5 -61q0 -51 -32.5 -78.5t-63.5 -27.5q-37 0 -69 26.5t-32 73.5q0 44 30.5 73.5t72.5 29.5zM666 1260
q45 0 66.5 -35t21.5 -62q0 -51 -33 -78.5t-64 -27.5q-37 0 -68.5 26.5t-31.5 73.5q0 45 30 74t79 29z" />
    <glyph glyph-name="Amacron" unicode="&#x100;" horiz-adv-x="1374" 
d="M739 1288q4 0 8 -3.5t8 -11.5t8 -18t10 -27.5t11.5 -34.5t14.5 -45t18 -54q46 -132 114 -313t135.5 -356t76.5 -198q32 -78 58 -101.5t112 -53.5q61 -19 61 -60q0 -9 -14 -15.5t-35 -6.5q-56 0 -147 5t-140 5t-88 -2t-69 -2q-28 0 -43 8t-15 19q0 36 47 49
q72 22 85.5 41.5t-1.5 74.5q-19 79 -92 256q-3 10 -19 19.5t-34 9.5q-26 2 -166.5 1t-183.5 -5q-7 0 -18.5 -10.5t-14.5 -18.5q-84 -243 -84 -282q0 -13 2.5 -21t11.5 -20t31 -23t57 -22q45 -13 45 -33q2 -17 -17 -31t-52 -14q-7 0 -71.5 3t-98.5 3t-89 -5t-95 -5
q-67 0 -70 30q0 16 15.5 30.5t45.5 21.5q122 32 158 114q45 97 172.5 414.5t206.5 527.5q10 27 14 58q0 4 6 12t9 10q38 26 73 58q8 8 22 15t21 7zM805 580q5 0 8 7t0 13q-16 65 -70 206.5t-79 201.5q-5 10 -14.5 9t-12.5 -9q-79 -194 -150 -408q-4 -17 15 -20
q30 -3 151.5 -3.5t151.5 3.5zM483 1538l488 6q5 0 14.5 -10.5t9.5 -20.5q0 -17 -5.5 -46t-14.5 -42q-21 -24 -41 -24l-471 4q-9 0 -21 6.5t-12 18.5q0 52 25 94q14 14 28 14z" />
    <glyph glyph-name="amacron" unicode="&#x101;" horiz-adv-x="915" 
d="M477 856q56 0 99 -18t88 -60q28 -26 48.5 -82.5t20.5 -93.5q0 -20 -4 -140t-4 -253q0 -48 21.5 -74t52.5 -26q33 0 69 18q6 3 12.5 -9t6.5 -24q0 -6 -8 -27t-11 -26q-56 -74 -149 -74q-114 0 -146 127q0 2 -8.5 6.5t-11.5 3.5q-37 -29 -158 -98q-57 -31 -108 -31
q-25 0 -56.5 15t-63.5 43t-53.5 77t-21.5 107t31 98q20 25 45.5 41t36.5 19q171 40 243.5 60t104.5 38q8 3 15 12.5t7 18.5v78q0 35 -6 53q-20 56 -73 85.5t-107 29.5q-29 0 -56.5 -9.5t-35.5 -17.5q-16 -20 -21 -100q-3 -34 -18 -45q-7 -6 -28 -11.5t-31 -5.5q-63 0 -86 10
q-7 3 -16 15t-9 18q0 26 41 70t107 90q141 92 241 92zM395 113q35 0 79 19t77 50q14 32 16 62l2 131q0 12 -16 12q-44 -7 -116 -24.5t-103 -28.5q-43 -15 -59.5 -35.5t-16.5 -58.5q0 -50 40.5 -88.5t96.5 -38.5zM236 1202l448 10q3 0 9.5 -14.5t6.5 -21.5q0 -44 -20 -82
q-5 -10 -14 -17.5t-13 -7.5h-446q-6 0 -13.5 8.5t-7.5 20.5q0 60 23 90q3 5 12 9.5t15 4.5z" />
    <glyph glyph-name="Abreve" unicode="&#x102;" horiz-adv-x="1374" 
d="M739 1288q4 0 8 -3.5t8 -11.5t8 -18t10 -27.5t11.5 -34.5t14.5 -45t18 -54q46 -132 114 -313t135.5 -356t76.5 -198q32 -78 58 -101.5t112 -53.5q61 -19 61 -60q0 -9 -14 -15.5t-35 -6.5q-56 0 -147 5t-140 5t-88 -2t-69 -2q-28 0 -43 8t-15 19q0 36 47 49
q72 22 85.5 41.5t-1.5 74.5q-19 79 -92 256q-3 10 -19 19.5t-34 9.5q-26 2 -166.5 1t-183.5 -5q-7 0 -18.5 -10.5t-14.5 -18.5q-84 -243 -84 -282q0 -13 2.5 -21t11.5 -20t31 -23t57 -22q45 -13 45 -33q2 -17 -17 -31t-52 -14q-7 0 -71.5 3t-98.5 3t-89 -5t-95 -5
q-67 0 -70 30q0 16 15.5 30.5t45.5 21.5q122 32 158 114q45 97 172.5 414.5t206.5 527.5q10 27 14 58q0 4 6 12t9 10q38 26 73 58q8 8 22 15t21 7zM805 580q5 0 8 7t0 13q-16 65 -70 206.5t-79 201.5q-5 10 -14.5 9t-12.5 -9q-79 -194 -150 -408q-4 -17 15 -20
q30 -3 151.5 -3.5t151.5 3.5zM686 1341q-114 0 -197 69.5t-83 191.5q0 14 10.5 31.5t32.5 17.5q12 0 26.5 -12.5t22.5 -28.5q19 -57 73.5 -91t135.5 -34q152 0 204 119q19 38 47 38q13 0 23 -9.5t10 -28.5q0 -27 -7.5 -57.5t-29 -68.5t-53.5 -67.5t-88 -49.5t-127 -20z" />
    <glyph glyph-name="abreve" unicode="&#x103;" horiz-adv-x="915" 
d="M477 856q56 0 99 -18t88 -60q28 -26 48.5 -82.5t20.5 -93.5q0 -20 -4 -140t-4 -253q0 -48 21.5 -74t52.5 -26q33 0 69 18q6 3 12.5 -9t6.5 -24q0 -6 -8 -27t-11 -26q-56 -74 -149 -74q-114 0 -146 127q0 2 -8.5 6.5t-11.5 3.5q-37 -29 -158 -98q-57 -31 -108 -31
q-25 0 -56.5 15t-63.5 43t-53.5 77t-21.5 107t31 98q20 25 45.5 41t36.5 19q171 40 243.5 60t104.5 38q8 3 15 12.5t7 18.5v78q0 35 -6 53q-20 56 -73 85.5t-107 29.5q-29 0 -56.5 -9.5t-35.5 -17.5q-16 -20 -21 -100q-3 -34 -18 -45q-7 -6 -28 -11.5t-31 -5.5q-63 0 -86 10
q-7 3 -16 15t-9 18q0 26 41 70t107 90q141 92 241 92zM395 113q35 0 79 19t77 50q14 32 16 62l2 131q0 12 -16 12q-44 -7 -116 -24.5t-103 -28.5q-43 -15 -59.5 -35.5t-16.5 -58.5q0 -50 40.5 -88.5t96.5 -38.5zM428 981q-88 0 -150.5 59t-68.5 181q-2 26 9 44.5t28 18.5
q31 0 45 -53q24 -61 56.5 -86t94.5 -25q104 0 154 113q8 19 20.5 33t22.5 14q34 0 31 -53q-10 -120 -78.5 -183t-163.5 -63z" />
    <glyph glyph-name="Aogonek" unicode="&#x104;" horiz-adv-x="1374" 
d="M741 1288q7 0 12.5 -6t12 -23.5t12 -36t17.5 -56.5t24 -72q46 -132 112.5 -309.5t137 -362t74.5 -195.5q32 -78 58 -101.5t112 -53.5q61 -19 61 -60q0 -9 -14 -15.5t-35 -6.5q-19 0 -154 6q-88 -74 -143 -160t-55 -145q0 -42 31 -67t75 -25q63 0 117 26q4 1 9.5 0
t10.5 -8t5 -18t-8.5 -29.5t-12.5 -22.5q-87 -100 -205 -100q-48 0 -84 18.5t-55 48t-28 59.5t-9 58q0 91 66 185.5t196 183.5q-76 0 -126 -2t-74 -2q-28 0 -43 8t-15 19q0 36 47 49q72 22 85.5 41.5t-1.5 74.5q-19 79 -92 256q-3 10 -19 19.5t-34 9.5q-26 2 -166.5 1
t-183.5 -5q-7 0 -18.5 -10.5t-14.5 -18.5q-84 -243 -84 -282q0 -13 2.5 -21t11.5 -20t31 -23t57 -22q45 -13 45 -33q2 -17 -17 -31t-52 -14q-7 0 -71.5 3t-98.5 3t-89 -5t-95 -5q-67 0 -70 30q0 16 15.5 30.5t45.5 21.5q122 32 158 114q44 95 171.5 414.5t209.5 538.5
q11 29 14 55q0 6 6 14.5t9 10.5q7 5 34.5 21t38.5 26q8 8 22 15t21 7zM805 580q5 0 8 7t0 13q-17 71 -74.5 224.5t-74.5 181.5q-6 9 -15 10.5t-12 -6.5q-75 -185 -150 -410q-4 -17 15 -20q30 -3 151.5 -3.5t151.5 3.5z" />
    <glyph glyph-name="aogonek" unicode="&#x105;" horiz-adv-x="915" 
d="M799 109q33 0 69 18q6 3 12.5 -9t6.5 -24q0 -6 -8 -27t-11 -26q-24 -33 -71 -59q-89 -67 -148 -148t-59 -143q0 -42 31 -67t75 -25q60 0 119 26q4 1 9.5 0t10.5 -8t5 -18t-8.5 -29.5t-12.5 -22.5q-87 -100 -207 -100q-48 0 -84 19t-55 48.5t-28 59.5t-9 57q0 163 246 340
q-83 19 -109 123q0 2 -8.5 6.5t-11.5 3.5q-37 -29 -158 -98q-57 -31 -108 -31q-25 0 -56.5 15t-63.5 43t-53.5 77t-21.5 107t31 98q20 25 45.5 41t36.5 19q171 40 243.5 60t104.5 38q8 3 15 12.5t7 18.5v78q0 35 -6 53q-20 56 -73 85.5t-107 29.5q-29 0 -56.5 -9.5
t-35.5 -17.5q-16 -20 -21 -100q-3 -34 -18 -45q-7 -6 -28 -11.5t-31 -5.5q-63 0 -86 10q-7 3 -16 15t-9 18q0 26 41 70t107 90q141 92 241 92q56 0 99 -18t88 -60q28 -26 48.5 -82.5t20.5 -93.5q0 -20 -4 -140t-4 -253q0 -48 21.5 -74t52.5 -26zM395 113q35 0 79 19t77 50
q14 32 16 62l2 131q0 12 -16 12q-44 -7 -116 -24.5t-103 -28.5q-43 -15 -59.5 -35.5t-16.5 -58.5q0 -50 40.5 -88.5t96.5 -38.5z" />
    <glyph glyph-name="Cacute" unicode="&#x106;" horiz-adv-x="1396" 
d="M854 1288q105 0 252 -39q18 -5 51 -15t54 -16t28 -6q8 0 19.5 -11.5t11.5 -20.5q0 -17 5 -100.5t5 -110.5q0 -40 -13.5 -60t-33.5 -20q-25 0 -41 59q-28 135 -141 197q-94 55 -242 55q-76 0 -163 -33.5t-144 -87.5q-80 -74 -126 -192t-46 -232q0 -98 36.5 -215t84.5 -176
q76 -96 187 -150.5t216 -54.5q43 0 107.5 17t111.5 39q18 10 53 48t60 83q26 53 40.5 72.5t28.5 19.5q17 0 27 -20t10 -50q0 -24 -47 -192q-3 -8 -17 -23.5t-20 -19.5q-49 -24 -169.5 -47t-211.5 -23q-170 0 -316.5 54t-240.5 159q-73 79 -118.5 193t-45.5 243
q0 173 73 311.5t210 233.5q191 131 465 131zM971 1673q26 21 59 21q27 -1 56.5 -41t29.5 -62q0 -16 -15 -34.5t-34 -28.5q-136 -74 -317 -154q-29 -11 -58 -8.5t-35 20.5q-4 7 7 26t24 30q14 12 60.5 52t77 66t72.5 59t73 54z" />
    <glyph glyph-name="cacute" unicode="&#x107;" horiz-adv-x="858" 
d="M549 856q89 0 140.5 -20t70.5 -41q5 -3 11.5 -21t6.5 -29q0 -41 -21 -73.5t-44 -32.5q-9 0 -29.5 13t-40.5 34q-73 76 -194 76q-76 0 -138 -68q-69 -78 -69 -241q0 -79 27.5 -143.5t71.5 -104t97 -61t107 -21.5q59 0 106 19.5t99 66.5q9 7 22.5 0t13.5 -19q0 -42 -26 -77
q-48 -67 -129.5 -102.5t-171.5 -35.5q-159 0 -275 107q-46 41 -81 124.5t-35 178.5q0 132 57.5 231.5t150.5 157.5q130 82 273 82zM614 1343q32 0 68 -29t37 -57q1 -29 -77.5 -126t-139.5 -158q-37 -33 -60 -33q-11 0 -18 10t-7 27t7 39q23 64 131 262q32 65 59 65z" />
    <glyph glyph-name="Ccircumflex" unicode="&#x108;" horiz-adv-x="1396" 
d="M854 1288q105 0 252 -39q18 -5 51 -15t54 -16t28 -6q8 0 19.5 -11.5t11.5 -20.5q0 -17 5 -100.5t5 -110.5q0 -40 -13.5 -60t-33.5 -20q-25 0 -41 59q-28 135 -141 197q-94 55 -242 55q-76 0 -163 -33.5t-144 -87.5q-80 -74 -126 -192t-46 -232q0 -98 36.5 -215t84.5 -176
q76 -96 187 -150.5t216 -54.5q43 0 107.5 17t111.5 39q18 10 53 48t60 83q26 53 40.5 72.5t28.5 19.5q17 0 27 -20t10 -50q0 -24 -47 -192q-3 -8 -17 -23.5t-20 -19.5q-49 -24 -169.5 -47t-211.5 -23q-170 0 -316.5 54t-240.5 159q-73 79 -118.5 193t-45.5 243
q0 173 73 311.5t210 233.5q191 131 465 131zM821 1661q14 0 41.5 -15t55.5 -40q54 -42 198 -166q23 -21 29 -39.5t-4 -29.5t-31 -11q-29 0 -74 20q-155 71 -205 101q-22 11 -40 0q-41 -16 -197 -95q-44 -22 -68 -22q-36 0 -34 27q4 32 47 67q115 99 192 154q60 49 90 49z
" />
    <glyph glyph-name="ccircumflex" unicode="&#x109;" horiz-adv-x="858" 
d="M549 856q89 0 140.5 -20t70.5 -41q5 -3 11.5 -21t6.5 -29q0 -41 -21 -73.5t-44 -32.5q-9 0 -29.5 13t-40.5 34q-73 76 -194 76q-76 0 -138 -68q-69 -78 -69 -241q0 -79 27.5 -143.5t71.5 -104t97 -61t107 -21.5q59 0 106 19.5t99 66.5q9 7 22.5 0t13.5 -19q0 -42 -26 -77
q-48 -67 -129.5 -102.5t-171.5 -35.5q-159 0 -275 107q-46 41 -81 124.5t-35 178.5q0 132 57.5 231.5t150.5 157.5q130 82 273 82zM475 1337q12 0 33.5 -24t44.5 -64q16 -31 42.5 -79t47.5 -88t41 -83q10 -17 7 -43t-27 -26q-13 0 -32 15t-30 28q-24 34 -66.5 89t-58.5 77
q-6 10 -16 0q-25 -35 -66 -91.5t-57 -78.5q-29 -35 -57 -35q-15 0 -21.5 21.5t2.5 43.5q58 132 137 265q47 73 76 73z" />
    <glyph glyph-name="Cdotaccent" unicode="&#x10a;" horiz-adv-x="1396" 
d="M854 1288q105 0 252 -39q18 -5 51 -15t54 -16t28 -6q8 0 19.5 -11.5t11.5 -20.5q0 -17 5 -100.5t5 -110.5q0 -40 -13.5 -60t-33.5 -20q-25 0 -41 59q-28 135 -141 197q-94 55 -242 55q-76 0 -163 -33.5t-144 -87.5q-80 -74 -126 -192t-46 -232q0 -98 36.5 -215t84.5 -176
q76 -96 187 -150.5t216 -54.5q43 0 107.5 17t111.5 39q18 10 53 48t60 83q26 53 40.5 72.5t28.5 19.5q17 0 27 -20t10 -50q0 -24 -47 -192q-3 -8 -17 -23.5t-20 -19.5q-49 -24 -169.5 -47t-211.5 -23q-170 0 -316.5 54t-240.5 159q-73 79 -118.5 193t-45.5 243
q0 173 73 311.5t210 233.5q191 131 465 131zM825 1638q56 0 88.5 -46.5t32.5 -80.5q0 -65 -43 -100t-84 -35q-47 0 -86 34t-39 95q0 58 38 95.5t93 37.5z" />
    <glyph glyph-name="cdotaccent" unicode="&#x10b;" horiz-adv-x="858" 
d="M549 856q89 0 140.5 -20t70.5 -41q5 -3 11.5 -21t6.5 -29q0 -41 -21 -73.5t-44 -32.5q-9 0 -29.5 13t-40.5 34q-73 76 -194 76q-76 0 -138 -68q-69 -78 -69 -241q0 -79 27.5 -143.5t71.5 -104t97 -61t107 -21.5q59 0 106 19.5t99 66.5q9 7 22.5 0t13.5 -19q0 -42 -26 -77
q-48 -67 -129.5 -102.5t-171.5 -35.5q-159 0 -275 107q-46 41 -81 124.5t-35 178.5q0 132 57.5 231.5t150.5 157.5q130 82 273 82zM498 1280q28 0 49 -13t30.5 -32.5t14 -35.5t4.5 -28q0 -56 -36.5 -86t-72.5 -30q-40 0 -74 29.5t-34 80.5t32.5 83t86.5 32z" />
    <glyph glyph-name="Ccaron" unicode="&#x10c;" horiz-adv-x="1396" 
d="M854 1288q105 0 252 -39q18 -5 51 -15t54 -16t28 -6q8 0 19.5 -11.5t11.5 -20.5q0 -17 5 -100.5t5 -110.5q0 -40 -13.5 -60t-33.5 -20q-25 0 -41 59q-28 135 -141 197q-94 55 -242 55q-76 0 -163 -33.5t-144 -87.5q-80 -74 -126 -192t-46 -232q0 -98 36.5 -215t84.5 -176
q76 -96 187 -150.5t216 -54.5q43 0 107.5 17t111.5 39q18 10 53 48t60 83q26 53 40.5 72.5t28.5 19.5q17 0 27 -20t10 -50q0 -24 -47 -192q-3 -8 -17 -23.5t-20 -19.5q-49 -24 -169.5 -47t-211.5 -23q-170 0 -316.5 54t-240.5 159q-73 79 -118.5 193t-45.5 243
q0 173 73 311.5t210 233.5q191 131 465 131zM801 1364q-29 0 -96 57q-90 70 -199 166q-23 20 -29 40t4 32t31 12t76 -22q175 -92 203 -111q23 -9 40 0q102 66 193 109q32 20 74 20q41 0 31 -33q-9 -26 -44 -57q-9 -8 -46 -40.5t-78 -66.5t-70 -55q-62 -51 -90 -51z" />
    <glyph glyph-name="ccaron" unicode="&#x10d;" horiz-adv-x="858" 
d="M549 856q89 0 140.5 -20t70.5 -41q5 -3 11.5 -21t6.5 -29q0 -41 -21 -73.5t-44 -32.5q-9 0 -29.5 13t-40.5 34q-73 76 -194 76q-76 0 -138 -68q-69 -78 -69 -241q0 -79 27.5 -143.5t71.5 -104t97 -61t107 -21.5q59 0 106 19.5t99 66.5q9 7 22.5 0t13.5 -19q0 -42 -26 -77
q-48 -67 -129.5 -102.5t-171.5 -35.5q-159 0 -275 107q-46 41 -81 124.5t-35 178.5q0 132 57.5 231.5t150.5 157.5q130 82 273 82zM483 936q-20 0 -36.5 18.5t-43.5 63.5q-99 194 -127 256q-6 14 -8.5 28.5t4.5 27.5t27 13q13 0 31 -15t26 -28l113 -155q15 -27 35 0
q18 28 35.5 51t41 52.5t42.5 54.5q31 36 55 36q15 0 23 -16t-1 -45q-37 -101 -139 -268q-19 -29 -27.5 -40t-22.5 -22.5t-28 -11.5z" />
    <glyph glyph-name="Dcaron" unicode="&#x10e;" horiz-adv-x="1509" 
d="M672 1268q338 0 538 -170q116 -97 163.5 -220t47.5 -241q0 -89 -21.5 -170.5t-53.5 -139t-75 -107t-80.5 -78.5t-74.5 -50q-201 -108 -473 -108q-44 0 -174.5 8t-161.5 8q-36 0 -122.5 -5t-106.5 -5q-11 0 -22 8t-11 18q0 18 19.5 35t56.5 27q30 8 46.5 14t40 20t36 37
t16.5 56q14 165 14 469q0 364 -12 420q-2 11 -6.5 19.5t-16.5 20t-38.5 20t-65.5 13.5q-35 4 -54.5 17t-19.5 28q0 18 22.5 28.5t61.5 10.5h168q27 0 153 8.5t206 8.5zM647 1182q-18 0 -71.5 -7t-73.5 -14q-7 -1 -20 -16.5t-15 -24.5q-6 -159 -6 -366v-138q0 -268 12 -362
q9 -59 29.5 -91.5t40.5 -43.5q24 -13 84 -30t104 -17q49 0 156 42t168 103q151 151 151 414q0 251 -153 401q-71 70 -181.5 110t-224.5 40zM725 1341q-28 0 -96 58q-90 70 -199 166q-23 20 -29 40t4 32t31 12q18 0 76 -23q183 -96 203 -110q23 -9 41 0q99 64 192 108
q34 21 74 21q35 0 33 -26q-3 -28 -45 -65q-9 -7 -46.5 -40t-78.5 -66.5t-70 -54.5q-22 -18 -33 -26.5t-27.5 -17t-29.5 -8.5z" />
    <glyph glyph-name="dcaron" unicode="&#x10f;" horiz-adv-x="1071" 
d="M590 856q83 0 125 -10q6 -1 11 6t5 16q0 2 -2 141.5t-2 164.5q-4 50 -20 64.5t-84 31.5q-15 5 -27 17.5t-12 25.5q0 14 43 26q34 10 136 30t116 20q15 0 20.5 -27t5.5 -98q0 -60 -4 -274t-4 -302q0 -270 8 -506q2 -82 37 -82q50 0 113 13q10 2 19 -8.5t9 -26.5
q0 -13 -14.5 -32t-30.5 -23q-56 -12 -119 -28t-95.5 -24t-45.5 -8q-9 0 -22.5 8.5t-14.5 18.5q-2 13 -3.5 45.5t-2.5 38.5q0 3 -5.5 5t-10.5 -1q-61 -34 -95 -52t-79.5 -34.5t-77.5 -16.5q-172 0 -280.5 113.5t-108.5 288.5q0 79 20 144.5t57 113.5t71.5 79t78.5 60
q60 38 142.5 60t142.5 22zM504 768q-76 0 -139 -57q-44 -39 -70.5 -107.5t-26.5 -159.5q0 -82 31.5 -159.5t98.5 -132t153 -54.5q42 0 93.5 18.5t66.5 33.5q5 3 12.5 22t7.5 29v385q0 14 -5.5 43.5t-10.5 36.5q-23 36 -76 69t-135 33zM1135 1405q33 0 24 -78
q-4 -58 -32.5 -170t-45.5 -141q-31 -49 -49 -49q-11 0 -21 11.5t-10 18.5q3 159 3 316q-1 8 5 22t11 17q22 19 58 36t57 17z" />
    <glyph glyph-name="Dcroat" unicode="&#x110;" horiz-adv-x="1509" 
d="M53 1212q0 17 25.5 28t66.5 11h166q27 0 155 8.5t208 8.5q331 0 530 -166q117 -99 167 -222.5t50 -238.5q0 -89 -21.5 -171t-53.5 -141t-75 -109t-80.5 -80t-74.5 -50q-197 -106 -473 -106q-44 0 -173.5 8t-160.5 8q-36 0 -104 -3t-88 -3q-72 0 -72 33q0 32 76 53
q32 9 46 14t39 19t37.5 36.5t16.5 55.5q9 94 12 375q0 7 -7 11.5t-13 4.5l-172 2q-13 0 -20 9t-7 22q0 14 9 40.5t20 26.5l178 -2q12 0 12 13q0 355 -10 399q-3 20 -33 34t-110 27q-66 11 -66 45zM461 578q0 -238 12 -326q14 -101 70 -133q35 -20 87.5 -32.5t90.5 -12.5
q70 0 169 39.5t165 103.5q72 72 111.5 179.5t39.5 238.5q0 247 -153 397q-72 71 -179.5 110.5t-228.5 39.5q-22 0 -72.5 -7t-70.5 -14q-33 -9 -35 -41q-6 -147 -6 -409q0 -3 4 -10t8 -7h342q11 0 20 -9t9 -19q0 -22 -13 -45t-26 -23l-330 -2q-5 0 -9.5 -5.5t-4.5 -12.5z" />
    <glyph glyph-name="dcroat" unicode="&#x111;" horiz-adv-x="1071" 
d="M508 1081l205 4q14 0 14 23v70q-4 47 -20 61t-84 31q-15 5 -27 17.5t-12 25.5q0 14 43 26q34 10 136 30t116 20q15 0 20.5 -27t5.5 -98q0 -24 -1 -84t-1 -78q0 -6 3.5 -10.5t8.5 -4.5l127 3q5 0 12 -12t7 -23q-7 -58 -31 -58h-119q-10 0 -10 -10q-4 -94 -4 -299
q0 -270 8 -506q2 -82 37 -82q50 0 113 13q10 2 19 -8.5t9 -26.5q0 -13 -14.5 -32t-30.5 -23q-56 -12 -119 -28t-95.5 -24t-45.5 -8q-9 0 -22.5 8.5t-14.5 18.5q-2 13 -3.5 45.5t-2.5 38.5q0 3 -5.5 5t-10.5 -1q-61 -34 -95 -52t-79.5 -34.5t-77.5 -16.5q-172 0 -280.5 113.5
t-108.5 288.5q0 79 20 144.5t57 113.5t71.5 79t78.5 60q60 38 142.5 60t142.5 22q83 0 125 -10q6 -1 11 6t5 16q0 33 -2 117q0 12 -14 12l-203 -2q-9 0 -16 8.5t-7 14.5q0 19 6.5 41t12.5 22zM504 768q-76 0 -139 -57q-44 -39 -70.5 -107.5t-26.5 -159.5q0 -82 31.5 -159.5
t98.5 -132t153 -54.5q42 0 93.5 18.5t66.5 33.5q5 3 12.5 22t7.5 29v385q0 14 -5.5 43.5t-10.5 36.5q-23 36 -76 69t-135 33z" />
    <glyph glyph-name="Emacron" unicode="&#x112;" horiz-adv-x="1153" 
d="M410 1251h211q108 0 196 4.5t96 4.5q36 0 48 -19q9 -14 20.5 -94.5t11.5 -116.5q0 -15 -11.5 -32t-23.5 -17q-18 0 -35.5 23.5t-52.5 91.5q-13 26 -29.5 42.5t-26.5 20.5t-17 4q-69 0 -185.5 -2t-119.5 -2q-4 0 -12.5 -14.5t-10.5 -22.5q-8 -76 -8 -385q0 -16 7 -36.5
t19 -20.5h134q96 4 130 22.5t52 65.5q12 32 23 45.5t26 13.5q39 0 33 -82q-6 -69 -6 -98q0 -104 4 -137q2 -24 -4 -40.5t-14 -22t-15 -5.5q-31 0 -49 52q-15 45 -31.5 63t-48.5 21q-84 6 -234 6q-8 0 -17 -19.5t-9 -32.5q0 -168 6 -303q3 -41 10.5 -71t14.5 -35
q46 -41 235 -41q102 0 156 16q39 11 67.5 38.5t65.5 82.5q38 63 50 73q10 7 21 7q21 0 26 -31.5t-3 -60.5q-13 -63 -63 -176q-8 -19 -32.5 -30t-35.5 -11q-6 0 -148.5 5t-365.5 5q-70 0 -190.5 -5t-159.5 -5q-76 0 -76 24q0 40 67 56q98 23 127 46t33 81q8 73 8 209
q0 617 -10 679q-4 44 -33 64.5t-96 36.5q-25 6 -40 19t-15 24q0 33 55 33q5 0 100 -5.5t175 -5.5zM352 1540l488 6q5 0 14.5 -10t9.5 -20q0 -17 -5.5 -46.5t-14.5 -42.5q-21 -24 -41 -24l-471 4q-9 0 -21 6.5t-12 18.5q0 52 25 94q14 14 28 14z" />
    <glyph glyph-name="emacron" unicode="&#x113;" horiz-adv-x="878" 
d="M520 856q75 0 140.5 -32t101.5 -91q35 -51 35 -143q0 -17 -20.5 -39.5t-35.5 -22.5q-4 0 -211.5 -3t-228.5 -3q-5 0 -17.5 -7.5t-15.5 -14.5q-10 -17 -10 -64q0 -136 90.5 -228.5t222.5 -92.5q94 0 207 78q4 2 10 0.5t10.5 -9t4.5 -18.5q0 -34 -27 -64
q-57 -60 -134 -93.5t-159 -33.5q-189 0 -295 116.5t-106 307.5q0 123 53 224.5t146 162.5q106 70 239 70zM459 782q-44 0 -100.5 -47.5t-75.5 -118.5q-1 -6 4 -13t8 -7q46 -4 149 -4q37 0 61 2t53 8.5t43.5 22.5t14.5 41q0 49 -40 82.5t-117 33.5zM287 1200l448 10
q3 0 10 -14.5t7 -21.5q0 -42 -21 -82q-6 -10 -14.5 -17.5t-11.5 -7.5h-447q-6 0 -13 8.5t-7 20.5q0 62 22 90q3 5 12 9.5t15 4.5z" />
    <glyph glyph-name="Ebreve" unicode="&#x114;" horiz-adv-x="1153" 
d="M410 1251h211q108 0 196 4.5t96 4.5q36 0 48 -19q9 -14 20.5 -94.5t11.5 -116.5q0 -15 -11.5 -32t-23.5 -17q-18 0 -35.5 23.5t-52.5 91.5q-13 26 -29.5 42.5t-26.5 20.5t-17 4q-69 0 -185.5 -2t-119.5 -2q-4 0 -12.5 -14.5t-10.5 -22.5q-8 -76 -8 -385q0 -16 7 -36.5
t19 -20.5h134q96 4 130 22.5t52 65.5q12 32 23 45.5t26 13.5q39 0 33 -82q-6 -69 -6 -98q0 -104 4 -137q2 -24 -4 -40.5t-14 -22t-15 -5.5q-31 0 -49 52q-15 45 -31.5 63t-48.5 21q-84 6 -234 6q-8 0 -17 -19.5t-9 -32.5q0 -168 6 -303q3 -41 10.5 -71t14.5 -35
q46 -41 235 -41q102 0 156 16q39 11 67.5 38.5t65.5 82.5q38 63 50 73q10 7 21 7q21 0 26 -31.5t-3 -60.5q-13 -63 -63 -176q-8 -19 -32.5 -30t-35.5 -11q-6 0 -148.5 5t-365.5 5q-70 0 -190.5 -5t-159.5 -5q-76 0 -76 24q0 40 67 56q98 23 127 46t33 81q8 73 8 209
q0 617 -10 679q-4 44 -33 64.5t-96 36.5q-25 6 -40 19t-15 24q0 33 55 33q5 0 100 -5.5t175 -5.5zM580 1354q-114 0 -197.5 69t-83.5 191q0 14 10.5 31.5t32.5 17.5q12 0 26.5 -12.5t22.5 -28.5q19 -57 73.5 -91t135.5 -34q153 0 205 119q19 39 47 39q13 0 23 -10t10 -29
q0 -27 -7.5 -57.5t-29 -68t-53.5 -67t-88 -49.5t-127 -20z" />
    <glyph glyph-name="ebreve" unicode="&#x115;" horiz-adv-x="878" 
d="M520 856q75 0 140.5 -32t101.5 -91q35 -51 35 -143q0 -17 -20.5 -39.5t-35.5 -22.5q-4 0 -211.5 -3t-228.5 -3q-5 0 -17.5 -7.5t-15.5 -14.5q-10 -17 -10 -64q0 -136 90.5 -228.5t222.5 -92.5q94 0 207 78q4 2 10 0.5t10.5 -9t4.5 -18.5q0 -34 -27 -64
q-57 -60 -134 -93.5t-159 -33.5q-189 0 -295 116.5t-106 307.5q0 123 53 224.5t146 162.5q106 70 239 70zM459 782q-44 0 -100.5 -47.5t-75.5 -118.5q-1 -6 4 -13t8 -7q46 -4 149 -4q37 0 61 2t53 8.5t43.5 22.5t14.5 41q0 49 -40 82.5t-117 33.5zM479 989q-88 0 -150.5 59
t-68.5 181q-2 26 9 44.5t28 18.5q31 0 45 -53q24 -61 57 -86t95 -25q103 0 153 113q8 19 20.5 33t22.5 14q34 0 31 -53q-10 -120 -78.5 -183t-163.5 -63z" />
    <glyph glyph-name="Edotaccent" unicode="&#x116;" horiz-adv-x="1153" 
d="M410 1251h211q108 0 196 4.5t96 4.5q36 0 48 -19q9 -14 20.5 -94.5t11.5 -116.5q0 -15 -11.5 -32t-23.5 -17q-18 0 -35.5 23.5t-52.5 91.5q-13 26 -29.5 42.5t-26.5 20.5t-17 4q-69 0 -185.5 -2t-119.5 -2q-4 0 -12.5 -14.5t-10.5 -22.5q-8 -76 -8 -385q0 -16 7 -36.5
t19 -20.5h134q96 4 130 22.5t52 65.5q12 32 23 45.5t26 13.5q39 0 33 -82q-6 -69 -6 -98q0 -104 4 -137q2 -24 -4 -40.5t-14 -22t-15 -5.5q-31 0 -49 52q-15 45 -31.5 63t-48.5 21q-84 6 -234 6q-8 0 -17 -19.5t-9 -32.5q0 -168 6 -303q3 -41 10.5 -71t14.5 -35
q46 -41 235 -41q102 0 156 16q39 11 67.5 38.5t65.5 82.5q38 63 50 73q10 7 21 7q21 0 26 -31.5t-3 -60.5q-13 -63 -63 -176q-8 -19 -32.5 -30t-35.5 -11q-6 0 -148.5 5t-365.5 5q-70 0 -190.5 -5t-159.5 -5q-76 0 -76 24q0 40 67 56q98 23 127 46t33 81q8 73 8 209
q0 617 -10 679q-4 44 -33 64.5t-96 36.5q-25 6 -40 19t-15 24q0 33 55 33q5 0 100 -5.5t175 -5.5zM588 1620q56 0 88.5 -46.5t32.5 -80.5q0 -65 -43 -100t-84 -35q-47 0 -86 34t-39 95q0 58 38 95.5t93 37.5z" />
    <glyph glyph-name="edotaccent" unicode="&#x117;" horiz-adv-x="878" 
d="M520 856q75 0 140.5 -32t101.5 -91q35 -51 35 -143q0 -17 -20.5 -39.5t-35.5 -22.5q-4 0 -211.5 -3t-228.5 -3q-5 0 -17.5 -7.5t-15.5 -14.5q-10 -17 -10 -64q0 -136 90.5 -228.5t222.5 -92.5q94 0 207 78q4 2 10 0.5t10.5 -9t4.5 -18.5q0 -34 -27 -64
q-57 -60 -134 -93.5t-159 -33.5q-189 0 -295 116.5t-106 307.5q0 123 53 224.5t146 162.5q106 70 239 70zM459 782q-44 0 -100.5 -47.5t-75.5 -118.5q-1 -6 4 -13t8 -7q46 -4 149 -4q37 0 61 2t53 8.5t43.5 22.5t14.5 41q0 49 -40 82.5t-117 33.5zM510 1280q28 0 49 -13
t30.5 -32.5t14 -35.5t4.5 -28q0 -56 -36 -86t-72 -30q-40 0 -74.5 29.5t-34.5 80.5t32.5 83t86.5 32z" />
    <glyph glyph-name="Eogonek" unicode="&#x118;" horiz-adv-x="1153" 
d="M410 1251h211q108 0 196 4.5t96 4.5q36 0 48 -19q9 -14 20.5 -94.5t11.5 -116.5q0 -15 -11.5 -32t-23.5 -17q-18 0 -35.5 23.5t-52.5 91.5q-13 26 -29.5 42.5t-26.5 20.5t-17 4q-69 0 -185.5 -2t-119.5 -2q-4 0 -12.5 -14.5t-10.5 -22.5q-8 -76 -8 -385q0 -16 7 -36.5
t19 -20.5h134q96 4 130 22.5t52 65.5q12 32 23 45.5t26 13.5q39 0 33 -82q-6 -69 -6 -98q0 -104 4 -137q2 -24 -4 -40.5t-14 -22t-15 -5.5q-31 0 -49 52q-15 45 -31.5 63t-48.5 21q-84 6 -234 6q-8 0 -17 -19.5t-9 -32.5q0 -168 6 -303q3 -41 10.5 -71t14.5 -35
q46 -41 235 -41q102 0 156 16q39 11 67.5 38.5t65.5 82.5q38 63 50 73q10 7 21 7q21 0 26 -31.5t-3 -60.5q-13 -63 -63 -176q-8 -19 -32.5 -30t-35.5 -11h-39q-84 -72 -137 -155t-53 -148q0 -43 28.5 -65.5t73.5 -22.5q63 0 117 26q4 1 9 0t10 -8t5 -18t-8 -29.5t-12 -22.5
q-87 -100 -205 -100q-48 0 -84 18.5t-55 48t-28 59.5t-9 58q0 84 64.5 180t191.5 185q-140 4 -383 4q-70 0 -190.5 -5t-159.5 -5q-76 0 -76 24q0 40 67 56q98 23 127 46t33 81q8 73 8 209q0 617 -10 679q-4 44 -33 64.5t-96 36.5q-25 6 -40 19t-15 24q0 33 55 33
q5 0 100 -5.5t175 -5.5z" />
    <glyph glyph-name="eogonek" unicode="&#x119;" horiz-adv-x="878" 
d="M520 856q75 0 140.5 -32t101.5 -89q35 -53 35 -145q0 -17 -20.5 -39.5t-35.5 -22.5q-4 0 -211.5 -3t-228.5 -3q-5 0 -17.5 -7.5t-15.5 -14.5q-10 -17 -10 -64q0 -136 90.5 -228.5t222.5 -92.5q94 0 207 78q4 2 10 0.5t10.5 -9t4.5 -18.5q0 -34 -27 -64q-39 -41 -86 -69
q-93 -71 -157 -156.5t-64 -148.5q0 -43 30.5 -68t75.5 -25q44 0 117 27q6 4 15.5 -3t9.5 -21q0 -11 -8.5 -30.5t-12.5 -23.5q-87 -100 -204 -100q-48 0 -84.5 19t-56 48.5t-29 59.5t-9.5 57q0 149 205 309q-12 -2 -35 -2q-188 0 -294.5 116t-106.5 306q0 126 52.5 227
t146.5 162q106 70 239 70zM459 780q-44 0 -100.5 -47t-75.5 -117q-1 -6 4 -13t10 -7q40 -4 147 -4q37 0 61 2t53 8.5t43.5 22.5t14.5 41q0 49 -40 81.5t-117 32.5z" />
    <glyph glyph-name="Ecaron" unicode="&#x11a;" horiz-adv-x="1153" 
d="M410 1251h211q108 0 196 4.5t96 4.5q36 0 48 -19q9 -14 20.5 -94.5t11.5 -116.5q0 -15 -11.5 -32t-23.5 -17q-18 0 -35.5 23.5t-52.5 91.5q-13 26 -29.5 42.5t-26.5 20.5t-17 4q-69 0 -185.5 -2t-119.5 -2q-4 0 -12.5 -14.5t-10.5 -22.5q-8 -76 -8 -385q0 -16 7 -36.5
t19 -20.5h134q96 4 130 22.5t52 65.5q12 32 23 45.5t26 13.5q39 0 33 -82q-6 -69 -6 -98q0 -104 4 -137q2 -24 -4 -40.5t-14 -22t-15 -5.5q-31 0 -49 52q-15 45 -31.5 63t-48.5 21q-84 6 -234 6q-8 0 -17 -19.5t-9 -32.5q0 -168 6 -303q3 -41 10.5 -71t14.5 -35
q46 -41 235 -41q102 0 156 16q39 11 67.5 38.5t65.5 82.5q38 63 50 73q10 7 21 7q21 0 26 -31.5t-3 -60.5q-13 -63 -63 -176q-8 -19 -32.5 -30t-35.5 -11q-6 0 -148.5 5t-365.5 5q-70 0 -190.5 -5t-159.5 -5q-76 0 -76 24q0 40 67 56q98 23 127 46t33 81q8 73 8 209
q0 617 -10 679q-4 44 -33 64.5t-96 36.5q-25 6 -40 19t-15 24q0 33 55 33q5 0 100 -5.5t175 -5.5zM584 1341q-29 0 -97 58q-83 64 -198 166q-23 20 -29 40t4 32t31 12q19 0 76 -23q14 -7 65.5 -34t82 -43.5t54.5 -32.5q23 -9 41 0q96 62 193 108q34 21 74 21t31 -33
q-8 -26 -44 -58q-9 -7 -46.5 -39.5t-78 -66.5t-69.5 -55q-22 -18 -33 -26.5t-27.5 -17t-29.5 -8.5z" />
    <glyph glyph-name="ecaron" unicode="&#x11b;" horiz-adv-x="878" 
d="M520 856q75 0 140.5 -32t101.5 -91q35 -51 35 -143q0 -17 -20.5 -39.5t-35.5 -22.5q-4 0 -211.5 -3t-228.5 -3q-5 0 -17.5 -7.5t-15.5 -14.5q-10 -17 -10 -64q0 -136 90.5 -228.5t222.5 -92.5q94 0 207 78q4 2 10 0.5t10.5 -9t4.5 -18.5q0 -34 -27 -64
q-57 -60 -134 -93.5t-159 -33.5q-189 0 -295 116.5t-106 307.5q0 123 53 224.5t146 162.5q106 70 239 70zM459 782q-44 0 -100.5 -47.5t-75.5 -118.5q-1 -6 4 -13t8 -7q46 -4 149 -4q37 0 61 2t53 8.5t43.5 22.5t14.5 41q0 49 -40 82.5t-117 33.5zM498 954q-20 0 -36.5 18.5
t-43.5 63.5q-99 194 -127 256q-4 10 -6.5 21t-2.5 22.5t8 19t23 7.5q13 0 31.5 -15.5t26.5 -27.5l112 -156q15 -27 35 0q18 28 35.5 51t41 52.5t42.5 54.5q32 37 55 37q15 0 23.5 -16.5t-0.5 -45.5q-36 -96 -140 -268q-37 -56 -53 -66q-12 -8 -24 -8z" />
    <glyph glyph-name="Gcircumflex" unicode="&#x11c;" horiz-adv-x="1531" 
d="M854 1288q21 0 40 -0.5t39 -3t33 -3.5t34 -5t29.5 -5.5t31 -7t27 -7t29.5 -8t28 -7.5q24 -7 48.5 -9t39.5 -5q24 -5 32 -11.5t15 -29.5q55 -150 55 -240q0 -17 -8.5 -34t-26.5 -17q-31 0 -55 47q-36 76 -104 141q-58 55 -139.5 87t-165.5 32q-116 0 -212 -46t-158.5 -124
t-97 -180t-34.5 -215q0 -158 67.5 -290.5t194.5 -213t287 -80.5q125 0 178 41q15 11 35 54.5t20 93.5q0 161 -4 215q-3 24 -22 35.5t-74 21.5q-54 8 -70 21t-16 32q0 11 19.5 22t49.5 11q27 0 85.5 -3t93.5 -3q33 0 113 5t98 5q53 0 53 -39q0 -10 -16 -22t-44 -21
q-45 -16 -59 -33.5t-16 -42.5q-4 -47 -4 -159q0 -77 12 -158q4 -28 4 -37q0 -8 -10 -20t-19 -15q-18 -5 -67 -26t-101 -31q-169 -37 -266 -37q-212 0 -372.5 73.5t-250.5 194.5q-127 167 -127 404q0 152 66.5 278.5t189.5 219.5q92 70 224.5 112.5t267.5 42.5zM842 1673
q35 0 96 -55q64 -49 199 -166q34 -32 30.5 -56t-37.5 -24q-26 0 -73 21q-162 74 -205 100q-22 11 -41 0q-49 -19 -197 -94q-46 -23 -67 -23q-36 0 -34 27q2 31 46 67q110 95 193 154q60 49 90 49z" />
    <glyph glyph-name="gcircumflex" unicode="&#x11d;" horiz-adv-x="946" 
d="M424 856q68 0 170 -31q47 -14 76 -14q14 0 116.5 1t106.5 1q11 0 21 -30t10 -54q0 -9 -6 -17.5t-11.5 -13t-7.5 -4.5q-25 0 -93 6t-85 7q39 -66 39 -144q0 -139 -111 -233q-46 -38 -117.5 -60t-140.5 -22q-6 0 -27.5 1t-27.5 1q-14 0 -31 -10q-15 -8 -31 -29.5t-16 -34.5
q0 -26 18.5 -43.5t34.5 -22t25 -4.5q69 0 189.5 -4t144.5 -4q86 0 157 -59q33 -27 56.5 -75.5t23.5 -96.5q0 -90 -52.5 -168.5t-125.5 -124.5q-74 -44 -154 -69t-192 -25q-54 0 -113.5 14t-119 42.5t-98 82t-38.5 123.5q0 25 14 60.5t29 45.5q90 68 127 101q6 3 7.5 11
t-3.5 9q-33 8 -59 29q-59 51 -59 139q0 18 10 21q33 15 81.5 50t63.5 54q11 15 0 19q-153 97 -153 254q0 79 27.5 134t86.5 107q35 28 107.5 54t130.5 26zM395 776q-71 0 -110 -61.5t-39 -139.5q0 -123 60 -183t136 -60q32 0 64 14.5t43 28.5q16 22 31.5 70.5t15.5 107.5
q0 40 -11 77.5t-34 71t-63 54t-93 20.5zM477 -416q38 0 90 11t84 32q106 63 103 170q-1 64 -43.5 99t-104.5 45q-74 12 -176 12t-164 -31q-86 -52 -86 -135q0 -67 45.5 -114.5t110.5 -68t141 -20.5zM432 1341q12 0 33.5 -24t44.5 -64q8 -16 56 -104t75 -145q6 -13 7.5 -28.5
t-5 -28.5t-22.5 -13q-13 0 -32 15t-30 28q-24 34 -66.5 89t-58.5 77q-6 10 -16 0q-25 -35 -66 -91.5t-57 -78.5q-29 -35 -57 -35q-15 0 -21.5 22t2.5 44q57 128 137 264q47 73 76 73z" />
    <glyph glyph-name="Gbreve" unicode="&#x11e;" horiz-adv-x="1531" 
d="M854 1288q21 0 40 -0.5t39 -3t33 -3.5t34 -5t29.5 -5.5t31 -7t27 -7t29.5 -8t28 -7.5q24 -7 48.5 -9t39.5 -5q24 -5 32 -11.5t15 -29.5q55 -150 55 -240q0 -17 -8.5 -34t-26.5 -17q-31 0 -55 47q-36 76 -104 141q-58 55 -139.5 87t-165.5 32q-116 0 -212 -46t-158.5 -124
t-97 -180t-34.5 -215q0 -158 67.5 -290.5t194.5 -213t287 -80.5q125 0 178 41q15 11 35 54.5t20 93.5q0 161 -4 215q-3 24 -22 35.5t-74 21.5q-54 8 -70 21t-16 32q0 11 19.5 22t49.5 11q27 0 85.5 -3t93.5 -3q33 0 113 5t98 5q53 0 53 -39q0 -10 -16 -22t-44 -21
q-45 -16 -59 -33.5t-16 -42.5q-4 -47 -4 -159q0 -77 12 -158q4 -28 4 -37q0 -8 -10 -20t-19 -15q-18 -5 -67 -26t-101 -31q-169 -37 -266 -37q-212 0 -372.5 73.5t-250.5 194.5q-127 167 -127 404q0 152 66.5 278.5t189.5 219.5q92 70 224.5 112.5t267.5 42.5zM815 1389
q-114 0 -197 69t-83 191q0 14 10.5 31.5t32.5 17.5q12 0 26.5 -12.5t22.5 -28.5q19 -57 73.5 -91t135.5 -34q152 0 204 119q20 39 47 39q13 0 23 -10t10 -29q0 -27 -7.5 -57.5t-29 -68t-53.5 -67t-88 -49.5t-127 -20z" />
    <glyph glyph-name="gbreve" unicode="&#x11f;" horiz-adv-x="946" 
d="M424 856q68 0 170 -31q47 -14 76 -14q14 0 116.5 1t106.5 1q11 0 21 -30t10 -54q0 -9 -6 -17.5t-11.5 -13t-7.5 -4.5q-25 0 -93 6t-85 7q39 -66 39 -144q0 -139 -111 -233q-46 -38 -117.5 -60t-140.5 -22q-6 0 -27.5 1t-27.5 1q-14 0 -31 -10q-15 -8 -31 -29.5t-16 -34.5
q0 -26 18.5 -43.5t34.5 -22t25 -4.5q69 0 189.5 -4t144.5 -4q86 0 157 -59q33 -27 56.5 -75.5t23.5 -96.5q0 -90 -52.5 -168.5t-125.5 -124.5q-74 -44 -154 -69t-192 -25q-54 0 -113.5 14t-119 42.5t-98 82t-38.5 123.5q0 25 14 60.5t29 45.5q90 68 127 101q6 3 7.5 11
t-3.5 9q-33 8 -59 29q-59 51 -59 139q0 18 10 21q33 15 81.5 50t63.5 54q11 15 0 19q-153 97 -153 254q0 79 27.5 134t86.5 107q35 28 107.5 54t130.5 26zM395 776q-71 0 -110 -61.5t-39 -139.5q0 -123 60 -183t136 -60q32 0 64 14.5t43 28.5q16 22 31.5 70.5t15.5 107.5
q0 40 -11 77.5t-34 71t-63 54t-93 20.5zM477 -416q38 0 90 11t84 32q106 63 103 170q-1 64 -43.5 99t-104.5 45q-74 12 -176 12t-164 -31q-86 -52 -86 -135q0 -67 45.5 -114.5t110.5 -68t141 -20.5zM428 993q-88 0 -150.5 59t-68.5 181q-2 26 9 44.5t28 18.5q31 0 45 -53
q24 -61 56.5 -85.5t94.5 -24.5q105 0 154 112q8 19 20.5 33t22.5 14q34 0 31 -53q-10 -120 -78.5 -183t-163.5 -63z" />
    <glyph glyph-name="Gdotaccent" unicode="&#x120;" horiz-adv-x="1531" 
d="M854 1288q21 0 40 -0.5t39 -3t33 -3.5t34 -5t29.5 -5.5t31 -7t27 -7t29.5 -8t28 -7.5q24 -7 48.5 -9t39.5 -5q24 -5 32 -11.5t15 -29.5q55 -150 55 -240q0 -17 -8.5 -34t-26.5 -17q-31 0 -55 47q-36 76 -104 141q-58 55 -139.5 87t-165.5 32q-116 0 -212 -46t-158.5 -124
t-97 -180t-34.5 -215q0 -158 67.5 -290.5t194.5 -213t287 -80.5q125 0 178 41q15 11 35 54.5t20 93.5q0 161 -4 215q-3 24 -22 35.5t-74 21.5q-54 8 -70 21t-16 32q0 11 19.5 22t49.5 11q27 0 85.5 -3t93.5 -3q33 0 113 5t98 5q53 0 53 -39q0 -10 -16 -22t-44 -21
q-45 -16 -59 -33.5t-16 -42.5q-4 -47 -4 -159q0 -77 12 -158q4 -28 4 -37q0 -8 -10 -20t-19 -15q-18 -5 -67 -26t-101 -31q-169 -37 -266 -37q-212 0 -372.5 73.5t-250.5 194.5q-127 167 -127 404q0 152 66.5 278.5t189.5 219.5q92 70 224.5 112.5t267.5 42.5zM852 1651
q56 0 88.5 -46.5t32.5 -80.5q0 -65 -43 -100t-84 -35q-47 0 -86 34t-39 95q0 58 38 95.5t93 37.5z" />
    <glyph glyph-name="gdotaccent" unicode="&#x121;" horiz-adv-x="946" 
d="M424 856q68 0 170 -31q47 -14 76 -14q14 0 116.5 1t106.5 1q11 0 21 -30t10 -54q0 -9 -6 -17.5t-11.5 -13t-7.5 -4.5q-25 0 -93 6t-85 7q39 -66 39 -144q0 -139 -111 -233q-46 -38 -117.5 -60t-140.5 -22q-6 0 -27.5 1t-27.5 1q-14 0 -31 -10q-15 -8 -31 -29.5t-16 -34.5
q0 -26 18.5 -43.5t34.5 -22t25 -4.5q69 0 189.5 -4t144.5 -4q86 0 157 -59q33 -27 56.5 -75.5t23.5 -96.5q0 -90 -52.5 -168.5t-125.5 -124.5q-74 -44 -154 -69t-192 -25q-54 0 -113.5 14t-119 42.5t-98 82t-38.5 123.5q0 25 14 60.5t29 45.5q90 68 127 101q6 3 7.5 11
t-3.5 9q-33 8 -59 29q-59 51 -59 139q0 18 10 21q33 15 81.5 50t63.5 54q11 15 0 19q-153 97 -153 254q0 79 27.5 134t86.5 107q35 28 107.5 54t130.5 26zM395 776q-71 0 -110 -61.5t-39 -139.5q0 -123 60 -183t136 -60q32 0 64 14.5t43 28.5q16 22 31.5 70.5t15.5 107.5
q0 40 -11 77.5t-34 71t-63 54t-93 20.5zM477 -416q38 0 90 11t84 32q106 63 103 170q-1 64 -43.5 99t-104.5 45q-74 12 -176 12t-164 -31q-86 -52 -86 -135q0 -67 45.5 -114.5t110.5 -68t141 -20.5zM444 1280q36 0 60.5 -23t31.5 -46t7 -40q0 -56 -36.5 -86t-72.5 -30
q-40 0 -74 29.5t-34 80.5t32 83t86 32z" />
    </font>
</defs>
</svg>
