<svg xmlns="http://www.w3.org/2000/svg" width="98" height="74.2" viewBox="0 0 98 74.2"><path d="M26.95 74.2c8.05 0 16.1-6.3 16.1-14 0-9.1-5.25-9.8-8.4-10.5C24.5 46.55 18.9 44.8 18.9 33.95c0-9.45 9.8-18.55 21-25.2 2.45-1.05 5.25-3.15 5.25-5.6 0-2.8-3.5-3.15-5.6-3.15C34.3 0 0 13.3 0 42.7c0 16.8 8.75 31.5 26.95 31.5Zm52.85 0c8.05 0 16.45-6.3 16.45-14 0-9.1-5.95-9.8-9.1-10.5-9.8-3.15-15.4-4.9-15.4-15.75 0-9.45 9.1-18.55 20.65-25.2C95.2 7.7 98 5.6 98 3.15 98 .35 94.5 0 92.05 0 86.45 0 52.5 11.9 52.5 41.65c0 17.15 9.1 32.55 27.3 32.55Z" fill="#707070" opacity=".2"/></svg>